<svg width="554" height="361" viewBox="0 0 554 361" fill="none" xmlns="http://www.w3.org/2000/svg">
<g filter="url(#filter0_bd_214_610)">
<mask id="path-1-inside-1_214_610" fill="white">
<path fill-rule="evenodd" clip-rule="evenodd" d="M256.51 189.936C256.669 189.938 256.828 189.939 256.987 189.939C279.638 189.939 298 171.412 298 148.558C298 125.704 279.638 107.177 256.987 107.177C256.828 107.177 256.669 107.178 256.51 107.179V107.177H245.915C246.298 104.345 246.496 101.453 246.496 98.5155C246.496 63.4369 218.312 35 183.546 35C148.78 35 120.597 63.4369 120.597 98.5155C120.597 101.825 120.848 105.076 121.331 108.249C118.338 107.548 115.218 107.177 112.013 107.177C89.362 107.177 71 125.704 71 148.558C71 171.412 89.362 189.939 112.013 189.939C112.172 189.939 112.332 189.938 112.492 189.936L112.489 189.939H256.51V189.936Z"/>
</mask>
<path fill-rule="evenodd" clip-rule="evenodd" d="M256.51 189.936C256.669 189.938 256.828 189.939 256.987 189.939C279.638 189.939 298 171.412 298 148.558C298 125.704 279.638 107.177 256.987 107.177C256.828 107.177 256.669 107.178 256.51 107.179V107.177H245.915C246.298 104.345 246.496 101.453 246.496 98.5155C246.496 63.4369 218.312 35 183.546 35C148.78 35 120.597 63.4369 120.597 98.5155C120.597 101.825 120.848 105.076 121.331 108.249C118.338 107.548 115.218 107.177 112.013 107.177C89.362 107.177 71 125.704 71 148.558C71 171.412 89.362 189.939 112.013 189.939C112.172 189.939 112.332 189.938 112.492 189.936L112.489 189.939H256.51V189.936Z" fill="url(#paint0_linear_214_610)" shape-rendering="crispEdges"/>
<path d="M256.51 189.936L256.534 187.937C255.999 187.93 255.484 188.138 255.104 188.514C254.724 188.89 254.51 189.402 254.51 189.936H256.51ZM256.51 107.179H254.51C254.51 107.714 254.724 108.226 255.104 108.602C255.484 108.977 255.999 109.185 256.533 109.179L256.51 107.179ZM256.51 107.177H258.51C258.51 106.072 257.615 105.177 256.51 105.177V107.177ZM245.915 107.177L243.934 106.909C243.856 107.481 244.03 108.058 244.41 108.493C244.789 108.927 245.338 109.177 245.915 109.177V107.177ZM121.331 108.249L120.875 110.197C121.521 110.348 122.201 110.169 122.689 109.718C123.176 109.268 123.408 108.605 123.308 107.948L121.331 108.249ZM112.492 189.936L114.067 191.168C114.541 190.562 114.625 189.739 114.284 189.05C113.943 188.36 113.237 187.928 112.468 187.937L112.492 189.936ZM112.489 189.939L110.914 188.707C110.443 189.31 110.357 190.128 110.692 190.816C111.027 191.503 111.725 191.939 112.489 191.939V189.939ZM256.51 189.939V191.939C257.615 191.939 258.51 191.044 258.51 189.939H256.51ZM256.487 191.936C256.654 191.938 256.82 191.939 256.987 191.939V187.939C256.836 187.939 256.685 187.938 256.534 187.937L256.487 191.936ZM256.987 191.939C280.759 191.939 300 172.5 300 148.558H296C296 170.325 278.517 187.939 256.987 187.939V191.939ZM300 148.558C300 124.616 280.759 105.177 256.987 105.177V109.177C278.517 109.177 296 126.791 296 148.558H300ZM256.987 105.177C256.82 105.177 256.654 105.178 256.487 105.179L256.533 109.179C256.685 109.177 256.836 109.177 256.987 109.177V105.177ZM254.51 107.177V107.179H258.51V107.177H254.51ZM245.915 109.177H256.51V105.177H245.915V109.177ZM247.897 107.444C248.292 104.524 248.496 101.543 248.496 98.5155H244.496C244.496 101.364 244.304 104.165 243.934 106.909L247.897 107.444ZM248.496 98.5155C248.496 62.3492 219.434 33 183.546 33V37C217.191 37 244.496 64.5245 244.496 98.5155H248.496ZM183.546 33C147.659 33 118.597 62.3492 118.597 98.5155H122.597C122.597 64.5245 149.902 37 183.546 37V33ZM118.597 98.5155C118.597 101.927 118.855 105.278 119.354 108.551L123.308 107.948C122.84 104.874 122.597 101.724 122.597 98.5155H118.597ZM121.788 106.302C118.646 105.566 115.373 105.177 112.013 105.177V109.177C115.063 109.177 118.03 109.53 120.875 110.197L121.788 106.302ZM112.013 105.177C88.2406 105.177 69 124.616 69 148.558H73C73 126.791 90.4834 109.177 112.013 109.177V105.177ZM69 148.558C69 172.5 88.2406 191.939 112.013 191.939V187.939C90.4834 187.939 73 170.325 73 148.558H69ZM112.013 191.939C112.18 191.939 112.347 191.938 112.515 191.936L112.468 187.937C112.317 187.938 112.165 187.939 112.013 187.939V191.939ZM114.065 191.171L114.067 191.168L110.916 188.705L110.914 188.707L114.065 191.171ZM256.51 187.939H112.489V191.939H256.51V187.939ZM254.51 189.936V189.939H258.51V189.936H254.51Z" fill="url(#paint1_linear_214_610)" mask="url(#path-1-inside-1_214_610)"/>
</g>
<g filter="url(#filter1_bd_214_610)">
<mask id="path-3-inside-2_214_610" fill="white">
<path fill-rule="evenodd" clip-rule="evenodd" d="M380.486 295.996C380.706 295.999 380.926 296 381.146 296C412.488 296 437.896 270.364 437.896 238.74C437.896 207.116 412.488 181.48 381.146 181.48C380.926 181.48 380.706 181.481 380.486 181.483V181.48H365.825C366.355 177.561 366.628 173.56 366.628 169.495C366.628 120.956 327.63 81.607 279.524 81.607C231.417 81.607 192.419 120.956 192.419 169.495C192.419 174.075 192.766 178.573 193.436 182.964C189.293 181.993 184.976 181.48 180.541 181.48C149.199 181.48 123.791 207.116 123.791 238.74C123.791 270.364 149.199 296 180.541 296C180.762 296 180.983 295.999 181.204 295.996L181.201 296H380.486V295.996Z"/>
</mask>
<path fill-rule="evenodd" clip-rule="evenodd" d="M380.486 295.996C380.706 295.999 380.926 296 381.146 296C412.488 296 437.896 270.364 437.896 238.74C437.896 207.116 412.488 181.48 381.146 181.48C380.926 181.48 380.706 181.481 380.486 181.483V181.48H365.825C366.355 177.561 366.628 173.56 366.628 169.495C366.628 120.956 327.63 81.607 279.524 81.607C231.417 81.607 192.419 120.956 192.419 169.495C192.419 174.075 192.766 178.573 193.436 182.964C189.293 181.993 184.976 181.48 180.541 181.48C149.199 181.48 123.791 207.116 123.791 238.74C123.791 270.364 149.199 296 180.541 296C180.762 296 180.983 295.999 181.204 295.996L181.201 296H380.486V295.996Z" fill="url(#paint2_linear_214_610)" shape-rendering="crispEdges"/>
<path d="M380.486 295.996L380.509 293.996C379.975 293.99 379.46 294.198 379.08 294.574C378.7 294.95 378.486 295.462 378.486 295.996H380.486ZM380.486 181.483H378.486C378.486 182.018 378.7 182.53 379.08 182.906C379.46 183.281 379.974 183.489 380.509 183.483L380.486 181.483ZM380.486 181.48H382.486C382.486 180.375 381.59 179.48 380.486 179.48V181.48ZM365.825 181.48L363.843 181.212C363.766 181.784 363.94 182.361 364.319 182.796C364.699 183.23 365.248 183.48 365.825 183.48V181.48ZM193.436 182.964L192.979 184.911C193.626 185.063 194.305 184.884 194.793 184.433C195.281 183.983 195.513 183.319 195.413 182.663L193.436 182.964ZM181.204 295.996L182.78 297.227C183.253 296.621 183.337 295.798 182.996 295.109C182.655 294.42 181.95 293.987 181.181 293.996L181.204 295.996ZM181.201 296L179.625 294.769C179.154 295.372 179.068 296.19 179.403 296.877C179.739 297.564 180.436 298 181.201 298V296ZM380.486 296V298C381.59 298 382.486 297.105 382.486 296H380.486ZM380.463 297.996C380.69 297.999 380.918 298 381.146 298V294C380.933 294 380.721 293.999 380.509 293.996L380.463 297.996ZM381.146 298C413.61 298 439.896 271.451 439.896 238.74H435.896C435.896 269.276 411.367 294 381.146 294V298ZM439.896 238.74C439.896 206.028 413.61 179.48 381.146 179.48V183.48C411.367 183.48 435.896 208.204 435.896 238.74H439.896ZM381.146 179.48C380.918 179.48 380.69 179.481 380.463 179.484L380.509 183.483C380.721 183.481 380.933 183.48 381.146 183.48V179.48ZM378.486 181.48V181.483H382.486V181.48H378.486ZM365.825 183.48H380.486V179.48H365.825V183.48ZM367.807 181.747C368.349 177.74 368.628 173.65 368.628 169.495H364.628C364.628 173.47 364.361 177.382 363.843 181.212L367.807 181.747ZM368.628 169.495C368.628 119.868 328.752 79.607 279.524 79.607V83.607C326.509 83.607 364.628 122.043 364.628 169.495H368.628ZM279.524 79.607C230.296 79.607 190.419 119.868 190.419 169.495H194.419C194.419 122.043 232.539 83.607 279.524 83.607V79.607ZM190.419 169.495C190.419 174.176 190.774 178.775 191.458 183.266L195.413 182.663C194.759 178.371 194.419 173.974 194.419 169.495H190.419ZM193.892 181.017C189.601 180.011 185.131 179.48 180.541 179.48V183.48C184.822 183.48 188.985 183.975 192.979 184.911L193.892 181.017ZM180.541 179.48C148.077 179.48 121.791 206.028 121.791 238.74H125.791C125.791 208.204 150.32 183.48 180.541 183.48V179.48ZM121.791 238.74C121.791 271.451 148.077 298 180.541 298V294C150.32 294 125.791 269.276 125.791 238.74H121.791ZM180.541 298C180.77 298 180.999 297.999 181.227 297.996L181.181 293.996C180.968 293.999 180.755 294 180.541 294V298ZM182.777 297.231L182.78 297.227L179.628 294.765L179.625 294.769L182.777 297.231ZM380.486 294H181.201V298H380.486V294ZM378.486 295.996V296H382.486V295.996H378.486Z" fill="url(#paint3_linear_214_610)" mask="url(#path-3-inside-2_214_610)"/>
</g>
<g filter="url(#filter2_bd_214_610)">
<mask id="path-5-inside-3_214_610" fill="white">
<path fill-rule="evenodd" clip-rule="evenodd" d="M483.511 236.544C483.669 236.546 483.828 236.547 483.987 236.547C506.638 236.547 525 218.02 525 195.165C525 172.311 506.638 153.784 483.987 153.784C483.828 153.784 483.669 153.785 483.511 153.787V153.784H472.915C473.298 150.952 473.496 148.061 473.496 145.123C473.496 110.044 445.312 81.607 410.546 81.607C375.78 81.607 347.597 110.044 347.597 145.123C347.597 148.433 347.848 151.683 348.331 154.857C345.338 154.155 342.218 153.784 339.013 153.784C316.362 153.784 298 172.311 298 195.165C298 218.02 316.362 236.547 339.013 236.547C339.173 236.547 339.332 236.546 339.492 236.544L339.49 236.547H483.511V236.544Z"/>
</mask>
<path fill-rule="evenodd" clip-rule="evenodd" d="M483.511 236.544C483.669 236.546 483.828 236.547 483.987 236.547C506.638 236.547 525 218.02 525 195.165C525 172.311 506.638 153.784 483.987 153.784C483.828 153.784 483.669 153.785 483.511 153.787V153.784H472.915C473.298 150.952 473.496 148.061 473.496 145.123C473.496 110.044 445.312 81.607 410.546 81.607C375.78 81.607 347.597 110.044 347.597 145.123C347.597 148.433 347.848 151.683 348.331 154.857C345.338 154.155 342.218 153.784 339.013 153.784C316.362 153.784 298 172.311 298 195.165C298 218.02 316.362 236.547 339.013 236.547C339.173 236.547 339.332 236.546 339.492 236.544L339.49 236.547H483.511V236.544Z" fill="url(#paint4_linear_214_610)" shape-rendering="crispEdges"/>
<path d="M483.511 236.544L483.534 234.544C482.999 234.538 482.485 234.746 482.105 235.122C481.725 235.497 481.511 236.009 481.511 236.544H483.511ZM483.511 153.787H481.511C481.511 154.321 481.725 154.833 482.105 155.209C482.485 155.585 482.999 155.793 483.534 155.787L483.511 153.787ZM483.511 153.784H485.511C485.511 152.679 484.615 151.784 483.511 151.784V153.784ZM472.915 153.784L470.933 153.516C470.856 154.088 471.03 154.665 471.409 155.1C471.789 155.535 472.338 155.784 472.915 155.784V153.784ZM348.331 154.857L347.875 156.804C348.521 156.956 349.201 156.776 349.689 156.326C350.176 155.875 350.409 155.212 350.308 154.555L348.331 154.857ZM339.492 236.544L341.066 237.777C341.541 237.171 341.626 236.347 341.285 235.658C340.944 234.968 340.238 234.535 339.469 234.544L339.492 236.544ZM339.49 236.547L337.915 235.313C337.443 235.916 337.357 236.734 337.692 237.422C338.027 238.11 338.725 238.547 339.49 238.547V236.547ZM483.511 236.547V238.547C484.615 238.547 485.511 237.651 485.511 236.547H483.511ZM483.488 238.544C483.654 238.546 483.821 238.547 483.987 238.547V234.547C483.836 234.547 483.685 234.546 483.534 234.544L483.488 238.544ZM483.987 238.547C507.759 238.547 527 219.107 527 195.165H523C523 216.932 505.517 234.547 483.987 234.547V238.547ZM527 195.165C527 171.223 507.759 151.784 483.987 151.784V155.784C505.517 155.784 523 173.399 523 195.165H527ZM483.987 151.784C483.821 151.784 483.654 151.785 483.488 151.787L483.534 155.787C483.685 155.785 483.836 155.784 483.987 155.784V151.784ZM481.511 153.784V153.787H485.511V153.784H481.511ZM472.915 155.784H483.511V151.784H472.915V155.784ZM474.897 154.052C475.292 151.131 475.496 148.15 475.496 145.123H471.496C471.496 147.971 471.304 150.773 470.933 153.516L474.897 154.052ZM475.496 145.123C475.496 108.956 446.434 79.607 410.546 79.607V83.607C444.191 83.607 471.496 111.132 471.496 145.123H475.496ZM410.546 79.607C374.659 79.607 345.597 108.956 345.597 145.123H349.597C349.597 111.132 376.902 83.607 410.546 83.607V79.607ZM345.597 145.123C345.597 148.534 345.855 151.885 346.354 155.158L350.308 154.555C349.84 151.481 349.597 148.331 349.597 145.123H345.597ZM348.788 152.91C345.646 152.173 342.373 151.784 339.013 151.784V155.784C342.063 155.784 345.03 156.137 347.875 156.804L348.788 152.91ZM339.013 151.784C315.241 151.784 296 171.223 296 195.165H300C300 173.399 317.483 155.784 339.013 155.784V151.784ZM296 195.165C296 219.107 315.241 238.547 339.013 238.547V234.547C317.483 234.547 300 216.932 300 195.165H296ZM339.013 238.547C339.18 238.547 339.348 238.546 339.515 238.544L339.469 234.544C339.317 234.546 339.165 234.547 339.013 234.547V238.547ZM341.064 237.78L341.066 237.777L337.917 235.311L337.915 235.313L341.064 237.78ZM483.511 234.547H339.49V238.547H483.511V234.547ZM481.511 236.544V236.547H485.511V236.544H481.511Z" fill="url(#paint5_linear_214_610)" mask="url(#path-5-inside-3_214_610)"/>
</g>
<defs>
<filter id="filter0_bd_214_610" x="0" y="0" width="327" height="254.939" filterUnits="userSpaceOnUse" color-interpolation-filters="sRGB">
<feFlood flood-opacity="0" result="BackgroundImageFix"/>
<feGaussianBlur in="BackgroundImageFix" stdDeviation="7"/>
<feComposite in2="SourceAlpha" operator="in" result="effect1_backgroundBlur_214_610"/>
<feColorMatrix in="SourceAlpha" type="matrix" values="0 0 0 0 0 0 0 0 0 0 0 0 0 0 0 0 0 0 127 0" result="hardAlpha"/>
<feOffset dx="-21" dy="15"/>
<feGaussianBlur stdDeviation="25"/>
<feComposite in2="hardAlpha" operator="out"/>
<feColorMatrix type="matrix" values="0 0 0 0 0.113438 0 0 0 0 0.148981 0 0 0 0 0.275 0 0 0 0.25 0"/>
<feBlend mode="normal" in2="effect1_backgroundBlur_214_610" result="effect2_dropShadow_214_610"/>
<feBlend mode="normal" in="SourceGraphic" in2="effect2_dropShadow_214_610" result="shape"/>
</filter>
<filter id="filter1_bd_214_610" x="52.791" y="46.607" width="414.105" height="314.393" filterUnits="userSpaceOnUse" color-interpolation-filters="sRGB">
<feFlood flood-opacity="0" result="BackgroundImageFix"/>
<feGaussianBlur in="BackgroundImageFix" stdDeviation="7"/>
<feComposite in2="SourceAlpha" operator="in" result="effect1_backgroundBlur_214_610"/>
<feColorMatrix in="SourceAlpha" type="matrix" values="0 0 0 0 0 0 0 0 0 0 0 0 0 0 0 0 0 0 127 0" result="hardAlpha"/>
<feOffset dx="-21" dy="15"/>
<feGaussianBlur stdDeviation="25"/>
<feComposite in2="hardAlpha" operator="out"/>
<feColorMatrix type="matrix" values="0 0 0 0 0.113725 0 0 0 0 0.14902 0 0 0 0 0.27451 0 0 0 0.25 0"/>
<feBlend mode="normal" in2="effect1_backgroundBlur_214_610" result="effect2_dropShadow_214_610"/>
<feBlend mode="normal" in="SourceGraphic" in2="effect2_dropShadow_214_610" result="shape"/>
</filter>
<filter id="filter2_bd_214_610" x="227" y="46.607" width="327" height="254.94" filterUnits="userSpaceOnUse" color-interpolation-filters="sRGB">
<feFlood flood-opacity="0" result="BackgroundImageFix"/>
<feGaussianBlur in="BackgroundImageFix" stdDeviation="7"/>
<feComposite in2="SourceAlpha" operator="in" result="effect1_backgroundBlur_214_610"/>
<feColorMatrix in="SourceAlpha" type="matrix" values="0 0 0 0 0 0 0 0 0 0 0 0 0 0 0 0 0 0 127 0" result="hardAlpha"/>
<feOffset dx="-21" dy="15"/>
<feGaussianBlur stdDeviation="25"/>
<feComposite in2="hardAlpha" operator="out"/>
<feColorMatrix type="matrix" values="0 0 0 0 0.113438 0 0 0 0 0.148981 0 0 0 0 0.275 0 0 0 0.25 0"/>
<feBlend mode="normal" in2="effect1_backgroundBlur_214_610" result="effect2_dropShadow_214_610"/>
<feBlend mode="normal" in="SourceGraphic" in2="effect2_dropShadow_214_610" result="shape"/>
</filter>
<linearGradient id="paint0_linear_214_610" x1="195.058" y1="39.6607" x2="195.058" y2="207.446" gradientUnits="userSpaceOnUse">
<stop stop-color="white"/>
<stop offset="1" stop-color="white" stop-opacity="0"/>
</linearGradient>
<linearGradient id="paint1_linear_214_610" x1="184.5" y1="35" x2="184.5" y2="189.939" gradientUnits="userSpaceOnUse">
<stop stop-color="white"/>
<stop offset="1" stop-color="white" stop-opacity="0"/>
</linearGradient>
<linearGradient id="paint2_linear_214_610" x1="280.844" y1="13.0279" x2="280.844" y2="325.962" gradientUnits="userSpaceOnUse">
<stop stop-color="white"/>
<stop offset="1" stop-color="white" stop-opacity="0"/>
</linearGradient>
<linearGradient id="paint3_linear_214_610" x1="280.844" y1="81.607" x2="280.844" y2="296" gradientUnits="userSpaceOnUse">
<stop stop-color="white"/>
<stop offset="1" stop-color="white" stop-opacity="0"/>
</linearGradient>
<linearGradient id="paint4_linear_214_610" x1="422.058" y1="86.2677" x2="422.058" y2="254.054" gradientUnits="userSpaceOnUse">
<stop stop-color="white"/>
<stop offset="1" stop-color="white" stop-opacity="0"/>
</linearGradient>
<linearGradient id="paint5_linear_214_610" x1="411.5" y1="81.607" x2="411.5" y2="236.547" gradientUnits="userSpaceOnUse">
<stop stop-color="white"/>
<stop offset="1" stop-color="white" stop-opacity="0"/>
</linearGradient>
</defs>
</svg>
