<svg width="366" height="354" viewBox="0 0 366 354" fill="none" xmlns="http://www.w3.org/2000/svg">
<g filter="url(#filter0_bdd_214_615)">
<path d="M138.23 209.42L179.807 132.875C180.157 132.231 180.831 131.83 181.565 131.83H222.141C223.642 131.83 224.608 133.422 223.915 134.753L198.085 184.363C197.391 185.695 198.358 187.287 199.859 187.287H231.045C232.771 187.287 233.686 189.326 232.539 190.616L145.89 288.042C144.42 289.695 141.75 288.091 142.521 286.017L168.873 215.071C169.359 213.764 168.392 212.374 166.999 212.374H139.987C138.471 212.374 137.506 210.752 138.23 209.42Z" fill="url(#paint0_linear_214_615)"/>
<path d="M139.109 209.897L180.686 133.352C180.861 133.03 181.198 132.83 181.565 132.83H222.141C222.892 132.83 223.375 133.626 223.028 134.292L197.198 183.901C196.158 185.898 197.607 188.287 199.859 188.287H231.045C231.908 188.287 232.365 189.306 231.792 189.951L145.143 287.378C144.408 288.204 143.073 287.402 143.458 286.365L169.811 215.419C170.539 213.459 169.089 211.374 166.999 211.374H139.987C139.229 211.374 138.747 210.563 139.109 209.897Z" stroke="url(#paint1_linear_214_615)" stroke-width="2"/>
</g>
<g filter="url(#filter1_bd_214_615)">
<mask id="path-3-inside-1_214_615" fill="white">
<path fill-rule="evenodd" clip-rule="evenodd" d="M241.188 176.721C241.333 176.723 241.479 176.723 241.625 176.723C262.405 176.723 279.25 159.777 279.25 138.872C279.25 117.967 262.405 101.02 241.625 101.02C241.479 101.02 241.333 101.021 241.188 101.023V101.02H231.468C231.819 98.4298 232 95.7851 232 93.0978C232 61.0113 206.145 35 174.25 35C142.356 35 116.5 61.0113 116.5 93.0978C116.5 96.1254 116.73 99.0989 117.174 102.002C114.428 101.36 111.566 101.02 108.625 101.02C87.8453 101.02 71 117.967 71 138.872C71 159.777 87.8453 176.723 108.625 176.723C108.772 176.723 108.918 176.723 109.065 176.721L109.063 176.723H241.188V176.721Z"/>
</mask>
<path fill-rule="evenodd" clip-rule="evenodd" d="M241.188 176.721C241.333 176.723 241.479 176.723 241.625 176.723C262.405 176.723 279.25 159.777 279.25 138.872C279.25 117.967 262.405 101.02 241.625 101.02C241.479 101.02 241.333 101.021 241.188 101.023V101.02H231.468C231.819 98.4298 232 95.7851 232 93.0978C232 61.0113 206.145 35 174.25 35C142.356 35 116.5 61.0113 116.5 93.0978C116.5 96.1254 116.73 99.0989 117.174 102.002C114.428 101.36 111.566 101.02 108.625 101.02C87.8453 101.02 71 117.967 71 138.872C71 159.777 87.8453 176.723 108.625 176.723C108.772 176.723 108.918 176.723 109.065 176.721L109.063 176.723H241.188V176.721Z" fill="url(#paint2_linear_214_615)" shape-rendering="crispEdges"/>
<path d="M241.188 176.721L241.21 174.721C240.676 174.715 240.162 174.923 239.781 175.299C239.401 175.674 239.188 176.187 239.188 176.721H241.188ZM241.188 101.023H239.188C239.188 101.557 239.401 102.069 239.782 102.445C240.162 102.821 240.676 103.029 241.211 103.023L241.188 101.023ZM241.188 101.02H243.188C243.188 99.9156 242.292 99.0202 241.188 99.0202V101.02ZM231.468 101.02L229.486 100.752C229.408 101.324 229.582 101.901 229.961 102.336C230.341 102.771 230.89 103.02 231.468 103.02V101.02ZM117.174 102.002L116.719 103.949C117.365 104.1 118.045 103.921 118.532 103.47C119.019 103.019 119.251 102.356 119.151 101.699L117.174 102.002ZM109.065 176.721L110.639 177.954C111.113 177.348 111.198 176.524 110.858 175.835C110.517 175.145 109.811 174.712 109.042 174.721L109.065 176.721ZM109.063 176.723L107.488 175.49C107.016 176.093 106.93 176.911 107.265 177.599C107.6 178.287 108.298 178.723 109.063 178.723V176.723ZM241.188 176.723V178.723C242.292 178.723 243.188 177.828 243.188 176.723H241.188ZM241.165 178.721C241.318 178.723 241.471 178.723 241.625 178.723V174.723C241.487 174.723 241.349 174.723 241.21 174.721L241.165 178.721ZM241.625 178.723C263.521 178.723 281.25 160.87 281.25 138.872H277.25C277.25 158.683 261.289 174.723 241.625 174.723V178.723ZM281.25 138.872C281.25 116.874 263.521 99.0202 241.625 99.0202V103.02C261.289 103.02 277.25 119.06 277.25 138.872H281.25ZM241.625 99.0202C241.471 99.0202 241.318 99.0211 241.165 99.0229L241.211 103.023C241.349 103.021 241.487 103.02 241.625 103.02V99.0202ZM239.188 101.02V101.023H243.188V101.02H239.188ZM231.468 103.02H241.188V99.0202H231.468V103.02ZM233.45 101.289C233.813 98.6097 234 95.8752 234 93.0978H230C230 95.695 229.825 98.25 229.486 100.752L233.45 101.289ZM234 93.0978C234 59.918 207.26 33 174.25 33V37C205.029 37 230 62.1045 230 93.0978H234ZM174.25 33C141.24 33 114.5 59.918 114.5 93.0978H118.5C118.5 62.1045 143.472 37 174.25 37V33ZM114.5 93.0978C114.5 96.2269 114.738 99.3015 115.197 102.304L119.151 101.699C118.723 98.8963 118.5 96.0239 118.5 93.0978H114.5ZM117.629 100.054C114.735 99.3775 111.72 99.0202 108.625 99.0202V103.02C111.411 103.02 114.12 103.342 116.719 103.949L117.629 100.054ZM108.625 99.0202C86.7294 99.0202 69 116.874 69 138.872H73C73 119.06 88.9612 103.02 108.625 103.02V99.0202ZM69 138.872C69 160.87 86.7294 178.723 108.625 178.723V174.723C88.9612 174.723 73 158.683 73 138.872H69ZM108.625 178.723C108.779 178.723 108.934 178.723 109.088 178.721L109.042 174.721C108.903 174.723 108.764 174.723 108.625 174.723V178.723ZM110.637 177.957L110.639 177.954L107.49 175.488L107.488 175.49L110.637 177.957ZM241.188 174.723H109.063V178.723H241.188V174.723ZM239.188 176.721V176.723H243.188V176.721H239.188Z" fill="url(#paint3_linear_214_615)" mask="url(#path-3-inside-1_214_615)"/>
</g>
<g filter="url(#filter2_bd_214_615)">
<mask id="path-5-inside-2_214_615" fill="white">
<path fill-rule="evenodd" clip-rule="evenodd" d="M309.493 137.42C309.598 137.421 309.703 137.422 309.809 137.422C324.826 137.422 337 125.175 337 110.067C337 94.9593 324.826 82.7121 309.809 82.7121C309.703 82.7121 309.598 82.7127 309.493 82.7139V82.7121H302.468C302.722 80.84 302.853 78.9287 302.853 76.9866C302.853 53.7981 284.167 35 261.118 35C238.068 35 219.382 53.7981 219.382 76.9866C219.382 79.1747 219.549 81.3236 219.87 83.4213C217.885 82.9574 215.816 82.7121 213.691 82.7121C198.674 82.7121 186.5 94.9593 186.5 110.067C186.5 125.175 198.674 137.422 213.691 137.422C213.797 137.422 213.903 137.421 214.009 137.42L214.007 137.422H309.493V137.42Z"/>
</mask>
<path fill-rule="evenodd" clip-rule="evenodd" d="M309.493 137.42C309.598 137.421 309.703 137.422 309.809 137.422C324.826 137.422 337 125.175 337 110.067C337 94.9593 324.826 82.7121 309.809 82.7121C309.703 82.7121 309.598 82.7127 309.493 82.7139V82.7121H302.468C302.722 80.84 302.853 78.9287 302.853 76.9866C302.853 53.7981 284.167 35 261.118 35C238.068 35 219.382 53.7981 219.382 76.9866C219.382 79.1747 219.549 81.3236 219.87 83.4213C217.885 82.9574 215.816 82.7121 213.691 82.7121C198.674 82.7121 186.5 94.9593 186.5 110.067C186.5 125.175 198.674 137.422 213.691 137.422C213.797 137.422 213.903 137.421 214.009 137.42L214.007 137.422H309.493V137.42Z" fill="url(#paint4_linear_214_615)" shape-rendering="crispEdges"/>
<path d="M309.493 137.42L309.516 135.42C308.981 135.414 308.467 135.622 308.087 135.998C307.707 136.374 307.493 136.886 307.493 137.42H309.493ZM309.493 82.7139H307.493C307.493 83.2483 307.707 83.7605 308.087 84.1362C308.467 84.5119 308.981 84.7199 309.516 84.7138L309.493 82.7139ZM309.493 82.7121H311.493C311.493 81.6075 310.597 80.7121 309.493 80.7121V82.7121ZM302.468 82.7121L300.486 82.4435C300.409 83.0155 300.582 83.5932 300.962 84.0279C301.342 84.4627 301.891 84.7121 302.468 84.7121V82.7121ZM219.87 83.4213L219.414 85.3688C220.061 85.5199 220.74 85.3404 221.228 84.8895C221.715 84.4387 221.947 83.7754 221.847 83.1191L219.87 83.4213ZM214.009 137.42L215.584 138.652C216.058 138.047 216.142 137.223 215.802 136.534C215.461 135.844 214.755 135.411 213.986 135.42L214.009 137.42ZM214.007 137.422L212.432 136.19C211.961 136.792 211.874 137.611 212.21 138.298C212.545 138.986 213.242 139.422 214.007 139.422V137.422ZM309.493 137.422V139.422C310.597 139.422 311.493 138.527 311.493 137.422H309.493ZM309.47 139.42C309.583 139.421 309.696 139.422 309.809 139.422V135.422C309.711 135.422 309.613 135.421 309.516 135.42L309.47 139.42ZM309.809 139.422C325.942 139.422 339 126.268 339 110.067H335C335 124.082 323.71 135.422 309.809 135.422V139.422ZM339 110.067C339 93.8661 325.942 80.7121 309.809 80.7121V84.7121C323.71 84.7121 335 96.0525 335 110.067H339ZM309.809 80.7121C309.696 80.7121 309.583 80.7127 309.47 80.714L309.516 84.7138C309.613 84.7127 309.711 84.7121 309.809 84.7121V80.7121ZM307.493 82.7121V82.7139H311.493V82.7121H307.493ZM302.468 84.7121H309.493V80.7121H302.468V84.7121ZM304.45 82.9807C304.716 81.0199 304.853 79.0188 304.853 76.9866H300.853C300.853 78.8387 300.728 80.6602 300.486 82.4435L304.45 82.9807ZM304.853 76.9866C304.853 52.7048 285.283 33 261.118 33V37C283.052 37 300.853 54.8913 300.853 76.9866H304.853ZM261.118 33C236.952 33 217.382 52.7048 217.382 76.9866H221.382C221.382 54.8913 239.184 37 261.118 37V33ZM217.382 76.9866C217.382 79.2762 217.557 81.5261 217.892 83.7236L221.847 83.1191C221.541 81.121 221.382 79.0731 221.382 76.9866H217.382ZM220.325 81.4738C218.192 80.9752 215.971 80.7121 213.691 80.7121V84.7121C215.662 84.7121 217.578 84.9395 219.414 85.3688L220.325 81.4738ZM213.691 80.7121C197.558 80.7121 184.5 93.8661 184.5 110.067H188.5C188.5 96.0525 199.79 84.7121 213.691 84.7121V80.7121ZM184.5 110.067C184.5 126.268 197.558 139.422 213.691 139.422V135.422C199.79 135.422 188.5 124.082 188.5 110.067H184.5ZM213.691 139.422C213.805 139.422 213.918 139.421 214.032 139.42L213.986 135.42C213.888 135.421 213.79 135.422 213.691 135.422V139.422ZM215.583 138.654L215.584 138.652L212.434 136.188L212.432 136.19L215.583 138.654ZM309.493 135.422H214.007V139.422H309.493V135.422ZM307.493 137.42V137.422H311.493V137.42H307.493Z" fill="url(#paint5_linear_214_615)" mask="url(#path-5-inside-2_214_615)"/>
</g>
<defs>
<filter id="filter0_bdd_214_615" x="66.9844" y="70.8297" width="227.064" height="282.897" filterUnits="userSpaceOnUse" color-interpolation-filters="sRGB">
<feFlood flood-opacity="0" result="BackgroundImageFix"/>
<feGaussianBlur in="BackgroundImageFix" stdDeviation="7"/>
<feComposite in2="SourceAlpha" operator="in" result="effect1_backgroundBlur_214_615"/>
<feColorMatrix in="SourceAlpha" type="matrix" values="0 0 0 0 0 0 0 0 0 0 0 0 0 0 0 0 0 0 127 0" result="hardAlpha"/>
<feOffset dx="-21" dy="15"/>
<feGaussianBlur stdDeviation="25"/>
<feComposite in2="hardAlpha" operator="out"/>
<feColorMatrix type="matrix" values="0 0 0 0 0.113438 0 0 0 0 0.148981 0 0 0 0 0.275 0 0 0 0.25 0"/>
<feBlend mode="normal" in2="effect1_backgroundBlur_214_615" result="effect2_dropShadow_214_615"/>
<feColorMatrix in="SourceAlpha" type="matrix" values="0 0 0 0 0 0 0 0 0 0 0 0 0 0 0 0 0 0 127 0" result="hardAlpha"/>
<feOffset/>
<feGaussianBlur stdDeviation="30.5"/>
<feComposite in2="hardAlpha" operator="out"/>
<feColorMatrix type="matrix" values="0 0 0 0 1 0 0 0 0 0.721569 0 0 0 0 0.00392157 0 0 0 0.49 0"/>
<feBlend mode="normal" in2="effect2_dropShadow_214_615" result="effect3_dropShadow_214_615"/>
<feBlend mode="normal" in="SourceGraphic" in2="effect3_dropShadow_214_615" result="shape"/>
</filter>
<filter id="filter1_bd_214_615" x="0" y="0" width="308.25" height="241.723" filterUnits="userSpaceOnUse" color-interpolation-filters="sRGB">
<feFlood flood-opacity="0" result="BackgroundImageFix"/>
<feGaussianBlur in="BackgroundImageFix" stdDeviation="7"/>
<feComposite in2="SourceAlpha" operator="in" result="effect1_backgroundBlur_214_615"/>
<feColorMatrix in="SourceAlpha" type="matrix" values="0 0 0 0 0 0 0 0 0 0 0 0 0 0 0 0 0 0 127 0" result="hardAlpha"/>
<feOffset dx="-21" dy="15"/>
<feGaussianBlur stdDeviation="25"/>
<feComposite in2="hardAlpha" operator="out"/>
<feColorMatrix type="matrix" values="0 0 0 0 0.113725 0 0 0 0 0.14902 0 0 0 0 0.27451 0 0 0 0.25 0"/>
<feBlend mode="normal" in2="effect1_backgroundBlur_214_615" result="effect2_dropShadow_214_615"/>
<feBlend mode="normal" in="SourceGraphic" in2="effect2_dropShadow_214_615" result="shape"/>
</filter>
<filter id="filter2_bd_214_615" x="115.5" y="0" width="250.5" height="202.422" filterUnits="userSpaceOnUse" color-interpolation-filters="sRGB">
<feFlood flood-opacity="0" result="BackgroundImageFix"/>
<feGaussianBlur in="BackgroundImageFix" stdDeviation="7"/>
<feComposite in2="SourceAlpha" operator="in" result="effect1_backgroundBlur_214_615"/>
<feColorMatrix in="SourceAlpha" type="matrix" values="0 0 0 0 0 0 0 0 0 0 0 0 0 0 0 0 0 0 127 0" result="hardAlpha"/>
<feOffset dx="-21" dy="15"/>
<feGaussianBlur stdDeviation="25"/>
<feComposite in2="hardAlpha" operator="out"/>
<feColorMatrix type="matrix" values="0 0 0 0 0.113438 0 0 0 0 0.148981 0 0 0 0 0.275 0 0 0 0.25 0"/>
<feBlend mode="normal" in2="effect1_backgroundBlur_214_615" result="effect2_dropShadow_214_615"/>
<feBlend mode="normal" in="SourceGraphic" in2="effect2_dropShadow_214_615" result="shape"/>
</filter>
<linearGradient id="paint0_linear_214_615" x1="195.687" y1="141.513" x2="173.562" y2="236.964" gradientUnits="userSpaceOnUse">
<stop stop-color="#FF4D00"/>
<stop offset="1" stop-color="#FFB800"/>
</linearGradient>
<linearGradient id="paint1_linear_214_615" x1="166.375" y1="235.702" x2="206.582" y2="150.06" gradientUnits="userSpaceOnUse">
<stop stop-color="white"/>
<stop offset="1" stop-color="white" stop-opacity="0"/>
</linearGradient>
<linearGradient id="paint2_linear_214_615" x1="175.125" y1="-10.3339" x2="175.125" y2="196.529" gradientUnits="userSpaceOnUse">
<stop stop-color="white"/>
<stop offset="1" stop-color="white" stop-opacity="0"/>
</linearGradient>
<linearGradient id="paint3_linear_214_615" x1="175.125" y1="35" x2="175.125" y2="176.723" gradientUnits="userSpaceOnUse">
<stop stop-color="white"/>
<stop offset="1" stop-color="white" stop-opacity="0"/>
</linearGradient>
<linearGradient id="paint4_linear_214_615" x1="268.75" y1="38.0809" x2="268.75" y2="148.995" gradientUnits="userSpaceOnUse">
<stop stop-color="white"/>
<stop offset="1" stop-color="white" stop-opacity="0"/>
</linearGradient>
<linearGradient id="paint5_linear_214_615" x1="261.75" y1="35" x2="261.75" y2="137.422" gradientUnits="userSpaceOnUse">
<stop stop-color="white"/>
<stop offset="1" stop-color="white" stop-opacity="0"/>
</linearGradient>
</defs>
</svg>
