<svg width="397" height="354" viewBox="0 0 397 354" fill="none" xmlns="http://www.w3.org/2000/svg">
<g filter="url(#filter0_bd_214_608)">
<mask id="path-1-inside-1_214_608" fill="white">
<path fill-rule="evenodd" clip-rule="evenodd" d="M190.315 133.118C190.417 133.119 190.519 133.12 190.622 133.12C205.19 133.12 217 121.387 217 106.914C217 92.4408 205.19 80.708 190.622 80.708C190.519 80.708 190.417 80.7086 190.315 80.7098V80.708H183.501C183.747 78.9146 183.874 77.0836 183.874 75.2231C183.874 53.0085 165.747 35 143.387 35C121.026 35 102.899 53.0085 102.899 75.2231C102.899 77.3192 103.061 79.3778 103.372 81.3874C101.446 80.943 99.4398 80.708 97.3782 80.708C82.8099 80.708 71 92.4408 71 106.914C71 121.387 82.8099 133.12 97.3782 133.12C97.481 133.12 97.5837 133.119 97.6862 133.118L97.6848 133.12H190.315V133.118Z"/>
</mask>
<path fill-rule="evenodd" clip-rule="evenodd" d="M190.315 133.118C190.417 133.119 190.519 133.12 190.622 133.12C205.19 133.12 217 121.387 217 106.914C217 92.4408 205.19 80.708 190.622 80.708C190.519 80.708 190.417 80.7086 190.315 80.7098V80.708H183.501C183.747 78.9146 183.874 77.0836 183.874 75.2231C183.874 53.0085 165.747 35 143.387 35C121.026 35 102.899 53.0085 102.899 75.2231C102.899 77.3192 103.061 79.3778 103.372 81.3874C101.446 80.943 99.4398 80.708 97.3782 80.708C82.8099 80.708 71 92.4408 71 106.914C71 121.387 82.8099 133.12 97.3782 133.12C97.481 133.12 97.5837 133.119 97.6862 133.118L97.6848 133.12H190.315V133.118Z" fill="url(#paint0_linear_214_608)" shape-rendering="crispEdges"/>
<path d="M190.315 133.118L190.338 131.118C189.803 131.112 189.289 131.32 188.909 131.696C188.529 132.072 188.315 132.584 188.315 133.118H190.315ZM190.315 80.7098H188.315C188.315 81.2441 188.529 81.7563 188.909 82.132C189.289 82.5077 189.803 82.7157 190.338 82.7096L190.315 80.7098ZM190.315 80.708H192.315C192.315 79.6035 191.42 78.708 190.315 78.708V80.708ZM183.501 80.708L181.519 80.4361C181.441 81.0086 181.614 81.5871 181.993 82.0226C182.373 82.4581 182.923 82.708 183.501 82.708V80.708ZM103.372 81.3874L102.922 83.3362C103.568 83.4855 104.247 83.3043 104.733 82.8525C105.219 82.4008 105.45 81.7373 105.348 81.0815L103.372 81.3874ZM97.6862 133.118L99.2519 134.363C99.7321 133.758 99.8218 132.932 99.4824 132.239C99.143 131.546 98.4351 131.11 97.6634 131.118L97.6862 133.118ZM97.6848 133.12L96.1191 131.876C95.6414 132.477 95.5499 133.298 95.8836 133.989C96.2172 134.681 96.9172 135.12 97.6848 135.12V133.12ZM190.315 133.12V135.12C191.42 135.12 192.315 134.224 192.315 133.12H190.315ZM190.293 135.118C190.402 135.119 190.512 135.12 190.622 135.12V131.12C190.527 131.12 190.432 131.119 190.338 131.118L190.293 135.118ZM190.622 135.12C206.282 135.12 219 122.504 219 106.914H215C215 120.27 204.098 131.12 190.622 131.12V135.12ZM219 106.914C219 91.3239 206.282 78.708 190.622 78.708V82.708C204.098 82.708 215 93.5577 215 106.914H219ZM190.622 78.708C190.512 78.708 190.402 78.7087 190.292 78.7099L190.338 82.7096C190.432 82.7086 190.527 82.708 190.622 82.708V78.708ZM188.315 80.708V80.7098H192.315V80.708H188.315ZM183.501 82.708H190.315V78.708H183.501V82.708ZM185.482 80.98C185.741 79.0967 185.874 77.1748 185.874 75.2231H181.874C181.874 76.9924 181.753 78.7325 181.519 80.4361L185.482 80.98ZM185.874 75.2231C185.874 51.8916 166.839 33 143.387 33V37C164.655 37 181.874 54.1254 181.874 75.2231H185.874ZM143.387 33C119.934 33 100.899 51.8916 100.899 75.2231H104.899C104.899 54.1254 122.118 37 143.387 37V33ZM100.899 75.2231C100.899 77.422 101.068 79.5829 101.395 81.6934L105.348 81.0815C105.053 79.1727 104.899 77.2164 104.899 75.2231H100.899ZM103.821 79.4387C101.749 78.9604 99.5922 78.708 97.3782 78.708V82.708C99.2874 82.708 101.143 82.9256 102.922 83.3362L103.821 79.4387ZM97.3782 78.708C81.7177 78.708 69 91.3239 69 106.914H73C73 93.5577 83.9021 82.708 97.3782 82.708V78.708ZM69 106.914C69 122.504 81.7177 135.12 97.3782 135.12V131.12C83.9021 131.12 73 120.27 73 106.914H69ZM97.3782 135.12C97.4885 135.12 97.5988 135.119 97.709 135.118L97.6634 131.118C97.5685 131.119 97.4735 131.12 97.3782 131.12V135.12ZM99.2505 134.364L99.2519 134.363L96.1205 131.874L96.1191 131.876L99.2505 134.364ZM190.315 131.12H97.6848V135.12H190.315V131.12ZM188.315 133.118V133.12H192.315V133.118H188.315Z" fill="url(#paint1_linear_214_608)" mask="url(#path-1-inside-1_214_608)"/>
</g>
<g filter="url(#filter1_bd_214_608)">
<mask id="path-3-inside-2_214_608" fill="white">
<path fill-rule="evenodd" clip-rule="evenodd" d="M270.052 200.283C270.193 200.285 270.335 200.286 270.477 200.286C290.635 200.286 306.977 184.051 306.977 164.024C306.977 143.997 290.635 127.762 270.477 127.762C270.335 127.762 270.193 127.763 270.052 127.765V127.762H260.623C260.963 125.281 261.139 122.747 261.139 120.173C261.139 89.4341 236.057 64.5153 205.116 64.5153C174.175 64.5153 149.093 89.4341 149.093 120.173C149.093 123.073 149.316 125.922 149.747 128.703C147.082 128.088 144.306 127.762 141.453 127.762C121.295 127.762 104.953 143.997 104.953 164.024C104.953 184.051 121.295 200.286 141.453 200.286C141.595 200.286 141.738 200.285 141.879 200.283L141.878 200.286H270.052V200.283Z"/>
</mask>
<path fill-rule="evenodd" clip-rule="evenodd" d="M270.052 200.283C270.193 200.285 270.335 200.286 270.477 200.286C290.635 200.286 306.977 184.051 306.977 164.024C306.977 143.997 290.635 127.762 270.477 127.762C270.335 127.762 270.193 127.763 270.052 127.765V127.762H260.623C260.963 125.281 261.139 122.747 261.139 120.173C261.139 89.4341 236.057 64.5153 205.116 64.5153C174.175 64.5153 149.093 89.4341 149.093 120.173C149.093 123.073 149.316 125.922 149.747 128.703C147.082 128.088 144.306 127.762 141.453 127.762C121.295 127.762 104.953 143.997 104.953 164.024C104.953 184.051 121.295 200.286 141.453 200.286C141.595 200.286 141.738 200.285 141.879 200.283L141.878 200.286H270.052V200.283Z" fill="url(#paint2_linear_214_608)" shape-rendering="crispEdges"/>
<path d="M270.052 200.283L270.075 198.284C269.54 198.278 269.026 198.486 268.646 198.861C268.266 199.237 268.052 199.749 268.052 200.283H270.052ZM270.052 127.765H268.052C268.052 128.299 268.266 128.811 268.646 129.187C269.026 129.563 269.54 129.771 270.075 129.765L270.052 127.765ZM270.052 127.762H272.052C272.052 126.658 271.157 125.762 270.052 125.762V127.762ZM260.623 127.762L258.641 127.491C258.563 128.063 258.736 128.641 259.116 129.077C259.495 129.513 260.045 129.762 260.623 129.762V127.762ZM149.747 128.703L149.297 130.651C149.943 130.801 150.622 130.619 151.108 130.168C151.594 129.716 151.825 129.052 151.723 128.397L149.747 128.703ZM141.879 200.283L143.447 201.526C143.926 200.921 144.015 200.095 143.675 199.403C143.335 198.71 142.628 198.275 141.857 198.284L141.879 200.283ZM141.878 200.286L140.31 199.044C139.834 199.645 139.743 200.466 140.077 201.156C140.411 201.847 141.11 202.286 141.878 202.286V200.286ZM270.052 200.286V202.286C271.157 202.286 272.052 201.39 272.052 200.286H270.052ZM270.029 202.283C270.178 202.285 270.327 202.286 270.477 202.286V198.286C270.342 198.286 270.208 198.285 270.075 198.284L270.029 202.283ZM270.477 202.286C291.727 202.286 308.977 185.168 308.977 164.024H304.977C304.977 182.934 289.543 198.286 270.477 198.286V202.286ZM308.977 164.024C308.977 142.88 291.727 125.762 270.477 125.762V129.762C289.543 129.762 304.977 145.114 304.977 164.024H308.977ZM270.477 125.762C270.327 125.762 270.178 125.763 270.029 125.765L270.075 129.765C270.208 129.763 270.342 129.762 270.477 129.762V125.762ZM268.052 127.762V127.765H272.052V127.762H268.052ZM260.623 129.762H270.052V125.762H260.623V129.762ZM262.604 128.034C262.957 125.463 263.139 122.839 263.139 120.173H259.139C259.139 122.656 258.97 125.099 258.641 127.491L262.604 128.034ZM263.139 120.173C263.139 88.3172 237.149 62.5153 205.116 62.5153V66.5153C234.965 66.5153 259.139 90.551 259.139 120.173H263.139ZM205.116 62.5153C173.083 62.5153 147.093 88.3172 147.093 120.173H151.093C151.093 90.551 175.267 66.5153 205.116 66.5153V62.5153ZM147.093 120.173C147.093 123.176 147.324 126.127 147.77 129.009L151.723 128.397C151.308 125.717 151.093 122.97 151.093 120.173H147.093ZM150.196 126.754C147.385 126.105 144.458 125.762 141.453 125.762V129.762C144.153 129.762 146.779 130.07 149.297 130.651L150.196 126.754ZM141.453 125.762C120.203 125.762 102.953 142.88 102.953 164.024H106.953C106.953 145.114 122.387 129.762 141.453 129.762V125.762ZM102.953 164.024C102.953 185.168 120.203 202.286 141.453 202.286V198.286C122.387 198.286 106.953 182.934 106.953 164.024H102.953ZM141.453 202.286C141.603 202.286 141.753 202.285 141.902 202.283L141.857 198.284C141.722 198.285 141.588 198.286 141.453 198.286V202.286ZM143.445 201.528L143.447 201.526L140.312 199.041L140.31 199.044L143.445 201.528ZM270.052 198.286H141.878V202.286H270.052V198.286ZM268.052 200.283V200.286H272.052V200.283H268.052Z" fill="url(#paint3_linear_214_608)" mask="url(#path-3-inside-2_214_608)"/>
</g>
<g filter="url(#filter2_bdd_214_608)">
<path d="M243.247 212.923L283.489 139.761C283.841 139.122 284.512 138.725 285.242 138.725H324.459C325.964 138.725 326.93 140.326 326.228 141.658L301.309 188.92C300.607 190.252 301.572 191.853 303.078 191.853H333.043C334.775 191.853 335.688 193.905 334.529 195.191L250.825 288.132C249.346 289.775 246.689 288.158 247.467 286.09L272.856 218.591C273.348 217.283 272.381 215.887 270.984 215.887H245C243.479 215.887 242.514 214.256 243.247 212.923Z" fill="url(#paint4_linear_214_608)"/>
<path d="M244.124 213.405L284.365 140.243C284.541 139.924 284.877 139.725 285.242 139.725H324.459C325.212 139.725 325.694 140.526 325.343 141.192L300.424 188.454C299.371 190.452 300.82 192.853 303.078 192.853H333.043C333.909 192.853 334.366 193.879 333.786 194.522L250.082 287.463C249.342 288.284 248.014 287.476 248.403 286.442L273.792 218.943C274.53 216.981 273.08 214.887 270.984 214.887H245C244.239 214.887 243.757 214.071 244.124 213.405Z" stroke="url(#paint5_linear_214_608)" stroke-width="2"/>
</g>
<g filter="url(#filter3_bd_214_608)">
<mask id="path-7-inside-3_214_608" fill="white">
<path fill-rule="evenodd" clip-rule="evenodd" d="M336.315 162.633C336.417 162.635 336.52 162.635 336.622 162.635C351.19 162.635 363 150.902 363 136.429C363 121.956 351.19 110.223 336.622 110.223C336.52 110.223 336.417 110.224 336.315 110.225V110.223H329.501C329.747 108.43 329.874 106.599 329.874 104.738C329.874 82.5238 311.747 64.5153 289.387 64.5153C267.026 64.5153 248.899 82.5238 248.899 104.738C248.899 106.834 249.061 108.893 249.372 110.903C247.446 110.458 245.44 110.223 243.378 110.223C228.81 110.223 217 121.956 217 136.429C217 150.902 228.81 162.635 243.378 162.635C243.481 162.635 243.584 162.635 243.686 162.633L243.685 162.635H336.315V162.633Z"/>
</mask>
<path fill-rule="evenodd" clip-rule="evenodd" d="M336.315 162.633C336.417 162.635 336.52 162.635 336.622 162.635C351.19 162.635 363 150.902 363 136.429C363 121.956 351.19 110.223 336.622 110.223C336.52 110.223 336.417 110.224 336.315 110.225V110.223H329.501C329.747 108.43 329.874 106.599 329.874 104.738C329.874 82.5238 311.747 64.5153 289.387 64.5153C267.026 64.5153 248.899 82.5238 248.899 104.738C248.899 106.834 249.061 108.893 249.372 110.903C247.446 110.458 245.44 110.223 243.378 110.223C228.81 110.223 217 121.956 217 136.429C217 150.902 228.81 162.635 243.378 162.635C243.481 162.635 243.584 162.635 243.686 162.633L243.685 162.635H336.315V162.633Z" fill="url(#paint6_linear_214_608)" shape-rendering="crispEdges"/>
<path d="M336.315 162.633L336.338 160.634C335.804 160.628 335.289 160.836 334.909 161.211C334.529 161.587 334.315 162.099 334.315 162.633H336.315ZM336.315 110.225H334.315C334.315 110.759 334.529 111.272 334.909 111.647C335.289 112.023 335.804 112.231 336.338 112.225L336.315 110.225ZM336.315 110.223H338.315C338.315 109.119 337.42 108.223 336.315 108.223V110.223ZM329.501 110.223L327.519 109.951C327.441 110.524 327.614 111.102 327.993 111.538C328.373 111.973 328.923 112.223 329.501 112.223V110.223ZM249.372 110.903L248.922 112.851C249.568 113.001 250.247 112.82 250.733 112.368C251.219 111.916 251.45 111.253 251.348 110.597L249.372 110.903ZM243.686 162.633L245.254 163.876C245.733 163.271 245.822 162.445 245.482 161.753C245.142 161.06 244.435 160.625 243.664 160.634L243.686 162.633ZM243.685 162.635L242.117 161.393C241.641 161.994 241.551 162.815 241.884 163.506C242.218 164.196 242.918 164.635 243.685 164.635V162.635ZM336.315 162.635V164.635C337.42 164.635 338.315 163.74 338.315 162.635H336.315ZM336.293 164.633C336.402 164.635 336.512 164.635 336.622 164.635V160.635C336.527 160.635 336.432 160.635 336.338 160.634L336.293 164.633ZM336.622 164.635C352.282 164.635 365 152.019 365 136.429H361C361 149.785 350.098 160.635 336.622 160.635V164.635ZM365 136.429C365 120.839 352.282 108.223 336.622 108.223V112.223C350.098 112.223 361 123.073 361 136.429H365ZM336.622 108.223C336.512 108.223 336.402 108.224 336.293 108.225L336.338 112.225C336.432 112.224 336.527 112.223 336.622 112.223V108.223ZM334.315 110.223V110.225H338.315V110.223H334.315ZM329.501 112.223H336.315V108.223H329.501V112.223ZM331.482 110.495C331.741 108.612 331.874 106.69 331.874 104.738H327.874C327.874 106.508 327.753 108.248 327.519 109.951L331.482 110.495ZM331.874 104.738C331.874 81.4069 312.839 62.5153 289.387 62.5153V66.5153C310.655 66.5153 327.874 83.6407 327.874 104.738H331.874ZM289.387 62.5153C265.934 62.5153 246.899 81.4069 246.899 104.738H250.899C250.899 83.6407 268.118 66.5153 289.387 66.5153V62.5153ZM246.899 104.738C246.899 106.937 247.068 109.098 247.395 111.209L251.348 110.597C251.053 108.688 250.899 106.732 250.899 104.738H246.899ZM249.821 108.954C247.749 108.476 245.592 108.223 243.378 108.223V112.223C245.287 112.223 247.143 112.441 248.922 112.851L249.821 108.954ZM243.378 108.223C227.718 108.223 215 120.839 215 136.429H219C219 123.073 229.902 112.223 243.378 112.223V108.223ZM215 136.429C215 152.019 227.718 164.635 243.378 164.635V160.635C229.902 160.635 219 149.785 219 136.429H215ZM243.378 164.635C243.489 164.635 243.599 164.635 243.709 164.633L243.664 160.634C243.569 160.635 243.473 160.635 243.378 160.635V164.635ZM245.253 163.877L245.254 163.876L242.119 161.391L242.117 161.393L245.253 163.877ZM336.315 160.635H243.685V164.635H336.315V160.635ZM334.315 162.633V162.635H338.315V162.633H334.315Z" fill="url(#paint7_linear_214_608)" mask="url(#path-7-inside-3_214_608)"/>
</g>
<g filter="url(#filter4_bdd_214_608)">
<path d="M118.532 214.129L119.528 227.984C120.039 235.097 113.236 240.528 106.401 238.462C99.5662 236.397 96.9588 228.122 101.37 222.497L109.963 211.539C112.674 208.083 118.218 209.758 118.532 214.129Z" fill="url(#paint8_linear_214_608)" stroke="url(#paint9_linear_214_608)" stroke-width="2"/>
<path d="M167.347 214.129L168.343 227.984C168.854 235.097 162.05 240.528 155.215 238.462C148.381 236.397 145.773 228.122 150.185 222.497L158.778 211.539C161.489 208.083 167.032 209.758 167.347 214.129Z" fill="url(#paint10_linear_214_608)" stroke="url(#paint11_linear_214_608)" stroke-width="2"/>
<path d="M216.161 214.129L217.157 227.984C217.668 235.097 210.864 240.528 204.03 238.462C197.195 236.397 194.588 228.122 198.999 222.497L207.592 211.539C210.303 208.083 215.847 209.758 216.161 214.129Z" fill="url(#paint12_linear_214_608)" stroke="url(#paint13_linear_214_608)" stroke-width="2"/>
</g>
<g filter="url(#filter5_bdd_214_608)">
<path d="M137.206 252.516L138.202 266.371C138.713 273.484 131.909 278.915 125.075 276.849C118.24 274.784 115.633 266.509 120.044 260.884L128.637 249.926C131.348 246.47 136.892 248.145 137.206 252.516Z" fill="url(#paint14_linear_214_608)" stroke="url(#paint15_linear_214_608)" stroke-width="2"/>
<path d="M186.438 252.516L187.434 266.371C187.946 273.484 181.142 278.915 174.307 276.849C167.472 274.784 164.865 266.509 169.277 260.884L177.87 249.926C180.58 246.47 186.124 248.145 186.438 252.516Z" fill="url(#paint16_linear_214_608)" stroke="url(#paint17_linear_214_608)" stroke-width="2"/>
</g>
<defs>
<filter id="filter0_bd_214_608" x="0" y="0" width="246" height="198.12" filterUnits="userSpaceOnUse" color-interpolation-filters="sRGB">
<feFlood flood-opacity="0" result="BackgroundImageFix"/>
<feGaussianBlur in="BackgroundImageFix" stdDeviation="7"/>
<feComposite in2="SourceAlpha" operator="in" result="effect1_backgroundBlur_214_608"/>
<feColorMatrix in="SourceAlpha" type="matrix" values="0 0 0 0 0 0 0 0 0 0 0 0 0 0 0 0 0 0 127 0" result="hardAlpha"/>
<feOffset dx="-21" dy="15"/>
<feGaussianBlur stdDeviation="25"/>
<feComposite in2="hardAlpha" operator="out"/>
<feColorMatrix type="matrix" values="0 0 0 0 0.113438 0 0 0 0 0.148981 0 0 0 0 0.275 0 0 0 0.25 0"/>
<feBlend mode="normal" in2="effect1_backgroundBlur_214_608" result="effect2_dropShadow_214_608"/>
<feBlend mode="normal" in="SourceGraphic" in2="effect2_dropShadow_214_608" result="shape"/>
</filter>
<filter id="filter1_bd_214_608" x="33.9531" y="29.5153" width="302.023" height="235.771" filterUnits="userSpaceOnUse" color-interpolation-filters="sRGB">
<feFlood flood-opacity="0" result="BackgroundImageFix"/>
<feGaussianBlur in="BackgroundImageFix" stdDeviation="7"/>
<feComposite in2="SourceAlpha" operator="in" result="effect1_backgroundBlur_214_608"/>
<feColorMatrix in="SourceAlpha" type="matrix" values="0 0 0 0 0 0 0 0 0 0 0 0 0 0 0 0 0 0 127 0" result="hardAlpha"/>
<feOffset dx="-21" dy="15"/>
<feGaussianBlur stdDeviation="25"/>
<feComposite in2="hardAlpha" operator="out"/>
<feColorMatrix type="matrix" values="0 0 0 0 0.113725 0 0 0 0 0.14902 0 0 0 0 0.27451 0 0 0 0.25 0"/>
<feBlend mode="normal" in2="effect1_backgroundBlur_214_608" result="effect2_dropShadow_214_608"/>
<feBlend mode="normal" in="SourceGraphic" in2="effect2_dropShadow_214_608" result="shape"/>
</filter>
<filter id="filter2_bdd_214_608" x="171.996" y="77.7254" width="224.051" height="276.082" filterUnits="userSpaceOnUse" color-interpolation-filters="sRGB">
<feFlood flood-opacity="0" result="BackgroundImageFix"/>
<feGaussianBlur in="BackgroundImageFix" stdDeviation="7"/>
<feComposite in2="SourceAlpha" operator="in" result="effect1_backgroundBlur_214_608"/>
<feColorMatrix in="SourceAlpha" type="matrix" values="0 0 0 0 0 0 0 0 0 0 0 0 0 0 0 0 0 0 127 0" result="hardAlpha"/>
<feOffset dx="-21" dy="15"/>
<feGaussianBlur stdDeviation="25"/>
<feComposite in2="hardAlpha" operator="out"/>
<feColorMatrix type="matrix" values="0 0 0 0 0.113438 0 0 0 0 0.148981 0 0 0 0 0.275 0 0 0 0.25 0"/>
<feBlend mode="normal" in2="effect1_backgroundBlur_214_608" result="effect2_dropShadow_214_608"/>
<feColorMatrix in="SourceAlpha" type="matrix" values="0 0 0 0 0 0 0 0 0 0 0 0 0 0 0 0 0 0 127 0" result="hardAlpha"/>
<feOffset/>
<feGaussianBlur stdDeviation="30.5"/>
<feComposite in2="hardAlpha" operator="out"/>
<feColorMatrix type="matrix" values="0 0 0 0 1 0 0 0 0 0.721569 0 0 0 0 0.00392157 0 0 0 0.49 0"/>
<feBlend mode="normal" in2="effect2_dropShadow_214_608" result="effect3_dropShadow_214_608"/>
<feBlend mode="normal" in="SourceGraphic" in2="effect3_dropShadow_214_608" result="shape"/>
</filter>
<filter id="filter3_bd_214_608" x="146" y="29.5153" width="246" height="198.12" filterUnits="userSpaceOnUse" color-interpolation-filters="sRGB">
<feFlood flood-opacity="0" result="BackgroundImageFix"/>
<feGaussianBlur in="BackgroundImageFix" stdDeviation="7"/>
<feComposite in2="SourceAlpha" operator="in" result="effect1_backgroundBlur_214_608"/>
<feColorMatrix in="SourceAlpha" type="matrix" values="0 0 0 0 0 0 0 0 0 0 0 0 0 0 0 0 0 0 127 0" result="hardAlpha"/>
<feOffset dx="-21" dy="15"/>
<feGaussianBlur stdDeviation="25"/>
<feComposite in2="hardAlpha" operator="out"/>
<feColorMatrix type="matrix" values="0 0 0 0 0.113438 0 0 0 0 0.148981 0 0 0 0 0.275 0 0 0 0.25 0"/>
<feBlend mode="normal" in2="effect1_backgroundBlur_214_608" result="effect2_dropShadow_214_608"/>
<feBlend mode="normal" in="SourceGraphic" in2="effect2_dropShadow_214_608" result="shape"/>
</filter>
<filter id="filter4_bdd_214_608" x="27.1934" y="160.686" width="231.992" height="144.219" filterUnits="userSpaceOnUse" color-interpolation-filters="sRGB">
<feFlood flood-opacity="0" result="BackgroundImageFix"/>
<feGaussianBlur in="BackgroundImageFix" stdDeviation="7"/>
<feComposite in2="SourceAlpha" operator="in" result="effect1_backgroundBlur_214_608"/>
<feColorMatrix in="SourceAlpha" type="matrix" values="0 0 0 0 0 0 0 0 0 0 0 0 0 0 0 0 0 0 127 0" result="hardAlpha"/>
<feOffset dx="-21" dy="15"/>
<feGaussianBlur stdDeviation="25"/>
<feComposite in2="hardAlpha" operator="out"/>
<feColorMatrix type="matrix" values="0 0 0 0 0.113438 0 0 0 0 0.148981 0 0 0 0 0.275 0 0 0 0.25 0"/>
<feBlend mode="normal" in2="effect1_backgroundBlur_214_608" result="effect2_dropShadow_214_608"/>
<feColorMatrix in="SourceAlpha" type="matrix" values="0 0 0 0 0 0 0 0 0 0 0 0 0 0 0 0 0 0 127 0" result="hardAlpha"/>
<feOffset dy="-7"/>
<feGaussianBlur stdDeviation="20.5"/>
<feComposite in2="hardAlpha" operator="out"/>
<feColorMatrix type="matrix" values="0 0 0 0 0.1375 0 0 0 0 0.74125 0 0 0 0 1 0 0 0 0.3 0"/>
<feBlend mode="normal" in2="effect2_dropShadow_214_608" result="effect3_dropShadow_214_608"/>
<feBlend mode="normal" in="SourceGraphic" in2="effect3_dropShadow_214_608" result="shape"/>
</filter>
<filter id="filter5_bdd_214_608" x="45.8672" y="199.073" width="183.596" height="144.219" filterUnits="userSpaceOnUse" color-interpolation-filters="sRGB">
<feFlood flood-opacity="0" result="BackgroundImageFix"/>
<feGaussianBlur in="BackgroundImageFix" stdDeviation="7"/>
<feComposite in2="SourceAlpha" operator="in" result="effect1_backgroundBlur_214_608"/>
<feColorMatrix in="SourceAlpha" type="matrix" values="0 0 0 0 0 0 0 0 0 0 0 0 0 0 0 0 0 0 127 0" result="hardAlpha"/>
<feOffset dx="-21" dy="15"/>
<feGaussianBlur stdDeviation="25"/>
<feComposite in2="hardAlpha" operator="out"/>
<feColorMatrix type="matrix" values="0 0 0 0 0.113438 0 0 0 0 0.148981 0 0 0 0 0.275 0 0 0 0.25 0"/>
<feBlend mode="normal" in2="effect1_backgroundBlur_214_608" result="effect2_dropShadow_214_608"/>
<feColorMatrix in="SourceAlpha" type="matrix" values="0 0 0 0 0 0 0 0 0 0 0 0 0 0 0 0 0 0 127 0" result="hardAlpha"/>
<feOffset dy="-7"/>
<feGaussianBlur stdDeviation="20.5"/>
<feComposite in2="hardAlpha" operator="out"/>
<feColorMatrix type="matrix" values="0 0 0 0 0.1375 0 0 0 0 0.74125 0 0 0 0 1 0 0 0 0.3 0"/>
<feBlend mode="normal" in2="effect2_dropShadow_214_608" result="effect3_dropShadow_214_608"/>
<feBlend mode="normal" in="SourceGraphic" in2="effect3_dropShadow_214_608" result="shape"/>
</filter>
<linearGradient id="paint0_linear_214_608" x1="150.791" y1="37.9515" x2="150.791" y2="144.207" gradientUnits="userSpaceOnUse">
<stop stop-color="white"/>
<stop offset="1" stop-color="white" stop-opacity="0"/>
</linearGradient>
<linearGradient id="paint1_linear_214_608" x1="144" y1="35" x2="144" y2="133.12" gradientUnits="userSpaceOnUse">
<stop stop-color="white"/>
<stop offset="1" stop-color="white" stop-opacity="0"/>
</linearGradient>
<linearGradient id="paint2_linear_214_608" x1="205.965" y1="21.0856" x2="205.965" y2="219.26" gradientUnits="userSpaceOnUse">
<stop stop-color="white"/>
<stop offset="1" stop-color="white" stop-opacity="0"/>
</linearGradient>
<linearGradient id="paint3_linear_214_608" x1="205.965" y1="64.5153" x2="205.965" y2="200.286" gradientUnits="userSpaceOnUse">
<stop stop-color="white"/>
<stop offset="1" stop-color="white" stop-opacity="0"/>
</linearGradient>
<linearGradient id="paint4_linear_214_608" x1="298.914" y1="148.002" x2="277.955" y2="239.559" gradientUnits="userSpaceOnUse">
<stop stop-color="#FF4D00"/>
<stop offset="1" stop-color="#FFB800"/>
</linearGradient>
<linearGradient id="paint5_linear_214_608" x1="270.478" y1="238.234" x2="308.686" y2="155.821" gradientUnits="userSpaceOnUse">
<stop stop-color="white"/>
<stop offset="1" stop-color="white" stop-opacity="0"/>
</linearGradient>
<linearGradient id="paint6_linear_214_608" x1="296.791" y1="67.4669" x2="296.791" y2="173.722" gradientUnits="userSpaceOnUse">
<stop stop-color="white"/>
<stop offset="1" stop-color="white" stop-opacity="0"/>
</linearGradient>
<linearGradient id="paint7_linear_214_608" x1="290" y1="64.5153" x2="290" y2="162.635" gradientUnits="userSpaceOnUse">
<stop stop-color="white"/>
<stop offset="1" stop-color="white" stop-opacity="0"/>
</linearGradient>
<linearGradient id="paint8_linear_214_608" x1="118.455" y1="199.092" x2="106.255" y2="239.463" gradientUnits="userSpaceOnUse">
<stop stop-color="#138EFF"/>
<stop offset="1" stop-color="#00E0FF"/>
</linearGradient>
<linearGradient id="paint9_linear_214_608" x1="118.455" y1="199.092" x2="106.255" y2="239.463" gradientUnits="userSpaceOnUse">
<stop stop-color="white"/>
<stop offset="1" stop-color="white" stop-opacity="0"/>
</linearGradient>
<linearGradient id="paint10_linear_214_608" x1="167.27" y1="199.092" x2="155.07" y2="239.463" gradientUnits="userSpaceOnUse">
<stop stop-color="#138EFF"/>
<stop offset="1" stop-color="#00E0FF"/>
</linearGradient>
<linearGradient id="paint11_linear_214_608" x1="167.27" y1="199.092" x2="155.07" y2="239.463" gradientUnits="userSpaceOnUse">
<stop stop-color="white"/>
<stop offset="1" stop-color="white" stop-opacity="0"/>
</linearGradient>
<linearGradient id="paint12_linear_214_608" x1="216.084" y1="199.092" x2="203.884" y2="239.463" gradientUnits="userSpaceOnUse">
<stop stop-color="#138EFF"/>
<stop offset="1" stop-color="#00E0FF"/>
</linearGradient>
<linearGradient id="paint13_linear_214_608" x1="216.084" y1="199.092" x2="203.884" y2="239.463" gradientUnits="userSpaceOnUse">
<stop stop-color="white"/>
<stop offset="1" stop-color="white" stop-opacity="0"/>
</linearGradient>
<linearGradient id="paint14_linear_214_608" x1="137.129" y1="237.479" x2="124.929" y2="277.85" gradientUnits="userSpaceOnUse">
<stop stop-color="#138EFF"/>
<stop offset="1" stop-color="#00E0FF"/>
</linearGradient>
<linearGradient id="paint15_linear_214_608" x1="137.129" y1="237.479" x2="124.929" y2="277.85" gradientUnits="userSpaceOnUse">
<stop stop-color="white"/>
<stop offset="1" stop-color="white" stop-opacity="0"/>
</linearGradient>
<linearGradient id="paint16_linear_214_608" x1="186.361" y1="237.479" x2="174.162" y2="277.85" gradientUnits="userSpaceOnUse">
<stop stop-color="#138EFF"/>
<stop offset="1" stop-color="#00E0FF"/>
</linearGradient>
<linearGradient id="paint17_linear_214_608" x1="186.361" y1="237.479" x2="174.162" y2="277.85" gradientUnits="userSpaceOnUse">
<stop stop-color="white"/>
<stop offset="1" stop-color="white" stop-opacity="0"/>
</linearGradient>
</defs>
</svg>
