<svg width="399" height="347" viewBox="0 0 399 347" fill="none" xmlns="http://www.w3.org/2000/svg">
<g filter="url(#filter0_bdd_214_617)">
<mask id="path-1-inside-1_214_617" fill="white">
<path fill-rule="evenodd" clip-rule="evenodd" d="M271.87 38.0983C272.741 38.047 273.236 39.0698 272.685 39.7462C254.591 61.9609 250.274 93.6437 264.238 120.753C282.214 155.65 323.981 170.346 359.551 155.226C360.355 154.885 361.205 155.643 360.913 156.465C353.616 176.996 338.78 194.898 317.855 205.646C274.23 228.053 220.661 210.879 198.206 167.286C175.751 123.692 192.913 70.1883 236.537 47.7809C247.883 41.9533 259.901 38.803 271.87 38.0983Z"/>
</mask>
<path fill-rule="evenodd" clip-rule="evenodd" d="M271.87 38.0983C272.741 38.047 273.236 39.0698 272.685 39.7462C254.591 61.9609 250.274 93.6437 264.238 120.753C282.214 155.65 323.981 170.346 359.551 155.226C360.355 154.885 361.205 155.643 360.913 156.465C353.616 176.996 338.78 194.898 317.855 205.646C274.23 228.053 220.661 210.879 198.206 167.286C175.751 123.692 192.913 70.1883 236.537 47.7809C247.883 41.9533 259.901 38.803 271.87 38.0983Z" fill="url(#paint0_linear_214_617)"/>
<path d="M264.238 120.753L262.459 121.667L262.459 121.667L264.238 120.753ZM317.855 205.646L316.939 203.868L317.855 205.646ZM198.206 167.286L196.427 168.2L198.206 167.286ZM236.537 47.7809L235.622 46.0027L236.537 47.7809ZM359.551 155.226L358.767 153.387L359.551 155.226ZM360.913 156.465L362.798 157.135L360.913 156.465ZM272.685 39.7462L271.133 38.4837L271.133 38.4837L272.685 39.7462ZM271.87 38.0983L271.989 40.0941L271.87 38.0983ZM266.017 119.839C252.43 93.4611 256.626 62.6298 274.237 41.0087L271.133 38.4837C252.555 61.292 248.118 93.8262 262.459 121.667L266.017 119.839ZM358.767 153.387C324.154 168.099 283.509 153.797 266.017 119.839L262.459 121.667C280.919 157.503 323.808 172.593 360.335 157.066L358.767 153.387ZM359.027 155.795C351.894 175.866 337.394 193.361 316.939 203.868L318.77 207.424C340.165 196.435 355.338 178.126 362.798 157.135L359.027 155.795ZM316.939 203.868C274.297 225.77 221.935 208.983 199.985 166.371L196.427 168.2C219.388 212.775 274.163 230.336 318.77 207.424L316.939 203.868ZM199.985 166.371C178.036 123.761 194.811 71.4619 237.453 49.559L235.622 46.0027C191.015 68.9148 173.466 123.624 196.427 168.2L199.985 166.371ZM237.453 49.559C248.546 43.861 260.293 40.7827 271.989 40.0941L271.751 36.1026C259.51 36.8233 247.22 40.0456 235.622 46.0027L237.453 49.559ZM360.335 157.066C359.957 157.227 359.551 157.117 359.302 156.892C359.044 156.659 358.874 156.226 359.027 155.795L362.798 157.135C363.718 154.546 361.05 152.416 358.767 153.387L360.335 157.066ZM274.237 41.0087C275.811 39.0763 274.48 35.9419 271.751 36.1026L271.989 40.0941C271.536 40.1207 271.167 39.8407 271.014 39.528C270.865 39.2247 270.873 38.8031 271.133 38.4837L274.237 41.0087Z" fill="url(#paint1_linear_214_617)" mask="url(#path-1-inside-1_214_617)"/>
</g>
<g filter="url(#filter1_bd_214_617)">
<mask id="path-3-inside-2_214_617" fill="white">
<path fill-rule="evenodd" clip-rule="evenodd" d="M264.424 281.997C264.589 281.999 264.756 282 264.922 282C288.539 282 307.684 262.878 307.684 239.289C307.684 215.701 288.539 196.578 264.922 196.578C264.756 196.578 264.589 196.579 264.424 196.581V196.578H253.377C253.776 193.655 253.982 190.671 253.982 187.638C253.982 151.433 224.596 122.082 188.347 122.082C152.098 122.082 122.712 151.433 122.712 187.638C122.712 191.055 122.974 194.41 123.478 197.686C120.357 196.961 117.104 196.578 113.762 196.578C90.1453 196.578 71 215.701 71 239.289C71 262.878 90.1453 282 113.762 282C113.929 282 114.095 281.999 114.261 281.997L114.259 282H264.424V281.997Z"/>
</mask>
<path fill-rule="evenodd" clip-rule="evenodd" d="M264.424 281.997C264.589 281.999 264.756 282 264.922 282C288.539 282 307.684 262.878 307.684 239.289C307.684 215.701 288.539 196.578 264.922 196.578C264.756 196.578 264.589 196.579 264.424 196.581V196.578H253.377C253.776 193.655 253.982 190.671 253.982 187.638C253.982 151.433 224.596 122.082 188.347 122.082C152.098 122.082 122.712 151.433 122.712 187.638C122.712 191.055 122.974 194.41 123.478 197.686C120.357 196.961 117.104 196.578 113.762 196.578C90.1453 196.578 71 215.701 71 239.289C71 262.878 90.1453 282 113.762 282C113.929 282 114.095 281.999 114.261 281.997L114.259 282H264.424V281.997Z" fill="url(#paint2_linear_214_617)" shape-rendering="crispEdges"/>
<path d="M264.424 281.997L264.446 279.997C263.912 279.991 263.397 280.199 263.017 280.575C262.637 280.951 262.424 281.463 262.424 281.997H264.424ZM264.424 196.581H262.424C262.424 197.116 262.637 197.628 263.017 198.004C263.397 198.379 263.912 198.587 264.446 198.581L264.424 196.581ZM264.424 196.578H266.424C266.424 195.474 265.528 194.578 264.424 194.578V196.578ZM253.377 196.578L251.395 196.308C251.317 196.88 251.49 197.458 251.87 197.894C252.25 198.329 252.799 198.578 253.377 198.578V196.578ZM123.478 197.686L123.026 199.634C123.673 199.784 124.352 199.603 124.838 199.152C125.325 198.701 125.556 198.037 125.455 197.381L123.478 197.686ZM114.261 281.997L115.832 283.234C116.309 282.629 116.396 281.804 116.055 281.114C115.715 280.423 115.008 279.988 114.238 279.997L114.261 281.997ZM114.259 282L112.688 280.763C112.214 281.364 112.125 282.184 112.46 282.873C112.794 283.562 113.493 284 114.259 284V282ZM264.424 282V284C265.528 284 266.424 283.105 266.424 282H264.424ZM264.401 283.997C264.574 283.999 264.748 284 264.922 284V280C264.763 280 264.605 279.999 264.446 279.997L264.401 283.997ZM264.922 284C289.641 284 309.684 263.985 309.684 239.289H305.684C305.684 261.771 287.436 280 264.922 280V284ZM309.684 239.289C309.684 214.594 289.641 194.578 264.922 194.578V198.578C287.436 198.578 305.684 216.808 305.684 239.289H309.684ZM264.922 194.578C264.748 194.578 264.574 194.579 264.401 194.581L264.446 198.581C264.605 198.579 264.763 198.578 264.922 198.578V194.578ZM262.424 196.578V196.581H266.424V196.578H262.424ZM253.377 198.578H264.424V194.578H253.377V198.578ZM255.359 196.849C255.77 193.836 255.982 190.762 255.982 187.638H251.982C251.982 190.58 251.782 193.474 251.395 196.308L255.359 196.849ZM255.982 187.638C255.982 150.326 225.699 120.082 188.347 120.082V124.082C223.494 124.082 251.982 152.54 251.982 187.638H255.982ZM188.347 120.082C150.996 120.082 120.712 150.326 120.712 187.638H124.712C124.712 152.54 153.2 124.082 188.347 124.082V120.082ZM120.712 187.638C120.712 191.157 120.982 194.614 121.502 197.99L125.455 197.381C124.966 194.206 124.712 190.953 124.712 187.638H120.712ZM123.93 195.737C120.662 194.979 117.258 194.578 113.762 194.578V198.578C116.951 198.578 120.052 198.944 123.026 199.634L123.93 195.737ZM113.762 194.578C89.043 194.578 69 214.594 69 239.289H73C73 216.808 91.2476 198.578 113.762 198.578V194.578ZM69 239.289C69 263.985 89.043 284 113.762 284V280C91.2476 280 73 261.771 73 239.289H69ZM113.762 284C113.936 284 114.11 283.999 114.284 283.997L114.238 279.997C114.08 279.999 113.921 280 113.762 280V284ZM115.83 283.237L115.832 283.234L112.69 280.76L112.688 280.763L115.83 283.237ZM264.424 280H114.259V284H264.424V280ZM262.424 281.997V282H266.424V281.997H262.424Z" fill="url(#paint3_linear_214_617)" mask="url(#path-3-inside-2_214_617)"/>
</g>
<defs>
<filter id="filter0_bdd_214_617" x="117.338" y="0.0964355" width="281.633" height="280.385" filterUnits="userSpaceOnUse" color-interpolation-filters="sRGB">
<feFlood flood-opacity="0" result="BackgroundImageFix"/>
<feGaussianBlur in="BackgroundImageFix" stdDeviation="7"/>
<feComposite in2="SourceAlpha" operator="in" result="effect1_backgroundBlur_214_617"/>
<feColorMatrix in="SourceAlpha" type="matrix" values="0 0 0 0 0 0 0 0 0 0 0 0 0 0 0 0 0 0 127 0" result="hardAlpha"/>
<feOffset dx="-21" dy="15"/>
<feGaussianBlur stdDeviation="25"/>
<feComposite in2="hardAlpha" operator="out"/>
<feColorMatrix type="matrix" values="0 0 0 0 0.113438 0 0 0 0 0.148981 0 0 0 0 0.275 0 0 0 0.25 0"/>
<feBlend mode="normal" in2="effect1_backgroundBlur_214_617" result="effect2_dropShadow_214_617"/>
<feColorMatrix in="SourceAlpha" type="matrix" values="0 0 0 0 0 0 0 0 0 0 0 0 0 0 0 0 0 0 127 0" result="hardAlpha"/>
<feOffset/>
<feGaussianBlur stdDeviation="19"/>
<feComposite in2="hardAlpha" operator="out"/>
<feColorMatrix type="matrix" values="0 0 0 0 0.619608 0 0 0 0 0.423529 0 0 0 0 1 0 0 0 0.4 0"/>
<feBlend mode="normal" in2="effect2_dropShadow_214_617" result="effect3_dropShadow_214_617"/>
<feBlend mode="normal" in="SourceGraphic" in2="effect3_dropShadow_214_617" result="shape"/>
</filter>
<filter id="filter1_bd_214_617" x="0" y="87.0824" width="336.684" height="259.918" filterUnits="userSpaceOnUse" color-interpolation-filters="sRGB">
<feFlood flood-opacity="0" result="BackgroundImageFix"/>
<feGaussianBlur in="BackgroundImageFix" stdDeviation="7"/>
<feComposite in2="SourceAlpha" operator="in" result="effect1_backgroundBlur_214_617"/>
<feColorMatrix in="SourceAlpha" type="matrix" values="0 0 0 0 0 0 0 0 0 0 0 0 0 0 0 0 0 0 127 0" result="hardAlpha"/>
<feOffset dx="-21" dy="15"/>
<feGaussianBlur stdDeviation="25"/>
<feComposite in2="hardAlpha" operator="out"/>
<feColorMatrix type="matrix" values="0 0 0 0 0.113438 0 0 0 0 0.148981 0 0 0 0 0.275 0 0 0 0.25 0"/>
<feBlend mode="normal" in2="effect1_backgroundBlur_214_617" result="effect2_dropShadow_214_617"/>
<feBlend mode="normal" in="SourceGraphic" in2="effect2_dropShadow_214_617" result="shape"/>
</filter>
<linearGradient id="paint0_linear_214_617" x1="221.92" y1="57.049" x2="303.068" y2="215.001" gradientUnits="userSpaceOnUse">
<stop offset="0.0001" stop-color="#D4C0FF"/>
<stop offset="1" stop-color="#7E2FFF"/>
</linearGradient>
<linearGradient id="paint1_linear_214_617" x1="232.105" y1="-30.4444" x2="284.08" y2="176.766" gradientUnits="userSpaceOnUse">
<stop stop-color="white"/>
<stop offset="1" stop-color="white" stop-opacity="0"/>
</linearGradient>
<linearGradient id="paint2_linear_214_617" x1="200.351" y1="126.893" x2="200.351" y2="300.07" gradientUnits="userSpaceOnUse">
<stop stop-color="white"/>
<stop offset="1" stop-color="white" stop-opacity="0"/>
</linearGradient>
<linearGradient id="paint3_linear_214_617" x1="189.342" y1="122.082" x2="189.342" y2="282" gradientUnits="userSpaceOnUse">
<stop stop-color="white"/>
<stop offset="1" stop-color="white" stop-opacity="0"/>
</linearGradient>
</defs>
</svg>
