<svg width="352" height="354" viewBox="0 0 352 354" fill="none" xmlns="http://www.w3.org/2000/svg">
<g filter="url(#filter0_bdd_214_616)">
<mask id="path-1-inside-1_214_616" fill="white">
<path fill-rule="evenodd" clip-rule="evenodd" d="M208.693 38.81C212.114 38.1055 214.239 42.1636 212.537 45.2036C205.445 57.8732 204.659 73.7419 211.841 87.6288C221.498 106.302 242.465 115.402 262.087 110.875C265.493 110.089 268.816 113.25 267.185 116.331C262.234 125.69 254.449 133.676 244.285 138.876C217.909 152.369 185.499 141.985 171.895 115.682C158.292 89.3786 168.646 57.1169 195.022 43.6234C199.449 41.3591 204.045 39.7672 208.693 38.81Z"/>
</mask>
<path fill-rule="evenodd" clip-rule="evenodd" d="M208.693 38.81C212.114 38.1055 214.239 42.1636 212.537 45.2036C205.445 57.8732 204.659 73.7419 211.841 87.6288C221.498 106.302 242.465 115.402 262.087 110.875C265.493 110.089 268.816 113.25 267.185 116.331C262.234 125.69 254.449 133.676 244.285 138.876C217.909 152.369 185.499 141.985 171.895 115.682C158.292 89.3786 168.646 57.1169 195.022 43.6234C199.449 41.3591 204.045 39.7672 208.693 38.81Z" fill="url(#paint0_linear_214_616)"/>
<path d="M211.841 87.6288L213.621 86.7167L213.621 86.7167L211.841 87.6288ZM244.285 138.876L243.367 137.099L243.367 137.099L244.285 138.876ZM171.895 115.682L173.675 114.77L171.895 115.682ZM195.022 43.6234L194.105 41.8463L195.022 43.6234ZM262.087 110.875L261.631 108.929L262.087 110.875ZM267.185 116.331L265.413 115.396L267.185 116.331ZM213.621 86.7167C206.759 73.4501 207.508 58.2902 214.286 46.1796L210.787 44.2276C203.383 57.4562 202.558 74.0337 210.061 88.5409L213.621 86.7167ZM261.631 108.929C242.88 113.255 222.847 104.556 213.621 86.7167L210.061 88.5409C220.149 108.048 242.049 117.548 262.543 112.82L261.631 108.929ZM265.413 115.396C260.647 124.405 253.155 132.092 243.367 137.099L245.202 140.653C255.743 135.261 263.821 126.975 268.958 117.266L265.413 115.396ZM243.367 137.099C217.973 150.09 186.771 140.091 173.675 114.77L170.115 116.594C184.226 143.879 217.844 154.649 245.202 140.653L243.367 137.099ZM173.675 114.77C160.58 89.4489 170.547 58.3911 195.94 45.4005L194.105 41.8463C166.746 55.8427 156.004 89.3083 170.115 116.594L173.675 114.77ZM195.94 45.4005C200.204 43.2191 204.629 41.6869 209.102 40.7658L208.284 36.8543C203.46 37.8475 198.693 39.4991 194.105 41.8463L195.94 45.4005ZM262.543 112.82C263.528 112.593 264.503 112.943 265.091 113.545C265.637 114.103 265.761 114.74 265.413 115.396L268.958 117.266C270.24 114.841 269.518 112.358 267.958 110.761C266.441 109.209 264.052 108.371 261.631 108.929L262.543 112.82ZM214.286 46.1796C215.496 44.0188 215.351 41.5 214.276 39.6175C213.171 37.6815 210.978 36.2996 208.284 36.8543L209.102 40.7658C209.83 40.6159 210.409 40.9109 210.796 41.5877C211.213 42.3182 211.279 43.3485 210.787 44.2276L214.286 46.1796Z" fill="url(#paint1_linear_214_616)" mask="url(#path-1-inside-1_214_616)"/>
</g>
<g filter="url(#filter1_bd_214_616)">
<mask id="path-3-inside-2_214_616" fill="white">
<path fill-rule="evenodd" clip-rule="evenodd" d="M232.23 232.341C232.368 232.343 232.506 232.343 232.644 232.343C252.331 232.343 268.289 216.458 268.289 196.862C268.289 177.266 252.331 161.38 232.644 161.38C232.506 161.38 232.368 161.381 232.23 161.383V161.38H223.022C223.354 158.952 223.526 156.473 223.526 153.954C223.526 123.877 199.031 99.494 168.816 99.494C138.6 99.494 114.105 123.877 114.105 153.954C114.105 156.792 114.323 159.579 114.744 162.3C112.142 161.698 109.431 161.38 106.645 161.38C86.9587 161.38 71 177.266 71 196.862C71 216.458 86.9587 232.343 106.645 232.343C106.784 232.343 106.922 232.343 107.061 232.341L107.059 232.343H232.23V232.341Z"/>
</mask>
<path fill-rule="evenodd" clip-rule="evenodd" d="M232.23 232.341C232.368 232.343 232.506 232.343 232.644 232.343C252.331 232.343 268.289 216.458 268.289 196.862C268.289 177.266 252.331 161.38 232.644 161.38C232.506 161.38 232.368 161.381 232.23 161.383V161.38H223.022C223.354 158.952 223.526 156.473 223.526 153.954C223.526 123.877 199.031 99.494 168.816 99.494C138.6 99.494 114.105 123.877 114.105 153.954C114.105 156.792 114.323 159.579 114.744 162.3C112.142 161.698 109.431 161.38 106.645 161.38C86.9587 161.38 71 177.266 71 196.862C71 216.458 86.9587 232.343 106.645 232.343C106.784 232.343 106.922 232.343 107.061 232.341L107.059 232.343H232.23V232.341Z" fill="url(#paint2_linear_214_616)" shape-rendering="crispEdges"/>
<path d="M232.23 232.341L232.253 230.341C231.718 230.335 231.204 230.543 230.824 230.919C230.444 231.295 230.23 231.807 230.23 232.341H232.23ZM232.23 161.383H230.23C230.23 161.917 230.444 162.429 230.824 162.805C231.204 163.181 231.719 163.389 232.253 163.383L232.23 161.383ZM232.23 161.38H234.23C234.23 160.276 233.335 159.38 232.23 159.38V161.38ZM223.022 161.38L221.04 161.109C220.962 161.681 221.135 162.26 221.515 162.695C221.895 163.13 222.444 163.38 223.022 163.38V161.38ZM114.744 162.3L114.293 164.249C114.94 164.398 115.618 164.217 116.105 163.766C116.591 163.314 116.821 162.651 116.72 161.995L114.744 162.3ZM107.061 232.341L108.628 233.584C109.107 232.98 109.196 232.154 108.857 231.461C108.517 230.768 107.81 230.332 107.038 230.341L107.061 232.341ZM107.059 232.343L105.492 231.1C105.015 231.701 104.924 232.522 105.258 233.213C105.592 233.904 106.292 234.343 107.059 234.343V232.343ZM232.23 232.343V234.343C233.335 234.343 234.23 233.448 234.23 232.343H232.23ZM232.208 234.341C232.353 234.343 232.499 234.343 232.644 234.343V230.343C232.514 230.343 232.383 230.343 232.253 230.341L232.208 234.341ZM232.644 234.343C253.426 234.343 270.289 217.571 270.289 196.862H266.289C266.289 215.345 251.235 230.343 232.644 230.343V234.343ZM270.289 196.862C270.289 176.153 253.426 159.38 232.644 159.38V163.38C251.235 163.38 266.289 178.379 266.289 196.862H270.289ZM232.644 159.38C232.499 159.38 232.353 159.381 232.207 159.383L232.253 163.383C232.383 163.381 232.514 163.38 232.644 163.38V159.38ZM230.23 161.38V161.383H234.23V161.38H230.23ZM223.022 163.38H232.23V159.38H223.022V163.38ZM225.003 161.652C225.348 159.134 225.526 156.564 225.526 153.954H221.526C221.526 156.382 221.361 158.77 221.04 161.109L225.003 161.652ZM225.526 153.954C225.526 122.763 200.127 97.494 168.816 97.494V101.494C197.936 101.494 221.526 124.99 221.526 153.954H225.526ZM168.816 97.494C137.504 97.494 112.105 122.763 112.105 153.954H116.105C116.105 124.99 139.696 101.494 168.816 101.494V97.494ZM112.105 153.954C112.105 156.895 112.331 159.784 112.767 162.606L116.72 161.995C116.315 159.375 116.105 156.689 116.105 153.954H112.105ZM115.194 160.352C112.446 159.716 109.583 159.38 106.645 159.38V163.38C109.278 163.38 111.838 163.681 114.293 164.249L115.194 160.352ZM106.645 159.38C85.8628 159.38 69 176.153 69 196.862H73C73 178.379 88.0546 163.38 106.645 163.38V159.38ZM69 196.862C69 217.571 85.8628 234.343 106.645 234.343V230.343C88.0546 230.343 73 215.345 73 196.862H69ZM106.645 234.343C106.791 234.343 106.938 234.343 107.084 234.341L107.038 230.341C106.907 230.343 106.776 230.343 106.645 230.343V234.343ZM108.626 233.587L108.628 233.584L105.494 231.098L105.492 231.1L108.626 233.587ZM232.23 230.343H107.059V234.343H232.23V230.343ZM230.23 232.341V232.343H234.23V232.341H230.23Z" fill="url(#paint3_linear_214_616)" mask="url(#path-3-inside-2_214_616)"/>
</g>
<g filter="url(#filter2_bd_214_616)">
<mask id="path-5-inside-3_214_616" fill="white">
<path fill-rule="evenodd" clip-rule="evenodd" d="M296.941 195.501C297.041 195.502 297.141 195.503 297.241 195.503C311.468 195.503 323.001 184.023 323.001 169.861C323.001 155.699 311.468 144.219 297.241 144.219C297.141 144.219 297.041 144.219 296.941 144.22V144.219H290.287C290.527 142.464 290.651 140.672 290.651 138.852C290.651 117.115 272.949 99.494 251.112 99.494C229.276 99.494 211.574 117.115 211.574 138.852C211.574 140.903 211.731 142.917 212.035 144.884C210.155 144.449 208.195 144.219 206.182 144.219C191.955 144.219 180.422 155.699 180.422 169.861C180.422 184.023 191.955 195.503 206.182 195.503C206.282 195.503 206.383 195.502 206.483 195.501L206.481 195.503H296.941V195.501Z"/>
</mask>
<path fill-rule="evenodd" clip-rule="evenodd" d="M296.941 195.501C297.041 195.502 297.141 195.503 297.241 195.503C311.468 195.503 323.001 184.023 323.001 169.861C323.001 155.699 311.468 144.219 297.241 144.219C297.141 144.219 297.041 144.219 296.941 144.22V144.219H290.287C290.527 142.464 290.651 140.672 290.651 138.852C290.651 117.115 272.949 99.494 251.112 99.494C229.276 99.494 211.574 117.115 211.574 138.852C211.574 140.903 211.731 142.917 212.035 144.884C210.155 144.449 208.195 144.219 206.182 144.219C191.955 144.219 180.422 155.699 180.422 169.861C180.422 184.023 191.955 195.503 206.182 195.503C206.282 195.503 206.383 195.502 206.483 195.501L206.481 195.503H296.941V195.501Z" fill="url(#paint4_linear_214_616)" shape-rendering="crispEdges"/>
<path d="M296.941 195.501L296.964 193.501C296.429 193.495 295.915 193.703 295.535 194.079C295.155 194.455 294.941 194.967 294.941 195.501H296.941ZM296.941 144.22H294.941C294.941 144.755 295.155 145.267 295.535 145.643C295.915 146.018 296.43 146.226 296.964 146.22L296.941 144.22ZM296.941 144.219H298.941C298.941 143.114 298.046 142.219 296.941 142.219V144.219ZM290.287 144.219L288.305 143.947C288.227 144.52 288.4 145.098 288.779 145.533C289.159 145.969 289.709 146.219 290.287 146.219V144.219ZM212.035 144.884L211.584 146.832C212.231 146.982 212.91 146.801 213.396 146.349C213.882 145.897 214.113 145.234 214.012 144.578L212.035 144.884ZM206.483 195.501L208.049 196.745C208.529 196.14 208.618 195.314 208.279 194.621C207.939 193.928 207.231 193.493 206.46 193.501L206.483 195.501ZM206.481 195.503L204.915 194.26C204.438 194.861 204.347 195.682 204.681 196.373C205.014 197.064 205.714 197.503 206.481 197.503V195.503ZM296.941 195.503V197.503C298.046 197.503 298.941 196.608 298.941 195.503H296.941ZM296.919 197.501C297.026 197.502 297.133 197.503 297.241 197.503V193.503C297.148 193.503 297.056 193.502 296.964 193.501L296.919 197.501ZM297.241 197.503C312.564 197.503 325.001 185.136 325.001 169.861H321.001C321.001 182.909 310.372 193.503 297.241 193.503V197.503ZM325.001 169.861C325.001 154.586 312.564 142.219 297.241 142.219V146.219C310.372 146.219 321.001 156.812 321.001 169.861H325.001ZM297.241 142.219C297.133 142.219 297.026 142.219 296.918 142.221L296.964 146.22C297.056 146.219 297.148 146.219 297.241 146.219V142.219ZM294.941 144.219V144.22H298.941V144.219H294.941ZM290.287 146.219H296.941V142.219H290.287V146.219ZM292.268 144.49C292.521 142.646 292.651 140.763 292.651 138.852H288.651C288.651 140.581 288.533 142.282 288.305 143.947L292.268 144.49ZM292.651 138.852C292.651 116.002 274.045 97.494 251.112 97.494V101.494C271.853 101.494 288.651 118.228 288.651 138.852H292.651ZM251.112 97.494C228.18 97.494 209.574 116.002 209.574 138.852H213.574C213.574 118.228 230.372 101.494 251.112 101.494V97.494ZM209.574 138.852C209.574 141.005 209.739 143.122 210.059 145.189L214.012 144.578C213.723 142.712 213.574 140.8 213.574 138.852H209.574ZM212.486 142.935C210.459 142.466 208.348 142.219 206.182 142.219V146.219C208.043 146.219 209.851 146.431 211.584 146.832L212.486 142.935ZM206.182 142.219C190.859 142.219 178.422 154.586 178.422 169.861H182.422C182.422 156.812 193.051 146.219 206.182 146.219V142.219ZM178.422 169.861C178.422 185.136 190.859 197.503 206.182 197.503V193.503C193.051 193.503 182.422 182.909 182.422 169.861H178.422ZM206.182 197.503C206.29 197.503 206.398 197.502 206.505 197.501L206.46 193.501C206.367 193.502 206.275 193.503 206.182 193.503V197.503ZM208.048 196.746L208.049 196.745L204.916 194.258L204.915 194.26L208.048 196.746ZM296.941 193.503H206.481V197.503H296.941V193.503ZM294.941 195.501V195.503H298.941V195.501H294.941Z" fill="url(#paint5_linear_214_616)" mask="url(#path-5-inside-3_214_616)"/>
</g>
<g filter="url(#filter3_bdd_214_616)">
<path d="M128.171 226.107L129.144 239.665C129.641 246.601 123.013 251.891 116.352 249.874C109.691 247.858 107.144 239.79 111.438 234.304L119.83 223.582C122.466 220.214 127.866 221.849 128.171 226.107Z" fill="url(#paint6_linear_214_616)" stroke="url(#paint7_linear_214_616)" stroke-width="2"/>
<path d="M175.843 226.107L176.815 239.665C177.313 246.601 170.685 251.891 164.024 249.874C157.363 247.858 154.816 239.79 159.11 234.304L167.502 223.582C170.138 220.214 175.537 221.849 175.843 226.107Z" fill="url(#paint8_linear_214_616)" stroke="url(#paint9_linear_214_616)" stroke-width="2"/>
<path d="M223.513 226.107L224.485 239.665C224.983 246.601 218.355 251.891 211.694 249.874C205.033 247.858 202.486 239.79 206.779 234.304L215.172 223.582C217.808 220.214 223.207 221.849 223.513 226.107Z" fill="url(#paint10_linear_214_616)" stroke="url(#paint11_linear_214_616)" stroke-width="2"/>
</g>
<g filter="url(#filter4_bdd_214_616)">
<path d="M140.751 263.668L141.724 277.226C142.221 284.162 135.593 289.452 128.932 287.435C122.271 285.419 119.725 277.351 124.018 271.865L132.41 261.143C135.046 257.775 140.446 259.41 140.751 263.668Z" fill="url(#paint12_linear_214_616)" stroke="url(#paint13_linear_214_616)" stroke-width="2"/>
<path d="M181.026 263.668L181.999 277.226C182.497 284.162 175.868 289.452 169.207 287.435C162.546 285.419 160 277.351 164.293 271.865L172.685 261.143C175.321 257.775 180.721 259.41 181.026 263.668Z" fill="url(#paint14_linear_214_616)" stroke="url(#paint15_linear_214_616)" stroke-width="2"/>
</g>
<defs>
<filter id="filter0_bdd_214_616" x="94.9062" y="0.72937" width="210.707" height="209.059" filterUnits="userSpaceOnUse" color-interpolation-filters="sRGB">
<feFlood flood-opacity="0" result="BackgroundImageFix"/>
<feGaussianBlur in="BackgroundImageFix" stdDeviation="7"/>
<feComposite in2="SourceAlpha" operator="in" result="effect1_backgroundBlur_214_616"/>
<feColorMatrix in="SourceAlpha" type="matrix" values="0 0 0 0 0 0 0 0 0 0 0 0 0 0 0 0 0 0 127 0" result="hardAlpha"/>
<feOffset dx="-21" dy="15"/>
<feGaussianBlur stdDeviation="25"/>
<feComposite in2="hardAlpha" operator="out"/>
<feColorMatrix type="matrix" values="0 0 0 0 0.113438 0 0 0 0 0.148981 0 0 0 0 0.275 0 0 0 0.25 0"/>
<feBlend mode="normal" in2="effect1_backgroundBlur_214_616" result="effect2_dropShadow_214_616"/>
<feColorMatrix in="SourceAlpha" type="matrix" values="0 0 0 0 0 0 0 0 0 0 0 0 0 0 0 0 0 0 127 0" result="hardAlpha"/>
<feOffset/>
<feGaussianBlur stdDeviation="19"/>
<feComposite in2="hardAlpha" operator="out"/>
<feColorMatrix type="matrix" values="0 0 0 0 0.619608 0 0 0 0 0.423529 0 0 0 0 1 0 0 0 0.4 0"/>
<feBlend mode="normal" in2="effect2_dropShadow_214_616" result="effect3_dropShadow_214_616"/>
<feBlend mode="normal" in="SourceGraphic" in2="effect3_dropShadow_214_616" result="shape"/>
</filter>
<filter id="filter1_bd_214_616" x="0" y="64.494" width="297.289" height="232.849" filterUnits="userSpaceOnUse" color-interpolation-filters="sRGB">
<feFlood flood-opacity="0" result="BackgroundImageFix"/>
<feGaussianBlur in="BackgroundImageFix" stdDeviation="7"/>
<feComposite in2="SourceAlpha" operator="in" result="effect1_backgroundBlur_214_616"/>
<feColorMatrix in="SourceAlpha" type="matrix" values="0 0 0 0 0 0 0 0 0 0 0 0 0 0 0 0 0 0 127 0" result="hardAlpha"/>
<feOffset dx="-21" dy="15"/>
<feGaussianBlur stdDeviation="25"/>
<feComposite in2="hardAlpha" operator="out"/>
<feColorMatrix type="matrix" values="0 0 0 0 0.113725 0 0 0 0 0.14902 0 0 0 0 0.27451 0 0 0 0.25 0"/>
<feBlend mode="normal" in2="effect1_backgroundBlur_214_616" result="effect2_dropShadow_214_616"/>
<feBlend mode="normal" in="SourceGraphic" in2="effect2_dropShadow_214_616" result="shape"/>
</filter>
<filter id="filter2_bd_214_616" x="109.422" y="64.494" width="242.578" height="196.009" filterUnits="userSpaceOnUse" color-interpolation-filters="sRGB">
<feFlood flood-opacity="0" result="BackgroundImageFix"/>
<feGaussianBlur in="BackgroundImageFix" stdDeviation="7"/>
<feComposite in2="SourceAlpha" operator="in" result="effect1_backgroundBlur_214_616"/>
<feColorMatrix in="SourceAlpha" type="matrix" values="0 0 0 0 0 0 0 0 0 0 0 0 0 0 0 0 0 0 127 0" result="hardAlpha"/>
<feOffset dx="-21" dy="15"/>
<feGaussianBlur stdDeviation="25"/>
<feComposite in2="hardAlpha" operator="out"/>
<feColorMatrix type="matrix" values="0 0 0 0 0.113438 0 0 0 0 0.148981 0 0 0 0 0.275 0 0 0 0.25 0"/>
<feBlend mode="normal" in2="effect1_backgroundBlur_214_616" result="effect2_dropShadow_214_616"/>
<feBlend mode="normal" in="SourceGraphic" in2="effect2_dropShadow_214_616" result="shape"/>
</filter>
<filter id="filter3_bdd_214_616" x="37.3223" y="172.777" width="229.189" height="143.531" filterUnits="userSpaceOnUse" color-interpolation-filters="sRGB">
<feFlood flood-opacity="0" result="BackgroundImageFix"/>
<feGaussianBlur in="BackgroundImageFix" stdDeviation="7"/>
<feComposite in2="SourceAlpha" operator="in" result="effect1_backgroundBlur_214_616"/>
<feColorMatrix in="SourceAlpha" type="matrix" values="0 0 0 0 0 0 0 0 0 0 0 0 0 0 0 0 0 0 127 0" result="hardAlpha"/>
<feOffset dx="-21" dy="15"/>
<feGaussianBlur stdDeviation="25"/>
<feComposite in2="hardAlpha" operator="out"/>
<feColorMatrix type="matrix" values="0 0 0 0 0.113438 0 0 0 0 0.148981 0 0 0 0 0.275 0 0 0 0.25 0"/>
<feBlend mode="normal" in2="effect1_backgroundBlur_214_616" result="effect2_dropShadow_214_616"/>
<feColorMatrix in="SourceAlpha" type="matrix" values="0 0 0 0 0 0 0 0 0 0 0 0 0 0 0 0 0 0 127 0" result="hardAlpha"/>
<feOffset dy="-7"/>
<feGaussianBlur stdDeviation="20.5"/>
<feComposite in2="hardAlpha" operator="out"/>
<feColorMatrix type="matrix" values="0 0 0 0 0.1375 0 0 0 0 0.74125 0 0 0 0 1 0 0 0 0.3 0"/>
<feBlend mode="normal" in2="effect2_dropShadow_214_616" result="effect3_dropShadow_214_616"/>
<feBlend mode="normal" in="SourceGraphic" in2="effect3_dropShadow_214_616" result="shape"/>
</filter>
<filter id="filter4_bdd_214_616" x="49.9023" y="210.338" width="174.123" height="143.531" filterUnits="userSpaceOnUse" color-interpolation-filters="sRGB">
<feFlood flood-opacity="0" result="BackgroundImageFix"/>
<feGaussianBlur in="BackgroundImageFix" stdDeviation="7"/>
<feComposite in2="SourceAlpha" operator="in" result="effect1_backgroundBlur_214_616"/>
<feColorMatrix in="SourceAlpha" type="matrix" values="0 0 0 0 0 0 0 0 0 0 0 0 0 0 0 0 0 0 127 0" result="hardAlpha"/>
<feOffset dx="-21" dy="15"/>
<feGaussianBlur stdDeviation="25"/>
<feComposite in2="hardAlpha" operator="out"/>
<feColorMatrix type="matrix" values="0 0 0 0 0.113438 0 0 0 0 0.148981 0 0 0 0 0.275 0 0 0 0.25 0"/>
<feBlend mode="normal" in2="effect1_backgroundBlur_214_616" result="effect2_dropShadow_214_616"/>
<feColorMatrix in="SourceAlpha" type="matrix" values="0 0 0 0 0 0 0 0 0 0 0 0 0 0 0 0 0 0 127 0" result="hardAlpha"/>
<feOffset dy="-7"/>
<feGaussianBlur stdDeviation="20.5"/>
<feComposite in2="hardAlpha" operator="out"/>
<feColorMatrix type="matrix" values="0 0 0 0 0.1375 0 0 0 0 0.74125 0 0 0 0 1 0 0 0 0.3 0"/>
<feBlend mode="normal" in2="effect2_dropShadow_214_616" result="effect3_dropShadow_214_616"/>
<feBlend mode="normal" in="SourceGraphic" in2="effect3_dropShadow_214_616" result="shape"/>
</filter>
<linearGradient id="paint0_linear_214_616" x1="184.204" y1="50.2239" x2="233.077" y2="145.676" gradientUnits="userSpaceOnUse">
<stop offset="0.0001" stop-color="#D4C0FF"/>
<stop offset="1" stop-color="#7E2FFF"/>
</linearGradient>
<linearGradient id="paint1_linear_214_616" x1="188.959" y1="-1.85203" x2="218.59" y2="123.242" gradientUnits="userSpaceOnUse">
<stop stop-color="white"/>
<stop offset="1" stop-color="white" stop-opacity="0"/>
</linearGradient>
<linearGradient id="paint2_linear_214_616" x1="169.645" y1="56.9986" x2="169.645" y2="250.91" gradientUnits="userSpaceOnUse">
<stop stop-color="white"/>
<stop offset="1" stop-color="white" stop-opacity="0"/>
</linearGradient>
<linearGradient id="paint3_linear_214_616" x1="169.645" y1="99.494" x2="169.645" y2="232.344" gradientUnits="userSpaceOnUse">
<stop stop-color="white"/>
<stop offset="1" stop-color="white" stop-opacity="0"/>
</linearGradient>
<linearGradient id="paint4_linear_214_616" x1="258.343" y1="102.382" x2="258.343" y2="206.351" gradientUnits="userSpaceOnUse">
<stop stop-color="white"/>
<stop offset="1" stop-color="white" stop-opacity="0"/>
</linearGradient>
<linearGradient id="paint5_linear_214_616" x1="251.711" y1="99.494" x2="251.711" y2="195.503" gradientUnits="userSpaceOnUse">
<stop stop-color="white"/>
<stop offset="1" stop-color="white" stop-opacity="0"/>
</linearGradient>
<linearGradient id="paint6_linear_214_616" x1="128.117" y1="211.372" x2="116.16" y2="250.861" gradientUnits="userSpaceOnUse">
<stop stop-color="#138EFF"/>
<stop offset="1" stop-color="#00E0FF"/>
</linearGradient>
<linearGradient id="paint7_linear_214_616" x1="128.117" y1="211.372" x2="116.16" y2="250.861" gradientUnits="userSpaceOnUse">
<stop stop-color="white"/>
<stop offset="1" stop-color="white" stop-opacity="0"/>
</linearGradient>
<linearGradient id="paint8_linear_214_616" x1="175.789" y1="211.372" x2="163.832" y2="250.861" gradientUnits="userSpaceOnUse">
<stop stop-color="#138EFF"/>
<stop offset="1" stop-color="#00E0FF"/>
</linearGradient>
<linearGradient id="paint9_linear_214_616" x1="175.789" y1="211.372" x2="163.832" y2="250.861" gradientUnits="userSpaceOnUse">
<stop stop-color="white"/>
<stop offset="1" stop-color="white" stop-opacity="0"/>
</linearGradient>
<linearGradient id="paint10_linear_214_616" x1="223.459" y1="211.372" x2="211.502" y2="250.861" gradientUnits="userSpaceOnUse">
<stop stop-color="#138EFF"/>
<stop offset="1" stop-color="#00E0FF"/>
</linearGradient>
<linearGradient id="paint11_linear_214_616" x1="223.459" y1="211.372" x2="211.502" y2="250.861" gradientUnits="userSpaceOnUse">
<stop stop-color="white"/>
<stop offset="1" stop-color="white" stop-opacity="0"/>
</linearGradient>
<linearGradient id="paint12_linear_214_616" x1="140.697" y1="248.933" x2="128.741" y2="288.422" gradientUnits="userSpaceOnUse">
<stop stop-color="#138EFF"/>
<stop offset="1" stop-color="#00E0FF"/>
</linearGradient>
<linearGradient id="paint13_linear_214_616" x1="140.697" y1="248.933" x2="128.741" y2="288.422" gradientUnits="userSpaceOnUse">
<stop stop-color="white"/>
<stop offset="1" stop-color="white" stop-opacity="0"/>
</linearGradient>
<linearGradient id="paint14_linear_214_616" x1="180.973" y1="248.933" x2="169.016" y2="288.422" gradientUnits="userSpaceOnUse">
<stop stop-color="#138EFF"/>
<stop offset="1" stop-color="#00E0FF"/>
</linearGradient>
<linearGradient id="paint15_linear_214_616" x1="180.973" y1="248.933" x2="169.016" y2="288.422" gradientUnits="userSpaceOnUse">
<stop stop-color="white"/>
<stop offset="1" stop-color="white" stop-opacity="0"/>
</linearGradient>
</defs>
</svg>
