<svg width="370" height="364" viewBox="0 0 370 364" fill="none" xmlns="http://www.w3.org/2000/svg">
<g filter="url(#filter0_bdd_214_618)">
<mask id="path-1-inside-1_214_618" fill="white">
<path d="M332 168.5C332 240.573 273.573 299 201.5 299C129.427 299 71 240.573 71 168.5C71 96.4268 129.427 38 201.5 38C273.573 38 332 96.4268 332 168.5Z"/>
</mask>
<path d="M332 168.5C332 240.573 273.573 299 201.5 299C129.427 299 71 240.573 71 168.5C71 96.4268 129.427 38 201.5 38C273.573 38 332 96.4268 332 168.5Z" fill="url(#paint0_linear_214_618)"/>
<path d="M330 168.5C330 239.469 272.469 297 201.5 297V301C274.678 301 334 241.678 334 168.5H330ZM201.5 297C130.531 297 73 239.469 73 168.5H69C69 241.678 128.322 301 201.5 301V297ZM73 168.5C73 97.5314 130.531 40 201.5 40V36C128.322 36 69 95.3223 69 168.5H73ZM201.5 40C272.469 40 330 97.5314 330 168.5H334C334 95.3223 274.678 36 201.5 36V40Z" fill="url(#paint1_linear_214_618)" mask="url(#path-1-inside-1_214_618)"/>
</g>
<defs>
<filter id="filter0_bdd_214_618" x="0" y="0" width="370" height="364" filterUnits="userSpaceOnUse" color-interpolation-filters="sRGB">
<feFlood flood-opacity="0" result="BackgroundImageFix"/>
<feGaussianBlur in="BackgroundImageFix" stdDeviation="7"/>
<feComposite in2="SourceAlpha" operator="in" result="effect1_backgroundBlur_214_618"/>
<feColorMatrix in="SourceAlpha" type="matrix" values="0 0 0 0 0 0 0 0 0 0 0 0 0 0 0 0 0 0 127 0" result="hardAlpha"/>
<feOffset dx="-21" dy="15"/>
<feGaussianBlur stdDeviation="25"/>
<feComposite in2="hardAlpha" operator="out"/>
<feColorMatrix type="matrix" values="0 0 0 0 0.113438 0 0 0 0 0.148981 0 0 0 0 0.275 0 0 0 0.25 0"/>
<feBlend mode="normal" in2="effect1_backgroundBlur_214_618" result="effect2_dropShadow_214_618"/>
<feColorMatrix in="SourceAlpha" type="matrix" values="0 0 0 0 0 0 0 0 0 0 0 0 0 0 0 0 0 0 127 0" result="hardAlpha"/>
<feOffset/>
<feGaussianBlur stdDeviation="19"/>
<feComposite in2="hardAlpha" operator="out"/>
<feColorMatrix type="matrix" values="0 0 0 0 0.619608 0 0 0 0 0.423529 0 0 0 0 1 0 0 0 0.4 0"/>
<feBlend mode="normal" in2="effect2_dropShadow_214_618" result="effect3_dropShadow_214_618"/>
<feBlend mode="normal" in="SourceGraphic" in2="effect3_dropShadow_214_618" result="shape"/>
</filter>
<linearGradient id="paint0_linear_214_618" x1="195.574" y1="40.2991" x2="195.574" y2="301.299" gradientUnits="userSpaceOnUse">
<stop offset="0.0001" stop-color="#DECFFF"/>
<stop offset="1" stop-color="#7E2FFF"/>
</linearGradient>
<linearGradient id="paint1_linear_214_618" x1="281.078" y1="-67.2443" x2="220.021" y2="243.213" gradientUnits="userSpaceOnUse">
<stop stop-color="white"/>
<stop offset="1" stop-color="white" stop-opacity="0"/>
</linearGradient>
</defs>
</svg>
