<svg width="380" height="353" viewBox="0 0 380 353" fill="none" xmlns="http://www.w3.org/2000/svg">
<g filter="url(#filter0_bdd_214_607)">
<mask id="path-1-inside-1_214_607" fill="white">
<path fill-rule="evenodd" clip-rule="evenodd" d="M207.232 38.6629C208.097 38.5935 208.586 39.6233 208.043 40.3166C196.053 55.6359 193.164 77.2045 202.378 95.6157C214.269 119.375 242.045 129.34 265.95 119.15C266.755 118.807 267.595 119.57 267.29 120.4C262.206 134.22 252.256 146.272 238.381 153.607C208.913 169.184 172.902 157.588 157.947 127.707C142.992 97.8262 154.757 60.9755 184.224 45.3986C191.626 41.4857 199.441 39.2874 207.232 38.6629Z"/>
</mask>
<path fill-rule="evenodd" clip-rule="evenodd" d="M207.232 38.6629C208.097 38.5935 208.586 39.6233 208.043 40.3166C196.053 55.6359 193.164 77.2045 202.378 95.6157C214.269 119.375 242.045 129.34 265.95 119.15C266.755 118.807 267.595 119.57 267.29 120.4C262.206 134.22 252.256 146.272 238.381 153.607C208.913 169.184 172.902 157.588 157.947 127.707C142.992 97.8262 154.757 60.9755 184.224 45.3986C191.626 41.4857 199.441 39.2874 207.232 38.6629Z" fill="url(#paint0_linear_214_607)"/>
<path d="M202.378 95.6157L204.15 94.6872L204.15 94.6872L202.378 95.6157ZM238.381 153.607L237.479 151.821L237.479 151.821L238.381 153.607ZM157.947 127.707L156.176 128.635L157.947 127.707ZM184.224 45.3986L185.125 47.1839L184.224 45.3986ZM265.95 119.15L266.701 121.006L265.95 119.15ZM267.29 120.4L265.432 119.713L267.29 120.4ZM208.043 40.3166L209.592 41.5598L208.043 40.3166ZM207.232 38.6629L207.097 36.654L207.232 38.6629ZM204.15 94.6872C195.298 77.0017 198.071 56.2796 209.592 41.5598L206.495 39.0734C194.035 54.9922 191.029 77.4073 200.607 96.5441L204.15 94.6872ZM265.199 117.293C242.247 127.076 215.572 117.51 204.15 94.6872L200.607 96.5441C212.966 121.239 241.842 131.603 266.701 121.006L265.199 117.293ZM265.432 119.713C260.514 133.08 250.895 144.73 237.479 151.821L239.282 155.392C253.617 147.814 263.898 135.36 269.148 121.087L265.432 119.713ZM237.479 151.821C208.995 166.879 174.18 155.673 159.719 126.779L156.176 128.635C171.624 159.502 208.832 171.489 239.282 155.392L237.479 151.821ZM159.719 126.779C145.255 97.8789 156.637 62.2436 185.125 47.1839L183.323 43.6133C152.877 59.7073 140.73 97.7735 156.176 128.635L159.719 126.779ZM185.125 47.1839C192.285 43.3993 199.839 41.2753 207.366 40.6718L207.097 36.654C199.044 37.2996 190.968 39.5721 183.323 43.6133L185.125 47.1839ZM266.701 121.006C266.33 121.165 265.935 121.057 265.692 120.832C265.437 120.597 265.27 120.153 265.432 119.713L269.148 121.087C270.122 118.439 267.444 116.336 265.199 117.293L266.701 121.006ZM209.592 41.5598C211.107 39.6246 209.859 36.4325 207.097 36.654L207.366 40.6718C206.908 40.7086 206.535 40.4237 206.383 40.1093C206.237 39.8086 206.245 39.3932 206.495 39.0734L209.592 41.5598Z" fill="url(#paint1_linear_214_607)" mask="url(#path-1-inside-1_214_607)"/>
</g>
<mask id="mask0_214_607" style="mask-type:alpha" maskUnits="userSpaceOnUse" x="176" y="116" width="109" height="81">
<path d="M284.684 140.966C284.684 171.678 260.354 196.575 230.342 196.575C200.33 196.575 176 171.678 176 140.966C176 110.254 196.185 117.403 226.197 117.403C256.21 117.403 284.684 110.254 284.684 140.966Z" fill="url(#paint2_linear_214_607)"/>
</mask>
<g mask="url(#mask0_214_607)">
<g filter="url(#filter1_f_214_607)">
<path fill-rule="evenodd" clip-rule="evenodd" d="M313.238 242.759C313.238 265.142 295.506 283.287 273.632 283.287C273.479 283.287 273.325 283.286 273.172 283.285V283.287H134.093L134.095 283.285C133.941 283.287 133.787 283.287 133.633 283.287C111.759 283.287 94.0273 265.142 94.0273 242.759C94.0273 220.375 111.759 202.23 133.633 202.23C152.487 202.23 168.264 215.712 172.26 233.769L185.672 216.368L227.58 202.23H273.172V202.233C273.325 202.231 273.479 202.23 273.632 202.23C295.506 202.23 313.238 220.375 313.238 242.759Z" fill="#E18700"/>
</g>
</g>
<g filter="url(#filter2_bd_214_607)">
<mask id="path-5-inside-2_214_607" fill="white">
<path fill-rule="evenodd" clip-rule="evenodd" d="M250.145 287.997C250.298 287.999 250.451 288 250.605 288C272.478 288 290.21 269.855 290.21 247.471C290.21 225.088 272.478 206.943 250.605 206.943C250.451 206.943 250.298 206.944 250.145 206.945V206.943H239.913C240.283 204.169 240.474 201.337 240.474 198.46C240.474 164.104 213.257 136.253 179.684 136.253C146.111 136.253 118.895 164.104 118.895 198.46C118.895 201.702 119.137 204.885 119.604 207.993C116.713 207.306 113.701 206.943 110.605 206.943C88.7319 206.943 71 225.088 71 247.471C71 269.855 88.7319 288 110.605 288C110.76 288 110.914 287.999 111.068 287.997L111.066 288H250.145V287.997Z"/>
</mask>
<path fill-rule="evenodd" clip-rule="evenodd" d="M250.145 287.997C250.298 287.999 250.451 288 250.605 288C272.478 288 290.21 269.855 290.21 247.471C290.21 225.088 272.478 206.943 250.605 206.943C250.451 206.943 250.298 206.944 250.145 206.945V206.943H239.913C240.283 204.169 240.474 201.337 240.474 198.46C240.474 164.104 213.257 136.253 179.684 136.253C146.111 136.253 118.895 164.104 118.895 198.46C118.895 201.702 119.137 204.885 119.604 207.993C116.713 207.306 113.701 206.943 110.605 206.943C88.7319 206.943 71 225.088 71 247.471C71 269.855 88.7319 288 110.605 288C110.76 288 110.914 287.999 111.068 287.997L111.066 288H250.145V287.997Z" fill="url(#paint3_linear_214_607)" shape-rendering="crispEdges"/>
<path d="M250.145 287.997L250.168 285.997C249.633 285.991 249.119 286.199 248.739 286.575C248.359 286.951 248.145 287.463 248.145 287.997H250.145ZM250.145 206.945H248.145C248.145 207.48 248.359 207.992 248.739 208.368C249.119 208.744 249.633 208.951 250.168 208.945L250.145 206.945ZM250.145 206.943H252.145C252.145 205.838 251.249 204.943 250.145 204.943V206.943ZM239.913 206.943L237.931 206.679C237.854 207.25 238.029 207.826 238.408 208.26C238.788 208.694 239.337 208.943 239.913 208.943V206.943ZM119.604 207.993L119.141 209.939C119.788 210.093 120.468 209.916 120.957 209.466C121.447 209.016 121.681 208.353 121.582 207.696L119.604 207.993ZM111.068 287.997L112.65 289.22C113.119 288.613 113.2 287.792 112.858 287.105C112.516 286.419 111.811 285.988 111.044 285.997L111.068 287.997ZM111.066 288L109.483 286.777C109.017 287.381 108.934 288.197 109.27 288.882C109.607 289.566 110.303 290 111.066 290V288ZM250.145 288V290C251.249 290 252.145 289.105 252.145 288H250.145ZM250.121 289.997C250.282 289.999 250.444 290 250.605 290V286C250.459 286 250.313 285.999 250.168 285.997L250.121 289.997ZM250.605 290C273.626 290 292.21 270.916 292.21 247.471H288.21C288.21 268.794 271.331 286 250.605 286V290ZM292.21 247.471C292.21 224.027 273.626 204.943 250.605 204.943V208.943C271.331 208.943 288.21 226.149 288.21 247.471H292.21ZM250.605 204.943C250.444 204.943 250.282 204.944 250.121 204.946L250.168 208.945C250.313 208.944 250.459 208.943 250.605 208.943V204.943ZM248.145 206.943V206.945H252.145V206.943H248.145ZM239.913 208.943H250.145V204.943H239.913V208.943ZM241.896 207.207C242.277 204.346 242.474 201.426 242.474 198.46H238.474C238.474 201.249 238.289 203.992 237.931 206.679L241.896 207.207ZM242.474 198.46C242.474 163.043 214.405 134.253 179.684 134.253V138.253C212.109 138.253 238.474 165.165 238.474 198.46H242.474ZM179.684 134.253C144.963 134.253 116.895 163.043 116.895 198.46H120.895C120.895 165.165 147.259 138.253 179.684 138.253V134.253ZM116.895 198.46C116.895 201.801 117.144 205.085 117.626 208.291L121.582 207.696C121.129 204.686 120.895 201.602 120.895 198.46H116.895ZM120.067 206.048C117.025 205.325 113.858 204.943 110.605 204.943V208.943C113.544 208.943 116.401 209.288 119.141 209.939L120.067 206.048ZM110.605 204.943C87.5841 204.943 69 224.027 69 247.471H73C73 226.149 89.8797 208.943 110.605 208.943V204.943ZM69 247.471C69 270.916 87.5841 290 110.605 290V286C89.8797 286 73 268.794 73 247.471H69ZM110.605 290C110.767 290 110.929 289.999 111.091 289.997L111.044 285.997C110.898 285.999 110.752 286 110.605 286V290ZM112.648 289.223L112.65 289.22L109.485 286.775L109.483 286.777L112.648 289.223ZM250.145 286H111.066V290H250.145V286ZM248.145 287.997V288H252.145V287.997H248.145Z" fill="url(#paint4_linear_214_607)" mask="url(#path-5-inside-2_214_607)"/>
</g>
<g filter="url(#filter3_bd_214_607)">
<mask id="path-7-inside-3_214_607" fill="white">
<path fill-rule="evenodd" clip-rule="evenodd" d="M322.044 245.917C322.155 245.918 322.266 245.919 322.377 245.919C338.185 245.919 350.999 232.806 350.999 216.629C350.999 200.453 338.185 187.34 322.377 187.34C322.266 187.34 322.155 187.34 322.044 187.342V187.34H312.865C313.056 185.639 313.154 183.909 313.154 182.156C313.154 157.328 293.485 137.2 269.222 137.2C244.959 137.2 225.29 157.328 225.29 182.156C225.29 184.029 225.402 185.874 225.619 187.687C224.179 187.458 222.703 187.34 221.2 187.34C205.393 187.34 192.578 200.453 192.578 216.629C192.578 232.806 205.393 245.919 221.2 245.919C221.312 245.919 221.423 245.918 221.535 245.917L221.533 245.919H322.044V245.917Z"/>
</mask>
<path fill-rule="evenodd" clip-rule="evenodd" d="M322.044 245.917C322.155 245.918 322.266 245.919 322.377 245.919C338.185 245.919 350.999 232.806 350.999 216.629C350.999 200.453 338.185 187.34 322.377 187.34C322.266 187.34 322.155 187.34 322.044 187.342V187.34H312.865C313.056 185.639 313.154 183.909 313.154 182.156C313.154 157.328 293.485 137.2 269.222 137.2C244.959 137.2 225.29 157.328 225.29 182.156C225.29 184.029 225.402 185.874 225.619 187.687C224.179 187.458 222.703 187.34 221.2 187.34C205.393 187.34 192.578 200.453 192.578 216.629C192.578 232.806 205.393 245.919 221.2 245.919C221.312 245.919 221.423 245.918 221.535 245.917L221.533 245.919H322.044V245.917Z" fill="url(#paint5_linear_214_607)" shape-rendering="crispEdges"/>
<path d="M322.044 245.917L322.067 243.917C321.533 243.911 321.018 244.119 320.638 244.495C320.258 244.87 320.044 245.383 320.044 245.917H322.044ZM322.044 187.342H320.044C320.044 187.876 320.258 188.388 320.638 188.764C321.018 189.14 321.533 189.348 322.067 189.342L322.044 187.342ZM322.044 187.34H324.044C324.044 186.235 323.149 185.34 322.044 185.34V187.34ZM312.865 187.34L310.878 187.117C310.814 187.682 310.995 188.248 311.374 188.673C311.754 189.097 312.296 189.34 312.865 189.34V187.34ZM225.619 187.687L225.306 189.662C225.925 189.76 226.555 189.562 227.006 189.127C227.458 188.693 227.68 188.071 227.605 187.449L225.619 187.687ZM221.535 245.917L223.118 247.139C223.586 246.532 223.667 245.71 223.324 245.024C222.982 244.338 222.278 243.908 221.511 243.917L221.535 245.917ZM221.533 245.919L219.95 244.697C219.484 245.301 219.402 246.117 219.738 246.801C220.075 247.486 220.771 247.919 221.533 247.919V245.919ZM322.044 245.919V247.919C323.149 247.919 324.044 247.024 324.044 245.919H322.044ZM322.021 247.917C322.139 247.918 322.258 247.919 322.377 247.919V243.919C322.274 243.919 322.17 243.918 322.067 243.917L322.021 247.917ZM322.377 247.919C339.332 247.919 352.999 233.866 352.999 216.629H348.999C348.999 231.745 337.037 243.919 322.377 243.919V247.919ZM352.999 216.629C352.999 199.392 339.332 185.34 322.377 185.34V189.34C337.037 189.34 348.999 201.514 348.999 216.629H352.999ZM322.377 185.34C322.258 185.34 322.139 185.34 322.021 185.342L322.067 189.342C322.17 189.34 322.274 189.34 322.377 189.34V185.34ZM320.044 187.34V187.342H324.044V187.34H320.044ZM312.865 189.34H322.044V185.34H312.865V189.34ZM314.853 187.563C315.052 185.788 315.154 183.984 315.154 182.156H311.154C311.154 183.835 311.06 185.49 310.878 187.117L314.853 187.563ZM315.154 182.156C315.154 156.267 294.633 135.2 269.222 135.2V139.2C292.337 139.2 311.154 158.389 311.154 182.156H315.154ZM269.222 135.2C243.811 135.2 223.29 156.267 223.29 182.156H227.29C227.29 158.389 246.107 139.2 269.222 139.2V135.2ZM223.29 182.156C223.29 184.108 223.407 186.034 223.634 187.925L227.605 187.449C227.397 185.715 227.29 183.949 227.29 182.156H223.29ZM225.933 185.711C224.389 185.467 222.809 185.34 221.2 185.34V189.34C222.598 189.34 223.969 189.45 225.306 189.662L225.933 185.711ZM221.2 185.34C204.245 185.34 190.578 199.392 190.578 216.629H194.578C194.578 201.514 206.541 189.34 221.2 189.34V185.34ZM190.578 216.629C190.578 233.866 204.245 247.919 221.2 247.919V243.919C206.541 243.919 194.578 231.745 194.578 216.629H190.578ZM221.2 247.919C221.32 247.919 221.439 247.918 221.558 247.917L221.511 243.917C221.408 243.918 221.304 243.919 221.2 243.919V247.919ZM223.117 247.141L223.118 247.139L219.951 244.695L219.95 244.697L223.117 247.141ZM322.044 243.919H221.533V247.919H322.044V243.919ZM320.044 245.917V245.919H324.044V245.917H320.044Z" fill="url(#paint6_linear_214_607)" mask="url(#path-7-inside-3_214_607)"/>
</g>
<defs>
<filter id="filter0_bdd_214_607" x="80.457" y="0.659569" width="224.896" height="224.87" filterUnits="userSpaceOnUse" color-interpolation-filters="sRGB">
<feFlood flood-opacity="0" result="BackgroundImageFix"/>
<feGaussianBlur in="BackgroundImageFix" stdDeviation="7"/>
<feComposite in2="SourceAlpha" operator="in" result="effect1_backgroundBlur_214_607"/>
<feColorMatrix in="SourceAlpha" type="matrix" values="0 0 0 0 0 0 0 0 0 0 0 0 0 0 0 0 0 0 127 0" result="hardAlpha"/>
<feOffset dx="-21" dy="15"/>
<feGaussianBlur stdDeviation="25"/>
<feComposite in2="hardAlpha" operator="out"/>
<feColorMatrix type="matrix" values="0 0 0 0 0.113438 0 0 0 0 0.148981 0 0 0 0 0.275 0 0 0 0.25 0"/>
<feBlend mode="normal" in2="effect1_backgroundBlur_214_607" result="effect2_dropShadow_214_607"/>
<feColorMatrix in="SourceAlpha" type="matrix" values="0 0 0 0 0 0 0 0 0 0 0 0 0 0 0 0 0 0 127 0" result="hardAlpha"/>
<feOffset/>
<feGaussianBlur stdDeviation="19"/>
<feComposite in2="hardAlpha" operator="out"/>
<feColorMatrix type="matrix" values="0 0 0 0 0.619608 0 0 0 0 0.423529 0 0 0 0 1 0 0 0 0.4 0"/>
<feBlend mode="normal" in2="effect2_dropShadow_214_607" result="effect3_dropShadow_214_607"/>
<feBlend mode="normal" in="SourceGraphic" in2="effect3_dropShadow_214_607" result="shape"/>
</filter>
<filter id="filter1_f_214_607" x="80.0273" y="188.23" width="247.211" height="109.057" filterUnits="userSpaceOnUse" color-interpolation-filters="sRGB">
<feFlood flood-opacity="0" result="BackgroundImageFix"/>
<feBlend mode="normal" in="SourceGraphic" in2="BackgroundImageFix" result="shape"/>
<feGaussianBlur stdDeviation="7" result="effect1_foregroundBlur_214_607"/>
</filter>
<filter id="filter2_bd_214_607" x="0" y="101.253" width="319.211" height="251.747" filterUnits="userSpaceOnUse" color-interpolation-filters="sRGB">
<feFlood flood-opacity="0" result="BackgroundImageFix"/>
<feGaussianBlur in="BackgroundImageFix" stdDeviation="7"/>
<feComposite in2="SourceAlpha" operator="in" result="effect1_backgroundBlur_214_607"/>
<feColorMatrix in="SourceAlpha" type="matrix" values="0 0 0 0 0 0 0 0 0 0 0 0 0 0 0 0 0 0 127 0" result="hardAlpha"/>
<feOffset dx="-21" dy="15"/>
<feGaussianBlur stdDeviation="25"/>
<feComposite in2="hardAlpha" operator="out"/>
<feColorMatrix type="matrix" values="0 0 0 0 0.113725 0 0 0 0 0.14902 0 0 0 0 0.27451 0 0 0 0.25 0"/>
<feBlend mode="normal" in2="effect1_backgroundBlur_214_607" result="effect2_dropShadow_214_607"/>
<feBlend mode="normal" in="SourceGraphic" in2="effect2_dropShadow_214_607" result="shape"/>
</filter>
<filter id="filter3_bd_214_607" x="121.578" y="102.2" width="258.422" height="208.719" filterUnits="userSpaceOnUse" color-interpolation-filters="sRGB">
<feFlood flood-opacity="0" result="BackgroundImageFix"/>
<feGaussianBlur in="BackgroundImageFix" stdDeviation="7"/>
<feComposite in2="SourceAlpha" operator="in" result="effect1_backgroundBlur_214_607"/>
<feColorMatrix in="SourceAlpha" type="matrix" values="0 0 0 0 0 0 0 0 0 0 0 0 0 0 0 0 0 0 127 0" result="hardAlpha"/>
<feOffset dx="-21" dy="15"/>
<feGaussianBlur stdDeviation="25"/>
<feComposite in2="hardAlpha" operator="out"/>
<feColorMatrix type="matrix" values="0 0 0 0 0.113438 0 0 0 0 0.148981 0 0 0 0 0.275 0 0 0 0.25 0"/>
<feBlend mode="normal" in2="effect1_backgroundBlur_214_607" result="effect2_dropShadow_214_607"/>
<feBlend mode="normal" in="SourceGraphic" in2="effect2_dropShadow_214_607" result="shape"/>
</filter>
<linearGradient id="paint0_linear_214_607" x1="173.997" y1="51.9861" x2="230.346" y2="159.04" gradientUnits="userSpaceOnUse">
<stop offset="0.0001" stop-color="#D4C0FF"/>
<stop offset="1" stop-color="#7E2FFF"/>
</linearGradient>
<linearGradient id="paint1_linear_214_607" x1="180.975" y1="-8.01927" x2="217.53" y2="133.454" gradientUnits="userSpaceOnUse">
<stop stop-color="white"/>
<stop offset="1" stop-color="white" stop-opacity="0"/>
</linearGradient>
<linearGradient id="paint2_linear_214_607" x1="230.342" y1="85.3567" x2="230.342" y2="196.575" gradientUnits="userSpaceOnUse">
<stop stop-color="#FFD600"/>
<stop offset="1" stop-color="#FF7A00"/>
</linearGradient>
<linearGradient id="paint3_linear_214_607" x1="180.605" y1="87.713" x2="180.605" y2="309.207" gradientUnits="userSpaceOnUse">
<stop stop-color="white"/>
<stop offset="1" stop-color="white" stop-opacity="0"/>
</linearGradient>
<linearGradient id="paint4_linear_214_607" x1="180.605" y1="136.253" x2="180.605" y2="288" gradientUnits="userSpaceOnUse">
<stop stop-color="white"/>
<stop offset="1" stop-color="white" stop-opacity="0"/>
</linearGradient>
<linearGradient id="paint5_linear_214_607" x1="279.157" y1="139.552" x2="279.157" y2="258.31" gradientUnits="userSpaceOnUse">
<stop stop-color="white"/>
<stop offset="1" stop-color="white" stop-opacity="0"/>
</linearGradient>
<linearGradient id="paint6_linear_214_607" x1="271.789" y1="136.253" x2="271.789" y2="245.919" gradientUnits="userSpaceOnUse">
<stop stop-color="white"/>
<stop offset="1" stop-color="white" stop-opacity="0"/>
</linearGradient>
</defs>
</svg>
