<svg width="455" height="370" viewBox="0 0 455 370" fill="none" xmlns="http://www.w3.org/2000/svg">
<g filter="url(#filter0_f_214_387)">
<circle cx="269.179" cy="116.699" r="72.6986" fill="#FFC701" fill-opacity="0.5"/>
</g>
<circle cx="269.178" cy="119.082" r="69.3151" fill="url(#paint0_linear_214_387)" stroke="url(#paint1_linear_214_387)" stroke-width="2"/>
<mask id="mask0_214_387" style="mask-type:alpha" maskUnits="userSpaceOnUse" x="198" y="88" width="142" height="102">
<path d="M339.491 119.082C339.491 157.916 308.01 189.397 269.176 189.397C230.342 189.397 198.861 157.916 198.861 119.082C198.861 80.2483 224.979 89.2877 263.813 89.2877C302.647 89.2877 339.491 80.2483 339.491 119.082Z" fill="url(#paint2_linear_214_387)"/>
</mask>
<g mask="url(#mask0_214_387)">
<g filter="url(#filter1_f_214_387)">
<path fill-rule="evenodd" clip-rule="evenodd" d="M324.593 299.038C324.792 299.04 324.991 299.041 325.191 299.041C353.493 299.041 376.437 276.097 376.437 247.795C376.437 219.492 353.493 196.548 325.191 196.548C324.991 196.548 324.792 196.549 324.593 196.551V196.548H291.927C292.643 192.285 293.015 187.905 293.015 183.438C293.015 139.997 257.799 104.781 214.357 104.781C170.916 104.781 135.7 139.997 135.7 183.438C135.7 188.079 136.102 192.625 136.872 197.045C111.963 200.531 92.793 221.924 92.793 247.795C92.793 276.097 115.737 299.041 144.04 299.041C144.239 299.041 144.438 299.04 144.637 299.038L144.634 299.041H324.593V299.038Z" fill="#E18700"/>
</g>
</g>
<g filter="url(#filter2_bd_214_387)">
<mask id="path-5-inside-1_214_387" fill="white">
<path fill-rule="evenodd" clip-rule="evenodd" d="M294.8 304.997C294.999 304.999 295.198 305 295.398 305C323.7 305 346.644 282.056 346.644 253.753C346.644 225.451 323.7 202.507 295.398 202.507C295.198 202.507 294.999 202.508 294.8 202.51V202.507H281.563C282.041 199 282.288 195.419 282.288 191.781C282.288 148.339 247.072 113.123 203.63 113.123C160.189 113.123 124.973 148.339 124.973 191.781C124.973 195.88 125.286 199.906 125.891 203.836C122.15 202.966 118.252 202.507 114.247 202.507C85.9439 202.507 63 225.451 63 253.753C63 282.056 85.9439 305 114.247 305C114.446 305 114.645 304.999 114.844 304.997L114.841 305H294.8V304.997Z"/>
</mask>
<path fill-rule="evenodd" clip-rule="evenodd" d="M294.8 304.997C294.999 304.999 295.198 305 295.398 305C323.7 305 346.644 282.056 346.644 253.753C346.644 225.451 323.7 202.507 295.398 202.507C295.198 202.507 294.999 202.508 294.8 202.51V202.507H281.563C282.041 199 282.288 195.419 282.288 191.781C282.288 148.339 247.072 113.123 203.63 113.123C160.189 113.123 124.973 148.339 124.973 191.781C124.973 195.88 125.286 199.906 125.891 203.836C122.15 202.966 118.252 202.507 114.247 202.507C85.9439 202.507 63 225.451 63 253.753C63 282.056 85.9439 305 114.247 305C114.446 305 114.645 304.999 114.844 304.997L114.841 305H294.8V304.997Z" fill="url(#paint3_linear_214_387)" shape-rendering="crispEdges"/>
<path d="M294.8 304.997L294.823 302.997C294.289 302.991 293.774 303.199 293.394 303.574C293.014 303.95 292.8 304.462 292.8 304.997H294.8ZM294.8 202.51H292.8C292.8 203.045 293.014 203.557 293.394 203.933C293.774 204.308 294.289 204.516 294.823 204.51L294.8 202.51ZM294.8 202.507H296.8C296.8 201.402 295.905 200.507 294.8 200.507V202.507ZM281.563 202.507L279.581 202.237C279.503 202.809 279.676 203.387 280.056 203.822C280.436 204.257 280.985 204.507 281.563 204.507V202.507ZM125.891 203.836L125.438 205.784C126.085 205.934 126.764 205.754 127.251 205.302C127.737 204.851 127.969 204.188 127.868 203.532L125.891 203.836ZM114.844 304.997L116.416 306.233C116.892 305.628 116.978 304.803 116.638 304.113C116.298 303.422 115.591 302.988 114.821 302.997L114.844 304.997ZM114.841 305L113.27 303.763C112.796 304.365 112.708 305.185 113.042 305.874C113.377 306.563 114.075 307 114.841 307V305ZM294.8 305V307C295.905 307 296.8 306.105 296.8 305H294.8ZM294.777 306.996C294.984 306.999 295.191 307 295.398 307V303C295.206 303 295.014 302.999 294.823 302.997L294.777 306.996ZM295.398 307C324.805 307 348.644 283.161 348.644 253.753H344.644C344.644 280.952 322.596 303 295.398 303V307ZM348.644 253.753C348.644 224.346 324.805 200.507 295.398 200.507V204.507C322.596 204.507 344.644 226.555 344.644 253.753H348.644ZM295.398 200.507C295.191 200.507 294.984 200.508 294.777 200.51L294.823 204.51C295.014 204.508 295.206 204.507 295.398 204.507V200.507ZM292.8 202.507V202.51H296.8V202.507H292.8ZM281.563 204.507H294.8V200.507H281.563V204.507ZM283.544 202.777C284.035 199.181 284.288 195.51 284.288 191.781H280.288C280.288 195.329 280.047 198.819 279.581 202.237L283.544 202.777ZM284.288 191.781C284.288 147.235 248.176 111.123 203.63 111.123V115.123C245.967 115.123 280.288 149.444 280.288 191.781H284.288ZM203.63 111.123C159.085 111.123 122.973 147.235 122.973 191.781H126.973C126.973 149.444 161.294 115.123 203.63 115.123V111.123ZM122.973 191.781C122.973 195.982 123.294 200.109 123.914 204.14L127.868 203.532C127.279 199.702 126.973 195.778 126.973 191.781H122.973ZM126.344 201.887C122.455 200.984 118.405 200.507 114.247 200.507V204.507C118.099 204.507 121.845 204.949 125.438 205.784L126.344 201.887ZM114.247 200.507C84.8393 200.507 61 224.346 61 253.753H65C65 226.555 87.0484 204.507 114.247 204.507V200.507ZM61 253.753C61 283.161 84.8393 307 114.247 307V303C87.0484 303 65 280.952 65 253.753H61ZM114.247 307C114.454 307 114.66 306.999 114.867 306.996L114.821 302.997C114.63 302.999 114.438 303 114.247 303V307ZM116.413 306.237L116.416 306.233L113.272 303.76L113.27 303.763L116.413 306.237ZM294.8 303H114.841V307H294.8V303ZM292.8 304.997V305H296.8V304.997H292.8Z" fill="url(#paint4_linear_214_387)" mask="url(#path-5-inside-1_214_387)"/>
</g>
<g filter="url(#filter3_bd_214_387)">
<mask id="path-7-inside-2_214_387" fill="white">
<path fill-rule="evenodd" clip-rule="evenodd" d="M387.836 251.788C387.98 251.79 388.124 251.79 388.268 251.79C408.722 251.79 425.304 235.209 425.304 214.755C425.304 194.301 408.722 177.72 388.268 177.72C388.124 177.72 387.98 177.721 387.836 177.722V177.72H378.266C378.612 175.185 378.791 172.598 378.791 169.968C378.791 138.574 353.34 113.123 321.946 113.123C290.551 113.123 265.101 138.574 265.101 169.968C265.101 172.93 265.327 175.839 265.764 178.679C263.061 178.052 260.245 177.72 257.352 177.72C236.898 177.72 220.316 194.301 220.316 214.755C220.316 235.209 236.898 251.79 257.352 251.79C257.496 251.79 257.64 251.79 257.784 251.788L257.782 251.79H387.836V251.788Z"/>
</mask>
<path fill-rule="evenodd" clip-rule="evenodd" d="M387.836 251.788C387.98 251.79 388.124 251.79 388.268 251.79C408.722 251.79 425.304 235.209 425.304 214.755C425.304 194.301 408.722 177.72 388.268 177.72C388.124 177.72 387.98 177.721 387.836 177.722V177.72H378.266C378.612 175.185 378.791 172.598 378.791 169.968C378.791 138.574 353.34 113.123 321.946 113.123C290.551 113.123 265.101 138.574 265.101 169.968C265.101 172.93 265.327 175.839 265.764 178.679C263.061 178.052 260.245 177.72 257.352 177.72C236.898 177.72 220.316 194.301 220.316 214.755C220.316 235.209 236.898 251.79 257.352 251.79C257.496 251.79 257.64 251.79 257.784 251.788L257.782 251.79H387.836V251.788Z" fill="url(#paint5_linear_214_387)" shape-rendering="crispEdges"/>
<path d="M387.836 251.788L387.859 249.788C387.325 249.782 386.81 249.99 386.43 250.366C386.05 250.741 385.836 251.254 385.836 251.788H387.836ZM387.836 177.722H385.836C385.836 178.257 386.05 178.769 386.43 179.145C386.81 179.52 387.325 179.728 387.859 179.722L387.836 177.722ZM387.836 177.72H389.836C389.836 176.615 388.941 175.72 387.836 175.72V177.72ZM378.266 177.72L376.285 177.45C376.207 178.022 376.38 178.6 376.76 179.035C377.14 179.47 377.689 179.72 378.266 179.72V177.72ZM265.764 178.679L265.311 180.628C265.958 180.778 266.637 180.597 267.124 180.146C267.61 179.695 267.842 179.031 267.741 178.375L265.764 178.679ZM257.784 251.788L259.355 253.025C259.832 252.42 259.918 251.595 259.578 250.904C259.238 250.213 258.531 249.779 257.761 249.788L257.784 251.788ZM257.782 251.79L256.21 250.554C255.737 251.155 255.648 251.975 255.983 252.664C256.317 253.353 257.016 253.79 257.782 253.79V251.79ZM387.836 251.79V253.79C388.941 253.79 389.836 252.895 389.836 251.79H387.836ZM387.813 253.788C387.965 253.79 388.116 253.79 388.268 253.79V249.79C388.132 249.79 387.995 249.79 387.859 249.788L387.813 253.788ZM388.268 253.79C409.827 253.79 427.304 236.314 427.304 214.755H423.304C423.304 234.105 407.618 249.79 388.268 249.79V253.79ZM427.304 214.755C427.304 193.197 409.827 175.72 388.268 175.72V179.72C407.618 179.72 423.304 195.406 423.304 214.755H427.304ZM388.268 175.72C388.116 175.72 387.965 175.721 387.813 175.722L387.859 179.722C387.995 179.721 388.132 179.72 388.268 179.72V175.72ZM385.836 177.72V177.722H389.836V177.72H385.836ZM378.266 179.72H387.836V175.72H378.266V179.72ZM380.248 177.99C380.606 175.366 380.791 172.688 380.791 169.968H376.791C376.791 172.507 376.618 175.004 376.285 177.45L380.248 177.99ZM380.791 169.968C380.791 137.469 354.445 111.123 321.946 111.123V115.123C352.236 115.123 376.791 139.678 376.791 169.968H380.791ZM321.946 111.123C289.446 111.123 263.101 137.469 263.101 169.968H267.101C267.101 139.678 291.656 115.123 321.946 115.123V111.123ZM263.101 169.968C263.101 173.032 263.335 176.043 263.787 178.983L267.741 178.375C267.319 175.636 267.101 172.828 267.101 169.968H263.101ZM266.216 176.731C263.367 176.069 260.399 175.72 257.352 175.72V179.72C260.092 179.72 262.756 180.034 265.311 180.628L266.216 176.731ZM257.352 175.72C235.793 175.72 218.316 193.197 218.316 214.755H222.316C222.316 195.406 238.002 179.72 257.352 179.72V175.72ZM218.316 214.755C218.316 236.314 235.793 253.79 257.352 253.79V249.79C238.002 249.79 222.316 234.105 222.316 214.755H218.316ZM257.352 253.79C257.504 253.79 257.655 253.79 257.807 253.788L257.761 249.788C257.625 249.79 257.488 249.79 257.352 249.79V253.79ZM259.354 253.027L259.355 253.025L256.212 250.551L256.21 250.554L259.354 253.027ZM387.836 249.79H257.782V253.79H387.836V249.79ZM385.836 251.788V251.79H389.836V251.788H385.836Z" fill="url(#paint6_linear_214_387)" mask="url(#path-7-inside-2_214_387)"/>
</g>
<defs>
<filter id="filter0_f_214_387" x="152.48" y="0" width="233.396" height="233.397" filterUnits="userSpaceOnUse" color-interpolation-filters="sRGB">
<feFlood flood-opacity="0" result="BackgroundImageFix"/>
<feBlend mode="normal" in="SourceGraphic" in2="BackgroundImageFix" result="shape"/>
<feGaussianBlur stdDeviation="22" result="effect1_foregroundBlur_214_387"/>
</filter>
<filter id="filter1_f_214_387" x="78.793" y="90.7808" width="311.645" height="222.26" filterUnits="userSpaceOnUse" color-interpolation-filters="sRGB">
<feFlood flood-opacity="0" result="BackgroundImageFix"/>
<feBlend mode="normal" in="SourceGraphic" in2="BackgroundImageFix" result="shape"/>
<feGaussianBlur stdDeviation="7" result="effect1_foregroundBlur_214_387"/>
</filter>
<filter id="filter2_bd_214_387" x="-8" y="78.1233" width="383.645" height="291.877" filterUnits="userSpaceOnUse" color-interpolation-filters="sRGB">
<feFlood flood-opacity="0" result="BackgroundImageFix"/>
<feGaussianBlur in="BackgroundImageFix" stdDeviation="7"/>
<feComposite in2="SourceAlpha" operator="in" result="effect1_backgroundBlur_214_387"/>
<feColorMatrix in="SourceAlpha" type="matrix" values="0 0 0 0 0 0 0 0 0 0 0 0 0 0 0 0 0 0 127 0" result="hardAlpha"/>
<feOffset dx="-21" dy="15"/>
<feGaussianBlur stdDeviation="25"/>
<feComposite in2="hardAlpha" operator="out"/>
<feColorMatrix type="matrix" values="0 0 0 0 0.113725 0 0 0 0 0.14902 0 0 0 0 0.27451 0 0 0 0.25 0"/>
<feBlend mode="normal" in2="effect1_backgroundBlur_214_387" result="effect2_dropShadow_214_387"/>
<feBlend mode="normal" in="SourceGraphic" in2="effect2_dropShadow_214_387" result="shape"/>
</filter>
<filter id="filter3_bd_214_387" x="149.316" y="78.1233" width="304.986" height="238.667" filterUnits="userSpaceOnUse" color-interpolation-filters="sRGB">
<feFlood flood-opacity="0" result="BackgroundImageFix"/>
<feGaussianBlur in="BackgroundImageFix" stdDeviation="7"/>
<feComposite in2="SourceAlpha" operator="in" result="effect1_backgroundBlur_214_387"/>
<feColorMatrix in="SourceAlpha" type="matrix" values="0 0 0 0 0 0 0 0 0 0 0 0 0 0 0 0 0 0 127 0" result="hardAlpha"/>
<feOffset dx="-21" dy="15"/>
<feGaussianBlur stdDeviation="25"/>
<feComposite in2="hardAlpha" operator="out"/>
<feColorMatrix type="matrix" values="0 0 0 0 0.113438 0 0 0 0 0.148981 0 0 0 0 0.275 0 0 0 0.25 0"/>
<feBlend mode="normal" in2="effect1_backgroundBlur_214_387" result="effect2_dropShadow_214_387"/>
<feBlend mode="normal" in="SourceGraphic" in2="effect2_dropShadow_214_387" result="shape"/>
</filter>
<linearGradient id="paint0_linear_214_387" x1="269.178" y1="48.7671" x2="269.178" y2="189.397" gradientUnits="userSpaceOnUse">
<stop stop-color="#FFE600"/>
<stop offset="1" stop-color="#FF7A00"/>
</linearGradient>
<linearGradient id="paint1_linear_214_387" x1="269.178" y1="48.7671" x2="269.178" y2="189.397" gradientUnits="userSpaceOnUse">
<stop stop-color="white"/>
<stop offset="1" stop-color="white" stop-opacity="0"/>
</linearGradient>
<linearGradient id="paint2_linear_214_387" x1="269.176" y1="48.7671" x2="269.176" y2="189.397" gradientUnits="userSpaceOnUse">
<stop stop-color="#FFD600"/>
<stop offset="1" stop-color="#FF7A00"/>
</linearGradient>
<linearGradient id="paint3_linear_214_387" x1="204.822" y1="51.7466" x2="204.822" y2="331.815" gradientUnits="userSpaceOnUse">
<stop stop-color="white"/>
<stop offset="1" stop-color="white" stop-opacity="0"/>
</linearGradient>
<linearGradient id="paint4_linear_214_387" x1="204.822" y1="113.123" x2="204.822" y2="305" gradientUnits="userSpaceOnUse">
<stop stop-color="white"/>
<stop offset="1" stop-color="white" stop-opacity="0"/>
</linearGradient>
<linearGradient id="paint5_linear_214_387" x1="332.344" y1="117.295" x2="332.344" y2="267.459" gradientUnits="userSpaceOnUse">
<stop stop-color="white"/>
<stop offset="1" stop-color="white" stop-opacity="0"/>
</linearGradient>
<linearGradient id="paint6_linear_214_387" x1="322.81" y1="113.123" x2="322.81" y2="251.79" gradientUnits="userSpaceOnUse">
<stop stop-color="white"/>
<stop offset="1" stop-color="white" stop-opacity="0"/>
</linearGradient>
</defs>
</svg>
