<svg width="361" height="370" viewBox="0 0 361 370" fill="none" xmlns="http://www.w3.org/2000/svg">
<g filter="url(#filter0_f_214_613)">
<ellipse cx="135.5" cy="135.315" rx="91.4999" ry="91.3146" fill="#FFC701" fill-opacity="0.5"/>
</g>
<path d="M223 138.309C223 186.533 183.827 225.63 135.5 225.63C87.1732 225.63 48 186.533 48 138.309C48 90.0846 87.1732 50.9879 135.5 50.9879C183.827 50.9879 223 90.0846 223 138.309Z" fill="url(#paint0_linear_214_613)" stroke="url(#paint1_linear_214_613)" stroke-width="2"/>
<mask id="mask0_214_613" style="mask-type:alpha" maskUnits="userSpaceOnUse" x="47" y="99" width="177" height="128">
<path d="M224 138.308C224 187.087 184.377 226.629 135.5 226.629C86.6228 226.629 47 187.087 47 138.308C47 89.5303 79.8728 100.884 128.75 100.884C177.627 100.884 224 89.5303 224 138.308Z" fill="url(#paint2_linear_214_613)"/>
</mask>
<g mask="url(#mask0_214_613)">
<g filter="url(#filter1_f_214_613)">
<path fill-rule="evenodd" clip-rule="evenodd" d="M270.501 299.98C270.501 335.531 241.623 364.35 206.001 364.35C205.75 364.35 205.5 364.348 205.251 364.346V364.35H-21.2493L-21.2485 364.349C-21.4987 364.352 -21.7492 364.353 -22 364.353C-57.6224 364.353 -86.5 335.534 -86.5 299.984C-86.5 264.433 -57.6224 235.614 -22 235.614C8.7048 235.614 34.3985 257.026 40.9072 285.704L62.7508 258.065L131.001 235.611H205.251V235.615C205.5 235.612 205.75 235.611 206.001 235.611C241.623 235.611 270.501 264.43 270.501 299.98Z" fill="#E18700"/>
</g>
</g>
<g filter="url(#filter2_bd_214_613)">
<mask id="path-5-inside-1_214_613" fill="white">
<path fill-rule="evenodd" clip-rule="evenodd" d="M284.843 304.997C285.024 304.999 285.205 305 285.387 305C311.131 305 332 284.172 332 258.481C332 232.789 311.131 211.962 285.387 211.962C285.205 211.962 285.024 211.963 284.843 211.965V211.962H272.802C273.237 208.778 273.462 205.527 273.462 202.224C273.462 162.79 241.43 130.823 201.916 130.823C162.402 130.823 130.37 162.79 130.37 202.224C130.37 205.945 130.655 209.6 131.205 213.168C127.802 212.379 124.257 211.962 120.613 211.962C94.8696 211.962 74 232.789 74 258.481C74 284.172 94.8696 305 120.613 305C120.795 305 120.976 304.999 121.157 304.997L121.155 305H284.843V304.997Z"/>
</mask>
<path fill-rule="evenodd" clip-rule="evenodd" d="M284.843 304.997C285.024 304.999 285.205 305 285.387 305C311.131 305 332 284.172 332 258.481C332 232.789 311.131 211.962 285.387 211.962C285.205 211.962 285.024 211.963 284.843 211.965V211.962H272.802C273.237 208.778 273.462 205.527 273.462 202.224C273.462 162.79 241.43 130.823 201.916 130.823C162.402 130.823 130.37 162.79 130.37 202.224C130.37 205.945 130.655 209.6 131.205 213.168C127.802 212.379 124.257 211.962 120.613 211.962C94.8696 211.962 74 232.789 74 258.481C74 284.172 94.8696 305 120.613 305C120.795 305 120.976 304.999 121.157 304.997L121.155 305H284.843V304.997Z" fill="url(#paint3_linear_214_613)" shape-rendering="crispEdges"/>
<path d="M284.843 304.997L284.866 302.997C284.332 302.991 283.817 303.199 283.437 303.574C283.057 303.95 282.843 304.462 282.843 304.997H284.843ZM284.843 211.965H282.843C282.843 212.499 283.057 213.011 283.437 213.387C283.817 213.763 284.332 213.971 284.866 213.964L284.843 211.965ZM284.843 211.962H286.843C286.843 210.857 285.948 209.962 284.843 209.962V211.962ZM272.802 211.962L270.821 211.691C270.742 212.263 270.915 212.841 271.295 213.277C271.675 213.712 272.225 213.962 272.802 213.962V211.962ZM131.205 213.168L130.753 215.116C131.399 215.266 132.078 215.085 132.565 214.634C133.051 214.182 133.282 213.519 133.181 212.863L131.205 213.168ZM121.157 304.997L122.726 306.237C123.204 305.632 123.292 304.807 122.952 304.115C122.612 303.423 121.905 302.988 121.134 302.997L121.157 304.997ZM121.155 305L119.586 303.759C119.11 304.361 119.02 305.181 119.354 305.871C119.689 306.561 120.388 307 121.155 307V305ZM284.843 305V307C285.948 307 286.843 306.104 286.843 305H284.843ZM284.821 306.996C285.009 306.999 285.198 307 285.387 307V303C285.213 303 285.039 302.999 284.866 302.997L284.821 306.996ZM285.387 307C312.231 307 334 285.281 334 258.481H330C330 283.064 310.03 303 285.387 303V307ZM334 258.481C334 231.68 312.231 209.962 285.387 209.962V213.962C310.03 213.962 330 233.897 330 258.481H334ZM285.387 209.962C285.198 209.962 285.009 209.963 284.821 209.965L284.866 213.964C285.039 213.962 285.213 213.962 285.387 213.962V209.962ZM282.843 211.962V211.965H286.843V211.962H282.843ZM272.802 213.962H284.843V209.962H272.802V213.962ZM274.784 212.232C275.231 208.959 275.462 205.618 275.462 202.224H271.462C271.462 205.436 271.243 208.596 270.821 211.691L274.784 212.232ZM275.462 202.224C275.462 161.682 242.53 128.823 201.916 128.823V132.823C240.329 132.823 271.462 163.899 271.462 202.224H275.462ZM201.916 128.823C161.301 128.823 128.37 161.682 128.37 202.224H132.37C132.37 163.899 163.503 132.823 201.916 132.823V128.823ZM128.37 202.224C128.37 206.048 128.663 209.804 129.228 213.472L133.181 212.863C132.647 209.396 132.37 205.843 132.37 202.224H128.37ZM131.656 211.219C128.107 210.396 124.41 209.962 120.613 209.962V213.962C124.103 213.962 127.497 214.361 130.753 215.116L131.656 211.219ZM120.613 209.962C93.7688 209.962 72 231.68 72 258.481H76C76 233.897 95.9703 213.962 120.613 213.962V209.962ZM72 258.481C72 285.281 93.7688 307 120.613 307V303C95.9703 303 76 283.064 76 258.481H72ZM120.613 307C120.803 307 120.991 306.999 121.18 306.996L121.134 302.997C120.961 302.999 120.787 303 120.613 303V307ZM122.723 306.24L122.726 306.237L119.588 303.756L119.586 303.759L122.723 306.24ZM284.843 303H121.155V307H284.843V303ZM282.843 304.997V305H286.843V304.997H282.843Z" fill="url(#paint4_linear_214_613)" mask="url(#path-5-inside-1_214_613)"/>
</g>
<defs>
<filter id="filter0_f_214_613" x="0" y="0" width="271" height="270.629" filterUnits="userSpaceOnUse" color-interpolation-filters="sRGB">
<feFlood flood-opacity="0" result="BackgroundImageFix"/>
<feBlend mode="normal" in="SourceGraphic" in2="BackgroundImageFix" result="shape"/>
<feGaussianBlur stdDeviation="22" result="effect1_foregroundBlur_214_613"/>
</filter>
<filter id="filter1_f_214_613" x="-100.5" y="221.611" width="385" height="156.742" filterUnits="userSpaceOnUse" color-interpolation-filters="sRGB">
<feFlood flood-opacity="0" result="BackgroundImageFix"/>
<feBlend mode="normal" in="SourceGraphic" in2="BackgroundImageFix" result="shape"/>
<feGaussianBlur stdDeviation="7" result="effect1_foregroundBlur_214_613"/>
</filter>
<filter id="filter2_bd_214_613" x="3" y="95.823" width="358" height="274.177" filterUnits="userSpaceOnUse" color-interpolation-filters="sRGB">
<feFlood flood-opacity="0" result="BackgroundImageFix"/>
<feGaussianBlur in="BackgroundImageFix" stdDeviation="7"/>
<feComposite in2="SourceAlpha" operator="in" result="effect1_backgroundBlur_214_613"/>
<feColorMatrix in="SourceAlpha" type="matrix" values="0 0 0 0 0 0 0 0 0 0 0 0 0 0 0 0 0 0 127 0" result="hardAlpha"/>
<feOffset dx="-21" dy="15"/>
<feGaussianBlur stdDeviation="25"/>
<feComposite in2="hardAlpha" operator="out"/>
<feColorMatrix type="matrix" values="0 0 0 0 0.113438 0 0 0 0 0.148981 0 0 0 0 0.275 0 0 0 0.25 0"/>
<feBlend mode="normal" in2="effect1_backgroundBlur_214_613" result="effect2_dropShadow_214_613"/>
<feBlend mode="normal" in="SourceGraphic" in2="effect2_dropShadow_214_613" result="shape"/>
</filter>
<linearGradient id="paint0_linear_214_613" x1="135.5" y1="49.9879" x2="135.5" y2="226.63" gradientUnits="userSpaceOnUse">
<stop stop-color="#FFE600"/>
<stop offset="1" stop-color="#FF7A00"/>
</linearGradient>
<linearGradient id="paint1_linear_214_613" x1="135.5" y1="49.9879" x2="135.5" y2="226.63" gradientUnits="userSpaceOnUse">
<stop stop-color="white"/>
<stop offset="1" stop-color="white" stop-opacity="0"/>
</linearGradient>
<linearGradient id="paint2_linear_214_613" x1="135.5" y1="49.9877" x2="135.5" y2="226.629" gradientUnits="userSpaceOnUse">
<stop stop-color="#FFD600"/>
<stop offset="1" stop-color="#FF7A00"/>
</linearGradient>
<linearGradient id="paint3_linear_214_613" x1="215" y1="136.062" x2="215" y2="324.68" gradientUnits="userSpaceOnUse">
<stop stop-color="white"/>
<stop offset="1" stop-color="white" stop-opacity="0"/>
</linearGradient>
<linearGradient id="paint4_linear_214_613" x1="203" y1="130.823" x2="203" y2="305" gradientUnits="userSpaceOnUse">
<stop stop-color="white"/>
<stop offset="1" stop-color="white" stop-opacity="0"/>
</linearGradient>
</defs>
</svg>
