<svg width="70" height="70" viewBox="0 0 70 70" fill="none" xmlns="http://www.w3.org/2000/svg">
<g clip-path="url(#clip0_187_624)">
<rect width="70" height="70" rx="10" fill="#5F90CF"/>
<g filter="url(#filter0_bd_187_624)">
<mask id="path-2-inside-1_187_624" fill="white">
<path fill-rule="evenodd" clip-rule="evenodd" d="M42.6299 43.2615C42.6578 43.2619 42.6858 43.262 42.7138 43.262C46.6979 43.262 49.9276 40.0021 49.9276 35.9809C49.9276 31.9596 46.6979 28.6997 42.7138 28.6997C42.6858 28.6997 42.6578 28.6999 42.6299 28.7002V28.6997H40.7663C40.8336 28.2014 40.8684 27.6927 40.8684 27.1757C40.8684 21.0035 35.9111 16 29.796 16C23.6809 16 18.7237 21.0035 18.7237 27.1757C18.7237 27.7581 18.7678 28.3301 18.8529 28.8885C18.3263 28.765 17.7776 28.6997 17.2138 28.6997C13.2297 28.6997 10 31.9596 10 35.9809C10 40.0021 13.2297 43.262 17.2138 43.262C17.2419 43.262 17.27 43.2619 17.2981 43.2615L17.2977 43.262H42.6299V43.2615Z"/>
</mask>
<path fill-rule="evenodd" clip-rule="evenodd" d="M42.6299 43.2615C42.6578 43.2619 42.6858 43.262 42.7138 43.262C46.6979 43.262 49.9276 40.0021 49.9276 35.9809C49.9276 31.9596 46.6979 28.6997 42.7138 28.6997C42.6858 28.6997 42.6578 28.6999 42.6299 28.7002V28.6997H40.7663C40.8336 28.2014 40.8684 27.6927 40.8684 27.1757C40.8684 21.0035 35.9111 16 29.796 16C23.6809 16 18.7237 21.0035 18.7237 27.1757C18.7237 27.7581 18.7678 28.3301 18.8529 28.8885C18.3263 28.765 17.7776 28.6997 17.2138 28.6997C13.2297 28.6997 10 31.9596 10 35.9809C10 40.0021 13.2297 43.262 17.2138 43.262C17.2419 43.262 17.27 43.2619 17.2981 43.2615L17.2977 43.262H42.6299V43.2615Z" fill="url(#paint0_linear_187_624)" shape-rendering="crispEdges"/>
<path d="M42.6299 43.2615L42.6529 41.2617C42.1185 41.2555 41.6039 41.4635 41.2239 41.8392C40.8438 42.2149 40.6299 42.7271 40.6299 43.2615H42.6299ZM42.6299 28.7002H40.6299C40.6299 29.2346 40.8438 29.7468 41.2239 30.1225C41.6039 30.4982 42.1185 30.7062 42.6529 30.7L42.6299 28.7002ZM42.6299 28.6997H44.6299C44.6299 27.5951 43.7345 26.6997 42.6299 26.6997V28.6997ZM40.7663 28.6997L38.7843 28.4319C38.7071 29.0039 38.8806 29.5813 39.2604 30.0158C39.6402 30.4504 40.1892 30.6997 40.7663 30.6997V28.6997ZM18.8529 28.8885L18.3963 30.8356C19.0427 30.9872 19.7223 30.8081 20.21 30.3575C20.6978 29.9069 20.9301 29.2436 20.8301 28.5872L18.8529 28.8885ZM17.2981 43.2615L18.874 44.4929C19.3474 43.8871 19.4316 43.0635 19.0906 42.3745C18.7496 41.6854 18.0437 41.2528 17.2749 41.2617L17.2981 43.2615ZM17.2977 43.262L15.7217 42.0306C15.2509 42.6332 15.1649 43.4514 15.5001 44.1387C15.8353 44.826 16.533 45.262 17.2977 45.262V43.262ZM42.6299 43.262V45.262C43.7345 45.262 44.6299 44.3666 44.6299 43.262H42.6299ZM42.607 45.2614C42.6425 45.2618 42.6781 45.262 42.7138 45.262V41.262C42.6935 41.262 42.6732 41.2619 42.6529 41.2617L42.607 45.2614ZM42.7138 45.262C47.8199 45.262 51.9276 41.0891 51.9276 35.9809H47.9276C47.9276 38.9151 45.5758 41.262 42.7138 41.262V45.262ZM51.9276 35.9809C51.9276 30.8726 47.8199 26.6997 42.7138 26.6997V30.6997C45.5758 30.6997 47.9276 33.0466 47.9276 35.9809H51.9276ZM42.7138 26.6997C42.6781 26.6997 42.6425 26.6999 42.607 26.7003L42.6529 30.7C42.6732 30.6998 42.6935 30.6997 42.7138 30.6997V26.6997ZM40.6299 28.6997V28.7002H44.6299V28.6997H40.6299ZM40.7663 30.6997H42.6299V26.6997H40.7663V30.6997ZM42.7483 28.9674C42.8276 28.3806 42.8684 27.7825 42.8684 27.1757H38.8684C38.8684 27.6029 38.8397 28.0222 38.7843 28.4319L42.7483 28.9674ZM42.8684 27.1757C42.8684 19.9165 37.0332 14 29.796 14V18C34.7891 18 38.8684 22.0906 38.8684 27.1757H42.8684ZM29.796 14C22.5589 14 16.7237 19.9165 16.7237 27.1757H20.7237C20.7237 22.0906 24.803 18 29.796 18V14ZM16.7237 27.1757C16.7237 27.8593 16.7755 28.532 16.8757 29.1897L20.8301 28.5872C20.7601 28.1282 20.7237 27.6569 20.7237 27.1757H16.7237ZM19.3095 26.9413C18.6344 26.783 17.9325 26.6997 17.2138 26.6997V30.6997C17.6227 30.6997 18.0182 30.747 18.3963 30.8356L19.3095 26.9413ZM17.2138 26.6997C12.1077 26.6997 8 30.8726 8 35.9809H12C12 33.0466 14.3518 30.6997 17.2138 30.6997V26.6997ZM8 35.9809C8 41.0891 12.1077 45.262 17.2138 45.262V41.262C14.3518 41.262 12 38.9151 12 35.9809H8ZM17.2138 45.262C17.2496 45.262 17.2854 45.2618 17.3212 45.2614L17.2749 41.2617C17.2546 41.2619 17.2343 41.262 17.2138 41.262V45.262ZM18.8736 44.4934L18.874 44.4929L15.7221 42.0301L15.7217 42.0306L18.8736 44.4934ZM42.6299 41.262H17.2977V45.262H42.6299V41.262ZM40.6299 43.2615V43.262H44.6299V43.2615H40.6299Z" fill="url(#paint1_linear_187_624)" mask="url(#path-2-inside-1_187_624)"/>
</g>
<g filter="url(#filter1_bd_187_624)">
<mask id="path-4-inside-2_187_624" fill="white">
<path fill-rule="evenodd" clip-rule="evenodd" d="M55.7258 35.7016C55.746 35.7018 55.7662 35.702 55.7865 35.702C58.6657 35.702 60.9998 33.3461 60.9998 30.4399C60.9998 27.5338 58.6657 25.1779 55.7865 25.1779C55.7662 25.1779 55.746 25.178 55.7258 25.1783V25.1779H54.3791C54.4277 24.8178 54.4528 24.4502 54.4528 24.0766C54.4528 19.616 50.8703 16 46.4509 16C42.0316 16 38.4491 19.616 38.4491 24.0766C38.4491 24.4975 38.481 24.9108 38.5424 25.3143C38.1619 25.2251 37.7653 25.1779 37.3579 25.1779C34.4786 25.1779 32.1445 27.5338 32.1445 30.4399C32.1445 33.3461 34.4786 35.702 37.3579 35.702C37.3782 35.702 37.3985 35.7018 37.4188 35.7016L37.4185 35.702H55.7258V35.7016Z"/>
</mask>
<path fill-rule="evenodd" clip-rule="evenodd" d="M55.7258 35.7016C55.746 35.7018 55.7662 35.702 55.7865 35.702C58.6657 35.702 60.9998 33.3461 60.9998 30.4399C60.9998 27.5338 58.6657 25.1779 55.7865 25.1779C55.7662 25.1779 55.746 25.178 55.7258 25.1783V25.1779H54.3791C54.4277 24.8178 54.4528 24.4502 54.4528 24.0766C54.4528 19.616 50.8703 16 46.4509 16C42.0316 16 38.4491 19.616 38.4491 24.0766C38.4491 24.4975 38.481 24.9108 38.5424 25.3143C38.1619 25.2251 37.7653 25.1779 37.3579 25.1779C34.4786 25.1779 32.1445 27.5338 32.1445 30.4399C32.1445 33.3461 34.4786 35.702 37.3579 35.702C37.3782 35.702 37.3985 35.7018 37.4188 35.7016L37.4185 35.702H55.7258V35.7016Z" fill="url(#paint2_linear_187_624)" shape-rendering="crispEdges"/>
<path d="M55.7258 35.7016L55.7489 33.7017C55.2145 33.6956 54.6999 33.9035 54.3198 34.2793C53.9397 34.655 53.7258 35.1672 53.7258 35.7016H55.7258ZM55.7258 25.1783H53.7258C53.7258 25.7127 53.9397 26.2249 54.3198 26.6006C54.6999 26.9763 55.2145 27.1843 55.7489 27.1781L55.7258 25.1783ZM55.7258 25.1779H57.7258C57.7258 24.0734 56.8304 23.1779 55.7258 23.1779V25.1779ZM54.3791 25.1779L52.3971 24.9102C52.3198 25.4821 52.4934 26.0595 52.8732 26.4941C53.2529 26.9286 53.8019 27.1779 54.3791 27.1779V25.1779ZM38.5424 25.3143L38.0858 27.2615C38.7323 27.4131 39.4119 27.234 39.8996 26.7834C40.3873 26.3328 40.6196 25.6695 40.5196 25.0131L38.5424 25.3143ZM37.4188 35.7016L38.9938 36.9342C39.4678 36.3285 39.5525 35.5047 39.2116 34.8152C38.8707 34.1257 38.1647 33.6928 37.3956 33.7017L37.4188 35.7016ZM37.4185 35.702L35.8435 34.4693C35.372 35.0717 35.2855 35.8903 35.6205 36.578C35.9556 37.2656 36.6535 37.702 37.4185 37.702V35.702ZM55.7258 35.702V37.702C56.8304 37.702 57.7258 36.8065 57.7258 35.702H55.7258ZM55.7028 37.7015C55.7307 37.7018 55.7586 37.702 55.7865 37.702V33.702C55.7739 33.702 55.7614 33.7019 55.7489 33.7017L55.7028 37.7015ZM55.7865 37.702C59.7878 37.702 62.9998 34.4331 62.9998 30.4399H58.9998C58.9998 32.2591 57.5437 33.702 55.7865 33.702V37.702ZM62.9998 30.4399C62.9998 26.4468 59.7878 23.1779 55.7865 23.1779V27.1779C57.5437 27.1779 58.9998 28.6208 58.9998 30.4399H62.9998ZM55.7865 23.1779C55.7586 23.1779 55.7307 23.1781 55.7028 23.1784L55.7489 27.1781C55.7614 27.178 55.7739 27.1779 55.7865 27.1779V23.1779ZM53.7258 25.1779V25.1783H57.7258V25.1779H53.7258ZM54.3791 27.1779H55.7258V23.1779H54.3791V27.1779ZM56.3611 25.4457C56.4216 24.9971 56.4528 24.54 56.4528 24.0766H52.4528C52.4528 24.3604 52.4337 24.6386 52.3971 24.9102L56.3611 25.4457ZM56.4528 24.0766C56.4528 18.529 51.9923 14 46.4509 14V18C49.7482 18 52.4528 20.703 52.4528 24.0766H56.4528ZM46.4509 14C40.9096 14 36.4491 18.529 36.4491 24.0766H40.4491C40.4491 20.703 43.1537 18 46.4509 18V14ZM36.4491 24.0766C36.4491 24.5987 36.4886 25.1127 36.5653 25.6156L40.5196 25.0131C40.4733 24.7089 40.4491 24.3963 40.4491 24.0766H36.4491ZM38.9991 23.3672C38.47 23.2431 37.9202 23.1779 37.3579 23.1779V27.1779C37.6104 27.1779 37.8538 27.2071 38.0858 27.2615L38.9991 23.3672ZM37.3579 23.1779C33.3566 23.1779 30.1445 26.4468 30.1445 30.4399H34.1445C34.1445 28.6208 35.6007 27.1779 37.3579 27.1779V23.1779ZM30.1445 30.4399C30.1445 34.4331 33.3566 37.702 37.3579 37.702V33.702C35.6007 33.702 34.1445 32.2591 34.1445 30.4399H30.1445ZM37.3579 37.702C37.3858 37.702 37.4138 37.7018 37.4419 37.7015L37.3956 33.7017C37.3831 33.7019 37.3706 33.702 37.3579 33.702V37.702ZM38.9935 36.9346L38.9938 36.9342L35.8437 34.469L35.8435 34.4693L38.9935 36.9346ZM55.7258 33.702H37.4185V37.702H55.7258V33.702ZM53.7258 35.7016V35.702H57.7258V35.7016H53.7258Z" fill="url(#paint3_linear_187_624)" mask="url(#path-4-inside-2_187_624)"/>
</g>
<g filter="url(#filter2_bdd_187_624)">
<path d="M26.5323 39.2688C26.5643 39.2273 26.5905 39.2159 26.6082 39.2109C26.6319 39.204 26.6659 39.2026 26.704 39.2143C26.7422 39.226 26.7696 39.2463 26.7855 39.2653C26.7974 39.2795 26.8129 39.3037 26.8166 39.3561L27.0135 42.1393C27.074 42.9934 26.263 43.6399 25.4459 43.389C24.6288 43.1382 24.3118 42.1454 24.8332 41.4699L26.5323 39.2688Z" fill="url(#paint4_linear_187_624)" stroke="url(#paint5_linear_187_624)" stroke-width="2"/>
<path d="M36.1807 39.2688C36.2127 39.2273 36.2389 39.2159 36.2566 39.2109C36.2803 39.204 36.3143 39.2026 36.3525 39.2143C36.3906 39.226 36.4181 39.2463 36.434 39.2653C36.4458 39.2795 36.4614 39.3037 36.4651 39.3561L36.662 42.1393C36.7224 42.9934 35.9114 43.6399 35.0943 43.389C34.2772 43.1382 33.9603 42.1454 34.4817 41.4699L36.1807 39.2688Z" fill="url(#paint6_linear_187_624)" stroke="url(#paint7_linear_187_624)" stroke-width="2"/>
<path d="M45.8291 39.2688C45.8611 39.2273 45.8874 39.2159 45.905 39.2109C45.9287 39.204 45.9627 39.2026 46.0009 39.2143C46.0391 39.226 46.0665 39.2463 46.0824 39.2653C46.0943 39.2795 46.1098 39.3037 46.1135 39.3561L46.3104 42.1393C46.3708 42.9934 45.5599 43.6399 44.7428 43.389C43.9256 43.1382 43.6087 42.1454 44.1301 41.4699L45.8291 39.2688Z" fill="url(#paint8_linear_187_624)" stroke="url(#paint9_linear_187_624)" stroke-width="2"/>
</g>
<g filter="url(#filter3_bdd_187_624)">
<path d="M29.0772 46.9766C29.1092 46.9352 29.1354 46.9238 29.1531 46.9187C29.1768 46.9119 29.2108 46.9104 29.249 46.9222C29.2871 46.9339 29.3146 46.9542 29.3305 46.9732C29.3423 46.9874 29.3579 47.0115 29.3616 47.064L29.5585 49.8472C29.6189 50.7013 28.8079 51.3478 27.9908 51.0969C27.1737 50.8461 26.8568 49.8533 27.3781 49.1778L29.0772 46.9766Z" fill="url(#paint10_linear_187_624)" stroke="url(#paint11_linear_187_624)" stroke-width="2"/>
<path d="M37.2295 46.9766C37.2615 46.9352 37.2878 46.9238 37.3054 46.9187C37.3291 46.9119 37.3631 46.9104 37.4013 46.9222C37.4395 46.9339 37.4669 46.9542 37.4828 46.9732C37.4947 46.9874 37.5102 47.0115 37.5139 47.064L37.7108 49.8472C37.7712 50.7013 36.9603 51.3478 36.1432 51.0969C35.326 50.8461 35.0091 49.8533 35.5305 49.1778L37.2295 46.9766Z" fill="url(#paint12_linear_187_624)" stroke="url(#paint13_linear_187_624)" stroke-width="2"/>
</g>
</g>
<defs>
<filter id="filter0_bd_187_624" x="-61" y="-19" width="139.928" height="127.262" filterUnits="userSpaceOnUse" color-interpolation-filters="sRGB">
<feFlood flood-opacity="0" result="BackgroundImageFix"/>
<feGaussianBlur in="BackgroundImageFix" stdDeviation="7"/>
<feComposite in2="SourceAlpha" operator="in" result="effect1_backgroundBlur_187_624"/>
<feColorMatrix in="SourceAlpha" type="matrix" values="0 0 0 0 0 0 0 0 0 0 0 0 0 0 0 0 0 0 127 0" result="hardAlpha"/>
<feOffset dx="-21" dy="15"/>
<feGaussianBlur stdDeviation="25"/>
<feComposite in2="hardAlpha" operator="out"/>
<feColorMatrix type="matrix" values="0 0 0 0 0.113725 0 0 0 0 0.14902 0 0 0 0 0.27451 0 0 0 0.25 0"/>
<feBlend mode="normal" in2="effect1_backgroundBlur_187_624" result="effect2_dropShadow_187_624"/>
<feBlend mode="normal" in="SourceGraphic" in2="effect2_dropShadow_187_624" result="shape"/>
</filter>
<filter id="filter1_bd_187_624" x="-38.8555" y="-19" width="128.855" height="119.702" filterUnits="userSpaceOnUse" color-interpolation-filters="sRGB">
<feFlood flood-opacity="0" result="BackgroundImageFix"/>
<feGaussianBlur in="BackgroundImageFix" stdDeviation="7"/>
<feComposite in2="SourceAlpha" operator="in" result="effect1_backgroundBlur_187_624"/>
<feColorMatrix in="SourceAlpha" type="matrix" values="0 0 0 0 0 0 0 0 0 0 0 0 0 0 0 0 0 0 127 0" result="hardAlpha"/>
<feOffset dx="-21" dy="15"/>
<feGaussianBlur stdDeviation="25"/>
<feComposite in2="hardAlpha" operator="out"/>
<feColorMatrix type="matrix" values="0 0 0 0 0.113438 0 0 0 0 0.148981 0 0 0 0 0.275 0 0 0 0.25 0"/>
<feBlend mode="normal" in2="effect1_backgroundBlur_187_624" result="effect2_dropShadow_187_624"/>
<feBlend mode="normal" in="SourceGraphic" in2="effect2_dropShadow_187_624" result="shape"/>
</filter>
<filter id="filter2_bdd_187_624" x="-47.4199" y="-9.7959" width="135.732" height="119.242" filterUnits="userSpaceOnUse" color-interpolation-filters="sRGB">
<feFlood flood-opacity="0" result="BackgroundImageFix"/>
<feGaussianBlur in="BackgroundImageFix" stdDeviation="7"/>
<feComposite in2="SourceAlpha" operator="in" result="effect1_backgroundBlur_187_624"/>
<feColorMatrix in="SourceAlpha" type="matrix" values="0 0 0 0 0 0 0 0 0 0 0 0 0 0 0 0 0 0 127 0" result="hardAlpha"/>
<feOffset dx="-21" dy="15"/>
<feGaussianBlur stdDeviation="25"/>
<feComposite in2="hardAlpha" operator="out"/>
<feColorMatrix type="matrix" values="0 0 0 0 0.113438 0 0 0 0 0.148981 0 0 0 0 0.275 0 0 0 0.25 0"/>
<feBlend mode="normal" in2="effect1_backgroundBlur_187_624" result="effect2_dropShadow_187_624"/>
<feColorMatrix in="SourceAlpha" type="matrix" values="0 0 0 0 0 0 0 0 0 0 0 0 0 0 0 0 0 0 127 0" result="hardAlpha"/>
<feOffset dy="-7"/>
<feGaussianBlur stdDeviation="20.5"/>
<feComposite in2="hardAlpha" operator="out"/>
<feColorMatrix type="matrix" values="0 0 0 0 0.1375 0 0 0 0 0.74125 0 0 0 0 1 0 0 0 0.3 0"/>
<feBlend mode="normal" in2="effect2_dropShadow_187_624" result="effect3_dropShadow_187_624"/>
<feBlend mode="normal" in="SourceGraphic" in2="effect3_dropShadow_187_624" result="shape"/>
</filter>
<filter id="filter3_bdd_187_624" x="-44.875" y="-2.08801" width="124.588" height="119.242" filterUnits="userSpaceOnUse" color-interpolation-filters="sRGB">
<feFlood flood-opacity="0" result="BackgroundImageFix"/>
<feGaussianBlur in="BackgroundImageFix" stdDeviation="7"/>
<feComposite in2="SourceAlpha" operator="in" result="effect1_backgroundBlur_187_624"/>
<feColorMatrix in="SourceAlpha" type="matrix" values="0 0 0 0 0 0 0 0 0 0 0 0 0 0 0 0 0 0 127 0" result="hardAlpha"/>
<feOffset dx="-21" dy="15"/>
<feGaussianBlur stdDeviation="25"/>
<feComposite in2="hardAlpha" operator="out"/>
<feColorMatrix type="matrix" values="0 0 0 0 0.113438 0 0 0 0 0.148981 0 0 0 0 0.275 0 0 0 0.25 0"/>
<feBlend mode="normal" in2="effect1_backgroundBlur_187_624" result="effect2_dropShadow_187_624"/>
<feColorMatrix in="SourceAlpha" type="matrix" values="0 0 0 0 0 0 0 0 0 0 0 0 0 0 0 0 0 0 127 0" result="hardAlpha"/>
<feOffset dy="-7"/>
<feGaussianBlur stdDeviation="20.5"/>
<feComposite in2="hardAlpha" operator="out"/>
<feColorMatrix type="matrix" values="0 0 0 0 0.1375 0 0 0 0 0.74125 0 0 0 0 1 0 0 0 0.3 0"/>
<feBlend mode="normal" in2="effect2_dropShadow_187_624" result="effect3_dropShadow_187_624"/>
<feBlend mode="normal" in="SourceGraphic" in2="effect3_dropShadow_187_624" result="shape"/>
</filter>
<linearGradient id="paint0_linear_187_624" x1="29.9638" y1="7.27954" x2="29.9638" y2="47.0719" gradientUnits="userSpaceOnUse">
<stop stop-color="white"/>
<stop offset="1" stop-color="white" stop-opacity="0"/>
</linearGradient>
<linearGradient id="paint1_linear_187_624" x1="29.9638" y1="16" x2="29.9638" y2="43.262" gradientUnits="userSpaceOnUse">
<stop stop-color="white"/>
<stop offset="1" stop-color="white" stop-opacity="0"/>
</linearGradient>
<linearGradient id="paint2_linear_187_624" x1="47.9143" y1="16.5927" x2="47.9143" y2="37.9281" gradientUnits="userSpaceOnUse">
<stop stop-color="white"/>
<stop offset="1" stop-color="white" stop-opacity="0"/>
</linearGradient>
<linearGradient id="paint3_linear_187_624" x1="46.5722" y1="16" x2="46.5722" y2="35.702" gradientUnits="userSpaceOnUse">
<stop stop-color="white"/>
<stop offset="1" stop-color="white" stop-opacity="0"/>
</linearGradient>
<linearGradient id="paint4_linear_187_624" x1="27.5976" y1="36.2492" x2="25.1155" y2="44.3337" gradientUnits="userSpaceOnUse">
<stop stop-color="#138EFF"/>
<stop offset="1" stop-color="#00E0FF"/>
</linearGradient>
<linearGradient id="paint5_linear_187_624" x1="27.5976" y1="36.2492" x2="25.1155" y2="44.3337" gradientUnits="userSpaceOnUse">
<stop stop-color="white"/>
<stop offset="1" stop-color="white" stop-opacity="0"/>
</linearGradient>
<linearGradient id="paint6_linear_187_624" x1="37.246" y1="36.2492" x2="34.7639" y2="44.3337" gradientUnits="userSpaceOnUse">
<stop stop-color="#138EFF"/>
<stop offset="1" stop-color="#00E0FF"/>
</linearGradient>
<linearGradient id="paint7_linear_187_624" x1="37.246" y1="36.2492" x2="34.7639" y2="44.3337" gradientUnits="userSpaceOnUse">
<stop stop-color="white"/>
<stop offset="1" stop-color="white" stop-opacity="0"/>
</linearGradient>
<linearGradient id="paint8_linear_187_624" x1="46.8945" y1="36.2492" x2="44.4124" y2="44.3337" gradientUnits="userSpaceOnUse">
<stop stop-color="#138EFF"/>
<stop offset="1" stop-color="#00E0FF"/>
</linearGradient>
<linearGradient id="paint9_linear_187_624" x1="46.8945" y1="36.2492" x2="44.4124" y2="44.3337" gradientUnits="userSpaceOnUse">
<stop stop-color="white"/>
<stop offset="1" stop-color="white" stop-opacity="0"/>
</linearGradient>
<linearGradient id="paint10_linear_187_624" x1="30.1425" y1="43.9571" x2="27.6604" y2="52.0415" gradientUnits="userSpaceOnUse">
<stop stop-color="#138EFF"/>
<stop offset="1" stop-color="#00E0FF"/>
</linearGradient>
<linearGradient id="paint11_linear_187_624" x1="30.1425" y1="43.9571" x2="27.6604" y2="52.0415" gradientUnits="userSpaceOnUse">
<stop stop-color="white"/>
<stop offset="1" stop-color="white" stop-opacity="0"/>
</linearGradient>
<linearGradient id="paint12_linear_187_624" x1="38.2949" y1="43.9571" x2="35.8128" y2="52.0415" gradientUnits="userSpaceOnUse">
<stop stop-color="#138EFF"/>
<stop offset="1" stop-color="#00E0FF"/>
</linearGradient>
<linearGradient id="paint13_linear_187_624" x1="38.2949" y1="43.9571" x2="35.8128" y2="52.0415" gradientUnits="userSpaceOnUse">
<stop stop-color="white"/>
<stop offset="1" stop-color="white" stop-opacity="0"/>
</linearGradient>
<clipPath id="clip0_187_624">
<rect width="70" height="70" rx="10" fill="white"/>
</clipPath>
</defs>
</svg>
