<svg width="70" height="70" viewBox="0 0 70 70" fill="none" xmlns="http://www.w3.org/2000/svg">
<g clip-path="url(#clip0_187_483)">
<rect width="70" height="70" rx="10" fill="#5F90CF"/>
<g filter="url(#filter0_bdd_187_483)">
<mask id="path-2-inside-1_187_483" fill="white">
<path fill-rule="evenodd" clip-rule="evenodd" d="M32.2949 14.8719C33.1546 14.7319 33.6679 15.7534 33.1971 16.4937C30.267 21.1007 29.7697 27.1025 32.4076 32.3007C35.8939 39.1708 43.6886 42.3352 50.7773 40.1841C51.613 39.9306 52.4452 40.7121 52.074 41.5089C50.3713 45.164 47.5055 48.3059 43.678 50.3045C34.4812 55.1069 23.2145 51.49 18.5133 42.2258C13.812 32.9617 17.4564 21.5586 26.6532 16.7562C28.475 15.8049 30.3779 15.184 32.2949 14.8719Z"/>
</mask>
<path fill-rule="evenodd" clip-rule="evenodd" d="M32.2949 14.8719C33.1546 14.7319 33.6679 15.7534 33.1971 16.4937C30.267 21.1007 29.7697 27.1025 32.4076 32.3007C35.8939 39.1708 43.6886 42.3352 50.7773 40.1841C51.613 39.9306 52.4452 40.7121 52.074 41.5089C50.3713 45.164 47.5055 48.3059 43.678 50.3045C34.4812 55.1069 23.2145 51.49 18.5133 42.2258C13.812 32.9617 17.4564 21.5586 26.6532 16.7562C28.475 15.8049 30.3779 15.184 32.2949 14.8719Z" fill="url(#paint0_linear_187_483)"/>
<path d="M32.4076 32.3007L34.1821 31.3782L32.4076 32.3007ZM43.678 50.3045L44.5863 52.0863L43.678 50.3045ZM18.5133 42.2258L20.2878 41.3034L18.5133 42.2258ZM26.6532 16.7562L27.5615 18.538L26.6532 16.7562ZM50.7773 40.1841L50.2131 38.2617L50.7773 40.1841ZM52.074 41.5089L53.8763 42.3539L52.074 41.5089ZM34.1821 31.3782C31.8793 26.8403 32.3102 21.5991 34.8723 17.5705L31.5219 15.4168C28.2239 20.6024 27.66 27.3647 30.633 33.2232L34.1821 31.3782ZM50.2131 38.2617C44.0295 40.138 37.2257 37.3757 34.1821 31.3782L30.633 33.2232C34.5622 40.9658 43.3476 44.5323 51.3416 42.1066L50.2131 38.2617ZM50.2718 40.6639C48.7497 43.9311 46.191 46.7361 42.7697 48.5227L44.5863 52.0863C48.8199 49.8756 51.9928 46.3969 53.8763 42.3539L50.2718 40.6639ZM42.7697 48.5227C34.5554 52.812 24.4897 49.5834 20.2878 41.3034L16.7387 43.1483C21.9394 53.3965 34.4069 57.4018 44.5863 52.0863L42.7697 48.5227ZM20.2878 41.3034C16.0846 33.0208 19.3447 22.8286 27.5615 18.538L25.7449 14.9744C15.568 20.2885 11.5394 32.9027 16.7387 43.1483L20.2878 41.3034ZM27.5615 18.538C29.1922 17.6865 30.8917 17.1325 32.6017 16.8541L31.9882 12.8897C29.8641 13.2355 27.7578 13.9233 25.7449 14.9744L27.5615 18.538ZM51.3416 42.1066C51.0188 42.2045 50.6943 42.1029 50.4787 41.8896C50.3645 41.7766 50.2492 41.6021 50.1984 41.365C50.1442 41.1122 50.18 40.861 50.2718 40.6639L53.8763 42.3539C54.4713 41.0766 54.0579 39.7876 53.2777 39.0157C52.5299 38.2758 51.3715 37.9102 50.2131 38.2617L51.3416 42.1066ZM34.8723 17.5705C35.525 16.5443 35.4968 15.3205 34.9991 14.3912C34.4799 13.4215 33.3675 12.6651 31.9882 12.8897L32.6017 16.8541C32.3885 16.8888 32.1393 16.8542 31.9134 16.7317C31.7014 16.6167 31.5669 16.4565 31.4908 16.3142C31.347 16.0457 31.34 15.7029 31.5219 15.4168L34.8723 17.5705Z" fill="url(#paint1_linear_187_483)" mask="url(#path-2-inside-1_187_483)"/>
</g>
<g filter="url(#filter1_bdd_187_483)">
<path d="M39.7851 16.8891C40.0358 16.0284 41.2551 16.0284 41.5058 16.8891C41.5909 17.1812 41.819 17.4104 42.1106 17.4973C42.9728 17.7546 42.9728 18.9783 42.1106 19.2356C41.819 19.3226 41.5909 19.5518 41.5058 19.8439C41.2551 20.7045 40.0358 20.7045 39.7851 19.8439C39.7001 19.5518 39.4719 19.3226 39.1803 19.2356C38.3181 18.9783 38.3181 17.7546 39.1803 17.4973C39.4719 17.4104 39.7001 17.1812 39.7851 16.8891Z" fill="url(#paint2_linear_187_483)"/>
<path d="M39.7051 18.3665C40.1198 18.1791 40.4542 17.8482 40.6455 17.435C40.8368 17.8482 41.1711 18.1791 41.5858 18.3665C41.1711 18.5539 40.8368 18.8848 40.6455 19.2979C40.4542 18.8848 40.1198 18.5539 39.7051 18.3665Z" stroke="url(#paint3_linear_187_483)" stroke-width="2"/>
</g>
<g filter="url(#filter2_bdd_187_483)">
<path d="M43.2006 29.4822C43.5305 28.3498 45.1348 28.3498 45.4646 29.4822C45.5766 29.8665 45.8768 30.1681 46.2604 30.2825C47.395 30.6211 47.395 32.2312 46.2604 32.5697C45.8768 32.6842 45.5766 32.9857 45.4646 33.3701C45.1348 34.5025 43.5305 34.5025 43.2006 33.3701C43.0887 32.9857 42.7885 32.6842 42.4049 32.5697C41.2703 32.2312 41.2703 30.6211 42.4049 30.2825C42.7885 30.1681 43.0887 29.8665 43.2006 29.4822Z" fill="url(#paint4_linear_187_483)"/>
<path d="M44.1607 29.7618C44.1794 29.6976 44.2051 29.6753 44.2211 29.664C44.2443 29.6478 44.283 29.6329 44.3326 29.6329C44.3823 29.6329 44.4209 29.6478 44.4441 29.664C44.4602 29.6753 44.4858 29.6976 44.5045 29.7618C44.7117 30.473 45.2664 31.0295 45.9745 31.2408C46.0402 31.2604 46.0647 31.2875 46.0777 31.3062C46.0957 31.332 46.1113 31.3736 46.1113 31.4261C46.1113 31.4786 46.0957 31.5203 46.0777 31.546C46.0647 31.5647 46.0402 31.5918 45.9745 31.6115C45.2664 31.8227 44.7117 32.3792 44.5045 33.0904C44.4858 33.1546 44.4602 33.1769 44.4441 33.1882C44.4209 33.2044 44.3823 33.2194 44.3326 33.2194C44.283 33.2194 44.2443 33.2044 44.2211 33.1882C44.2051 33.1769 44.1794 33.1546 44.1607 33.0904C43.9536 32.3792 43.3989 31.8227 42.6908 31.6115C42.6251 31.5918 42.6006 31.5647 42.5875 31.546C42.5696 31.5203 42.5539 31.4786 42.5539 31.4261C42.5539 31.3736 42.5696 31.332 42.5875 31.3062C42.6006 31.2875 42.6251 31.2604 42.6908 31.2408C43.3989 31.0295 43.9536 30.473 44.1607 29.7618Z" stroke="url(#paint5_linear_187_483)" stroke-width="2"/>
</g>
<g filter="url(#filter3_bdd_187_483)">
<path d="M55.5891 25.5178C55.8002 24.7931 56.827 24.7931 57.0381 25.5178C57.1097 25.7638 57.3019 25.9568 57.5474 26.03C58.2735 26.2467 58.2735 27.2772 57.5474 27.4938C57.3019 27.5671 57.1097 27.7601 57.0381 28.0061C56.827 28.7308 55.8002 28.7308 55.5891 28.0061C55.5175 27.7601 55.3253 27.5671 55.0798 27.4938C54.3537 27.2772 54.3537 26.2467 55.0798 26.03C55.3253 25.9568 55.5175 25.7638 55.5891 25.5178Z" fill="url(#paint6_linear_187_483)"/>
<path d="M55.8448 26.7619C56.029 26.6378 56.1882 26.4797 56.3136 26.2962C56.439 26.4797 56.5982 26.6378 56.7824 26.7619C56.5982 26.8861 56.439 27.0442 56.3136 27.2277C56.1882 27.0442 56.029 26.8861 55.8448 26.7619Z" stroke="url(#paint7_linear_187_483)" stroke-width="2"/>
</g>
<g filter="url(#filter4_bdd_187_483)">
<path d="M51.4407 14.5571C51.6518 13.8324 52.6785 13.8324 52.8896 14.5571C52.9613 14.8031 53.1534 14.9961 53.3989 15.0694C54.1251 15.286 54.1251 16.3165 53.3989 16.5331C53.1534 16.6064 52.9613 16.7994 52.8896 17.0454C52.6785 17.7701 51.6518 17.7701 51.4407 17.0454C51.369 16.7994 51.1769 16.6064 50.9314 16.5331C50.2053 16.3165 50.2053 15.286 50.9314 15.0694C51.1769 14.9961 51.369 14.8031 51.4407 14.5571Z" fill="url(#paint8_linear_187_483)"/>
<path d="M51.6963 15.8013C51.8806 15.6771 52.0398 15.519 52.1652 15.3355C52.2905 15.519 52.4497 15.6771 52.634 15.8013C52.4497 15.9254 52.2905 16.0835 52.1652 16.267C52.0398 16.0835 51.8806 15.9254 51.6963 15.8013Z" stroke="url(#paint9_linear_187_483)" stroke-width="2"/>
</g>
</g>
<defs>
<filter id="filter0_bdd_187_483" x="-54.541" y="-23.1411" width="144.705" height="140.569" filterUnits="userSpaceOnUse" color-interpolation-filters="sRGB">
<feFlood flood-opacity="0" result="BackgroundImageFix"/>
<feGaussianBlur in="BackgroundImageFix" stdDeviation="7"/>
<feComposite in2="SourceAlpha" operator="in" result="effect1_backgroundBlur_187_483"/>
<feColorMatrix in="SourceAlpha" type="matrix" values="0 0 0 0 0 0 0 0 0 0 0 0 0 0 0 0 0 0 127 0" result="hardAlpha"/>
<feOffset dx="-21" dy="15"/>
<feGaussianBlur stdDeviation="25"/>
<feComposite in2="hardAlpha" operator="out"/>
<feColorMatrix type="matrix" values="0 0 0 0 0.113438 0 0 0 0 0.148981 0 0 0 0 0.275 0 0 0 0.25 0"/>
<feBlend mode="normal" in2="effect1_backgroundBlur_187_483" result="effect2_dropShadow_187_483"/>
<feColorMatrix in="SourceAlpha" type="matrix" values="0 0 0 0 0 0 0 0 0 0 0 0 0 0 0 0 0 0 127 0" result="hardAlpha"/>
<feOffset/>
<feGaussianBlur stdDeviation="19"/>
<feComposite in2="hardAlpha" operator="out"/>
<feColorMatrix type="matrix" values="0 0 0 0 0.619608 0 0 0 0 0.423529 0 0 0 0 1 0 0 0 0.4 0"/>
<feBlend mode="normal" in2="effect2_dropShadow_187_483" result="effect3_dropShadow_187_483"/>
<feBlend mode="normal" in="SourceGraphic" in2="effect3_dropShadow_187_483" result="shape"/>
</filter>
<filter id="filter1_bdd_187_483" x="-32.4668" y="-18.7563" width="104.225" height="104.246" filterUnits="userSpaceOnUse" color-interpolation-filters="sRGB">
<feFlood flood-opacity="0" result="BackgroundImageFix"/>
<feGaussianBlur in="BackgroundImageFix" stdDeviation="7"/>
<feComposite in2="SourceAlpha" operator="in" result="effect1_backgroundBlur_187_483"/>
<feColorMatrix in="SourceAlpha" type="matrix" values="0 0 0 0 0 0 0 0 0 0 0 0 0 0 0 0 0 0 127 0" result="hardAlpha"/>
<feOffset dx="-21" dy="15"/>
<feGaussianBlur stdDeviation="25"/>
<feComposite in2="hardAlpha" operator="out"/>
<feColorMatrix type="matrix" values="0 0 0 0 0.113438 0 0 0 0 0.148981 0 0 0 0 0.275 0 0 0 0.25 0"/>
<feBlend mode="normal" in2="effect1_backgroundBlur_187_483" result="effect2_dropShadow_187_483"/>
<feColorMatrix in="SourceAlpha" type="matrix" values="0 0 0 0 0 0 0 0 0 0 0 0 0 0 0 0 0 0 127 0" result="hardAlpha"/>
<feOffset/>
<feGaussianBlur stdDeviation="9"/>
<feComposite in2="hardAlpha" operator="out"/>
<feColorMatrix type="matrix" values="0 0 0 0 0.607843 0 0 0 0 0.392157 0 0 0 0 1 0 0 0 0.56 0"/>
<feBlend mode="normal" in2="effect2_dropShadow_187_483" result="effect3_dropShadow_187_483"/>
<feBlend mode="normal" in="SourceGraphic" in2="effect3_dropShadow_187_483" result="shape"/>
</filter>
<filter id="filter2_bdd_187_483" x="-29.4453" y="-6.36719" width="105.557" height="105.587" filterUnits="userSpaceOnUse" color-interpolation-filters="sRGB">
<feFlood flood-opacity="0" result="BackgroundImageFix"/>
<feGaussianBlur in="BackgroundImageFix" stdDeviation="7"/>
<feComposite in2="SourceAlpha" operator="in" result="effect1_backgroundBlur_187_483"/>
<feColorMatrix in="SourceAlpha" type="matrix" values="0 0 0 0 0 0 0 0 0 0 0 0 0 0 0 0 0 0 127 0" result="hardAlpha"/>
<feOffset dx="-21" dy="15"/>
<feGaussianBlur stdDeviation="25"/>
<feComposite in2="hardAlpha" operator="out"/>
<feColorMatrix type="matrix" values="0 0 0 0 0.113438 0 0 0 0 0.148981 0 0 0 0 0.275 0 0 0 0.25 0"/>
<feBlend mode="normal" in2="effect1_backgroundBlur_187_483" result="effect2_dropShadow_187_483"/>
<feColorMatrix in="SourceAlpha" type="matrix" values="0 0 0 0 0 0 0 0 0 0 0 0 0 0 0 0 0 0 127 0" result="hardAlpha"/>
<feOffset/>
<feGaussianBlur stdDeviation="9"/>
<feComposite in2="hardAlpha" operator="out"/>
<feColorMatrix type="matrix" values="0 0 0 0 0.996078 0 0 0 0 0.764706 0 0 0 0 0.0117647 0 0 0 0.47 0"/>
<feBlend mode="normal" in2="effect2_dropShadow_187_483" result="effect3_dropShadow_187_483"/>
<feBlend mode="normal" in="SourceGraphic" in2="effect3_dropShadow_187_483" result="shape"/>
</filter>
<filter id="filter3_bdd_187_483" x="-16.4648" y="-10.0258" width="103.557" height="103.575" filterUnits="userSpaceOnUse" color-interpolation-filters="sRGB">
<feFlood flood-opacity="0" result="BackgroundImageFix"/>
<feGaussianBlur in="BackgroundImageFix" stdDeviation="7"/>
<feComposite in2="SourceAlpha" operator="in" result="effect1_backgroundBlur_187_483"/>
<feColorMatrix in="SourceAlpha" type="matrix" values="0 0 0 0 0 0 0 0 0 0 0 0 0 0 0 0 0 0 127 0" result="hardAlpha"/>
<feOffset dx="-21" dy="15"/>
<feGaussianBlur stdDeviation="25"/>
<feComposite in2="hardAlpha" operator="out"/>
<feColorMatrix type="matrix" values="0 0 0 0 0.113438 0 0 0 0 0.148981 0 0 0 0 0.275 0 0 0 0.25 0"/>
<feBlend mode="normal" in2="effect1_backgroundBlur_187_483" result="effect2_dropShadow_187_483"/>
<feColorMatrix in="SourceAlpha" type="matrix" values="0 0 0 0 0 0 0 0 0 0 0 0 0 0 0 0 0 0 127 0" result="hardAlpha"/>
<feOffset/>
<feGaussianBlur stdDeviation="9"/>
<feComposite in2="hardAlpha" operator="out"/>
<feColorMatrix type="matrix" values="0 0 0 0 0.607843 0 0 0 0 0.392157 0 0 0 0 1 0 0 0 0.56 0"/>
<feBlend mode="normal" in2="effect2_dropShadow_187_483" result="effect3_dropShadow_187_483"/>
<feBlend mode="normal" in="SourceGraphic" in2="effect3_dropShadow_187_483" result="shape"/>
</filter>
<filter id="filter4_bdd_187_483" x="-20.6133" y="-20.9865" width="103.557" height="103.575" filterUnits="userSpaceOnUse" color-interpolation-filters="sRGB">
<feFlood flood-opacity="0" result="BackgroundImageFix"/>
<feGaussianBlur in="BackgroundImageFix" stdDeviation="7"/>
<feComposite in2="SourceAlpha" operator="in" result="effect1_backgroundBlur_187_483"/>
<feColorMatrix in="SourceAlpha" type="matrix" values="0 0 0 0 0 0 0 0 0 0 0 0 0 0 0 0 0 0 127 0" result="hardAlpha"/>
<feOffset dx="-21" dy="15"/>
<feGaussianBlur stdDeviation="25"/>
<feComposite in2="hardAlpha" operator="out"/>
<feColorMatrix type="matrix" values="0 0 0 0 0.113438 0 0 0 0 0.148981 0 0 0 0 0.275 0 0 0 0.25 0"/>
<feBlend mode="normal" in2="effect1_backgroundBlur_187_483" result="effect2_dropShadow_187_483"/>
<feColorMatrix in="SourceAlpha" type="matrix" values="0 0 0 0 0 0 0 0 0 0 0 0 0 0 0 0 0 0 127 0" result="hardAlpha"/>
<feOffset/>
<feGaussianBlur stdDeviation="9"/>
<feComposite in2="hardAlpha" operator="out"/>
<feColorMatrix type="matrix" values="0 0 0 0 0.996078 0 0 0 0 0.764706 0 0 0 0 0.0117647 0 0 0 0.47 0"/>
<feBlend mode="normal" in2="effect2_dropShadow_187_483" result="effect3_dropShadow_187_483"/>
<feBlend mode="normal" in="SourceGraphic" in2="effect3_dropShadow_187_483" result="shape"/>
</filter>
<linearGradient id="paint0_linear_187_483" x1="23.0858" y1="18.987" x2="40.4572" y2="52.3549" gradientUnits="userSpaceOnUse">
<stop offset="0.0001" stop-color="#D6C2FF"/>
<stop offset="1" stop-color="#7E2FFF"/>
</linearGradient>
<linearGradient id="paint1_linear_187_483" x1="24.9548" y1="0.538578" x2="35.8155" y2="44.4946" gradientUnits="userSpaceOnUse">
<stop stop-color="white"/>
<stop offset="1" stop-color="white" stop-opacity="0"/>
</linearGradient>
<linearGradient id="paint2_linear_187_483" x1="40.4467" y1="14.0136" x2="40.4467" y2="22.8755" gradientUnits="userSpaceOnUse">
<stop offset="0.0001" stop-color="#D6C2FF"/>
<stop offset="1" stop-color="#7E2FFF"/>
</linearGradient>
<linearGradient id="paint3_linear_187_483" x1="40.6455" y1="13.9355" x2="40.6455" y2="19.4159" gradientUnits="userSpaceOnUse">
<stop stop-color="white"/>
<stop offset="1" stop-color="white" stop-opacity="0"/>
</linearGradient>
<linearGradient id="paint4_linear_187_483" x1="44.3326" y1="25.5959" x2="44.3326" y2="37.2563" gradientUnits="userSpaceOnUse">
<stop stop-color="#FFE600"/>
<stop offset="1" stop-color="#FF7A00"/>
</linearGradient>
<linearGradient id="paint5_linear_187_483" x1="44.3326" y1="25.5959" x2="44.3326" y2="32.8069" gradientUnits="userSpaceOnUse">
<stop stop-color="white"/>
<stop offset="1" stop-color="white" stop-opacity="0"/>
</linearGradient>
<linearGradient id="paint6_linear_187_483" x1="56.1462" y1="23.0964" x2="56.1462" y2="30.559" gradientUnits="userSpaceOnUse">
<stop offset="0.0001" stop-color="#D6C2FF"/>
<stop offset="1" stop-color="#7E2FFF"/>
</linearGradient>
<linearGradient id="paint7_linear_187_483" x1="56.3136" y1="23.0306" x2="56.3136" y2="27.6457" gradientUnits="userSpaceOnUse">
<stop stop-color="white"/>
<stop offset="1" stop-color="white" stop-opacity="0"/>
</linearGradient>
<linearGradient id="paint8_linear_187_483" x1="52.1652" y1="12.0699" x2="52.1652" y2="19.5326" gradientUnits="userSpaceOnUse">
<stop stop-color="#FFE600"/>
<stop offset="1" stop-color="#FF7A00"/>
</linearGradient>
<linearGradient id="paint9_linear_187_483" x1="52.1652" y1="12.0699" x2="52.1652" y2="16.685" gradientUnits="userSpaceOnUse">
<stop stop-color="white"/>
<stop offset="1" stop-color="white" stop-opacity="0"/>
</linearGradient>
<clipPath id="clip0_187_483">
<rect width="70" height="70" rx="10" fill="white"/>
</clipPath>
</defs>
</svg>
