<svg width="70" height="70" viewBox="0 0 70 70" fill="none" xmlns="http://www.w3.org/2000/svg">
<g clip-path="url(#clip0_187_711)">
<rect width="70" height="70" rx="10" fill="#5F90CF"/>
<g filter="url(#filter0_bdd_187_711)">
<mask id="path-2-inside-1_187_711" fill="white">
<path fill-rule="evenodd" clip-rule="evenodd" d="M35.0704 8.53961C36.8247 7.64149 38.1817 9.91375 37.8151 11.847C37.4226 13.9171 37.6947 16.1295 38.7387 18.1498C39.6776 19.9665 41.1066 21.3682 42.7814 22.2765C45.8443 23.9376 48.9164 27.7538 45.8196 29.3393C40.0621 32.2869 32.9885 30.0202 30.0202 24.2765C27.0519 18.5328 29.313 11.4872 35.0704 8.53961Z"/>
</mask>
<path fill-rule="evenodd" clip-rule="evenodd" d="M35.0704 8.53961C36.8247 7.64149 38.1817 9.91375 37.8151 11.847C37.4226 13.9171 37.6947 16.1295 38.7387 18.1498C39.6776 19.9665 41.1066 21.3682 42.7814 22.2765C45.8443 23.9376 48.9164 27.7538 45.8196 29.3393C40.0621 32.2869 32.9885 30.0202 30.0202 24.2765C27.0519 18.5328 29.313 11.4872 35.0704 8.53961Z" fill="url(#paint0_linear_187_711)"/>
<path d="M38.7387 18.1498L40.5184 17.2373L38.7387 18.1498ZM30.0202 24.2765L28.2405 25.189L30.0202 24.2765ZM42.7814 22.2765L41.8273 24.0308L42.7814 22.2765ZM40.5184 17.2373C39.6864 15.6273 39.4704 13.8696 39.7829 12.2217L35.8474 11.4723C35.3748 13.9646 35.703 16.6318 36.959 19.0623L40.5184 17.2373ZM43.7355 20.5222C42.4029 19.7994 41.2671 18.686 40.5184 17.2373L36.959 19.0623C38.0881 21.2471 39.8103 22.9369 41.8273 24.0308L43.7355 20.5222ZM44.9024 27.562C40.127 30.0068 34.2609 28.1261 31.7999 23.364L28.2405 25.189C31.7161 31.9143 39.9972 34.567 46.7367 31.1166L44.9024 27.562ZM31.7999 23.364C29.3393 18.6028 31.213 12.7613 35.9876 10.3169L34.1533 6.7623C27.4129 10.2131 24.7645 18.4629 28.2405 25.189L31.7999 23.364ZM41.8273 24.0308C43.1155 24.7295 44.3291 25.8583 44.8637 26.81C45.1306 27.2852 45.1032 27.4898 45.1058 27.474C45.1278 27.3396 45.2277 27.3954 44.9024 27.562L46.7367 31.1166C47.9598 30.4904 48.837 29.4747 49.0584 28.1269C49.2602 26.8978 48.854 25.7473 48.3571 24.8626C47.364 23.0945 45.5101 21.4846 43.7355 20.5222L41.8273 24.0308ZM39.7829 12.2217C40.0649 10.7346 39.7077 9.11598 38.8524 7.95249C38.4122 7.35377 37.7651 6.77877 36.8953 6.50252C35.9813 6.21225 35.022 6.31758 34.1533 6.7623L35.9876 10.3169C35.9961 10.3126 35.8642 10.3652 35.6865 10.3087C35.5531 10.2664 35.5513 10.2119 35.6238 10.3106C35.6937 10.4056 35.7799 10.577 35.8311 10.8109C35.8815 11.0411 35.885 11.2737 35.8474 11.4723L39.7829 12.2217Z" fill="url(#paint1_linear_187_711)" mask="url(#path-2-inside-1_187_711)"/>
</g>
<g filter="url(#filter1_bd_187_711)">
<mask id="path-4-inside-2_187_711" fill="white">
<path fill-rule="evenodd" clip-rule="evenodd" d="M43.1891 49.7526C43.2192 49.7529 43.2494 49.7531 43.2796 49.7531C47.5761 49.7531 51.0592 46.2838 51.0592 42.0042C51.0592 37.7247 47.5761 34.2554 43.2796 34.2554C43.2494 34.2554 43.2192 34.2556 43.1891 34.2559V34.2554H41.1794C41.252 33.7251 41.2895 33.1837 41.2895 32.6336C41.2895 26.0649 35.9434 20.74 29.3487 20.74C22.7539 20.74 17.4079 26.0649 17.4079 32.6336C17.4079 33.2534 17.4555 33.8621 17.5472 34.4563C16.9793 34.3249 16.3876 34.2554 15.7796 34.2554C11.483 34.2554 8 37.7247 8 42.0042C8 46.2838 11.483 49.7531 15.7796 49.7531C15.8099 49.7531 15.8402 49.7529 15.8705 49.7526L15.87 49.7531H43.1891V49.7526Z"/>
</mask>
<path fill-rule="evenodd" clip-rule="evenodd" d="M43.1891 49.7526C43.2192 49.7529 43.2494 49.7531 43.2796 49.7531C47.5761 49.7531 51.0592 46.2838 51.0592 42.0042C51.0592 37.7247 47.5761 34.2554 43.2796 34.2554C43.2494 34.2554 43.2192 34.2556 43.1891 34.2559V34.2554H41.1794C41.252 33.7251 41.2895 33.1837 41.2895 32.6336C41.2895 26.0649 35.9434 20.74 29.3487 20.74C22.7539 20.74 17.4079 26.0649 17.4079 32.6336C17.4079 33.2534 17.4555 33.8621 17.5472 34.4563C16.9793 34.3249 16.3876 34.2554 15.7796 34.2554C11.483 34.2554 8 37.7247 8 42.0042C8 46.2838 11.483 49.7531 15.7796 49.7531C15.8099 49.7531 15.8402 49.7529 15.8705 49.7526L15.87 49.7531H43.1891V49.7526Z" fill="url(#paint2_linear_187_711)" shape-rendering="crispEdges"/>
<path d="M43.1891 49.7526L43.2118 47.7527C42.6775 47.7466 42.1629 47.9547 41.783 48.3304C41.403 48.7061 41.1891 49.2182 41.1891 49.7526H43.1891ZM43.1891 34.2559H41.1891C41.1891 34.7903 41.403 35.3024 41.783 35.6781C42.1629 36.0538 42.6775 36.2618 43.2118 36.2558L43.1891 34.2559ZM43.1891 34.2554H45.1891C45.1891 33.1508 44.2937 32.2554 43.1891 32.2554V34.2554ZM41.1794 34.2554L39.1978 33.9841C39.1195 34.5565 39.2925 35.1349 39.6723 35.5702C40.0521 36.0056 40.6016 36.2554 41.1794 36.2554V34.2554ZM17.5472 34.4563L17.0963 36.4048C17.7429 36.5544 18.4216 36.3736 18.908 35.922C19.3944 35.4704 19.6251 34.807 19.5238 34.1511L17.5472 34.4563ZM15.8705 49.7526L17.438 50.9947C17.917 50.3902 18.0057 49.5642 17.6661 48.8718C17.3264 48.1793 16.6188 47.7439 15.8476 47.7527L15.8705 49.7526ZM15.87 49.7531L14.3025 48.5109C13.8261 49.1122 13.7355 49.933 14.0695 50.6236C14.4034 51.3143 15.1029 51.7531 15.87 51.7531V49.7531ZM43.1891 49.7531V51.7531C44.2937 51.7531 45.1891 50.8577 45.1891 49.7531H43.1891ZM43.1664 51.7524C43.2041 51.7529 43.2418 51.7531 43.2796 51.7531V47.7531C43.257 47.7531 43.2344 47.753 43.2118 47.7527L43.1664 51.7524ZM43.2796 51.7531C48.6732 51.7531 53.0592 47.3958 53.0592 42.0042H49.0592C49.0592 45.1718 46.479 47.7531 43.2796 47.7531V51.7531ZM53.0592 42.0042C53.0592 36.6126 48.6732 32.2554 43.2796 32.2554V36.2554C46.479 36.2554 49.0592 38.8367 49.0592 42.0042H53.0592ZM43.2796 32.2554C43.2418 32.2554 43.2041 32.2556 43.1664 32.256L43.2118 36.2558C43.2344 36.2555 43.257 36.2554 43.2796 36.2554V32.2554ZM41.1891 34.2554V34.2559H45.1891V34.2554H41.1891ZM41.1794 36.2554H43.1891V32.2554H41.1794V36.2554ZM43.1609 34.5266C43.2457 33.9067 43.2895 33.2747 43.2895 32.6336H39.2895C39.2895 33.0927 39.2582 33.5435 39.1978 33.9841L43.1609 34.5266ZM43.2895 32.6336C43.2895 24.9529 37.0405 18.74 29.3487 18.74V22.74C34.8463 22.74 39.2895 27.177 39.2895 32.6336H43.2895ZM29.3487 18.74C21.6569 18.74 15.4079 24.9529 15.4079 32.6336H19.4079C19.4079 27.177 23.851 22.74 29.3487 22.74V18.74ZM15.4079 32.6336C15.4079 33.3559 15.4634 34.0666 15.5706 34.7615L19.5238 34.1511C19.4476 33.6575 19.4079 33.1508 19.4079 32.6336H15.4079ZM17.9981 32.5078C17.2834 32.3424 16.5404 32.2554 15.7796 32.2554V36.2554C16.2348 36.2554 16.6753 36.3074 17.0963 36.4048L17.9981 32.5078ZM15.7796 32.2554C10.386 32.2554 6 36.6126 6 42.0042H10C10 38.8367 12.5801 36.2554 15.7796 36.2554V32.2554ZM6 42.0042C6 47.3958 10.386 51.7531 15.7796 51.7531V47.7531C12.5801 47.7531 10 45.1718 10 42.0042H6ZM15.7796 51.7531C15.8175 51.7531 15.8554 51.7529 15.8933 51.7524L15.8476 47.7527C15.8251 47.753 15.8024 47.7531 15.7796 47.7531V51.7531ZM17.4376 50.9952L17.438 50.9947L14.303 48.5104L14.3025 48.5109L17.4376 50.9952ZM43.1891 47.7531H15.87V51.7531H43.1891V47.7531ZM41.1891 49.7526V49.7531H45.1891V49.7526H41.1891Z" fill="url(#paint3_linear_187_711)" mask="url(#path-4-inside-2_187_711)"/>
</g>
<g filter="url(#filter2_bd_187_711)">
<mask id="path-6-inside-3_187_711" fill="white">
<path fill-rule="evenodd" clip-rule="evenodd" d="M57.3117 41.7071C57.3334 41.7073 57.3552 41.7075 57.3771 41.7075C60.4821 41.7075 62.9993 39.2003 62.9993 36.1075C62.9993 33.0147 60.4821 30.5075 57.3771 30.5075C57.3552 30.5075 57.3334 30.5076 57.3117 30.5078V30.5075H55.8593C55.9117 30.1242 55.9388 29.7329 55.9388 29.3354C55.9388 24.5883 52.0753 20.74 47.3093 20.74C42.5434 20.74 38.6799 24.5883 38.6799 29.3354C38.6799 29.7833 38.7143 30.2232 38.7806 30.6526C38.3702 30.5577 37.9425 30.5075 37.5031 30.5075C34.398 30.5075 31.8809 33.0147 31.8809 36.1075C31.8809 39.2003 34.398 41.7075 37.5031 41.7075C37.525 41.7075 37.5469 41.7073 37.5687 41.7071L37.5685 41.7075H57.3117V41.7071Z"/>
</mask>
<path fill-rule="evenodd" clip-rule="evenodd" d="M57.3117 41.7071C57.3334 41.7073 57.3552 41.7075 57.3771 41.7075C60.4821 41.7075 62.9993 39.2003 62.9993 36.1075C62.9993 33.0147 60.4821 30.5075 57.3771 30.5075C57.3552 30.5075 57.3334 30.5076 57.3117 30.5078V30.5075H55.8593C55.9117 30.1242 55.9388 29.7329 55.9388 29.3354C55.9388 24.5883 52.0753 20.74 47.3093 20.74C42.5434 20.74 38.6799 24.5883 38.6799 29.3354C38.6799 29.7833 38.7143 30.2232 38.7806 30.6526C38.3702 30.5577 37.9425 30.5075 37.5031 30.5075C34.398 30.5075 31.8809 33.0147 31.8809 36.1075C31.8809 39.2003 34.398 41.7075 37.5031 41.7075C37.525 41.7075 37.5469 41.7073 37.5687 41.7071L37.5685 41.7075H57.3117V41.7071Z" fill="url(#paint4_linear_187_711)" shape-rendering="crispEdges"/>
<path d="M57.3117 41.7071L57.3344 39.7072C56.8001 39.7011 56.2855 39.9091 55.9055 40.2849C55.5255 40.6606 55.3117 41.1727 55.3117 41.7071H57.3117ZM57.3117 30.5078H55.3117C55.3117 31.0422 55.5255 31.5543 55.9055 31.93C56.2855 32.3057 56.8 32.5138 57.3343 32.5077L57.3117 30.5078ZM57.3117 30.5075H59.3117C59.3117 29.4029 58.4162 28.5075 57.3117 28.5075V30.5075ZM55.8593 30.5075L53.8777 30.2362C53.7994 30.8086 53.9724 31.3869 54.3522 31.8223C54.732 32.2576 55.2815 32.5075 55.8593 32.5075V30.5075ZM38.7806 30.6526L38.3296 32.6011C38.9762 32.7508 39.655 32.5699 40.1413 32.1184C40.6277 31.6668 40.8584 31.0034 40.7571 30.3474L38.7806 30.6526ZM37.5687 41.7071L39.1365 42.9489C39.6154 42.3444 39.704 41.5184 39.3642 40.8261C39.0245 40.1337 38.317 39.6984 37.5459 39.7072L37.5687 41.7071ZM37.5685 41.7075L36.0007 40.4657C35.5244 41.0669 35.434 41.8877 35.7679 42.5782C36.1019 43.2688 36.8014 43.7075 37.5685 43.7075V41.7075ZM57.3117 41.7075V43.7075C58.4162 43.7075 59.3117 42.812 59.3117 41.7075H57.3117ZM57.2889 43.707C57.3183 43.7073 57.3476 43.7075 57.3771 43.7075V39.7075C57.3628 39.7075 57.3486 39.7074 57.3344 39.7072L57.2889 43.707ZM57.3771 43.7075C61.5792 43.7075 64.9993 40.3123 64.9993 36.1075H60.9993C60.9993 38.0882 59.385 39.7075 57.3771 39.7075V43.7075ZM64.9993 36.1075C64.9993 31.9026 61.5792 28.5075 57.3771 28.5075V32.5075C59.385 32.5075 60.9993 34.1267 60.9993 36.1075H64.9993ZM57.3771 28.5075C57.3476 28.5075 57.3183 28.5076 57.289 28.508L57.3343 32.5077C57.3486 32.5075 57.3628 32.5075 57.3771 32.5075V28.5075ZM55.3117 30.5075V30.5078H59.3117V30.5075H55.3117ZM55.8593 32.5075H57.3117V28.5075H55.8593V32.5075ZM57.8408 30.7787C57.9055 30.3058 57.9388 29.8239 57.9388 29.3354H53.9388C53.9388 29.6419 53.9179 29.9426 53.8777 30.2362L57.8408 30.7787ZM57.9388 29.3354C57.9388 23.4762 53.1724 18.74 47.3093 18.74V22.74C50.9782 22.74 53.9388 25.7003 53.9388 29.3354H57.9388ZM47.3093 18.74C41.4463 18.74 36.6799 23.4762 36.6799 29.3354H40.6799C40.6799 25.7003 43.6405 22.74 47.3093 22.74V18.74ZM36.6799 29.3354C36.6799 29.8858 36.7221 30.4278 36.804 30.9578L40.7571 30.3474C40.7064 30.0186 40.6799 29.6807 40.6799 29.3354H36.6799ZM39.2315 28.7041C38.6742 28.5752 38.0953 28.5075 37.5031 28.5075V32.5075C37.7897 32.5075 38.0661 32.5402 38.3296 32.6011L39.2315 28.7041ZM37.5031 28.5075C33.3009 28.5075 29.8809 31.9026 29.8809 36.1075H33.8809C33.8809 34.1267 35.4951 32.5075 37.5031 32.5075V28.5075ZM29.8809 36.1075C29.8809 40.3123 33.3009 43.7075 37.5031 43.7075V39.7075C35.4951 39.7075 33.8809 38.0882 33.8809 36.1075H29.8809ZM37.5031 43.7075C37.5326 43.7075 37.5621 43.7073 37.5916 43.707L37.5459 39.7072C37.5317 39.7074 37.5175 39.7075 37.5031 39.7075V43.7075ZM39.1362 42.9493L39.1365 42.9489L36.001 40.4653L36.0007 40.4657L39.1362 42.9493ZM57.3117 39.7075H37.5685V43.7075H57.3117V39.7075ZM55.3117 41.7071V41.7075H59.3117V41.7071H55.3117Z" fill="url(#paint5_linear_187_711)" mask="url(#path-6-inside-3_187_711)"/>
</g>
<g filter="url(#filter3_bdd_187_711)">
<path d="M19.2725 48.321C19.3158 48.2657 19.3561 48.2454 19.3888 48.2359C19.4275 48.2248 19.4772 48.2237 19.5297 48.2396C19.5822 48.2555 19.6228 48.284 19.6487 48.3147C19.6706 48.3407 19.6927 48.3799 19.6977 48.4498L19.91 51.4108C19.9793 52.3781 19.0553 53.1155 18.1265 52.8341C17.1978 52.5527 16.8425 51.4277 17.4409 50.6627L19.2725 48.321Z" fill="url(#paint6_linear_187_711)" stroke="url(#paint7_linear_187_711)" stroke-width="2"/>
<path d="M29.6768 48.321C29.7201 48.2657 29.7604 48.2454 29.7931 48.2359C29.8318 48.2248 29.8815 48.2237 29.934 48.2396C29.9865 48.2555 30.0271 48.284 30.053 48.3147C30.0749 48.3407 30.097 48.3799 30.102 48.4498L30.3143 51.4108C30.3836 52.3781 29.4596 53.1155 28.5308 52.8341C27.6021 52.5527 27.2468 51.4277 27.8452 50.6627L29.6768 48.321Z" fill="url(#paint8_linear_187_711)" stroke="url(#paint9_linear_187_711)" stroke-width="2"/>
<path d="M40.0811 48.321C40.1244 48.2657 40.1647 48.2454 40.1974 48.2359C40.2361 48.2248 40.2858 48.2237 40.3383 48.2396C40.3908 48.2555 40.4314 48.284 40.4573 48.3147C40.4792 48.3407 40.5013 48.3799 40.5063 48.4498L40.7186 51.4108C40.7879 52.3781 39.8639 53.1155 38.9351 52.8341C38.0064 52.5527 37.6511 51.4277 38.2495 50.6627L40.0811 48.321Z" fill="url(#paint10_linear_187_711)" stroke="url(#paint11_linear_187_711)" stroke-width="2"/>
</g>
<g filter="url(#filter4_bdd_187_711)">
<path d="M22.0186 56.5239C22.0619 56.4686 22.1022 56.4483 22.1349 56.4388C22.1736 56.4277 22.2233 56.4265 22.2758 56.4425C22.3283 56.4584 22.3689 56.4869 22.3948 56.5176C22.4167 56.5435 22.4388 56.5828 22.4438 56.6527L22.6561 59.6137C22.7254 60.5809 21.8014 61.3184 20.8726 61.037C19.9439 60.7556 19.5886 59.6305 20.187 58.8656L22.0186 56.5239Z" fill="url(#paint12_linear_187_711)" stroke="url(#paint13_linear_187_711)" stroke-width="2"/>
<path d="M30.8096 56.5239C30.8529 56.4686 30.8932 56.4483 30.9259 56.4388C30.9646 56.4277 31.0143 56.4265 31.0668 56.4425C31.1193 56.4584 31.1599 56.4869 31.1858 56.5176C31.2077 56.5435 31.2298 56.5828 31.2348 56.6527L31.4471 59.6137C31.5165 60.5809 30.5924 61.3184 29.6637 61.037C28.7349 60.7556 28.3796 59.6305 28.978 58.8656L30.8096 56.5239Z" fill="url(#paint14_linear_187_711)" stroke="url(#paint15_linear_187_711)" stroke-width="2"/>
</g>
</g>
<defs>
<filter id="filter0_bdd_187_711" x="-42.2871" y="-29.6626" width="127.395" height="125.294" filterUnits="userSpaceOnUse" color-interpolation-filters="sRGB">
<feFlood flood-opacity="0" result="BackgroundImageFix"/>
<feGaussianBlur in="BackgroundImageFix" stdDeviation="7"/>
<feComposite in2="SourceAlpha" operator="in" result="effect1_backgroundBlur_187_711"/>
<feColorMatrix in="SourceAlpha" type="matrix" values="0 0 0 0 0 0 0 0 0 0 0 0 0 0 0 0 0 0 127 0" result="hardAlpha"/>
<feOffset dx="-21" dy="15"/>
<feGaussianBlur stdDeviation="25"/>
<feComposite in2="hardAlpha" operator="out"/>
<feColorMatrix type="matrix" values="0 0 0 0 0.113438 0 0 0 0 0.148981 0 0 0 0 0.275 0 0 0 0.25 0"/>
<feBlend mode="normal" in2="effect1_backgroundBlur_187_711" result="effect2_dropShadow_187_711"/>
<feColorMatrix in="SourceAlpha" type="matrix" values="0 0 0 0 0 0 0 0 0 0 0 0 0 0 0 0 0 0 127 0" result="hardAlpha"/>
<feOffset/>
<feGaussianBlur stdDeviation="19"/>
<feComposite in2="hardAlpha" operator="out"/>
<feColorMatrix type="matrix" values="0 0 0 0 0.619608 0 0 0 0 0.423529 0 0 0 0 1 0 0 0 0.4 0"/>
<feBlend mode="normal" in2="effect2_dropShadow_187_711" result="effect3_dropShadow_187_711"/>
<feBlend mode="normal" in="SourceGraphic" in2="effect3_dropShadow_187_711" result="shape"/>
</filter>
<filter id="filter1_bd_187_711" x="-63" y="-14.26" width="143.059" height="129.013" filterUnits="userSpaceOnUse" color-interpolation-filters="sRGB">
<feFlood flood-opacity="0" result="BackgroundImageFix"/>
<feGaussianBlur in="BackgroundImageFix" stdDeviation="7"/>
<feComposite in2="SourceAlpha" operator="in" result="effect1_backgroundBlur_187_711"/>
<feColorMatrix in="SourceAlpha" type="matrix" values="0 0 0 0 0 0 0 0 0 0 0 0 0 0 0 0 0 0 127 0" result="hardAlpha"/>
<feOffset dx="-21" dy="15"/>
<feGaussianBlur stdDeviation="25"/>
<feComposite in2="hardAlpha" operator="out"/>
<feColorMatrix type="matrix" values="0 0 0 0 0.113725 0 0 0 0 0.14902 0 0 0 0 0.27451 0 0 0 0.25 0"/>
<feBlend mode="normal" in2="effect1_backgroundBlur_187_711" result="effect2_dropShadow_187_711"/>
<feBlend mode="normal" in="SourceGraphic" in2="effect2_dropShadow_187_711" result="shape"/>
</filter>
<filter id="filter2_bd_187_711" x="-39.1191" y="-14.26" width="131.119" height="120.968" filterUnits="userSpaceOnUse" color-interpolation-filters="sRGB">
<feFlood flood-opacity="0" result="BackgroundImageFix"/>
<feGaussianBlur in="BackgroundImageFix" stdDeviation="7"/>
<feComposite in2="SourceAlpha" operator="in" result="effect1_backgroundBlur_187_711"/>
<feColorMatrix in="SourceAlpha" type="matrix" values="0 0 0 0 0 0 0 0 0 0 0 0 0 0 0 0 0 0 127 0" result="hardAlpha"/>
<feOffset dx="-21" dy="15"/>
<feGaussianBlur stdDeviation="25"/>
<feComposite in2="hardAlpha" operator="out"/>
<feColorMatrix type="matrix" values="0 0 0 0 0.113438 0 0 0 0 0.148981 0 0 0 0 0.275 0 0 0 0.25 0"/>
<feBlend mode="normal" in2="effect1_backgroundBlur_187_711" result="effect2_dropShadow_187_711"/>
<feBlend mode="normal" in="SourceGraphic" in2="effect2_dropShadow_187_711" result="shape"/>
</filter>
<filter id="filter3_bdd_187_711" x="-54.8555" y="-0.771729" width="137.578" height="119.667" filterUnits="userSpaceOnUse" color-interpolation-filters="sRGB">
<feFlood flood-opacity="0" result="BackgroundImageFix"/>
<feGaussianBlur in="BackgroundImageFix" stdDeviation="7"/>
<feComposite in2="SourceAlpha" operator="in" result="effect1_backgroundBlur_187_711"/>
<feColorMatrix in="SourceAlpha" type="matrix" values="0 0 0 0 0 0 0 0 0 0 0 0 0 0 0 0 0 0 127 0" result="hardAlpha"/>
<feOffset dx="-21" dy="15"/>
<feGaussianBlur stdDeviation="25"/>
<feComposite in2="hardAlpha" operator="out"/>
<feColorMatrix type="matrix" values="0 0 0 0 0.113438 0 0 0 0 0.148981 0 0 0 0 0.275 0 0 0 0.25 0"/>
<feBlend mode="normal" in2="effect1_backgroundBlur_187_711" result="effect2_dropShadow_187_711"/>
<feColorMatrix in="SourceAlpha" type="matrix" values="0 0 0 0 0 0 0 0 0 0 0 0 0 0 0 0 0 0 127 0" result="hardAlpha"/>
<feOffset dy="-7"/>
<feGaussianBlur stdDeviation="20.5"/>
<feComposite in2="hardAlpha" operator="out"/>
<feColorMatrix type="matrix" values="0 0 0 0 0.1375 0 0 0 0 0.74125 0 0 0 0 1 0 0 0 0.3 0"/>
<feBlend mode="normal" in2="effect2_dropShadow_187_711" result="effect3_dropShadow_187_711"/>
<feBlend mode="normal" in="SourceGraphic" in2="effect3_dropShadow_187_711" result="shape"/>
</filter>
<filter id="filter4_bdd_187_711" x="-52.1094" y="7.43115" width="125.561" height="119.667" filterUnits="userSpaceOnUse" color-interpolation-filters="sRGB">
<feFlood flood-opacity="0" result="BackgroundImageFix"/>
<feGaussianBlur in="BackgroundImageFix" stdDeviation="7"/>
<feComposite in2="SourceAlpha" operator="in" result="effect1_backgroundBlur_187_711"/>
<feColorMatrix in="SourceAlpha" type="matrix" values="0 0 0 0 0 0 0 0 0 0 0 0 0 0 0 0 0 0 127 0" result="hardAlpha"/>
<feOffset dx="-21" dy="15"/>
<feGaussianBlur stdDeviation="25"/>
<feComposite in2="hardAlpha" operator="out"/>
<feColorMatrix type="matrix" values="0 0 0 0 0.113438 0 0 0 0 0.148981 0 0 0 0 0.275 0 0 0 0.25 0"/>
<feBlend mode="normal" in2="effect1_backgroundBlur_187_711" result="effect2_dropShadow_187_711"/>
<feColorMatrix in="SourceAlpha" type="matrix" values="0 0 0 0 0 0 0 0 0 0 0 0 0 0 0 0 0 0 127 0" result="hardAlpha"/>
<feOffset dy="-7"/>
<feGaussianBlur stdDeviation="20.5"/>
<feComposite in2="hardAlpha" operator="out"/>
<feColorMatrix type="matrix" values="0 0 0 0 0.1375 0 0 0 0 0.74125 0 0 0 0 1 0 0 0 0.3 0"/>
<feBlend mode="normal" in2="effect2_dropShadow_187_711" result="effect3_dropShadow_187_711"/>
<feBlend mode="normal" in="SourceGraphic" in2="effect3_dropShadow_187_711" result="shape"/>
</filter>
<linearGradient id="paint0_linear_187_711" x1="30.7041" y1="11.0084" x2="41.3798" y2="31.8457" gradientUnits="userSpaceOnUse">
<stop offset="0.0001" stop-color="#D4C0FF"/>
<stop offset="1" stop-color="#7E2FFF"/>
</linearGradient>
<linearGradient id="paint1_linear_187_711" x1="30.3677" y1="0.341131" x2="34.6507" y2="27.4628" gradientUnits="userSpaceOnUse">
<stop stop-color="white"/>
<stop offset="1" stop-color="white" stop-opacity="0"/>
</linearGradient>
<linearGradient id="paint2_linear_187_711" x1="29.5296" y1="11.4594" x2="29.5296" y2="53.8078" gradientUnits="userSpaceOnUse">
<stop stop-color="white"/>
<stop offset="1" stop-color="white" stop-opacity="0"/>
</linearGradient>
<linearGradient id="paint3_linear_187_711" x1="29.5296" y1="20.74" x2="29.5296" y2="49.7531" gradientUnits="userSpaceOnUse">
<stop stop-color="white"/>
<stop offset="1" stop-color="white" stop-opacity="0"/>
</linearGradient>
<linearGradient id="paint4_linear_187_711" x1="48.8874" y1="21.3707" x2="48.8874" y2="44.0766" gradientUnits="userSpaceOnUse">
<stop stop-color="white"/>
<stop offset="1" stop-color="white" stop-opacity="0"/>
</linearGradient>
<linearGradient id="paint5_linear_187_711" x1="47.4401" y1="20.74" x2="47.4401" y2="41.7075" gradientUnits="userSpaceOnUse">
<stop stop-color="white"/>
<stop offset="1" stop-color="white" stop-opacity="0"/>
</linearGradient>
<linearGradient id="paint6_linear_187_711" x1="20.4661" y1="45.1731" x2="17.8535" y2="53.7963" gradientUnits="userSpaceOnUse">
<stop stop-color="#138EFF"/>
<stop offset="1" stop-color="#00E0FF"/>
</linearGradient>
<linearGradient id="paint7_linear_187_711" x1="20.4661" y1="45.1731" x2="17.8535" y2="53.7963" gradientUnits="userSpaceOnUse">
<stop stop-color="white"/>
<stop offset="1" stop-color="white" stop-opacity="0"/>
</linearGradient>
<linearGradient id="paint8_linear_187_711" x1="30.8704" y1="45.1731" x2="28.2578" y2="53.7963" gradientUnits="userSpaceOnUse">
<stop stop-color="#138EFF"/>
<stop offset="1" stop-color="#00E0FF"/>
</linearGradient>
<linearGradient id="paint9_linear_187_711" x1="30.8704" y1="45.1731" x2="28.2578" y2="53.7963" gradientUnits="userSpaceOnUse">
<stop stop-color="white"/>
<stop offset="1" stop-color="white" stop-opacity="0"/>
</linearGradient>
<linearGradient id="paint10_linear_187_711" x1="41.2747" y1="45.1731" x2="38.6621" y2="53.7963" gradientUnits="userSpaceOnUse">
<stop stop-color="#138EFF"/>
<stop offset="1" stop-color="#00E0FF"/>
</linearGradient>
<linearGradient id="paint11_linear_187_711" x1="41.2747" y1="45.1731" x2="38.6621" y2="53.7963" gradientUnits="userSpaceOnUse">
<stop stop-color="white"/>
<stop offset="1" stop-color="white" stop-opacity="0"/>
</linearGradient>
<linearGradient id="paint12_linear_187_711" x1="23.2122" y1="53.376" x2="20.5996" y2="61.9992" gradientUnits="userSpaceOnUse">
<stop stop-color="#138EFF"/>
<stop offset="1" stop-color="#00E0FF"/>
</linearGradient>
<linearGradient id="paint13_linear_187_711" x1="23.2122" y1="53.376" x2="20.5996" y2="61.9992" gradientUnits="userSpaceOnUse">
<stop stop-color="white"/>
<stop offset="1" stop-color="white" stop-opacity="0"/>
</linearGradient>
<linearGradient id="paint14_linear_187_711" x1="32.0032" y1="53.376" x2="29.3906" y2="61.9992" gradientUnits="userSpaceOnUse">
<stop stop-color="#138EFF"/>
<stop offset="1" stop-color="#00E0FF"/>
</linearGradient>
<linearGradient id="paint15_linear_187_711" x1="32.0032" y1="53.376" x2="29.3906" y2="61.9992" gradientUnits="userSpaceOnUse">
<stop stop-color="white"/>
<stop offset="1" stop-color="white" stop-opacity="0"/>
</linearGradient>
<clipPath id="clip0_187_711">
<rect width="70" height="70" rx="10" fill="white"/>
</clipPath>
</defs>
</svg>
