<svg width="70" height="70" viewBox="0 0 70 70" fill="none" xmlns="http://www.w3.org/2000/svg">
<g clip-path="url(#clip0_187_708)">
<rect width="70" height="70" rx="10" fill="#5F90CF"/>
<g filter="url(#filter0_bdd_187_708)">
<mask id="path-2-inside-1_187_708" fill="white">
<path fill-rule="evenodd" clip-rule="evenodd" d="M32.4325 11.6044C33.2794 11.402 33.8071 12.4227 33.3963 13.2015C31.8895 16.0582 31.7337 19.5819 33.2832 22.6637C35.3769 26.828 39.923 28.8702 44.2376 27.9267C45.0897 27.7404 45.9134 28.5382 45.4886 29.3112C44.3711 31.3448 42.6725 33.0814 40.4849 34.2325C34.596 37.3314 27.3937 35.0138 24.3983 29.056C21.4029 23.0982 23.7486 15.7563 29.6375 12.6574C30.5447 12.18 31.4831 11.8312 32.4325 11.6044Z"/>
</mask>
<path fill-rule="evenodd" clip-rule="evenodd" d="M32.4325 11.6044C33.2794 11.402 33.8071 12.4227 33.3963 13.2015C31.8895 16.0582 31.7337 19.5819 33.2832 22.6637C35.3769 26.828 39.923 28.8702 44.2376 27.9267C45.0897 27.7404 45.9134 28.5382 45.4886 29.3112C44.3711 31.3448 42.6725 33.0814 40.4849 34.2325C34.596 37.3314 27.3937 35.0138 24.3983 29.056C21.4029 23.0982 23.7486 15.7563 29.6375 12.6574C30.5447 12.18 31.4831 11.8312 32.4325 11.6044Z" fill="url(#paint0_linear_187_708)"/>
<path d="M33.2832 22.6637L35.0557 21.7375L33.2832 22.6637ZM40.4849 34.2325L41.3885 36.0167L41.3885 36.0167L40.4849 34.2325ZM24.3983 29.056L26.1709 28.1298L24.3983 29.056ZM29.6375 12.6574L30.5411 14.4416L29.6375 12.6574ZM45.4886 29.3112L43.7543 28.3446L45.4886 29.3112ZM33.3963 13.2015L31.6454 12.2657L33.3963 13.2015ZM35.0557 21.7375C33.8123 19.2644 33.9346 16.4363 35.1473 14.1372L31.6454 12.2657C29.8445 15.6801 29.6551 19.8994 31.5106 23.5899L35.0557 21.7375ZM43.8351 25.9595C40.3796 26.7152 36.7351 25.0777 35.0557 21.7375L31.5106 23.5899C34.0186 28.5783 39.4664 31.0253 44.6401 29.8939L43.8351 25.9595ZM43.7543 28.3446C42.8221 30.0409 41.4075 31.4874 39.5814 32.4483L41.3885 36.0167C43.9374 34.6755 45.92 32.6487 47.223 30.2777L43.7543 28.3446ZM39.5814 32.4483C34.6754 35.0299 28.6709 33.1023 26.1709 28.1298L22.6257 29.9822C26.1166 36.9254 34.5165 39.6329 41.3885 36.0167L39.5814 32.4483ZM26.1709 28.1298C23.6689 23.1534 25.6311 17.0254 30.5411 14.4416L28.734 10.8732C21.866 14.4873 19.1369 23.043 22.6257 29.9822L26.1709 28.1298ZM30.5411 14.4416C31.3001 14.0422 32.0825 13.7517 32.872 13.5631L31.9929 9.64568C30.8837 9.91066 29.7894 10.3178 28.734 10.8732L30.5411 14.4416ZM44.6401 29.8939C44.3634 29.9544 44.0957 29.8633 43.9044 29.662C43.7989 29.5511 43.6787 29.3659 43.6338 29.1027C43.5855 28.8193 43.6432 28.5468 43.7543 28.3446L47.223 30.2777C47.931 28.9894 47.5362 27.6524 46.7795 26.8564C46.0694 26.1096 44.9639 25.7127 43.8351 25.9595L44.6401 29.8939ZM35.1473 14.1372C35.6921 13.1042 35.6216 11.916 35.1095 11.0172C34.5635 10.059 33.4057 9.30816 31.9929 9.64568L32.872 13.5631C32.6501 13.6161 32.3758 13.5978 32.12 13.4726C31.8823 13.3562 31.7392 13.1873 31.6625 13.0528C31.5233 12.8085 31.5113 12.52 31.6454 12.2657L35.1473 14.1372Z" fill="url(#paint1_linear_187_708)" mask="url(#path-2-inside-1_187_708)"/>
</g>
<mask id="mask0_187_708" style="mask-type:alpha" maskUnits="userSpaceOnUse" x="28" y="26" width="22" height="17">
<path d="M49.7368 31.7059C49.7368 37.8247 44.8709 42.7851 38.8684 42.7851C32.866 42.7851 28 37.8247 28 31.7059C28 25.587 32.037 27.0113 38.0395 27.0113C44.0419 27.0113 49.7368 25.587 49.7368 31.7059Z" fill="url(#paint2_linear_187_708)"/>
</mask>
<g mask="url(#mask0_187_708)">
<g filter="url(#filter1_f_187_708)">
<path fill-rule="evenodd" clip-rule="evenodd" d="M55.4475 51.9864C55.4475 56.4459 51.9012 60.0611 47.5265 60.0611C47.4957 60.0611 47.465 60.0609 47.4344 60.0606V60.0611H19.6186L19.619 60.0606C19.5882 60.0609 19.5574 60.0611 19.5265 60.0611C15.1518 60.0611 11.6055 56.4459 11.6055 51.9864C11.6055 47.5269 15.1518 43.9117 19.5265 43.9117C23.2974 43.9117 26.4528 46.5978 27.252 50.1953L29.9344 46.7285L38.316 43.9117H47.4344V43.9123C47.465 43.9119 47.4957 43.9117 47.5265 43.9117C51.9012 43.9117 55.4475 47.5269 55.4475 51.9864Z" fill="#E18700"/>
</g>
</g>
<g filter="url(#filter2_bd_187_708)">
<mask id="path-6-inside-2_187_708" fill="white">
<path fill-rule="evenodd" clip-rule="evenodd" d="M42.8289 60.9995C42.8596 60.9999 42.8903 61.0001 42.921 61.0001C47.2957 61.0001 50.842 57.3849 50.842 52.9254C50.842 48.4659 47.2957 44.8507 42.921 44.8507C42.8903 44.8507 42.8596 44.8509 42.8289 44.8512V44.8507H40.7826C40.8565 44.2981 40.8947 43.7339 40.8947 43.1607C40.8947 36.3158 35.4514 30.767 28.7368 30.767C22.0222 30.767 16.5789 36.3158 16.5789 43.1607C16.5789 43.8065 16.6274 44.4408 16.7208 45.0601C16.1426 44.9231 15.5401 44.8507 14.9211 44.8507C10.5464 44.8507 7 48.4659 7 52.9254C7 57.3849 10.5464 61.0001 14.9211 61.0001C14.9519 61.0001 14.9828 60.9999 15.0136 60.9995L15.0131 61.0001H42.8289V60.9995Z"/>
</mask>
<path fill-rule="evenodd" clip-rule="evenodd" d="M42.8289 60.9995C42.8596 60.9999 42.8903 61.0001 42.921 61.0001C47.2957 61.0001 50.842 57.3849 50.842 52.9254C50.842 48.4659 47.2957 44.8507 42.921 44.8507C42.8903 44.8507 42.8596 44.8509 42.8289 44.8512V44.8507H40.7826C40.8565 44.2981 40.8947 43.7339 40.8947 43.1607C40.8947 36.3158 35.4514 30.767 28.7368 30.767C22.0222 30.767 16.5789 36.3158 16.5789 43.1607C16.5789 43.8065 16.6274 44.4408 16.7208 45.0601C16.1426 44.9231 15.5401 44.8507 14.9211 44.8507C10.5464 44.8507 7 48.4659 7 52.9254C7 57.3849 10.5464 61.0001 14.9211 61.0001C14.9519 61.0001 14.9828 60.9999 15.0136 60.9995L15.0131 61.0001H42.8289V60.9995Z" fill="url(#paint3_linear_187_708)" shape-rendering="crispEdges"/>
<path d="M42.8289 60.9995L42.8522 58.9997C42.3178 58.9934 41.8031 59.2014 41.423 59.5771C41.0428 59.9528 40.8289 60.4651 40.8289 60.9995H42.8289ZM42.8289 44.8512H40.8289C40.8289 45.3857 41.0428 45.8979 41.4229 46.2736C41.803 46.6494 42.3177 46.8573 42.8521 46.8511L42.8289 44.8512ZM42.8289 44.8507H44.8289C44.8289 43.7461 43.9335 42.8507 42.8289 42.8507V44.8507ZM40.7826 44.8507L38.8003 44.5856C38.7238 45.1571 38.8978 45.7339 39.2776 46.1679C39.6574 46.6018 40.206 46.8507 40.7826 46.8507V44.8507ZM16.7208 45.0601L16.2599 47.0062C16.9063 47.1593 17.5865 46.9815 18.0753 46.5316C18.564 46.0817 18.7975 45.4185 18.6984 44.7617L16.7208 45.0601ZM15.0136 60.9995L16.5953 62.2235C17.0648 61.6168 17.1459 60.795 16.8039 60.1082C16.462 59.4214 15.7574 58.9907 14.9903 58.9997L15.0136 60.9995ZM15.0131 61.0001L13.4314 59.7761C12.9645 60.3795 12.8815 61.196 13.2176 61.881C13.5536 62.566 14.2502 63.0001 15.0131 63.0001V61.0001ZM42.8289 61.0001V63.0001C43.9335 63.0001 44.8289 62.1046 44.8289 61.0001H42.8289ZM42.8057 62.9994C42.8441 62.9998 42.8826 63.0001 42.921 63.0001V59.0001C42.898 59.0001 42.875 58.9999 42.8522 58.9997L42.8057 62.9994ZM42.921 63.0001C48.4363 63.0001 52.842 58.4531 52.842 52.9254H48.842C48.842 56.3167 46.1551 59.0001 42.921 59.0001V63.0001ZM52.842 52.9254C52.842 47.3977 48.4363 42.8507 42.921 42.8507V46.8507C46.1551 46.8507 48.842 49.534 48.842 52.9254H52.842ZM42.921 42.8507C42.8825 42.8507 42.8441 42.8509 42.8057 42.8514L42.8521 46.8511C42.875 46.8508 42.898 46.8507 42.921 46.8507V42.8507ZM40.8289 44.8507V44.8512H44.8289V44.8507H40.8289ZM40.7826 46.8507H42.8289V42.8507H40.7826V46.8507ZM42.765 45.1159C42.8506 44.4756 42.8947 43.8228 42.8947 43.1607H38.8947C38.8947 43.645 38.8625 44.1206 38.8003 44.5856L42.765 45.1159ZM42.8947 43.1607C42.8947 35.2476 36.5921 28.767 28.7368 28.767V32.767C34.3108 32.767 38.8947 37.384 38.8947 43.1607H42.8947ZM28.7368 28.767C20.8816 28.767 14.5789 35.2476 14.5789 43.1607H18.5789C18.5789 37.384 23.1628 32.767 28.7368 32.767V28.767ZM14.5789 43.1607C14.5789 43.9067 14.6349 44.6408 14.7432 45.3584L18.6984 44.7617C18.6199 44.2409 18.5789 43.7063 18.5789 43.1607H14.5789ZM17.1817 43.1139C16.4537 42.9415 15.6966 42.8507 14.9211 42.8507V46.8507C15.3837 46.8507 15.8315 46.9048 16.2599 47.0062L17.1817 43.1139ZM14.9211 42.8507C9.40576 42.8507 5 47.3977 5 52.9254H9C9 49.534 11.687 46.8507 14.9211 46.8507V42.8507ZM5 52.9254C5 58.4531 9.40576 63.0001 14.9211 63.0001V59.0001C11.687 59.0001 9 56.3167 9 52.9254H5ZM14.9211 63.0001C14.9598 63.0001 14.9984 62.9998 15.0368 62.9994L14.9903 58.9997C14.9672 58.9999 14.9441 59.0001 14.9211 59.0001V63.0001ZM16.5948 62.2241L16.5953 62.2235L13.4318 59.7755L13.4314 59.7761L16.5948 62.2241ZM42.8289 59.0001H15.0131V63.0001H42.8289V59.0001ZM40.8289 60.9995V61.0001H44.8289V60.9995H40.8289Z" fill="url(#paint4_linear_187_708)" mask="url(#path-6-inside-2_187_708)"/>
</g>
<g filter="url(#filter3_bd_187_708)">
<mask id="path-8-inside-3_187_708" fill="white">
<path fill-rule="evenodd" clip-rule="evenodd" d="M57.2096 52.6157C57.2317 52.6159 57.2539 52.616 57.2762 52.616C60.4377 52.616 63.0006 50.0034 63.0006 46.7806C63.0006 43.5577 60.4377 40.9451 57.2762 40.9451C57.2539 40.9451 57.2317 40.9452 57.2096 40.9455V40.9451H55.3738C55.412 40.6062 55.4316 40.2616 55.4316 39.9123C55.4316 34.9657 51.4978 30.9556 46.6452 30.9556C41.7926 30.9556 37.8588 34.9657 37.8588 39.9123C37.8588 40.2854 37.8812 40.6531 37.9246 41.0142C37.6366 40.9687 37.3414 40.9451 37.0409 40.9451C33.8793 40.9451 31.3164 43.5577 31.3164 46.7806C31.3164 50.0034 33.8793 52.616 37.0409 52.616C37.0632 52.616 37.0855 52.6159 37.1077 52.6157L37.1074 52.616H57.2096V52.6157Z"/>
</mask>
<path fill-rule="evenodd" clip-rule="evenodd" d="M57.2096 52.6157C57.2317 52.6159 57.2539 52.616 57.2762 52.616C60.4377 52.616 63.0006 50.0034 63.0006 46.7806C63.0006 43.5577 60.4377 40.9451 57.2762 40.9451C57.2539 40.9451 57.2317 40.9452 57.2096 40.9455V40.9451H55.3738C55.412 40.6062 55.4316 40.2616 55.4316 39.9123C55.4316 34.9657 51.4978 30.9556 46.6452 30.9556C41.7926 30.9556 37.8588 34.9657 37.8588 39.9123C37.8588 40.2854 37.8812 40.6531 37.9246 41.0142C37.6366 40.9687 37.3414 40.9451 37.0409 40.9451C33.8793 40.9451 31.3164 43.5577 31.3164 46.7806C31.3164 50.0034 33.8793 52.616 37.0409 52.616C37.0632 52.616 37.0855 52.6159 37.1077 52.6157L37.1074 52.616H57.2096V52.6157Z" fill="url(#paint5_linear_187_708)" shape-rendering="crispEdges"/>
<path d="M57.2096 52.6157L57.2328 50.6158C56.6984 50.6096 56.1837 50.8175 55.8036 51.1932C55.4235 51.569 55.2096 52.0812 55.2096 52.6157H57.2096ZM57.2096 40.9455H55.2096C55.2096 41.4799 55.4235 41.9922 55.8036 42.3679C56.1837 42.7436 56.6984 42.9515 57.2328 42.9453L57.2096 40.9455ZM57.2096 40.9451H59.2096C59.2096 39.8405 58.3141 38.9451 57.2096 38.9451V40.9451ZM55.3738 40.9451L53.3864 40.7212C53.3226 41.2871 53.5031 41.8532 53.8826 42.2778C54.262 42.7024 54.8044 42.9451 55.3738 42.9451V40.9451ZM37.9246 41.0142L37.6126 42.9897C38.2318 43.0875 38.8611 42.8893 39.3125 42.4543C39.7639 42.0192 39.9852 41.3977 39.9103 40.7752L37.9246 41.0142ZM37.1077 52.6157L38.6889 53.8403C39.1588 53.2337 39.2401 52.4116 38.8983 51.7247C38.5564 51.0377 37.8517 50.6068 37.0844 50.6158L37.1077 52.6157ZM37.1074 52.616L35.5262 51.3914C35.0589 51.9947 34.9757 52.8114 35.3117 53.4966C35.6477 54.1818 36.3443 54.616 37.1074 54.616V52.616ZM57.2096 52.616V54.616C58.3141 54.616 59.2096 53.7206 59.2096 52.616H57.2096ZM57.1863 54.6155C57.2162 54.6159 57.2462 54.616 57.2762 54.616V50.616C57.2617 50.616 57.2473 50.616 57.2328 50.6158L57.1863 54.6155ZM57.2762 54.616C61.5783 54.616 65.0006 51.0716 65.0006 46.7806H61.0006C61.0006 48.9352 59.2971 50.616 57.2762 50.616V54.616ZM65.0006 46.7806C65.0006 42.4895 61.5783 38.9451 57.2762 38.9451V42.9451C59.2971 42.9451 61.0006 44.6259 61.0006 46.7806H65.0006ZM57.2762 38.9451C57.2462 38.9451 57.2163 38.9453 57.1863 38.9456L57.2328 42.9453C57.2472 42.9452 57.2617 42.9451 57.2762 42.9451V38.9451ZM55.2096 40.9451V40.9455H59.2096V40.9451H55.2096ZM55.3738 42.9451H57.2096V38.9451H55.3738V42.9451ZM57.3612 41.1689C57.4078 40.7559 57.4316 40.3365 57.4316 39.9123H53.4316C53.4316 40.1867 53.4162 40.4566 53.3864 40.7212L57.3612 41.1689ZM57.4316 39.9123C57.4316 33.8975 52.6384 28.9556 46.6452 28.9556V32.9556C50.3572 32.9556 53.4316 36.0338 53.4316 39.9123H57.4316ZM46.6452 28.9556C40.652 28.9556 35.8588 33.8975 35.8588 39.9123H39.8588C39.8588 36.0338 42.9332 32.9556 46.6452 32.9556V28.9556ZM35.8588 39.9123C35.8588 40.3654 35.886 40.8129 35.939 41.2532L39.9103 40.7752C39.8764 40.4933 39.8588 40.2054 39.8588 39.9123H35.8588ZM38.2367 39.0387C37.8459 38.977 37.4464 38.9451 37.0409 38.9451V42.9451C37.2365 42.9451 37.4273 42.9604 37.6126 42.9897L38.2367 39.0387ZM37.0409 38.9451C32.7387 38.9451 29.3164 42.4895 29.3164 46.7806H33.3164C33.3164 44.6259 35.0199 42.9451 37.0409 42.9451V38.9451ZM29.3164 46.7806C29.3164 51.0716 32.7387 54.616 37.0409 54.616V50.616C35.0199 50.616 33.3164 48.9352 33.3164 46.7806H29.3164ZM37.0409 54.616C37.0709 54.616 37.101 54.6159 37.131 54.6155L37.0844 50.6158C37.0699 50.616 37.0554 50.616 37.0409 50.616V54.616ZM38.6886 53.8407L38.6889 53.8403L35.5265 51.391L35.5262 51.3914L38.6886 53.8407ZM57.2096 50.616H37.1074V54.616H57.2096V50.616ZM55.2096 52.6157V52.616H59.2096V52.6157H55.2096Z" fill="url(#paint6_linear_187_708)" mask="url(#path-8-inside-3_187_708)"/>
</g>
</g>
<defs>
<filter id="filter0_bdd_187_708" x="-47.9043" y="-26.4216" width="131.508" height="127.029" filterUnits="userSpaceOnUse" color-interpolation-filters="sRGB">
<feFlood flood-opacity="0" result="BackgroundImageFix"/>
<feGaussianBlur in="BackgroundImageFix" stdDeviation="7"/>
<feComposite in2="SourceAlpha" operator="in" result="effect1_backgroundBlur_187_708"/>
<feColorMatrix in="SourceAlpha" type="matrix" values="0 0 0 0 0 0 0 0 0 0 0 0 0 0 0 0 0 0 127 0" result="hardAlpha"/>
<feOffset dx="-21" dy="15"/>
<feGaussianBlur stdDeviation="25"/>
<feComposite in2="hardAlpha" operator="out"/>
<feColorMatrix type="matrix" values="0 0 0 0 0.113438 0 0 0 0 0.148981 0 0 0 0 0.275 0 0 0 0.25 0"/>
<feBlend mode="normal" in2="effect1_backgroundBlur_187_708" result="effect2_dropShadow_187_708"/>
<feColorMatrix in="SourceAlpha" type="matrix" values="0 0 0 0 0 0 0 0 0 0 0 0 0 0 0 0 0 0 127 0" result="hardAlpha"/>
<feOffset/>
<feGaussianBlur stdDeviation="19"/>
<feComposite in2="hardAlpha" operator="out"/>
<feColorMatrix type="matrix" values="0 0 0 0 0.619608 0 0 0 0 0.423529 0 0 0 0 1 0 0 0 0.4 0"/>
<feBlend mode="normal" in2="effect2_dropShadow_187_708" result="effect3_dropShadow_187_708"/>
<feBlend mode="normal" in="SourceGraphic" in2="effect3_dropShadow_187_708" result="shape"/>
</filter>
<filter id="filter1_f_187_708" x="-2.39453" y="29.9117" width="71.8418" height="44.1494" filterUnits="userSpaceOnUse" color-interpolation-filters="sRGB">
<feFlood flood-opacity="0" result="BackgroundImageFix"/>
<feBlend mode="normal" in="SourceGraphic" in2="BackgroundImageFix" result="shape"/>
<feGaussianBlur stdDeviation="7" result="effect1_foregroundBlur_187_708"/>
</filter>
<filter id="filter2_bd_187_708" x="-64" y="-4.23303" width="143.842" height="130.233" filterUnits="userSpaceOnUse" color-interpolation-filters="sRGB">
<feFlood flood-opacity="0" result="BackgroundImageFix"/>
<feGaussianBlur in="BackgroundImageFix" stdDeviation="7"/>
<feComposite in2="SourceAlpha" operator="in" result="effect1_backgroundBlur_187_708"/>
<feColorMatrix in="SourceAlpha" type="matrix" values="0 0 0 0 0 0 0 0 0 0 0 0 0 0 0 0 0 0 127 0" result="hardAlpha"/>
<feOffset dx="-21" dy="15"/>
<feGaussianBlur stdDeviation="25"/>
<feComposite in2="hardAlpha" operator="out"/>
<feColorMatrix type="matrix" values="0 0 0 0 0.113725 0 0 0 0 0.14902 0 0 0 0 0.27451 0 0 0 0.25 0"/>
<feBlend mode="normal" in2="effect1_backgroundBlur_187_708" result="effect2_dropShadow_187_708"/>
<feBlend mode="normal" in="SourceGraphic" in2="effect2_dropShadow_187_708" result="shape"/>
</filter>
<filter id="filter3_bd_187_708" x="-39.6836" y="-4.04443" width="131.684" height="121.661" filterUnits="userSpaceOnUse" color-interpolation-filters="sRGB">
<feFlood flood-opacity="0" result="BackgroundImageFix"/>
<feGaussianBlur in="BackgroundImageFix" stdDeviation="7"/>
<feComposite in2="SourceAlpha" operator="in" result="effect1_backgroundBlur_187_708"/>
<feColorMatrix in="SourceAlpha" type="matrix" values="0 0 0 0 0 0 0 0 0 0 0 0 0 0 0 0 0 0 127 0" result="hardAlpha"/>
<feOffset dx="-21" dy="15"/>
<feGaussianBlur stdDeviation="25"/>
<feComposite in2="hardAlpha" operator="out"/>
<feColorMatrix type="matrix" values="0 0 0 0 0.113438 0 0 0 0 0.148981 0 0 0 0 0.275 0 0 0 0.25 0"/>
<feBlend mode="normal" in2="effect1_backgroundBlur_187_708" result="effect2_dropShadow_187_708"/>
<feBlend mode="normal" in="SourceGraphic" in2="effect2_dropShadow_187_708" result="shape"/>
</filter>
<linearGradient id="paint0_linear_187_708" x1="27.122" y1="14.2166" x2="38.3345" y2="35.6003" gradientUnits="userSpaceOnUse">
<stop offset="0.0001" stop-color="#D4C0FF"/>
<stop offset="1" stop-color="#7E2FFF"/>
</linearGradient>
<linearGradient id="paint1_linear_187_708" x1="28.1821" y1="2.42717" x2="35.0432" y2="30.662" gradientUnits="userSpaceOnUse">
<stop stop-color="white"/>
<stop offset="1" stop-color="white" stop-opacity="0"/>
</linearGradient>
<linearGradient id="paint2_linear_187_708" x1="38.8684" y1="20.6266" x2="38.8684" y2="42.7851" gradientUnits="userSpaceOnUse">
<stop stop-color="#FFD600"/>
<stop offset="1" stop-color="#FF7A00"/>
</linearGradient>
<linearGradient id="paint3_linear_187_708" x1="28.9211" y1="21.0961" x2="28.9211" y2="65.2252" gradientUnits="userSpaceOnUse">
<stop stop-color="white"/>
<stop offset="1" stop-color="white" stop-opacity="0"/>
</linearGradient>
<linearGradient id="paint4_linear_187_708" x1="28.9211" y1="30.767" x2="28.9211" y2="61.0001" gradientUnits="userSpaceOnUse">
<stop stop-color="white"/>
<stop offset="1" stop-color="white" stop-opacity="0"/>
</linearGradient>
<linearGradient id="paint5_linear_187_708" x1="48.6322" y1="31.4241" x2="48.6322" y2="55.0848" gradientUnits="userSpaceOnUse">
<stop stop-color="white"/>
<stop offset="1" stop-color="white" stop-opacity="0"/>
</linearGradient>
<linearGradient id="paint6_linear_187_708" x1="47.1585" y1="30.7669" x2="47.1585" y2="52.616" gradientUnits="userSpaceOnUse">
<stop stop-color="white"/>
<stop offset="1" stop-color="white" stop-opacity="0"/>
</linearGradient>
<clipPath id="clip0_187_708">
<rect width="70" height="70" rx="10" fill="white"/>
</clipPath>
</defs>
</svg>
