<svg width="70" height="70" viewBox="0 0 70 70" fill="none" xmlns="http://www.w3.org/2000/svg">
<g clip-path="url(#clip0_187_508)">
<rect width="70" height="70" rx="10" fill="#5F90CF"/>
<g filter="url(#filter0_f_187_508)">
<ellipse cx="28.6614" cy="30.6447" rx="13.6614" ry="13.6447" fill="#FFC701" fill-opacity="0.5"/>
</g>
<path d="M40.8744 31.0921C40.8744 37.8274 35.4073 43.2895 28.6608 43.2895C21.9143 43.2895 16.4473 37.8274 16.4473 31.0921C16.4473 24.3569 21.9143 18.8948 28.6608 18.8948C35.4073 18.8948 40.8744 24.3569 40.8744 31.0921Z" fill="url(#paint0_linear_187_508)" stroke="url(#paint1_linear_187_508)" stroke-width="2"/>
<mask id="mask0_187_508" style="mask-type:alpha" maskUnits="userSpaceOnUse" x="15" y="25" width="27" height="20">
<path d="M41.8744 31.092C41.8744 38.3807 35.9585 44.2894 28.6608 44.2894C21.3632 44.2894 15.4473 38.3807 15.4473 31.092C15.4473 23.8033 20.3554 25.4999 27.653 25.4999C34.9506 25.4999 41.8744 23.8033 41.8744 31.092Z" fill="url(#paint2_linear_187_508)"/>
</mask>
<g mask="url(#mask0_187_508)">
<g filter="url(#filter1_f_187_508)">
<path fill-rule="evenodd" clip-rule="evenodd" d="M48.8178 55.2499C48.8178 60.562 44.5062 64.8683 39.1876 64.8683C39.1502 64.8683 39.1129 64.8681 39.0757 64.8677V64.8683H5.25792L5.25804 64.8681C5.22069 64.8686 5.18328 64.8688 5.14583 64.8688C-0.172786 64.8688 -4.48438 60.5625 -4.48438 55.2504C-4.48438 49.9383 -0.172786 45.632 5.14583 45.632C9.73023 45.632 13.5664 48.8314 14.5382 53.1166L17.7996 48.9867L27.9897 45.6315H39.0757V45.6321C39.1129 45.6317 39.1502 45.6315 39.1876 45.6315C44.5062 45.6315 48.8178 49.9378 48.8178 55.2499Z" fill="#E18700"/>
</g>
</g>
<g filter="url(#filter2_bd_187_508)">
<mask id="path-6-inside-1_187_508" fill="white">
<path fill-rule="evenodd" clip-rule="evenodd" d="M50.9586 55.9996C50.9856 55.9999 51.0126 56 51.0397 56C54.8834 56 57.9994 52.8879 57.9994 49.0489C57.9994 45.2099 54.8834 42.0978 51.0397 42.0978C51.0126 42.0978 50.9856 42.0979 50.9586 42.0982V42.0978H49.1608C49.2257 41.622 49.2593 41.1363 49.2593 40.6428C49.2593 34.7504 44.4767 29.9736 38.577 29.9736C32.6774 29.9736 27.8948 34.7504 27.8948 40.6428C27.8948 41.1988 27.9374 41.7449 28.0195 42.278C27.5115 42.1601 26.9821 42.0978 26.4382 42.0978C22.5945 42.0978 19.4785 45.2099 19.4785 49.0489C19.4785 52.8879 22.5945 56 26.4382 56C26.4653 56 26.4923 55.9999 26.5193 55.9996L26.5189 56H50.9586V55.9996Z"/>
</mask>
<path fill-rule="evenodd" clip-rule="evenodd" d="M50.9586 55.9996C50.9856 55.9999 51.0126 56 51.0397 56C54.8834 56 57.9994 52.8879 57.9994 49.0489C57.9994 45.2099 54.8834 42.0978 51.0397 42.0978C51.0126 42.0978 50.9856 42.0979 50.9586 42.0982V42.0978H49.1608C49.2257 41.622 49.2593 41.1363 49.2593 40.6428C49.2593 34.7504 44.4767 29.9736 38.577 29.9736C32.6774 29.9736 27.8948 34.7504 27.8948 40.6428C27.8948 41.1988 27.9374 41.7449 28.0195 42.278C27.5115 42.1601 26.9821 42.0978 26.4382 42.0978C22.5945 42.0978 19.4785 45.2099 19.4785 49.0489C19.4785 52.8879 22.5945 56 26.4382 56C26.4653 56 26.4923 55.9999 26.5193 55.9996L26.5189 56H50.9586V55.9996Z" fill="url(#paint3_linear_187_508)" shape-rendering="crispEdges"/>
<path d="M50.9586 55.9996L50.9814 53.9997C50.447 53.9936 49.9325 54.2016 49.5525 54.5773C49.1725 54.953 48.9586 55.4652 48.9586 55.9996H50.9586ZM50.9586 42.0982H48.9586C48.9586 42.6326 49.1725 43.1448 49.5525 43.5205C49.9325 43.8962 50.4471 44.1042 50.9814 44.0981L50.9586 42.0982ZM50.9586 42.0978H52.9586C52.9586 40.9932 52.0632 40.0978 50.9586 40.0978V42.0978ZM49.1608 42.0978L47.1792 41.8272C47.101 42.3995 47.2742 42.9777 47.654 43.4129C48.0338 43.8481 48.5832 44.0978 49.1608 44.0978V42.0978ZM28.0195 42.278L27.5674 44.2262C28.214 44.3763 28.8928 44.1957 29.3795 43.7444C29.8662 43.293 30.0972 42.6296 29.9962 41.9736L28.0195 42.278ZM26.5193 55.9996L28.0902 57.2375C28.5669 56.6325 28.6539 55.8074 28.3137 55.1163C27.9735 54.4252 27.2667 53.9909 26.4964 53.9997L26.5193 55.9996ZM26.5189 56L24.9481 54.7621C24.4739 55.3639 24.3851 56.1837 24.7195 56.873C25.0539 57.5623 25.7528 58 26.5189 58V56ZM50.9586 56V58C52.0632 58 52.9586 57.1046 52.9586 56H50.9586ZM50.9359 57.9994C50.9704 57.9998 51.005 58 51.0397 58V54C51.0202 54 51.0008 53.9999 50.9814 53.9997L50.9359 57.9994ZM51.0397 58C55.9857 58 59.9994 53.9948 59.9994 49.0489H55.9994C55.9994 51.781 53.7812 54 51.0397 54V58ZM59.9994 49.0489C59.9994 44.103 55.9857 40.0978 51.0397 40.0978V44.0978C53.7812 44.0978 55.9994 46.3168 55.9994 49.0489H59.9994ZM51.0397 40.0978C51.005 40.0978 50.9704 40.098 50.9358 40.0984L50.9814 44.0981C51.0008 44.0979 51.0202 44.0978 51.0397 44.0978V40.0978ZM48.9586 42.0978V42.0982H52.9586V42.0978H48.9586ZM49.1608 44.0978H50.9586V40.0978H49.1608V44.0978ZM51.1424 42.3683C51.2196 41.8032 51.2593 41.2271 51.2593 40.6428H47.2593C47.2593 41.0456 47.2319 41.4409 47.1792 41.8272L51.1424 42.3683ZM51.2593 40.6428C51.2593 33.6435 45.5789 27.9736 38.577 27.9736V31.9736C43.3744 31.9736 47.2593 35.8573 47.2593 40.6428H51.2593ZM38.577 27.9736C31.5751 27.9736 25.8948 33.6435 25.8948 40.6428H29.8948C29.8948 35.8573 33.7797 31.9736 38.577 31.9736V27.9736ZM25.8948 40.6428C25.8948 41.3011 25.9452 41.9489 26.0428 42.5824L29.9962 41.9736C29.9295 41.5409 29.8948 41.0966 29.8948 40.6428H25.8948ZM28.4716 40.3298C27.8163 40.1777 27.1353 40.0978 26.4382 40.0978V44.0978C26.8289 44.0978 27.2066 44.1425 27.5674 44.2262L28.4716 40.3298ZM26.4382 40.0978C21.4922 40.0978 17.4785 44.103 17.4785 49.0489H21.4785C21.4785 46.3168 23.6967 44.0978 26.4382 44.0978V40.0978ZM17.4785 49.0489C17.4785 53.9948 21.4922 58 26.4382 58V54C23.6967 54 21.4785 51.781 21.4785 49.0489H17.4785ZM26.4382 58C26.4729 58 26.5075 57.9998 26.5422 57.9994L26.4964 53.9997C26.4771 53.9999 26.4576 54 26.4382 54V58ZM28.0898 57.238L28.0902 57.2375L24.9485 54.7616L24.9481 54.7621L28.0898 57.238ZM50.9586 54H26.5189V58H50.9586V54ZM48.9586 55.9996V56H52.9586V55.9996H48.9586Z" fill="url(#paint4_linear_187_508)" mask="url(#path-6-inside-1_187_508)"/>
</g>
</g>
<defs>
<filter id="filter0_f_187_508" x="-29" y="-27" width="115.322" height="115.289" filterUnits="userSpaceOnUse" color-interpolation-filters="sRGB">
<feFlood flood-opacity="0" result="BackgroundImageFix"/>
<feBlend mode="normal" in="SourceGraphic" in2="BackgroundImageFix" result="shape"/>
<feGaussianBlur stdDeviation="22" result="effect1_foregroundBlur_187_508"/>
</filter>
<filter id="filter1_f_187_508" x="-18.4844" y="31.6315" width="81.3027" height="47.2374" filterUnits="userSpaceOnUse" color-interpolation-filters="sRGB">
<feFlood flood-opacity="0" result="BackgroundImageFix"/>
<feBlend mode="normal" in="SourceGraphic" in2="BackgroundImageFix" result="shape"/>
<feGaussianBlur stdDeviation="7" result="effect1_foregroundBlur_187_508"/>
</filter>
<filter id="filter2_bd_187_508" x="-51.5215" y="-5.02637" width="138.521" height="126.026" filterUnits="userSpaceOnUse" color-interpolation-filters="sRGB">
<feFlood flood-opacity="0" result="BackgroundImageFix"/>
<feGaussianBlur in="BackgroundImageFix" stdDeviation="7"/>
<feComposite in2="SourceAlpha" operator="in" result="effect1_backgroundBlur_187_508"/>
<feColorMatrix in="SourceAlpha" type="matrix" values="0 0 0 0 0 0 0 0 0 0 0 0 0 0 0 0 0 0 127 0" result="hardAlpha"/>
<feOffset dx="-21" dy="15"/>
<feGaussianBlur stdDeviation="25"/>
<feComposite in2="hardAlpha" operator="out"/>
<feColorMatrix type="matrix" values="0 0 0 0 0.113438 0 0 0 0 0.148981 0 0 0 0 0.275 0 0 0 0.25 0"/>
<feBlend mode="normal" in2="effect1_backgroundBlur_187_508" result="effect2_dropShadow_187_508"/>
<feBlend mode="normal" in="SourceGraphic" in2="effect2_dropShadow_187_508" result="shape"/>
</filter>
<linearGradient id="paint0_linear_187_508" x1="28.6608" y1="17.8948" x2="28.6608" y2="44.2895" gradientUnits="userSpaceOnUse">
<stop stop-color="#FFE600"/>
<stop offset="1" stop-color="#FF7A00"/>
</linearGradient>
<linearGradient id="paint1_linear_187_508" x1="28.6608" y1="17.8948" x2="28.6608" y2="44.2895" gradientUnits="userSpaceOnUse">
<stop stop-color="white"/>
<stop offset="1" stop-color="white" stop-opacity="0"/>
</linearGradient>
<linearGradient id="paint2_linear_187_508" x1="28.6608" y1="17.8947" x2="28.6608" y2="44.2894" gradientUnits="userSpaceOnUse">
<stop stop-color="#FFD600"/>
<stop offset="1" stop-color="#FF7A00"/>
</linearGradient>
<linearGradient id="paint3_linear_187_508" x1="40.5306" y1="30.7565" x2="40.5306" y2="58.9408" gradientUnits="userSpaceOnUse">
<stop stop-color="white"/>
<stop offset="1" stop-color="white" stop-opacity="0"/>
</linearGradient>
<linearGradient id="paint4_linear_187_508" x1="38.7389" y1="29.9736" x2="38.7389" y2="56" gradientUnits="userSpaceOnUse">
<stop stop-color="white"/>
<stop offset="1" stop-color="white" stop-opacity="0"/>
</linearGradient>
<clipPath id="clip0_187_508">
<rect width="70" height="70" rx="10" fill="white"/>
</clipPath>
</defs>
</svg>
