<svg width="70" height="70" viewBox="0 0 70 70" fill="none" xmlns="http://www.w3.org/2000/svg">
<g clip-path="url(#clip0_187_626)">
<rect width="70" height="70" rx="10" fill="#5F90CF"/>
<g filter="url(#filter0_f_187_626)">
<ellipse cx="38.7301" cy="19.8441" rx="10.8355" ry="10.8441" fill="#FFC701" fill-opacity="0.5"/>
</g>
<path d="M48.2105 20.1996C48.2105 25.4408 43.9653 29.6882 38.7303 29.6882C33.4952 29.6882 29.25 25.4408 29.25 20.1996C29.25 14.9585 33.4952 10.7111 38.7303 10.7111C43.9653 10.7111 48.2105 14.9585 48.2105 20.1996Z" fill="url(#paint0_linear_187_626)" stroke="url(#paint1_linear_187_626)" stroke-width="2"/>
<mask id="mask0_187_626" style="mask-type:alpha" maskUnits="userSpaceOnUse" x="28" y="15" width="22" height="16">
<path d="M49.2105 20.1996C49.2105 25.9923 44.5184 30.6882 38.7303 30.6882C32.9422 30.6882 28.25 25.9923 28.25 20.1996C28.25 14.407 32.1428 15.7553 37.9309 15.7553C43.719 15.7553 49.2105 14.407 49.2105 20.1996Z" fill="url(#paint2_linear_187_626)"/>
</mask>
<g mask="url(#mask0_187_626)">
<g filter="url(#filter1_f_187_626)">
<path fill-rule="evenodd" clip-rule="evenodd" d="M46.9907 47.0428C47.0203 47.0431 47.0499 47.0433 47.0796 47.0433C51.298 47.0433 54.7177 43.6209 54.7177 39.3991C54.7177 35.1773 51.298 31.7549 47.0796 31.7549C47.0499 31.7549 47.0203 31.755 46.9907 31.7554V31.7549H42.1214C42.228 31.1189 42.2835 30.4656 42.2835 29.7994C42.2835 23.3194 37.0346 18.0664 30.5598 18.0664C24.085 18.0664 18.8361 23.3194 18.8361 29.7994C18.8361 30.4916 18.896 31.1698 19.0109 31.8291C15.2984 32.3492 12.4414 35.5403 12.4414 39.3991C12.4414 43.6209 15.8611 47.0433 20.0796 47.0433C20.1093 47.0433 20.1391 47.0431 20.1688 47.0428L20.1684 47.0433H46.9907V47.0428Z" fill="#E18700"/>
</g>
</g>
<g filter="url(#filter2_bd_187_626)">
<mask id="path-6-inside-1_187_626" fill="white">
<path fill-rule="evenodd" clip-rule="evenodd" d="M42.5493 47.9316C42.5789 47.9319 42.6085 47.9321 42.6382 47.9321C46.8566 47.9321 50.2763 44.5097 50.2763 40.2879C50.2763 36.0661 46.8566 32.6437 42.6382 32.6437C42.6085 32.6437 42.5789 32.6439 42.5493 32.6442V32.6437H40.5761C40.6474 32.1206 40.6842 31.5865 40.6842 31.0438C40.6842 24.5638 35.4353 19.3108 28.9605 19.3108C22.4857 19.3108 17.2368 24.5638 17.2368 31.0438C17.2368 31.6552 17.2836 32.2557 17.3737 32.8419C16.8161 32.7122 16.2351 32.6437 15.6382 32.6437C11.4197 32.6437 8 36.0661 8 40.2879C8 44.5097 11.4197 47.9321 15.6382 47.9321C15.6679 47.9321 15.6977 47.9319 15.7274 47.9316L15.727 47.9321H42.5493V47.9316Z"/>
</mask>
<path fill-rule="evenodd" clip-rule="evenodd" d="M42.5493 47.9316C42.5789 47.9319 42.6085 47.9321 42.6382 47.9321C46.8566 47.9321 50.2763 44.5097 50.2763 40.2879C50.2763 36.0661 46.8566 32.6437 42.6382 32.6437C42.6085 32.6437 42.5789 32.6439 42.5493 32.6442V32.6437H40.5761C40.6474 32.1206 40.6842 31.5865 40.6842 31.0438C40.6842 24.5638 35.4353 19.3108 28.9605 19.3108C22.4857 19.3108 17.2368 24.5638 17.2368 31.0438C17.2368 31.6552 17.2836 32.2557 17.3737 32.8419C16.8161 32.7122 16.2351 32.6437 15.6382 32.6437C11.4197 32.6437 8 36.0661 8 40.2879C8 44.5097 11.4197 47.9321 15.6382 47.9321C15.6679 47.9321 15.6977 47.9319 15.7274 47.9316L15.727 47.9321H42.5493V47.9316Z" fill="url(#paint3_linear_187_626)" shape-rendering="crispEdges"/>
<path d="M42.5493 47.9316L42.5722 45.9317C42.0378 45.9256 41.5232 46.1336 41.1432 46.5093C40.7632 46.8851 40.5493 47.3972 40.5493 47.9316H42.5493ZM42.5493 32.6442H40.5493C40.5493 33.1786 40.7632 33.6908 41.1432 34.0665C41.5232 34.4422 42.0378 34.6502 42.5722 34.6441L42.5493 32.6442ZM42.5493 32.6437H44.5493C44.5493 31.5391 43.6539 30.6437 42.5493 30.6437V32.6437ZM40.5761 32.6437L38.5944 32.3737C38.5165 32.9459 38.6897 33.5239 39.0695 33.959C39.4493 34.3941 39.9986 34.6437 40.5761 34.6437V32.6437ZM17.3737 32.8419L16.9207 34.7899C17.5673 34.9403 18.2463 34.76 18.7331 34.3088C19.22 33.8576 19.4513 33.1942 19.3505 32.5381L17.3737 32.8419ZM15.7274 47.9316L17.2988 49.1688C17.7752 48.5637 17.8618 47.7388 17.5216 47.048C17.1813 46.3571 16.4746 45.9229 15.7045 45.9317L15.7274 47.9316ZM15.727 47.9321L14.1556 46.6949C13.6817 47.2968 13.5932 48.1164 13.9278 48.8055C14.2623 49.4946 14.961 49.9321 15.727 49.9321V47.9321ZM42.5493 47.9321V49.9321C43.6539 49.9321 44.5493 49.0367 44.5493 47.9321H42.5493ZM42.5265 49.9315C42.5637 49.9319 42.601 49.9321 42.6382 49.9321V45.9321C42.6161 45.9321 42.5941 45.932 42.5722 45.9317L42.5265 49.9315ZM42.6382 49.9321C47.9627 49.9321 52.2763 45.6128 52.2763 40.2879H48.2763C48.2763 43.4066 45.7505 45.9321 42.6382 45.9321V49.9321ZM52.2763 40.2879C52.2763 34.9631 47.9627 30.6437 42.6382 30.6437V34.6437C45.7505 34.6437 48.2763 37.1692 48.2763 40.2879H52.2763ZM42.6382 30.6437C42.6009 30.6437 42.5637 30.6439 42.5265 30.6443L42.5722 34.6441C42.5941 34.6438 42.6161 34.6437 42.6382 34.6437V30.6437ZM40.5493 32.6437V32.6442H44.5493V32.6437H40.5493ZM40.5761 34.6437H42.5493V30.6437H40.5761V34.6437ZM42.5578 32.9137C42.6413 32.3013 42.6842 31.677 42.6842 31.0438H38.6842C38.6842 31.4959 38.6536 31.9398 38.5944 32.3737L42.5578 32.9137ZM42.6842 31.0438C42.6842 23.4607 36.5414 17.3108 28.9605 17.3108V21.3108C34.3293 21.3108 38.6842 25.6669 38.6842 31.0438H42.6842ZM28.9605 17.3108C21.3797 17.3108 15.2368 23.4607 15.2368 31.0438H19.2368C19.2368 25.6669 23.5918 21.3108 28.9605 21.3108V17.3108ZM15.2368 31.0438C15.2368 31.7572 15.2914 32.4593 15.3969 33.1457L19.3505 32.5381C19.2758 32.0521 19.2368 31.5531 19.2368 31.0438H15.2368ZM17.8266 30.8939C17.1216 30.7299 16.3887 30.6437 15.6382 30.6437V34.6437C16.0816 34.6437 16.5106 34.6946 16.9207 34.7899L17.8266 30.8939ZM15.6382 30.6437C10.3137 30.6437 6 34.9631 6 40.2879H10C10 37.1692 12.5258 34.6437 15.6382 34.6437V30.6437ZM6 40.2879C6 45.6128 10.3137 49.9321 15.6382 49.9321V45.9321C12.5258 45.9321 10 43.4066 10 40.2879H6ZM15.6382 49.9321C15.6756 49.9321 15.713 49.9319 15.7502 49.9315L15.7045 45.9317C15.6824 45.932 15.6603 45.9321 15.6382 45.9321V49.9321ZM17.2984 49.1693L17.2988 49.1688L14.156 46.6944L14.1556 46.6949L17.2984 49.1693ZM42.5493 45.9321H15.727V49.9321H42.5493V45.9321ZM40.5493 47.9316V47.9321H44.5493V47.9316H40.5493Z" fill="url(#paint4_linear_187_626)" mask="url(#path-6-inside-1_187_626)"/>
</g>
<g filter="url(#filter3_bd_187_626)">
<mask id="path-8-inside-2_187_626" fill="white">
<path fill-rule="evenodd" clip-rule="evenodd" d="M56.4157 39.9947C56.4371 39.995 56.4585 39.9951 56.4799 39.9951C59.5285 39.9951 61.9999 37.5218 61.9999 34.4707C61.9999 31.4197 59.5285 28.9463 56.4799 28.9463C56.4585 28.9463 56.4371 28.9465 56.4157 28.9467V28.9463H54.9897C55.0412 28.5683 55.0678 28.1823 55.0678 27.7901C55.0678 23.1071 51.2745 19.3108 46.5952 19.3108C41.9159 19.3108 38.1226 23.1071 38.1226 27.7901C38.1226 28.232 38.1564 28.6659 38.2215 29.0896C37.8186 28.9959 37.3987 28.9463 36.9673 28.9463C33.9187 28.9463 31.4473 31.4197 31.4473 34.4707C31.4473 37.5218 33.9187 39.9951 36.9673 39.9951C36.9888 39.9951 37.0103 39.995 37.0318 39.9947L37.0315 39.9951H56.4157V39.9947Z"/>
</mask>
<path fill-rule="evenodd" clip-rule="evenodd" d="M56.4157 39.9947C56.4371 39.995 56.4585 39.9951 56.4799 39.9951C59.5285 39.9951 61.9999 37.5218 61.9999 34.4707C61.9999 31.4197 59.5285 28.9463 56.4799 28.9463C56.4585 28.9463 56.4371 28.9465 56.4157 28.9467V28.9463H54.9897C55.0412 28.5683 55.0678 28.1823 55.0678 27.7901C55.0678 23.1071 51.2745 19.3108 46.5952 19.3108C41.9159 19.3108 38.1226 23.1071 38.1226 27.7901C38.1226 28.232 38.1564 28.6659 38.2215 29.0896C37.8186 28.9959 37.3987 28.9463 36.9673 28.9463C33.9187 28.9463 31.4473 31.4197 31.4473 34.4707C31.4473 37.5218 33.9187 39.9951 36.9673 39.9951C36.9888 39.9951 37.0103 39.995 37.0318 39.9947L37.0315 39.9951H56.4157V39.9947Z" fill="url(#paint5_linear_187_626)" shape-rendering="crispEdges"/>
<path d="M56.4157 39.9947L56.4385 37.9949C55.9042 37.9888 55.3896 38.1968 55.0096 38.5725C54.6296 38.9482 54.4157 39.4604 54.4157 39.9947H56.4157ZM56.4157 28.9467H54.4157C54.4157 29.4811 54.6296 29.9933 55.0096 30.369C55.3896 30.7447 55.9042 30.9527 56.4385 30.9466L56.4157 28.9467ZM56.4157 28.9463H58.4157C58.4157 27.8418 57.5203 26.9463 56.4157 26.9463V28.9463ZM54.9897 28.9463L53.008 28.6764C52.93 29.2486 53.1032 29.8266 53.483 30.2616C53.8628 30.6967 54.4122 30.9463 54.9897 30.9463V28.9463ZM38.2215 29.0896L37.7685 31.0376C38.4151 31.1879 39.0941 31.0077 39.581 30.5565C40.0679 30.1053 40.2991 29.4419 40.1983 28.7858L38.2215 29.0896ZM37.0318 39.9947L38.6041 41.2307C39.0799 40.6255 39.166 39.8009 38.8256 39.1104C38.4852 38.4199 37.7786 37.986 37.0088 37.9949L37.0318 39.9947ZM37.0315 39.9951L35.4591 38.7591C34.9859 39.3611 34.8979 40.1805 35.2326 40.8692C35.5672 41.5579 36.2657 41.9951 37.0315 41.9951V39.9951ZM56.4157 39.9951V41.9951C57.5203 41.9951 58.4157 41.0997 58.4157 39.9951H56.4157ZM56.3928 41.9946C56.4219 41.9949 56.4509 41.9951 56.4799 41.9951V37.9951C56.4661 37.9951 56.4523 37.995 56.4385 37.9949L56.3928 41.9946ZM56.4799 41.9951C60.6346 41.9951 63.9999 38.6248 63.9999 34.4707H59.9999C59.9999 36.4187 58.4224 37.9951 56.4799 37.9951V41.9951ZM63.9999 34.4707C63.9999 30.3166 60.6346 26.9463 56.4799 26.9463V30.9463C58.4224 30.9463 59.9999 32.5228 59.9999 34.4707H63.9999ZM56.4799 26.9463C56.4509 26.9463 56.4219 26.9465 56.3928 26.9468L56.4385 30.9466C56.4523 30.9464 56.4661 30.9463 56.4799 30.9463V26.9463ZM54.4157 28.9463V28.9467H58.4157V28.9463H54.4157ZM54.9897 30.9463H56.4157V26.9463H54.9897V30.9463ZM56.9714 29.2163C57.035 28.749 57.0678 28.2728 57.0678 27.7901H53.0678C53.0678 28.0917 53.0473 28.3875 53.008 28.6764L56.9714 29.2163ZM57.0678 27.7901C57.0678 22.004 52.3805 17.3108 46.5952 17.3108V21.3108C50.1684 21.3108 53.0678 24.2102 53.0678 27.7901H57.0678ZM46.5952 17.3108C40.8099 17.3108 36.1226 22.004 36.1226 27.7901H40.1226C40.1226 24.2102 43.022 21.3108 46.5952 21.3108V17.3108ZM36.1226 27.7901C36.1226 28.334 36.1642 28.8695 36.2447 29.3934L40.1983 28.7858C40.1486 28.4623 40.1226 28.1299 40.1226 27.7901H36.1226ZM38.6745 27.1415C38.1241 27.0136 37.5523 26.9463 36.9673 26.9463V30.9463C37.2451 30.9463 37.5131 30.9782 37.7685 31.0376L38.6745 27.1415ZM36.9673 26.9463C32.8126 26.9463 29.4473 30.3166 29.4473 34.4707H33.4473C33.4473 32.5228 35.0247 30.9463 36.9673 30.9463V26.9463ZM29.4473 34.4707C29.4473 38.6248 32.8126 41.9951 36.9673 41.9951V37.9951C35.0247 37.9951 33.4473 36.4187 33.4473 34.4707H29.4473ZM36.9673 41.9951C36.9965 41.9951 37.0256 41.9949 37.0547 41.9946L37.0088 37.9949C36.995 37.995 36.9811 37.9951 36.9673 37.9951V41.9951ZM38.6038 41.2311L38.6041 41.2307L35.4594 38.7587L35.4591 38.7591L38.6038 41.2311ZM56.4157 37.9951H37.0315V41.9951H56.4157V37.9951ZM54.4157 39.9947V39.9951H58.4157V39.9947H54.4157Z" fill="url(#paint6_linear_187_626)" mask="url(#path-8-inside-2_187_626)"/>
</g>
<g filter="url(#filter4_bdd_187_626)">
<path d="M19.0761 46.5368C19.1167 46.4847 19.1537 46.4664 19.1829 46.458C19.2181 46.4479 19.2642 46.4466 19.3134 46.4616C19.3626 46.4766 19.4002 46.5033 19.4238 46.5313C19.4434 46.5546 19.464 46.5904 19.4687 46.6563L19.6771 49.5777C19.7442 50.5177 18.8481 51.2326 17.9467 50.9582C17.0453 50.6838 16.6988 49.5906 17.2775 48.8472L19.0761 46.5368Z" fill="url(#paint7_linear_187_626)" stroke="url(#paint8_linear_187_626)" stroke-width="2"/>
<path d="M29.2909 46.5368C29.3315 46.4847 29.3686 46.4664 29.3978 46.458C29.433 46.4479 29.479 46.4466 29.5282 46.4616C29.5774 46.4766 29.615 46.5033 29.6386 46.5313C29.6582 46.5546 29.6788 46.5904 29.6835 46.6563L29.892 49.5777C29.959 50.5177 29.063 51.2326 28.1616 50.9582C27.2602 50.6838 26.9136 49.5906 27.4923 48.8472L29.2909 46.5368Z" fill="url(#paint9_linear_187_626)" stroke="url(#paint10_linear_187_626)" stroke-width="2"/>
<path d="M39.5058 46.5368C39.5464 46.4847 39.5834 46.4664 39.6126 46.458C39.6478 46.4479 39.6939 46.4466 39.7431 46.4616C39.7923 46.4766 39.8299 46.5033 39.8535 46.5313C39.8731 46.5546 39.8937 46.5904 39.8984 46.6563L40.1068 49.5777C40.1739 50.5177 39.2778 51.2326 38.3764 50.9582C37.475 50.6838 37.1284 49.5906 37.7072 48.8472L39.5058 46.5368Z" fill="url(#paint11_linear_187_626)" stroke="url(#paint12_linear_187_626)" stroke-width="2"/>
</g>
<g filter="url(#filter5_bdd_187_626)">
<path d="M21.7714 54.6291C21.812 54.577 21.849 54.5587 21.8783 54.5503C21.9134 54.5401 21.9595 54.5389 22.0087 54.5539C22.0579 54.5689 22.0955 54.5956 22.1191 54.6236C22.1387 54.6469 22.1593 54.6827 22.164 54.7486L22.3724 57.67C22.4395 58.61 21.5434 59.3249 20.642 59.0504C19.7406 58.776 19.3941 57.6829 19.9728 56.9395L21.7714 54.6291Z" fill="url(#paint13_linear_187_626)" stroke="url(#paint14_linear_187_626)" stroke-width="2"/>
<path d="M30.4023 54.6291C30.4429 54.577 30.4799 54.5587 30.5091 54.5503C30.5443 54.5401 30.5904 54.5389 30.6396 54.5539C30.6888 54.5689 30.7264 54.5956 30.75 54.6236C30.7695 54.6469 30.7901 54.6827 30.7948 54.7486L31.0033 57.67C31.0704 58.61 30.1743 59.3249 29.2729 59.0504C28.3715 58.776 28.0249 57.6829 28.6036 56.9395L30.4023 54.6291Z" fill="url(#paint15_linear_187_626)" stroke="url(#paint16_linear_187_626)" stroke-width="2"/>
</g>
</g>
<defs>
<filter id="filter0_f_187_626" x="-16.1055" y="-35" width="109.672" height="109.688" filterUnits="userSpaceOnUse" color-interpolation-filters="sRGB">
<feFlood flood-opacity="0" result="BackgroundImageFix"/>
<feBlend mode="normal" in="SourceGraphic" in2="BackgroundImageFix" result="shape"/>
<feGaussianBlur stdDeviation="22" result="effect1_foregroundBlur_187_626"/>
</filter>
<filter id="filter1_f_187_626" x="-1.55859" y="4.06641" width="70.2754" height="56.9769" filterUnits="userSpaceOnUse" color-interpolation-filters="sRGB">
<feFlood flood-opacity="0" result="BackgroundImageFix"/>
<feBlend mode="normal" in="SourceGraphic" in2="BackgroundImageFix" result="shape"/>
<feGaussianBlur stdDeviation="7" result="effect1_foregroundBlur_187_626"/>
</filter>
<filter id="filter2_bd_187_626" x="-63" y="-15.6892" width="142.275" height="128.621" filterUnits="userSpaceOnUse" color-interpolation-filters="sRGB">
<feFlood flood-opacity="0" result="BackgroundImageFix"/>
<feGaussianBlur in="BackgroundImageFix" stdDeviation="7"/>
<feComposite in2="SourceAlpha" operator="in" result="effect1_backgroundBlur_187_626"/>
<feColorMatrix in="SourceAlpha" type="matrix" values="0 0 0 0 0 0 0 0 0 0 0 0 0 0 0 0 0 0 127 0" result="hardAlpha"/>
<feOffset dx="-21" dy="15"/>
<feGaussianBlur stdDeviation="25"/>
<feComposite in2="hardAlpha" operator="out"/>
<feColorMatrix type="matrix" values="0 0 0 0 0.113725 0 0 0 0 0.14902 0 0 0 0 0.27451 0 0 0 0.25 0"/>
<feBlend mode="normal" in2="effect1_backgroundBlur_187_626" result="effect2_dropShadow_187_626"/>
<feBlend mode="normal" in="SourceGraphic" in2="effect2_dropShadow_187_626" result="shape"/>
</filter>
<filter id="filter3_bd_187_626" x="-39.5527" y="-15.6892" width="130.553" height="120.684" filterUnits="userSpaceOnUse" color-interpolation-filters="sRGB">
<feFlood flood-opacity="0" result="BackgroundImageFix"/>
<feGaussianBlur in="BackgroundImageFix" stdDeviation="7"/>
<feComposite in2="SourceAlpha" operator="in" result="effect1_backgroundBlur_187_626"/>
<feColorMatrix in="SourceAlpha" type="matrix" values="0 0 0 0 0 0 0 0 0 0 0 0 0 0 0 0 0 0 127 0" result="hardAlpha"/>
<feOffset dx="-21" dy="15"/>
<feGaussianBlur stdDeviation="25"/>
<feComposite in2="hardAlpha" operator="out"/>
<feColorMatrix type="matrix" values="0 0 0 0 0.113438 0 0 0 0 0.148981 0 0 0 0 0.275 0 0 0 0.25 0"/>
<feBlend mode="normal" in2="effect1_backgroundBlur_187_626" result="effect2_dropShadow_187_626"/>
<feBlend mode="normal" in="SourceGraphic" in2="effect2_dropShadow_187_626" result="shape"/>
</filter>
<filter id="filter4_bdd_187_626" x="-55.0078" y="-2.5498" width="137.117" height="119.568" filterUnits="userSpaceOnUse" color-interpolation-filters="sRGB">
<feFlood flood-opacity="0" result="BackgroundImageFix"/>
<feGaussianBlur in="BackgroundImageFix" stdDeviation="7"/>
<feComposite in2="SourceAlpha" operator="in" result="effect1_backgroundBlur_187_626"/>
<feColorMatrix in="SourceAlpha" type="matrix" values="0 0 0 0 0 0 0 0 0 0 0 0 0 0 0 0 0 0 127 0" result="hardAlpha"/>
<feOffset dx="-21" dy="15"/>
<feGaussianBlur stdDeviation="25"/>
<feComposite in2="hardAlpha" operator="out"/>
<feColorMatrix type="matrix" values="0 0 0 0 0.113438 0 0 0 0 0.148981 0 0 0 0 0.275 0 0 0 0.25 0"/>
<feBlend mode="normal" in2="effect1_backgroundBlur_187_626" result="effect2_dropShadow_187_626"/>
<feColorMatrix in="SourceAlpha" type="matrix" values="0 0 0 0 0 0 0 0 0 0 0 0 0 0 0 0 0 0 127 0" result="hardAlpha"/>
<feOffset dy="-7"/>
<feGaussianBlur stdDeviation="20.5"/>
<feComposite in2="hardAlpha" operator="out"/>
<feColorMatrix type="matrix" values="0 0 0 0 0.1375 0 0 0 0 0.74125 0 0 0 0 1 0 0 0 0.3 0"/>
<feBlend mode="normal" in2="effect2_dropShadow_187_626" result="effect3_dropShadow_187_626"/>
<feBlend mode="normal" in="SourceGraphic" in2="effect3_dropShadow_187_626" result="shape"/>
</filter>
<filter id="filter5_bdd_187_626" x="-52.3125" y="5.54248" width="125.318" height="119.568" filterUnits="userSpaceOnUse" color-interpolation-filters="sRGB">
<feFlood flood-opacity="0" result="BackgroundImageFix"/>
<feGaussianBlur in="BackgroundImageFix" stdDeviation="7"/>
<feComposite in2="SourceAlpha" operator="in" result="effect1_backgroundBlur_187_626"/>
<feColorMatrix in="SourceAlpha" type="matrix" values="0 0 0 0 0 0 0 0 0 0 0 0 0 0 0 0 0 0 127 0" result="hardAlpha"/>
<feOffset dx="-21" dy="15"/>
<feGaussianBlur stdDeviation="25"/>
<feComposite in2="hardAlpha" operator="out"/>
<feColorMatrix type="matrix" values="0 0 0 0 0.113438 0 0 0 0 0.148981 0 0 0 0 0.275 0 0 0 0.25 0"/>
<feBlend mode="normal" in2="effect1_backgroundBlur_187_626" result="effect2_dropShadow_187_626"/>
<feColorMatrix in="SourceAlpha" type="matrix" values="0 0 0 0 0 0 0 0 0 0 0 0 0 0 0 0 0 0 127 0" result="hardAlpha"/>
<feOffset dy="-7"/>
<feGaussianBlur stdDeviation="20.5"/>
<feComposite in2="hardAlpha" operator="out"/>
<feColorMatrix type="matrix" values="0 0 0 0 0.1375 0 0 0 0 0.74125 0 0 0 0 1 0 0 0 0.3 0"/>
<feBlend mode="normal" in2="effect2_dropShadow_187_626" result="effect3_dropShadow_187_626"/>
<feBlend mode="normal" in="SourceGraphic" in2="effect3_dropShadow_187_626" result="shape"/>
</filter>
<linearGradient id="paint0_linear_187_626" x1="38.7303" y1="9.71106" x2="38.7303" y2="30.6882" gradientUnits="userSpaceOnUse">
<stop stop-color="#FFE600"/>
<stop offset="1" stop-color="#FF7A00"/>
</linearGradient>
<linearGradient id="paint1_linear_187_626" x1="38.7303" y1="9.71106" x2="38.7303" y2="30.6882" gradientUnits="userSpaceOnUse">
<stop stop-color="white"/>
<stop offset="1" stop-color="white" stop-opacity="0"/>
</linearGradient>
<linearGradient id="paint2_linear_187_626" x1="38.7303" y1="9.71106" x2="38.7303" y2="30.6882" gradientUnits="userSpaceOnUse">
<stop stop-color="#FFD600"/>
<stop offset="1" stop-color="#FF7A00"/>
</linearGradient>
<linearGradient id="paint3_linear_187_626" x1="29.1382" y1="10.1555" x2="29.1382" y2="51.932" gradientUnits="userSpaceOnUse">
<stop stop-color="white"/>
<stop offset="1" stop-color="white" stop-opacity="0"/>
</linearGradient>
<linearGradient id="paint4_linear_187_626" x1="29.1382" y1="19.3108" x2="29.1382" y2="47.9321" gradientUnits="userSpaceOnUse">
<stop stop-color="white"/>
<stop offset="1" stop-color="white" stop-opacity="0"/>
</linearGradient>
<linearGradient id="paint5_linear_187_626" x1="48.1446" y1="19.933" x2="48.1446" y2="42.3323" gradientUnits="userSpaceOnUse">
<stop stop-color="white"/>
<stop offset="1" stop-color="white" stop-opacity="0"/>
</linearGradient>
<linearGradient id="paint6_linear_187_626" x1="46.7236" y1="19.3108" x2="46.7236" y2="39.9951" gradientUnits="userSpaceOnUse">
<stop stop-color="white"/>
<stop offset="1" stop-color="white" stop-opacity="0"/>
</linearGradient>
<linearGradient id="paint7_linear_187_626" x1="20.2397" y1="43.4139" x2="17.6522" y2="51.9138" gradientUnits="userSpaceOnUse">
<stop stop-color="#138EFF"/>
<stop offset="1" stop-color="#00E0FF"/>
</linearGradient>
<linearGradient id="paint8_linear_187_626" x1="20.2397" y1="43.4139" x2="17.6522" y2="51.9138" gradientUnits="userSpaceOnUse">
<stop stop-color="white"/>
<stop offset="1" stop-color="white" stop-opacity="0"/>
</linearGradient>
<linearGradient id="paint9_linear_187_626" x1="30.4546" y1="43.4139" x2="27.867" y2="51.9138" gradientUnits="userSpaceOnUse">
<stop stop-color="#138EFF"/>
<stop offset="1" stop-color="#00E0FF"/>
</linearGradient>
<linearGradient id="paint10_linear_187_626" x1="30.4546" y1="43.4139" x2="27.867" y2="51.9138" gradientUnits="userSpaceOnUse">
<stop stop-color="white"/>
<stop offset="1" stop-color="white" stop-opacity="0"/>
</linearGradient>
<linearGradient id="paint11_linear_187_626" x1="40.6694" y1="43.4139" x2="38.0819" y2="51.9138" gradientUnits="userSpaceOnUse">
<stop stop-color="#138EFF"/>
<stop offset="1" stop-color="#00E0FF"/>
</linearGradient>
<linearGradient id="paint12_linear_187_626" x1="40.6694" y1="43.4139" x2="38.0819" y2="51.9138" gradientUnits="userSpaceOnUse">
<stop stop-color="white"/>
<stop offset="1" stop-color="white" stop-opacity="0"/>
</linearGradient>
<linearGradient id="paint13_linear_187_626" x1="22.935" y1="51.5062" x2="20.3475" y2="60.0061" gradientUnits="userSpaceOnUse">
<stop stop-color="#138EFF"/>
<stop offset="1" stop-color="#00E0FF"/>
</linearGradient>
<linearGradient id="paint14_linear_187_626" x1="22.935" y1="51.5062" x2="20.3475" y2="60.0061" gradientUnits="userSpaceOnUse">
<stop stop-color="white"/>
<stop offset="1" stop-color="white" stop-opacity="0"/>
</linearGradient>
<linearGradient id="paint15_linear_187_626" x1="31.5659" y1="51.5062" x2="28.9783" y2="60.0061" gradientUnits="userSpaceOnUse">
<stop stop-color="#138EFF"/>
<stop offset="1" stop-color="#00E0FF"/>
</linearGradient>
<linearGradient id="paint16_linear_187_626" x1="31.5659" y1="51.5062" x2="28.9783" y2="60.0061" gradientUnits="userSpaceOnUse">
<stop stop-color="white"/>
<stop offset="1" stop-color="white" stop-opacity="0"/>
</linearGradient>
<clipPath id="clip0_187_626">
<rect width="70" height="70" rx="10" fill="white"/>
</clipPath>
</defs>
</svg>
