<svg width="70" height="70" viewBox="0 0 70 70" fill="none" xmlns="http://www.w3.org/2000/svg">
<g clip-path="url(#clip0_187_499)">
<rect width="70" height="70" rx="10" fill="#5F90CF"/>
<g filter="url(#filter0_f_187_499)">
<ellipse cx="38.4548" cy="27.0274" rx="10.0329" ry="10.0274" fill="#FFC701" fill-opacity="0.5"/>
</g>
<path d="M47.1579 27.3561C47.1579 32.1597 43.2615 36.0547 38.4539 36.0547C33.6464 36.0547 29.75 32.1597 29.75 27.3561C29.75 22.5525 33.6464 18.6575 38.4539 18.6575C43.2615 18.6575 47.1579 22.5525 47.1579 27.3561Z" fill="url(#paint0_linear_187_499)" stroke="url(#paint1_linear_187_499)" stroke-width="2"/>
<mask id="mask0_187_499" style="mask-type:alpha" maskUnits="userSpaceOnUse" x="28" y="23" width="21" height="15">
<path d="M48.1579 27.3561C48.1579 32.7125 43.8133 37.0548 38.4539 37.0548C33.0946 37.0548 28.75 32.7125 28.75 27.3561C28.75 21.9997 32.3545 23.2465 37.7138 23.2465C43.0732 23.2465 48.1579 21.9997 48.1579 27.3561Z" fill="url(#paint2_linear_187_499)"/>
</mask>
<g mask="url(#mask0_187_499)">
<g filter="url(#filter1_f_187_499)">
<path fill-rule="evenodd" clip-rule="evenodd" d="M46.1015 52.1776C46.1289 52.1779 46.1563 52.178 46.1837 52.178C50.0897 52.178 53.2561 49.0134 53.2561 45.1096C53.2561 41.2057 50.0897 38.0411 46.1837 38.0411C46.1563 38.0411 46.1289 38.0412 46.1015 38.0415V38.0411H41.5929C41.6916 37.453 41.743 36.8489 41.743 36.2329C41.743 30.2409 36.8829 25.3835 30.8877 25.3835C24.8925 25.3835 20.0324 30.2409 20.0324 36.2329C20.0324 36.8729 20.0879 37.5 20.1943 38.1097C16.7567 38.5907 14.1113 41.5413 14.1113 45.1096C14.1113 49.0134 17.2777 52.178 21.1837 52.178C21.2113 52.178 21.2388 52.1779 21.2663 52.1776L21.266 52.178H46.1015V52.1776Z" fill="#E18700"/>
</g>
</g>
<g filter="url(#filter2_bd_187_499)">
<mask id="path-6-inside-1_187_499" fill="white">
<path fill-rule="evenodd" clip-rule="evenodd" d="M41.9902 52.9995C42.0175 52.9998 42.045 53 42.0724 53C45.9784 53 49.1448 49.8353 49.1448 45.9315C49.1448 42.0276 45.9784 38.863 42.0724 38.863C42.045 38.863 42.0175 38.8631 41.9902 38.8634V38.863H40.1631C40.2291 38.3792 40.2631 37.8853 40.2631 37.3835C40.2631 31.3916 35.4031 26.5342 29.4079 26.5342C23.4127 26.5342 18.5526 31.3916 18.5526 37.3835C18.5526 37.9489 18.5959 38.5042 18.6793 39.0462C18.1631 38.9263 17.6251 38.863 17.0724 38.863C13.1664 38.863 10 42.0276 10 45.9315C10 49.8353 13.1664 53 17.0724 53C17.1 53 17.1275 52.9998 17.155 52.9995L17.1546 53H41.9902V52.9995Z"/>
</mask>
<path fill-rule="evenodd" clip-rule="evenodd" d="M41.9902 52.9995C42.0175 52.9998 42.045 53 42.0724 53C45.9784 53 49.1448 49.8353 49.1448 45.9315C49.1448 42.0276 45.9784 38.863 42.0724 38.863C42.045 38.863 42.0175 38.8631 41.9902 38.8634V38.863H40.1631C40.2291 38.3792 40.2631 37.8853 40.2631 37.3835C40.2631 31.3916 35.4031 26.5342 29.4079 26.5342C23.4127 26.5342 18.5526 31.3916 18.5526 37.3835C18.5526 37.9489 18.5959 38.5042 18.6793 39.0462C18.1631 38.9263 17.6251 38.863 17.0724 38.863C13.1664 38.863 10 42.0276 10 45.9315C10 49.8353 13.1664 53 17.0724 53C17.1 53 17.1275 52.9998 17.155 52.9995L17.1546 53H41.9902V52.9995Z" fill="url(#paint3_linear_187_499)" shape-rendering="crispEdges"/>
<path d="M41.9902 52.9995L42.0129 50.9996C41.4785 50.9935 40.964 51.2016 40.584 51.5773C40.204 51.953 39.9902 52.4651 39.9902 52.9995H41.9902ZM41.9902 38.8634H39.9902C39.9902 39.3978 40.204 39.91 40.584 40.2857C40.964 40.6614 41.4786 40.8694 42.0129 40.8633L41.9902 38.8634ZM41.9902 38.863H43.9902C43.9902 37.7584 43.0947 36.863 41.9902 36.863V38.863ZM40.1631 38.863L38.1814 38.5926C38.1033 39.1649 38.2765 39.743 38.6563 40.1781C39.0361 40.6133 39.5855 40.863 40.1631 40.863V38.863ZM18.6793 39.0462L18.2269 40.9944C18.8735 41.1445 19.5524 40.9641 20.0391 40.5128C20.5259 40.0615 20.757 39.3981 20.656 38.742L18.6793 39.0462ZM17.155 52.9995L18.7257 54.2376C19.2026 53.6327 19.2896 52.8076 18.9495 52.1164C18.6093 51.4252 17.9024 50.9908 17.1321 50.9996L17.155 52.9995ZM17.1546 53L15.584 51.7618C15.1096 52.3635 15.0207 53.1834 15.3551 53.8728C15.6895 54.5622 16.3884 55 17.1546 55V53ZM41.9902 53V55C43.0947 55 43.9902 54.1045 43.9902 53H41.9902ZM41.9675 54.9994C42.0024 54.9998 42.0374 55 42.0724 55V51C42.0526 51 42.0327 50.9998 42.0129 50.9996L41.9675 54.9994ZM42.0724 55C47.0819 55 51.1448 50.9409 51.1448 45.9315H47.1448C47.1448 48.7297 44.8748 51 42.0724 51V55ZM51.1448 45.9315C51.1448 40.922 47.0819 36.863 42.0724 36.863V40.863C44.8748 40.863 47.1448 43.1332 47.1448 45.9315H51.1448ZM42.0724 36.863C42.0374 36.863 42.0024 36.8632 41.9674 36.8636L42.0129 40.8633C42.0327 40.8631 42.0526 40.863 42.0724 40.863V36.863ZM39.9902 38.863V38.8634H43.9902V38.863H39.9902ZM40.1631 40.863H41.9902V36.863H40.1631V40.863ZM42.1447 39.1333C42.2229 38.5602 42.2631 37.976 42.2631 37.3835H38.2631C38.2631 37.7947 38.2352 38.1982 38.1814 38.5926L42.1447 39.1333ZM42.2631 37.3835C42.2631 30.286 36.5066 24.5342 29.4079 24.5342V28.5342C34.2995 28.5342 38.2631 32.4972 38.2631 37.3835H42.2631ZM29.4079 24.5342C22.3091 24.5342 16.5526 30.286 16.5526 37.3835H20.5526C20.5526 32.4972 24.5162 28.5342 29.4079 28.5342V24.5342ZM16.5526 37.3835C16.5526 38.0511 16.6037 38.7081 16.7026 39.3504L20.656 38.742C20.5881 38.3003 20.5526 37.8467 20.5526 37.3835H16.5526ZM19.1317 37.0981C18.4682 36.944 17.7785 36.863 17.0724 36.863V40.863C17.4718 40.863 17.8579 40.9087 18.2269 40.9944L19.1317 37.0981ZM17.0724 36.863C12.0629 36.863 8 40.922 8 45.9315H12C12 43.1332 14.2699 40.863 17.0724 40.863V36.863ZM8 45.9315C8 50.9409 12.0629 55 17.0724 55V51C14.2699 51 12 48.7297 12 45.9315H8ZM17.0724 55C17.1076 55 17.1428 54.9998 17.1779 54.9994L17.1321 50.9996C17.1122 50.9998 17.0923 51 17.0724 51V55ZM18.7253 54.2381L18.7257 54.2376L15.5843 51.7613L15.584 51.7618L18.7253 54.2381ZM41.9902 51H17.1546V55H41.9902V51ZM39.9902 52.9995V53H43.9902V52.9995H39.9902Z" fill="url(#paint4_linear_187_499)" mask="url(#path-6-inside-1_187_499)"/>
</g>
<g filter="url(#filter3_bd_187_499)">
<mask id="path-8-inside-2_187_499" fill="white">
<path fill-rule="evenodd" clip-rule="evenodd" d="M54.8299 45.6604C54.8497 45.6606 54.8695 45.6607 54.8893 45.6607C57.7121 45.6607 60.0004 43.3736 60.0004 40.5524C60.0004 37.7311 57.7121 35.4441 54.8893 35.4441C54.8695 35.4441 54.8497 35.4442 54.8299 35.4444V35.4441H53.5095C53.5572 35.0945 53.5818 34.7375 53.5818 34.3749C53.5818 30.0446 50.0695 26.5342 45.7368 26.5342C41.4042 26.5342 37.8919 30.0446 37.8919 34.3749C37.8919 34.7835 37.9231 35.1848 37.9834 35.5765C37.6103 35.4899 37.2215 35.4441 36.8221 35.4441C33.9993 35.4441 31.7109 37.7311 31.7109 40.5524C31.7109 43.3736 33.9993 45.6607 36.8221 45.6607C36.842 45.6607 36.8619 45.6606 36.8818 45.6604L36.8815 45.6607H54.8299V45.6604Z"/>
</mask>
<path fill-rule="evenodd" clip-rule="evenodd" d="M54.8299 45.6604C54.8497 45.6606 54.8695 45.6607 54.8893 45.6607C57.7121 45.6607 60.0004 43.3736 60.0004 40.5524C60.0004 37.7311 57.7121 35.4441 54.8893 35.4441C54.8695 35.4441 54.8497 35.4442 54.8299 35.4444V35.4441H53.5095C53.5572 35.0945 53.5818 34.7375 53.5818 34.3749C53.5818 30.0446 50.0695 26.5342 45.7368 26.5342C41.4042 26.5342 37.8919 30.0446 37.8919 34.3749C37.8919 34.7835 37.9231 35.1848 37.9834 35.5765C37.6103 35.4899 37.2215 35.4441 36.8221 35.4441C33.9993 35.4441 31.7109 37.7311 31.7109 40.5524C31.7109 43.3736 33.9993 45.6607 36.8221 45.6607C36.842 45.6607 36.8619 45.6606 36.8818 45.6604L36.8815 45.6607H54.8299V45.6604Z" fill="url(#paint5_linear_187_499)" shape-rendering="crispEdges"/>
<path d="M54.8299 45.6604L54.8526 43.6605C54.3183 43.6544 53.8038 43.8624 53.4237 44.2381C53.0437 44.6138 52.8299 45.126 52.8299 45.6604H54.8299ZM54.8299 35.4444H52.8299C52.8299 35.9788 53.0437 36.4909 53.4237 36.8666C53.8038 37.2423 54.3183 37.4503 54.8526 37.4443L54.8299 35.4444ZM54.8299 35.4441H56.8299C56.8299 34.3395 55.9345 33.4441 54.8299 33.4441V35.4441ZM53.5095 35.4441L51.5278 35.1737C51.4498 35.746 51.6229 36.3241 52.0027 36.7592C52.3825 37.1944 52.9319 37.4441 53.5095 37.4441V35.4441ZM37.9834 35.5765L37.531 37.5247C38.1776 37.6748 38.8565 37.4944 39.3432 37.0431C39.83 36.5918 40.0611 35.9284 39.9601 35.2723L37.9834 35.5765ZM36.8818 45.6604L38.4518 46.8993C38.9291 46.2944 39.0165 45.4691 38.6765 44.7777C38.3364 44.0863 37.6294 43.6517 36.859 43.6605L36.8818 45.6604ZM36.8815 45.6607L35.3115 44.4218C34.8367 45.0234 34.7475 45.8434 35.0818 46.5331C35.4161 47.2227 36.1151 47.6607 36.8815 47.6607V45.6607ZM54.8299 45.6607V47.6607C55.9345 47.6607 56.8299 46.7653 56.8299 45.6607H54.8299ZM54.8071 47.6602C54.8345 47.6605 54.8619 47.6607 54.8893 47.6607V43.6607C54.877 43.6607 54.8648 43.6606 54.8526 43.6605L54.8071 47.6602ZM54.8893 47.6607C58.8156 47.6607 62.0004 44.4792 62.0004 40.5524H58.0004C58.0004 42.268 56.6086 43.6607 54.8893 43.6607V47.6607ZM62.0004 40.5524C62.0004 36.6255 58.8156 33.4441 54.8893 33.4441V37.4441C56.6086 37.4441 58.0004 38.8367 58.0004 40.5524H62.0004ZM54.8893 33.4441C54.8619 33.4441 54.8345 33.4442 54.8071 33.4445L54.8526 37.4443C54.8648 37.4441 54.877 37.4441 54.8893 37.4441V33.4441ZM52.8299 35.4441V35.4444H56.8299V35.4441H52.8299ZM53.5095 37.4441H54.8299V33.4441H53.5095V37.4441ZM55.4911 35.7144C55.551 35.2755 55.5818 34.8282 55.5818 34.3749H51.5818C51.5818 34.6469 51.5633 34.9135 51.5278 35.1737L55.4911 35.7144ZM55.5818 34.3749C55.5818 28.939 51.173 24.5342 45.7368 24.5342V28.5342C48.966 28.5342 51.5818 31.1502 51.5818 34.3749H55.5818ZM45.7368 24.5342C40.3006 24.5342 35.8919 28.939 35.8919 34.3749H39.8919C39.8919 31.1502 42.5077 28.5342 45.7368 28.5342V24.5342ZM35.8919 34.3749C35.8919 34.8857 35.931 35.3886 36.0067 35.8807L39.9601 35.2723C39.9153 34.9809 39.8919 34.6813 39.8919 34.3749H35.8919ZM38.4358 33.6283C37.9154 33.5075 37.3749 33.4441 36.8221 33.4441V37.4441C37.0682 37.4441 37.3052 37.4722 37.531 37.5247L38.4358 33.6283ZM36.8221 33.4441C32.8957 33.4441 29.7109 36.6255 29.7109 40.5524H33.7109C33.7109 38.8367 35.1028 37.4441 36.8221 37.4441V33.4441ZM29.7109 40.5524C29.7109 44.4792 32.8957 47.6607 36.8221 47.6607V43.6607C35.1028 43.6607 33.7109 42.268 33.7109 40.5524H29.7109ZM36.8221 47.6607C36.8497 47.6607 36.8772 47.6605 36.9046 47.6602L36.859 43.6605C36.8466 43.6606 36.8343 43.6607 36.8221 43.6607V47.6607ZM38.4516 46.8996L38.4518 46.8993L35.3117 44.4214L35.3115 44.4218L38.4516 46.8996ZM54.8299 43.6607H36.8815V47.6607H54.8299V43.6607ZM52.8299 45.6604V45.6607H56.8299V45.6604H52.8299Z" fill="url(#paint6_linear_187_499)" mask="url(#path-8-inside-2_187_499)"/>
</g>
</g>
<defs>
<filter id="filter0_f_187_499" x="-15.5781" y="-27" width="108.066" height="108.055" filterUnits="userSpaceOnUse" color-interpolation-filters="sRGB">
<feFlood flood-opacity="0" result="BackgroundImageFix"/>
<feBlend mode="normal" in="SourceGraphic" in2="BackgroundImageFix" result="shape"/>
<feGaussianBlur stdDeviation="22" result="effect1_foregroundBlur_187_499"/>
</filter>
<filter id="filter1_f_187_499" x="0.111328" y="11.3835" width="67.1445" height="54.7946" filterUnits="userSpaceOnUse" color-interpolation-filters="sRGB">
<feFlood flood-opacity="0" result="BackgroundImageFix"/>
<feBlend mode="normal" in="SourceGraphic" in2="BackgroundImageFix" result="shape"/>
<feGaussianBlur stdDeviation="7" result="effect1_foregroundBlur_187_499"/>
</filter>
<filter id="filter2_bd_187_499" x="-61" y="-8.46582" width="139.145" height="126.466" filterUnits="userSpaceOnUse" color-interpolation-filters="sRGB">
<feFlood flood-opacity="0" result="BackgroundImageFix"/>
<feGaussianBlur in="BackgroundImageFix" stdDeviation="7"/>
<feComposite in2="SourceAlpha" operator="in" result="effect1_backgroundBlur_187_499"/>
<feColorMatrix in="SourceAlpha" type="matrix" values="0 0 0 0 0 0 0 0 0 0 0 0 0 0 0 0 0 0 127 0" result="hardAlpha"/>
<feOffset dx="-21" dy="15"/>
<feGaussianBlur stdDeviation="25"/>
<feComposite in2="hardAlpha" operator="out"/>
<feColorMatrix type="matrix" values="0 0 0 0 0.113725 0 0 0 0 0.14902 0 0 0 0 0.27451 0 0 0 0.25 0"/>
<feBlend mode="normal" in2="effect1_backgroundBlur_187_499" result="effect2_dropShadow_187_499"/>
<feBlend mode="normal" in="SourceGraphic" in2="effect2_dropShadow_187_499" result="shape"/>
</filter>
<filter id="filter3_bd_187_499" x="-39.2891" y="-8.46582" width="128.289" height="119.126" filterUnits="userSpaceOnUse" color-interpolation-filters="sRGB">
<feFlood flood-opacity="0" result="BackgroundImageFix"/>
<feGaussianBlur in="BackgroundImageFix" stdDeviation="7"/>
<feComposite in2="SourceAlpha" operator="in" result="effect1_backgroundBlur_187_499"/>
<feColorMatrix in="SourceAlpha" type="matrix" values="0 0 0 0 0 0 0 0 0 0 0 0 0 0 0 0 0 0 127 0" result="hardAlpha"/>
<feOffset dx="-21" dy="15"/>
<feGaussianBlur stdDeviation="25"/>
<feComposite in2="hardAlpha" operator="out"/>
<feColorMatrix type="matrix" values="0 0 0 0 0.113438 0 0 0 0 0.148981 0 0 0 0 0.275 0 0 0 0.25 0"/>
<feBlend mode="normal" in2="effect1_backgroundBlur_187_499" result="effect2_dropShadow_187_499"/>
<feBlend mode="normal" in="SourceGraphic" in2="effect2_dropShadow_187_499" result="shape"/>
</filter>
<linearGradient id="paint0_linear_187_499" x1="38.4539" y1="17.6575" x2="38.4539" y2="37.0547" gradientUnits="userSpaceOnUse">
<stop stop-color="#FFE600"/>
<stop offset="1" stop-color="#FF7A00"/>
</linearGradient>
<linearGradient id="paint1_linear_187_499" x1="38.4539" y1="17.6575" x2="38.4539" y2="37.0547" gradientUnits="userSpaceOnUse">
<stop stop-color="white"/>
<stop offset="1" stop-color="white" stop-opacity="0"/>
</linearGradient>
<linearGradient id="paint2_linear_187_499" x1="38.4539" y1="17.6575" x2="38.4539" y2="37.0548" gradientUnits="userSpaceOnUse">
<stop stop-color="#FFD600"/>
<stop offset="1" stop-color="#FF7A00"/>
</linearGradient>
<linearGradient id="paint3_linear_187_499" x1="29.5724" y1="18.0684" x2="29.5724" y2="56.6986" gradientUnits="userSpaceOnUse">
<stop stop-color="white"/>
<stop offset="1" stop-color="white" stop-opacity="0"/>
</linearGradient>
<linearGradient id="paint4_linear_187_499" x1="29.5724" y1="26.5342" x2="29.5724" y2="52.9999" gradientUnits="userSpaceOnUse">
<stop stop-color="white"/>
<stop offset="1" stop-color="white" stop-opacity="0"/>
</linearGradient>
<linearGradient id="paint5_linear_187_499" x1="47.1715" y1="27.1095" x2="47.1715" y2="47.8218" gradientUnits="userSpaceOnUse">
<stop stop-color="white"/>
<stop offset="1" stop-color="white" stop-opacity="0"/>
</linearGradient>
<linearGradient id="paint6_linear_187_499" x1="45.8557" y1="26.5342" x2="45.8557" y2="45.6607" gradientUnits="userSpaceOnUse">
<stop stop-color="white"/>
<stop offset="1" stop-color="white" stop-opacity="0"/>
</linearGradient>
<clipPath id="clip0_187_499">
<rect width="70" height="70" rx="10" fill="white"/>
</clipPath>
</defs>
</svg>
