<svg width="25" height="25" viewBox="0 0 25 25" fill="none" xmlns="http://www.w3.org/2000/svg">
<path fill-rule="evenodd" clip-rule="evenodd" d="M16.9023 9.65854C16.9023 13.6593 13.6592 16.9024 9.65848 16.9024C5.65781 16.9024 2.41462 13.6593 2.41462 9.65854C2.41462 5.65784 5.65781 2.41463 9.65848 2.41463C13.6592 2.41463 16.9023 5.65784 16.9023 9.65854ZM15.5812 17.2886C13.9456 18.56 11.8904 19.3171 9.65848 19.3171C4.32424 19.3171 0 14.9928 0 9.65854C0 4.32427 4.32424 0 9.65848 0C14.9927 0 19.317 4.32427 19.317 9.65854C19.317 11.8905 18.5599 13.9456 17.2885 15.5812L25 23.2927L23.2925 25L15.5812 17.2886Z" fill="#9E9EA7"/>
</svg>
