<svg width="70" height="70" viewBox="0 0 70 70" fill="none" xmlns="http://www.w3.org/2000/svg">
<g clip-path="url(#clip0_187_526)">
<rect width="70" height="70" rx="10" fill="#5F90CF"/>
<g filter="url(#filter0_bd_187_526)">
<mask id="path-2-inside-1_187_526" fill="white">
<path fill-rule="evenodd" clip-rule="evenodd" d="M30.0651 37.4024C30.084 37.4026 30.1029 37.4027 30.1218 37.4027C32.816 37.4027 35 35.2022 35 32.4877C35 29.7732 32.816 27.5727 30.1218 27.5727C30.1029 27.5727 30.084 27.5728 30.0651 27.573V27.5727H28.8049C28.8504 27.2363 28.874 26.8929 28.874 26.544C28.874 22.3776 25.5217 19 21.3866 19C17.2514 19 13.8992 22.3776 13.8992 26.544C13.8992 26.9371 13.929 27.3232 13.9865 27.7001C13.6305 27.6168 13.2594 27.5727 12.8782 27.5727C10.184 27.5727 8 29.7732 8 32.4877C8 35.2022 10.184 37.4027 12.8782 37.4027C12.8972 37.4027 12.9162 37.4026 12.9351 37.4024L12.9349 37.4027H30.0651V37.4024Z"/>
</mask>
<path fill-rule="evenodd" clip-rule="evenodd" d="M30.0651 37.4024C30.084 37.4026 30.1029 37.4027 30.1218 37.4027C32.816 37.4027 35 35.2022 35 32.4877C35 29.7732 32.816 27.5727 30.1218 27.5727C30.1029 27.5727 30.084 27.5728 30.0651 27.573V27.5727H28.8049C28.8504 27.2363 28.874 26.8929 28.874 26.544C28.874 22.3776 25.5217 19 21.3866 19C17.2514 19 13.8992 22.3776 13.8992 26.544C13.8992 26.9371 13.929 27.3232 13.9865 27.7001C13.6305 27.6168 13.2594 27.5727 12.8782 27.5727C10.184 27.5727 8 29.7732 8 32.4877C8 35.2022 10.184 37.4027 12.8782 37.4027C12.8972 37.4027 12.9162 37.4026 12.9351 37.4024L12.9349 37.4027H30.0651V37.4024Z" fill="url(#paint0_linear_187_526)" shape-rendering="crispEdges"/>
<path d="M30.0651 37.4024L30.0882 35.4026C29.5538 35.3964 29.0391 35.6044 28.6591 35.9801C28.279 36.3558 28.0651 36.868 28.0651 37.4024H30.0651ZM30.0651 27.573H28.0651C28.0651 28.1074 28.279 28.6196 28.659 28.9953C29.0391 29.371 29.5537 29.579 30.088 29.5729L30.0651 27.573ZM30.0651 27.5727H32.0651C32.0651 26.4681 31.1697 25.5727 30.0651 25.5727V27.5727ZM28.8049 27.5727L26.823 27.3045C26.7456 27.8765 26.9191 28.454 27.2989 28.8887C27.6787 29.3233 28.2277 29.5727 28.8049 29.5727V27.5727ZM13.9865 27.7001L13.5307 29.6475C14.1772 29.7988 14.8566 29.6195 15.3442 29.1687C15.8317 28.718 16.0638 28.0547 15.9636 27.3983L13.9865 27.7001ZM12.9351 37.4024L14.5095 38.6358C14.9839 38.0302 15.069 37.2062 14.7282 36.5165C14.3874 35.8268 13.6812 35.3937 12.912 35.4025L12.9351 37.4024ZM12.9349 37.4027L11.3605 36.1693C10.8886 36.7716 10.8017 37.5904 11.1367 38.2783C11.4716 38.9662 12.1697 39.4027 12.9349 39.4027V37.4027ZM30.0651 37.4027V39.4027C31.1697 39.4027 32.0651 38.5073 32.0651 37.4027H30.0651ZM30.0421 39.4023C30.0687 39.4026 30.0953 39.4027 30.1218 39.4027V35.4027C30.1106 35.4027 30.0993 35.4027 30.0882 35.4026L30.0421 39.4023ZM30.1218 39.4027C33.9347 39.4027 37 36.2926 37 32.4877H33C33 34.1119 31.6972 35.4027 30.1218 35.4027V39.4027ZM37 32.4877C37 28.6829 33.9347 25.5727 30.1218 25.5727V29.5727C31.6972 29.5727 33 30.8636 33 32.4877H37ZM30.1218 25.5727C30.0953 25.5727 30.0687 25.5729 30.0422 25.5732L30.088 29.5729C30.0993 29.5728 30.1106 29.5727 30.1218 29.5727V25.5727ZM28.0651 27.5727V27.573H32.0651V27.5727H28.0651ZM28.8049 29.5727H30.0651V25.5727H28.8049V29.5727ZM30.7869 27.8409C30.8444 27.4159 30.874 26.9829 30.874 26.544H26.874C26.874 26.803 26.8565 27.0568 26.823 27.3045L30.7869 27.8409ZM30.874 26.544C30.874 21.2872 26.6405 17 21.3866 17V21C24.403 21 26.874 23.4679 26.874 26.544H30.874ZM21.3866 17C16.1326 17 11.8992 21.2872 11.8992 26.544H15.8992C15.8992 23.4679 18.3701 21 21.3866 21V17ZM11.8992 26.544C11.8992 27.0385 11.9367 27.5255 12.0094 28.0019L15.9636 27.3983C15.9213 27.121 15.8992 26.8358 15.8992 26.544H11.8992ZM14.4424 25.7528C13.938 25.6347 13.414 25.5727 12.8782 25.5727V29.5727C13.1048 29.5727 13.3229 29.5988 13.5307 29.6475L14.4424 25.7528ZM12.8782 25.5727C9.06528 25.5727 6 28.6829 6 32.4877H10C10 30.8636 11.3028 29.5727 12.8782 29.5727V25.5727ZM6 32.4877C6 36.2926 9.06528 39.4027 12.8782 39.4027V35.4027C11.3028 35.4027 10 34.1119 10 32.4877H6ZM12.8782 39.4027C12.9048 39.4027 12.9315 39.4026 12.9583 39.4023L12.912 35.4025C12.9008 35.4027 12.8895 35.4027 12.8782 35.4027V39.4027ZM14.5092 38.6362L14.5095 38.6358L11.3607 36.169L11.3605 36.1693L14.5092 38.6362ZM30.0651 35.4027H12.9349V39.4027H30.0651V35.4027ZM28.0651 37.4024V37.4027H32.0651V37.4024H28.0651Z" fill="url(#paint1_linear_187_526)" mask="url(#path-2-inside-1_187_526)"/>
</g>
<g filter="url(#filter1_bd_187_526)">
<mask id="path-4-inside-2_187_526" fill="white">
<path fill-rule="evenodd" clip-rule="evenodd" d="M44.8113 49.9995C44.8374 49.9998 44.8636 49.9999 44.8898 49.9999C48.6177 49.9999 51.6398 46.955 51.6398 43.1989C51.6398 39.4428 48.6177 36.3979 44.8898 36.3979C44.8636 36.3979 44.8374 36.3981 44.8113 36.3984V36.3979H43.0675C43.1305 35.9325 43.163 35.4573 43.163 34.9744C43.163 29.2092 38.5245 24.5356 32.8026 24.5356C27.0806 24.5356 22.4421 29.2092 22.4421 34.9744C22.4421 35.5184 22.4834 36.0527 22.563 36.5742C22.0703 36.4589 21.5569 36.3979 21.0293 36.3979C17.3014 36.3979 14.2793 39.4428 14.2793 43.1989C14.2793 46.955 17.3014 49.9999 21.0293 49.9999C21.0556 49.9999 21.0819 49.9998 21.1081 49.9995L21.1078 49.9999H44.8113V49.9995Z"/>
</mask>
<path fill-rule="evenodd" clip-rule="evenodd" d="M44.8113 49.9995C44.8374 49.9998 44.8636 49.9999 44.8898 49.9999C48.6177 49.9999 51.6398 46.955 51.6398 43.1989C51.6398 39.4428 48.6177 36.3979 44.8898 36.3979C44.8636 36.3979 44.8374 36.3981 44.8113 36.3984V36.3979H43.0675C43.1305 35.9325 43.163 35.4573 43.163 34.9744C43.163 29.2092 38.5245 24.5356 32.8026 24.5356C27.0806 24.5356 22.4421 29.2092 22.4421 34.9744C22.4421 35.5184 22.4834 36.0527 22.563 36.5742C22.0703 36.4589 21.5569 36.3979 21.0293 36.3979C17.3014 36.3979 14.2793 39.4428 14.2793 43.1989C14.2793 46.955 17.3014 49.9999 21.0293 49.9999C21.0556 49.9999 21.0819 49.9998 21.1081 49.9995L21.1078 49.9999H44.8113V49.9995Z" fill="url(#paint2_linear_187_526)" shape-rendering="crispEdges"/>
<path d="M44.8113 49.9995L44.8342 47.9996C44.2998 47.9935 43.7852 48.2015 43.4052 48.5772C43.0252 48.9529 42.8113 49.4651 42.8113 49.9995H44.8113ZM44.8113 36.3984H42.8113C42.8113 36.9328 43.0252 37.445 43.4052 37.8207C43.7853 38.1964 44.2999 38.4044 44.8343 38.3982L44.8113 36.3984ZM44.8113 36.3979H46.8113C46.8113 35.2933 45.9159 34.3979 44.8113 34.3979V36.3979ZM43.0675 36.3979L41.0856 36.1297C41.0082 36.7017 41.1817 37.2792 41.5615 37.7139C41.9412 38.1485 42.4903 38.3979 43.0675 38.3979V36.3979ZM22.563 36.5742L22.1071 38.5216C22.7536 38.6729 23.4331 38.4936 23.9207 38.0428C24.4082 37.5921 24.6403 36.9288 24.5401 36.2724L22.563 36.5742ZM21.1081 49.9995L22.6824 51.2331C23.1569 50.6275 23.242 49.8034 22.9013 49.1137C22.5605 48.4239 21.8543 47.9907 21.085 47.9996L21.1081 49.9995ZM21.1078 49.9999L19.5335 48.7663C19.0616 49.3686 18.9746 50.1874 19.3096 50.8754C19.6445 51.5634 20.3426 51.9999 21.1078 51.9999V49.9999ZM44.8113 49.9999V51.9999C45.9159 51.9999 46.8113 51.1045 46.8113 49.9999H44.8113ZM44.7884 51.9994C44.8221 51.9998 44.8559 51.9999 44.8898 51.9999V47.9999C44.8713 47.9999 44.8527 47.9998 44.8342 47.9996L44.7884 51.9994ZM44.8898 51.9999C49.7365 51.9999 53.6398 48.0454 53.6398 43.1989H49.6398C49.6398 45.8647 47.499 47.9999 44.8898 47.9999V51.9999ZM53.6398 43.1989C53.6398 38.3525 49.7365 34.3979 44.8898 34.3979V38.3979C47.499 38.3979 49.6398 40.5332 49.6398 43.1989H53.6398ZM44.8898 34.3979C44.8559 34.3979 44.8221 34.3981 44.7883 34.3985L44.8343 38.3982C44.8528 38.398 44.8713 38.3979 44.8898 38.3979V34.3979ZM42.8113 36.3979V36.3984H46.8113V36.3979H42.8113ZM43.0675 38.3979H44.8113V34.3979H43.0675V38.3979ZM45.0494 36.6661C45.1244 36.112 45.163 35.5472 45.163 34.9744H41.163C41.163 35.3673 41.1366 35.7529 41.0856 36.1297L45.0494 36.6661ZM45.163 34.9744C45.163 28.1189 39.6432 22.5356 32.8026 22.5356V26.5356C37.4058 26.5356 41.163 30.2996 41.163 34.9744H45.163ZM32.8026 22.5356C25.9619 22.5356 20.4421 28.1189 20.4421 34.9744H24.4421C24.4421 30.2996 28.1994 26.5356 32.8026 26.5356V22.5356ZM20.4421 34.9744C20.4421 35.6198 20.4911 36.2549 20.5859 36.876L24.5401 36.2724C24.4757 35.8504 24.4421 35.417 24.4421 34.9744H20.4421ZM23.0189 34.6269C22.3779 34.4768 21.7115 34.3979 21.0293 34.3979V38.3979C21.4022 38.3979 21.7627 38.441 22.1071 38.5216L23.0189 34.6269ZM21.0293 34.3979C16.1826 34.3979 12.2793 38.3525 12.2793 43.1989H16.2793C16.2793 40.5332 18.4201 38.3979 21.0293 38.3979V34.3979ZM12.2793 43.1989C12.2793 48.0454 16.1826 51.9999 21.0293 51.9999V47.9999C18.4201 47.9999 16.2793 45.8647 16.2793 43.1989H12.2793ZM21.0293 51.9999C21.0633 51.9999 21.0972 51.9998 21.1313 51.9994L21.085 47.9996C21.0666 47.9998 21.048 47.9999 21.0293 47.9999V51.9999ZM22.682 51.2335L22.6824 51.2331L19.5339 48.7659L19.5335 48.7663L22.682 51.2335ZM44.8113 47.9999H21.1078V51.9999H44.8113V47.9999ZM42.8113 49.9995V49.9999H46.8113V49.9995H42.8113Z" fill="url(#paint3_linear_187_526)" mask="url(#path-4-inside-2_187_526)"/>
</g>
<g filter="url(#filter2_bd_187_526)">
<mask id="path-6-inside-3_187_526" fill="white">
<path fill-rule="evenodd" clip-rule="evenodd" d="M57.0652 42.9381C57.084 42.9383 57.1029 42.9384 57.1218 42.9384C59.816 42.9384 62 40.7379 62 38.0234C62 35.3089 59.816 33.1084 57.1218 33.1084C57.1029 33.1084 57.084 33.1085 57.0652 33.1087V33.1084H55.8049C55.8504 32.772 55.874 32.4286 55.874 32.0796C55.874 27.9132 52.5217 24.5356 48.3866 24.5356C44.2514 24.5356 40.8992 27.9132 40.8992 32.0796C40.8992 32.4728 40.929 32.8589 40.9865 33.2358C40.6305 33.1525 40.2594 33.1084 39.8782 33.1084C37.184 33.1084 35 35.3089 35 38.0234C35 40.7379 37.184 42.9384 39.8782 42.9384C39.8972 42.9384 39.9162 42.9383 39.9352 42.9381L39.9349 42.9384H57.0652V42.9381Z"/>
</mask>
<path fill-rule="evenodd" clip-rule="evenodd" d="M57.0652 42.9381C57.084 42.9383 57.1029 42.9384 57.1218 42.9384C59.816 42.9384 62 40.7379 62 38.0234C62 35.3089 59.816 33.1084 57.1218 33.1084C57.1029 33.1084 57.084 33.1085 57.0652 33.1087V33.1084H55.8049C55.8504 32.772 55.874 32.4286 55.874 32.0796C55.874 27.9132 52.5217 24.5356 48.3866 24.5356C44.2514 24.5356 40.8992 27.9132 40.8992 32.0796C40.8992 32.4728 40.929 32.8589 40.9865 33.2358C40.6305 33.1525 40.2594 33.1084 39.8782 33.1084C37.184 33.1084 35 35.3089 35 38.0234C35 40.7379 37.184 42.9384 39.8782 42.9384C39.8972 42.9384 39.9162 42.9383 39.9352 42.9381L39.9349 42.9384H57.0652V42.9381Z" fill="url(#paint4_linear_187_526)" shape-rendering="crispEdges"/>
<path d="M57.0652 42.9381L57.088 40.9382C56.5536 40.9321 56.0391 41.1401 55.659 41.5158C55.279 41.8915 55.0652 42.4037 55.0652 42.9381H57.0652ZM57.0652 33.1087H55.0652C55.0652 33.6431 55.279 34.1553 55.6591 34.531C56.0391 34.9067 56.5537 35.1147 57.0881 35.1086L57.0652 33.1087ZM57.0652 33.1084H59.0652C59.0652 32.0038 58.1697 31.1084 57.0652 31.1084V33.1084ZM55.8049 33.1084L53.823 32.8402C53.7456 33.4122 53.9191 33.9897 54.2989 34.4244C54.6787 34.859 55.2277 35.1084 55.8049 35.1084V33.1084ZM40.9865 33.2358L40.5307 35.1832C41.1772 35.3345 41.8566 35.1551 42.3442 34.7044C42.8317 34.2537 43.0638 33.5904 42.9636 32.934L40.9865 33.2358ZM39.9352 42.9381L41.5084 44.1729C41.9836 43.5675 42.0692 42.7431 41.7286 42.053C41.388 41.3628 40.6816 40.9293 39.912 40.9382L39.9352 42.9381ZM39.9349 42.9384L38.3616 41.7036C37.889 42.3057 37.8015 43.1248 38.1363 43.8132C38.4711 44.5015 39.1694 44.9384 39.9349 44.9384V42.9384ZM57.0652 42.9384V44.9384C58.1697 44.9384 59.0652 44.043 59.0652 42.9384H57.0652ZM57.0423 44.938C57.0688 44.9383 57.0953 44.9384 57.1218 44.9384V40.9384C57.1106 40.9384 57.0993 40.9384 57.088 40.9382L57.0423 44.938ZM57.1218 44.9384C60.9347 44.9384 64 41.8282 64 38.0234H60C60 39.6475 58.6972 40.9384 57.1218 40.9384V44.9384ZM64 38.0234C64 34.2186 60.9347 31.1084 57.1218 31.1084V35.1084C58.6972 35.1084 60 36.3993 60 38.0234H64ZM57.1218 31.1084C57.0953 31.1084 57.0687 31.1085 57.0422 31.1088L57.0881 35.1086C57.0993 35.1084 57.1106 35.1084 57.1218 35.1084V31.1084ZM55.0652 33.1084V33.1087H59.0652V33.1084H55.0652ZM55.8049 35.1084H57.0652V31.1084H55.8049V35.1084ZM57.7869 33.3766C57.8444 32.9516 57.874 32.5185 57.874 32.0796H53.874C53.874 32.3386 53.8565 32.5924 53.823 32.8402L57.7869 33.3766ZM57.874 32.0796C57.874 26.8229 53.6405 22.5356 48.3866 22.5356V26.5356C51.403 26.5356 53.874 29.0035 53.874 32.0796H57.874ZM48.3866 22.5356C43.1326 22.5356 38.8992 26.8229 38.8992 32.0796H42.8992C42.8992 29.0035 45.3701 26.5356 48.3866 26.5356V22.5356ZM38.8992 32.0796C38.8992 32.5741 38.9367 33.0611 39.0094 33.5376L42.9636 32.934C42.9213 32.6566 42.8992 32.3714 42.8992 32.0796H38.8992ZM41.4424 31.2885C40.938 31.1704 40.414 31.1084 39.8782 31.1084V35.1084C40.1048 35.1084 40.3229 35.1345 40.5307 35.1832L41.4424 31.2885ZM39.8782 31.1084C36.0653 31.1084 33 34.2186 33 38.0234H37C37 36.3993 38.3028 35.1084 39.8782 35.1084V31.1084ZM33 38.0234C33 41.8282 36.0653 44.9384 39.8782 44.9384V40.9384C38.3028 40.9384 37 39.6475 37 38.0234H33ZM39.8782 44.9384C39.9048 44.9384 39.9315 44.9383 39.9583 44.938L39.912 40.9382C39.9009 40.9384 39.8896 40.9384 39.8782 40.9384V44.9384ZM41.5082 44.1733L41.5084 44.1729L38.3619 41.7033L38.3616 41.7036L41.5082 44.1733ZM57.0652 40.9384H39.9349V44.9384H57.0652V40.9384ZM55.0652 42.9381V42.9384H59.0652V42.9381H55.0652Z" fill="url(#paint5_linear_187_526)" mask="url(#path-6-inside-3_187_526)"/>
</g>
</g>
<defs>
<filter id="filter0_bd_187_526" x="-63" y="-16" width="127" height="118.403" filterUnits="userSpaceOnUse" color-interpolation-filters="sRGB">
<feFlood flood-opacity="0" result="BackgroundImageFix"/>
<feGaussianBlur in="BackgroundImageFix" stdDeviation="7"/>
<feComposite in2="SourceAlpha" operator="in" result="effect1_backgroundBlur_187_526"/>
<feColorMatrix in="SourceAlpha" type="matrix" values="0 0 0 0 0 0 0 0 0 0 0 0 0 0 0 0 0 0 127 0" result="hardAlpha"/>
<feOffset dx="-21" dy="15"/>
<feGaussianBlur stdDeviation="25"/>
<feComposite in2="hardAlpha" operator="out"/>
<feColorMatrix type="matrix" values="0 0 0 0 0.113438 0 0 0 0 0.148981 0 0 0 0 0.275 0 0 0 0.25 0"/>
<feBlend mode="normal" in2="effect1_backgroundBlur_187_526" result="effect2_dropShadow_187_526"/>
<feBlend mode="normal" in="SourceGraphic" in2="effect2_dropShadow_187_526" result="shape"/>
</filter>
<filter id="filter1_bd_187_526" x="-56.7207" y="-10.4644" width="137.361" height="125.464" filterUnits="userSpaceOnUse" color-interpolation-filters="sRGB">
<feFlood flood-opacity="0" result="BackgroundImageFix"/>
<feGaussianBlur in="BackgroundImageFix" stdDeviation="7"/>
<feComposite in2="SourceAlpha" operator="in" result="effect1_backgroundBlur_187_526"/>
<feColorMatrix in="SourceAlpha" type="matrix" values="0 0 0 0 0 0 0 0 0 0 0 0 0 0 0 0 0 0 127 0" result="hardAlpha"/>
<feOffset dx="-21" dy="15"/>
<feGaussianBlur stdDeviation="25"/>
<feComposite in2="hardAlpha" operator="out"/>
<feColorMatrix type="matrix" values="0 0 0 0 0.113725 0 0 0 0 0.14902 0 0 0 0 0.27451 0 0 0 0.25 0"/>
<feBlend mode="normal" in2="effect1_backgroundBlur_187_526" result="effect2_dropShadow_187_526"/>
<feBlend mode="normal" in="SourceGraphic" in2="effect2_dropShadow_187_526" result="shape"/>
</filter>
<filter id="filter2_bd_187_526" x="-36" y="-10.4644" width="127" height="118.403" filterUnits="userSpaceOnUse" color-interpolation-filters="sRGB">
<feFlood flood-opacity="0" result="BackgroundImageFix"/>
<feGaussianBlur in="BackgroundImageFix" stdDeviation="7"/>
<feComposite in2="SourceAlpha" operator="in" result="effect1_backgroundBlur_187_526"/>
<feColorMatrix in="SourceAlpha" type="matrix" values="0 0 0 0 0 0 0 0 0 0 0 0 0 0 0 0 0 0 127 0" result="hardAlpha"/>
<feOffset dx="-21" dy="15"/>
<feGaussianBlur stdDeviation="25"/>
<feComposite in2="hardAlpha" operator="out"/>
<feColorMatrix type="matrix" values="0 0 0 0 0.113438 0 0 0 0 0.148981 0 0 0 0 0.275 0 0 0 0.25 0"/>
<feBlend mode="normal" in2="effect1_backgroundBlur_187_526" result="effect2_dropShadow_187_526"/>
<feBlend mode="normal" in="SourceGraphic" in2="effect2_dropShadow_187_526" result="shape"/>
</filter>
<linearGradient id="paint0_linear_187_526" x1="22.7558" y1="19.5536" x2="22.7558" y2="39.4821" gradientUnits="userSpaceOnUse">
<stop stop-color="white"/>
<stop offset="1" stop-color="white" stop-opacity="0"/>
</linearGradient>
<linearGradient id="paint1_linear_187_526" x1="21.5" y1="19" x2="21.5" y2="37.4028" gradientUnits="userSpaceOnUse">
<stop stop-color="white"/>
<stop offset="1" stop-color="white" stop-opacity="0"/>
</linearGradient>
<linearGradient id="paint2_linear_187_526" x1="32.9595" y1="16.3902" x2="32.9595" y2="53.5586" gradientUnits="userSpaceOnUse">
<stop stop-color="white"/>
<stop offset="1" stop-color="white" stop-opacity="0"/>
</linearGradient>
<linearGradient id="paint3_linear_187_526" x1="32.9595" y1="24.5356" x2="32.9595" y2="49.9999" gradientUnits="userSpaceOnUse">
<stop stop-color="white"/>
<stop offset="1" stop-color="white" stop-opacity="0"/>
</linearGradient>
<linearGradient id="paint4_linear_187_526" x1="49.7558" y1="25.0892" x2="49.7558" y2="45.0178" gradientUnits="userSpaceOnUse">
<stop stop-color="white"/>
<stop offset="1" stop-color="white" stop-opacity="0"/>
</linearGradient>
<linearGradient id="paint5_linear_187_526" x1="48.5" y1="24.5356" x2="48.5" y2="42.9384" gradientUnits="userSpaceOnUse">
<stop stop-color="white"/>
<stop offset="1" stop-color="white" stop-opacity="0"/>
</linearGradient>
<clipPath id="clip0_187_526">
<rect width="70" height="70" rx="10" fill="white"/>
</clipPath>
</defs>
</svg>
