<svg width="70" height="70" viewBox="0 0 70 70" fill="none" xmlns="http://www.w3.org/2000/svg">
<g clip-path="url(#clip0_187_625)">
<rect width="70" height="70" rx="10" fill="#5F90CF"/>
<g filter="url(#filter0_bdd_187_625)">
<path d="M24.1886 41.0246L30.4022 29.5946C30.7523 28.9507 31.4265 28.5498 32.1594 28.5498H36.3125C37.8139 28.5498 38.78 30.1426 38.0861 31.474L35.5407 36.3588C34.8728 37.6405 35.8027 39.1737 37.2481 39.1737C38.9099 39.1737 39.7911 41.1378 38.6861 42.3791L30.0796 52.0481C28.6087 53.7006 25.9401 52.0951 26.711 50.0215L27.9544 46.6767C28.4402 45.3701 27.4738 43.9798 26.0798 43.9798H25.9457C24.4288 43.9798 23.4641 42.3573 24.1886 41.0246Z" fill="url(#paint0_linear_187_625)"/>
<path d="M25.0671 41.5022L31.2808 30.0722L30.4022 29.5946L31.2808 30.0722C31.4558 29.7502 31.7929 29.5498 32.1594 29.5498H36.3125C37.0632 29.5498 37.5463 30.3462 37.1993 31.0119L38.0861 31.474L37.1993 31.0119L34.6539 35.8966C33.639 37.8441 35.052 40.1737 37.2481 40.1737C38.0467 40.1737 38.4702 41.1176 37.9392 41.7142L29.3326 51.3832C28.5972 52.2095 27.2629 51.4068 27.6484 50.3699L28.8918 47.0252C29.6204 45.0652 28.1708 42.9798 26.0798 42.9798H25.9457C25.1873 42.9798 24.7049 42.1685 25.0671 41.5022Z" stroke="url(#paint1_linear_187_625)" stroke-width="2"/>
</g>
<g filter="url(#filter1_bd_187_625)">
<mask id="path-4-inside-1_187_625" fill="white">
<path fill-rule="evenodd" clip-rule="evenodd" d="M42.63 37.1496C42.6579 37.1499 42.6858 37.1501 42.7138 37.1501C46.6979 37.1501 49.9277 33.9036 49.9277 29.8988C49.9277 25.8941 46.6979 22.6476 42.7138 22.6476C42.6858 22.6476 42.6579 22.6477 42.63 22.648V22.6476H40.7663C40.8337 22.1513 40.8684 21.6447 40.8684 21.1298C40.8684 14.983 35.9112 10 29.7961 10C23.681 10 18.7237 14.983 18.7237 21.1298C18.7237 21.7098 18.7678 22.2795 18.8529 22.8356C18.3263 22.7126 17.7776 22.6476 17.2138 22.6476C13.2297 22.6476 10 25.8941 10 29.8988C10 33.9036 13.2297 37.1501 17.2138 37.1501C17.2419 37.1501 17.27 37.1499 17.2981 37.1496L17.2977 37.1501H42.63V37.1496Z"/>
</mask>
<path fill-rule="evenodd" clip-rule="evenodd" d="M42.63 37.1496C42.6579 37.1499 42.6858 37.1501 42.7138 37.1501C46.6979 37.1501 49.9277 33.9036 49.9277 29.8988C49.9277 25.8941 46.6979 22.6476 42.7138 22.6476C42.6858 22.6476 42.6579 22.6477 42.63 22.648V22.6476H40.7663C40.8337 22.1513 40.8684 21.6447 40.8684 21.1298C40.8684 14.983 35.9112 10 29.7961 10C23.681 10 18.7237 14.983 18.7237 21.1298C18.7237 21.7098 18.7678 22.2795 18.8529 22.8356C18.3263 22.7126 17.7776 22.6476 17.2138 22.6476C13.2297 22.6476 10 25.8941 10 29.8988C10 33.9036 13.2297 37.1501 17.2138 37.1501C17.2419 37.1501 17.27 37.1499 17.2981 37.1496L17.2977 37.1501H42.63V37.1496Z" fill="url(#paint2_linear_187_625)" shape-rendering="crispEdges"/>
<path d="M42.63 37.1496L42.6529 35.1497C42.1185 35.1436 41.6039 35.3516 41.2239 35.7273C40.8438 36.103 40.6299 36.6152 40.6299 37.1496H42.63ZM42.63 22.648H40.6299C40.6299 23.1824 40.8438 23.6946 41.2239 24.0703C41.6039 24.446 42.1185 24.654 42.6528 24.6479L42.63 22.648ZM42.63 22.6476H44.63C44.63 21.543 43.7345 20.6476 42.63 20.6476V22.6476ZM40.7663 22.6476L38.7845 22.3787C38.7069 22.9508 38.8803 23.5285 39.2601 23.9633C39.6399 24.3981 40.189 24.6476 40.7663 24.6476V22.6476ZM18.8529 22.8356L18.3981 24.7831C19.0446 24.9341 19.7239 24.7545 20.2112 24.3036C20.6985 23.8527 20.9303 23.1893 20.8299 22.5331L18.8529 22.8356ZM17.2981 37.1496L18.871 38.385C19.3464 37.7796 19.4323 36.9552 19.0918 36.2648C18.7513 35.5745 18.0448 35.1409 17.2751 35.1497L17.2981 37.1496ZM17.2977 37.1501L15.7249 35.9147C15.252 36.5168 15.1643 37.336 15.499 38.0245C15.8337 38.713 16.5321 39.1501 17.2977 39.1501V37.1501ZM42.63 37.1501V39.1501C43.7345 39.1501 44.63 38.2546 44.63 37.1501H42.63ZM42.607 39.1495C42.6426 39.1499 42.6782 39.1501 42.7138 39.1501V35.1501C42.6935 35.1501 42.6732 35.15 42.6529 35.1497L42.607 39.1495ZM42.7138 39.1501C47.8122 39.1501 51.9277 34.9984 51.9277 29.8988H47.9277C47.9277 32.8088 45.5836 35.1501 42.7138 35.1501V39.1501ZM51.9277 29.8988C51.9277 24.7993 47.8122 20.6476 42.7138 20.6476V24.6476C45.5836 24.6476 47.9277 26.9888 47.9277 29.8988H51.9277ZM42.7138 20.6476C42.6782 20.6476 42.6426 20.6478 42.6071 20.6482L42.6528 24.6479C42.6732 24.6477 42.6935 24.6476 42.7138 24.6476V20.6476ZM40.6299 22.6476V22.648H44.63V22.6476H40.6299ZM40.7663 24.6476H42.63V20.6476H40.7663V24.6476ZM42.7482 22.9164C42.8276 22.3313 42.8684 21.7348 42.8684 21.1298H38.8684C38.8684 21.5545 38.8398 21.9713 38.7845 22.3787L42.7482 22.9164ZM42.8684 21.1298C42.8684 13.8882 37.0255 8 29.7961 8V12C34.7968 12 38.8684 16.0778 38.8684 21.1298H42.8684ZM29.7961 8C22.5666 8 16.7237 13.8882 16.7237 21.1298H20.7237C20.7237 16.0778 24.7953 12 29.7961 12V8ZM16.7237 21.1298C16.7237 21.8115 16.7756 22.4822 16.8759 23.138L20.8299 22.5331C20.7601 22.0768 20.7237 21.6082 20.7237 21.1298H16.7237ZM19.3078 20.888C18.6332 20.7304 17.9319 20.6476 17.2138 20.6476V24.6476C17.6234 24.6476 18.0195 24.6947 18.3981 24.7831L19.3078 20.888ZM17.2138 20.6476C12.1154 20.6476 8 24.7993 8 29.8988H12C12 26.9888 14.3441 24.6476 17.2138 24.6476V20.6476ZM8 29.8988C8 34.9984 12.1154 39.1501 17.2138 39.1501V35.1501C14.3441 35.1501 12 32.8088 12 29.8988H8ZM17.2138 39.1501C17.2496 39.1501 17.2854 39.1499 17.3211 39.1495L17.2751 35.1497C17.2547 35.15 17.2343 35.1501 17.2138 35.1501V39.1501ZM18.8706 38.3854L18.871 38.385L15.7252 35.9142L15.7249 35.9147L18.8706 38.3854ZM42.63 35.1501H17.2977V39.1501H42.63V35.1501ZM40.6299 37.1496V37.1501H44.63V37.1496H40.6299Z" fill="url(#paint3_linear_187_625)" mask="url(#path-4-inside-1_187_625)"/>
</g>
<g filter="url(#filter2_bd_187_625)">
<mask id="path-6-inside-2_187_625" fill="white">
<path fill-rule="evenodd" clip-rule="evenodd" d="M55.7258 29.6207C55.746 29.6209 55.7662 29.6211 55.7865 29.6211C58.6657 29.6211 60.9998 27.2749 60.9998 24.3807C60.9998 21.4865 58.6657 19.1402 55.7865 19.1402C55.7662 19.1402 55.746 19.1404 55.7258 19.1406V19.1402H54.379C54.4277 18.7816 54.4528 18.4155 54.4528 18.0434C54.4528 13.6012 50.8703 10 46.4509 10C42.0316 10 38.4491 13.6012 38.4491 18.0434C38.4491 18.4626 38.481 18.8742 38.5424 19.2761C38.1619 19.1872 37.7653 19.1402 37.3579 19.1402C34.4786 19.1402 32.1445 21.4865 32.1445 24.3807C32.1445 27.2749 34.4786 29.6211 37.3579 29.6211C37.3782 29.6211 37.3985 29.6209 37.4188 29.6207L37.4185 29.6211H55.7258V29.6207Z"/>
</mask>
<path fill-rule="evenodd" clip-rule="evenodd" d="M55.7258 29.6207C55.746 29.6209 55.7662 29.6211 55.7865 29.6211C58.6657 29.6211 60.9998 27.2749 60.9998 24.3807C60.9998 21.4865 58.6657 19.1402 55.7865 19.1402C55.7662 19.1402 55.746 19.1404 55.7258 19.1406V19.1402H54.379C54.4277 18.7816 54.4528 18.4155 54.4528 18.0434C54.4528 13.6012 50.8703 10 46.4509 10C42.0316 10 38.4491 13.6012 38.4491 18.0434C38.4491 18.4626 38.481 18.8742 38.5424 19.2761C38.1619 19.1872 37.7653 19.1402 37.3579 19.1402C34.4786 19.1402 32.1445 21.4865 32.1445 24.3807C32.1445 27.2749 34.4786 29.6211 37.3579 29.6211C37.3782 29.6211 37.3985 29.6209 37.4188 29.6207L37.4185 29.6211H55.7258V29.6207Z" fill="url(#paint4_linear_187_625)" shape-rendering="crispEdges"/>
<path d="M55.7258 29.6207L55.7487 27.6208C55.2143 27.6147 54.6998 27.8227 54.3197 28.1984C53.9397 28.5741 53.7258 29.0863 53.7258 29.6207H55.7258ZM55.7258 19.1406H53.7258C53.7258 19.675 53.9397 20.1872 54.3197 20.5629C54.6998 20.9386 55.2143 21.1466 55.7487 21.1405L55.7258 19.1406ZM55.7258 19.1402H57.7258C57.7258 18.0357 56.8304 17.1402 55.7258 17.1402V19.1402ZM54.379 19.1402L52.3972 18.8714C52.3196 19.4435 52.493 20.0212 52.8728 20.456C53.2526 20.8908 53.8017 21.1402 54.379 21.1402V19.1402ZM38.5424 19.2761L38.0876 21.2237C38.7341 21.3747 39.4134 21.195 39.9007 20.7441C40.388 20.2932 40.6199 19.6299 40.5194 18.9736L38.5424 19.2761ZM37.4188 29.6207L38.9938 30.8533C39.4678 30.2477 39.5525 29.4239 39.2117 28.7344C38.8708 28.045 38.1649 27.612 37.3958 27.6208L37.4188 29.6207ZM37.4185 29.6211L35.8435 28.3884C35.372 28.9908 35.2855 29.8094 35.6206 30.4971C35.9556 31.1847 36.6536 31.6211 37.4185 31.6211V29.6211ZM55.7258 29.6211V31.6211C56.8304 31.6211 57.7258 30.7256 57.7258 29.6211H55.7258ZM55.703 31.6206C55.7307 31.6209 55.7586 31.6211 55.7865 31.6211V27.6211C55.7739 27.6211 55.7613 27.621 55.7487 27.6208L55.703 31.6206ZM55.7865 31.6211C59.78 31.6211 62.9998 28.3696 62.9998 24.3807H58.9998C58.9998 26.1801 57.5514 27.6211 55.7865 27.6211V31.6211ZM62.9998 24.3807C62.9998 20.3917 59.78 17.1402 55.7865 17.1402V21.1402C57.5514 21.1402 58.9998 22.5813 58.9998 24.3807H62.9998ZM55.7865 17.1402C55.7586 17.1402 55.7307 17.1404 55.703 17.1407L55.7487 21.1405C55.7613 21.1403 55.7739 21.1402 55.7865 21.1402V17.1402ZM53.7258 19.1402V19.1406H57.7258V19.1402H53.7258ZM54.379 21.1402H55.7258V17.1402H54.379V21.1402ZM56.3609 19.4091C56.4216 18.9616 56.4528 18.5056 56.4528 18.0434H52.4528C52.4528 18.3253 52.4338 18.6016 52.3972 18.8714L56.3609 19.4091ZM56.4528 18.0434C56.4528 12.5064 51.9846 8 46.4509 8V12C49.7559 12 52.4528 14.696 52.4528 18.0434H56.4528ZM46.4509 8C40.9173 8 36.4491 12.5064 36.4491 18.0434H40.4491C40.4491 14.696 43.1459 12 46.4509 12V8ZM36.4491 18.0434C36.4491 18.5642 36.4887 19.077 36.5655 19.5786L40.5194 18.9736C40.4732 18.6715 40.4491 18.361 40.4491 18.0434H36.4491ZM38.9973 17.3285C38.4687 17.2051 37.9196 17.1402 37.3579 17.1402V21.1402C37.6111 21.1402 37.855 21.1694 38.0876 21.2237L38.9973 17.3285ZM37.3579 17.1402C33.3643 17.1402 30.1445 20.3917 30.1445 24.3807H34.1445C34.1445 22.5813 35.5929 21.1402 37.3579 21.1402V17.1402ZM30.1445 24.3807C30.1445 28.3696 33.3643 31.6211 37.3579 31.6211V27.6211C35.5929 27.6211 34.1445 26.1801 34.1445 24.3807H30.1445ZM37.3579 31.6211C37.386 31.6211 37.4139 31.6209 37.4417 31.6206L37.3958 27.6208C37.3831 27.621 37.3704 27.6211 37.3579 27.6211V31.6211ZM38.9935 30.8537L38.9938 30.8533L35.8438 28.3881L35.8435 28.3884L38.9935 30.8537ZM55.7258 27.6211H37.4185V31.6211H55.7258V27.6211ZM53.7258 29.6207V29.6211H57.7258V29.6207H53.7258Z" fill="url(#paint5_linear_187_625)" mask="url(#path-6-inside-2_187_625)"/>
</g>
</g>
<defs>
<filter id="filter0_bdd_187_625" x="-47.0566" y="-32.4502" width="147.234" height="150.182" filterUnits="userSpaceOnUse" color-interpolation-filters="sRGB">
<feFlood flood-opacity="0" result="BackgroundImageFix"/>
<feGaussianBlur in="BackgroundImageFix" stdDeviation="7"/>
<feComposite in2="SourceAlpha" operator="in" result="effect1_backgroundBlur_187_625"/>
<feColorMatrix in="SourceAlpha" type="matrix" values="0 0 0 0 0 0 0 0 0 0 0 0 0 0 0 0 0 0 127 0" result="hardAlpha"/>
<feOffset dx="-21" dy="15"/>
<feGaussianBlur stdDeviation="25"/>
<feComposite in2="hardAlpha" operator="out"/>
<feColorMatrix type="matrix" values="0 0 0 0 0.113438 0 0 0 0 0.148981 0 0 0 0 0.275 0 0 0 0.25 0"/>
<feBlend mode="normal" in2="effect1_backgroundBlur_187_625" result="effect2_dropShadow_187_625"/>
<feColorMatrix in="SourceAlpha" type="matrix" values="0 0 0 0 0 0 0 0 0 0 0 0 0 0 0 0 0 0 127 0" result="hardAlpha"/>
<feOffset/>
<feGaussianBlur stdDeviation="30.5"/>
<feComposite in2="hardAlpha" operator="out"/>
<feColorMatrix type="matrix" values="0 0 0 0 1 0 0 0 0 0.721569 0 0 0 0 0.00392157 0 0 0 0.49 0"/>
<feBlend mode="normal" in2="effect2_dropShadow_187_625" result="effect3_dropShadow_187_625"/>
<feBlend mode="normal" in="SourceGraphic" in2="effect3_dropShadow_187_625" result="shape"/>
</filter>
<filter id="filter1_bd_187_625" x="-61" y="-25" width="139.928" height="127.15" filterUnits="userSpaceOnUse" color-interpolation-filters="sRGB">
<feFlood flood-opacity="0" result="BackgroundImageFix"/>
<feGaussianBlur in="BackgroundImageFix" stdDeviation="7"/>
<feComposite in2="SourceAlpha" operator="in" result="effect1_backgroundBlur_187_625"/>
<feColorMatrix in="SourceAlpha" type="matrix" values="0 0 0 0 0 0 0 0 0 0 0 0 0 0 0 0 0 0 127 0" result="hardAlpha"/>
<feOffset dx="-21" dy="15"/>
<feGaussianBlur stdDeviation="25"/>
<feComposite in2="hardAlpha" operator="out"/>
<feColorMatrix type="matrix" values="0 0 0 0 0.113725 0 0 0 0 0.14902 0 0 0 0 0.27451 0 0 0 0.25 0"/>
<feBlend mode="normal" in2="effect1_backgroundBlur_187_625" result="effect2_dropShadow_187_625"/>
<feBlend mode="normal" in="SourceGraphic" in2="effect2_dropShadow_187_625" result="shape"/>
</filter>
<filter id="filter2_bd_187_625" x="-38.8555" y="-25" width="128.855" height="119.621" filterUnits="userSpaceOnUse" color-interpolation-filters="sRGB">
<feFlood flood-opacity="0" result="BackgroundImageFix"/>
<feGaussianBlur in="BackgroundImageFix" stdDeviation="7"/>
<feComposite in2="SourceAlpha" operator="in" result="effect1_backgroundBlur_187_625"/>
<feColorMatrix in="SourceAlpha" type="matrix" values="0 0 0 0 0 0 0 0 0 0 0 0 0 0 0 0 0 0 127 0" result="hardAlpha"/>
<feOffset dx="-21" dy="15"/>
<feGaussianBlur stdDeviation="25"/>
<feComposite in2="hardAlpha" operator="out"/>
<feColorMatrix type="matrix" values="0 0 0 0 0.113438 0 0 0 0 0.148981 0 0 0 0 0.275 0 0 0 0.25 0"/>
<feBlend mode="normal" in2="effect1_backgroundBlur_187_625" result="effect2_dropShadow_187_625"/>
<feBlend mode="normal" in="SourceGraphic" in2="effect2_dropShadow_187_625" result="shape"/>
</filter>
<linearGradient id="paint0_linear_187_625" x1="33.906" y1="30.4048" x2="29.6705" y2="48.692" gradientUnits="userSpaceOnUse">
<stop stop-color="#FF4D00"/>
<stop offset="1" stop-color="#FFB800"/>
</linearGradient>
<linearGradient id="paint1_linear_187_625" x1="28.286" y1="48.4486" x2="35.9843" y2="32.0374" gradientUnits="userSpaceOnUse">
<stop stop-color="white"/>
<stop offset="1" stop-color="white" stop-opacity="0"/>
</linearGradient>
<linearGradient id="paint2_linear_187_625" x1="29.9638" y1="1.31535" x2="29.9638" y2="40.9443" gradientUnits="userSpaceOnUse">
<stop stop-color="white"/>
<stop offset="1" stop-color="white" stop-opacity="0"/>
</linearGradient>
<linearGradient id="paint3_linear_187_625" x1="29.9638" y1="10" x2="29.9638" y2="37.1501" gradientUnits="userSpaceOnUse">
<stop stop-color="white"/>
<stop offset="1" stop-color="white" stop-opacity="0"/>
</linearGradient>
<linearGradient id="paint4_linear_187_625" x1="47.9143" y1="10.5902" x2="47.9143" y2="31.8381" gradientUnits="userSpaceOnUse">
<stop stop-color="white"/>
<stop offset="1" stop-color="white" stop-opacity="0"/>
</linearGradient>
<linearGradient id="paint5_linear_187_625" x1="46.5722" y1="10" x2="46.5722" y2="29.6211" gradientUnits="userSpaceOnUse">
<stop stop-color="white"/>
<stop offset="1" stop-color="white" stop-opacity="0"/>
</linearGradient>
<clipPath id="clip0_187_625">
<rect width="70" height="70" rx="10" fill="white"/>
</clipPath>
</defs>
</svg>
