<svg width="70" height="70" viewBox="0 0 70 70" fill="none" xmlns="http://www.w3.org/2000/svg">
<g clip-path="url(#clip0_187_627)">
<rect width="70" height="70" rx="10" fill="#5F90CF"/>
<g filter="url(#filter0_bd_187_627)">
<mask id="path-2-inside-1_187_627" fill="white">
<path fill-rule="evenodd" clip-rule="evenodd" d="M30.291 28.1725C30.3109 28.1727 30.3308 28.1729 30.3508 28.1729C33.1946 28.1729 35.5 25.8802 35.5 23.0522C35.5 20.2241 33.1946 17.9315 30.3508 17.9315C30.3308 17.9315 30.3109 17.9316 30.291 17.9318V17.9315H28.9608C29.0088 17.581 29.0336 17.2232 29.0336 16.8597C29.0336 12.5189 25.4952 9 21.1303 9C16.7653 9 13.2269 12.5189 13.2269 16.8597C13.2269 17.2693 13.2584 17.6715 13.3191 18.0642C12.9433 17.9774 12.5516 17.9315 12.1492 17.9315C9.30536 17.9315 7 20.2241 7 23.0522C7 25.8802 9.30536 28.1729 12.1492 28.1729C12.1692 28.1729 12.1893 28.1727 12.2093 28.1725L12.209 28.1729H30.291V28.1725Z"/>
</mask>
<path fill-rule="evenodd" clip-rule="evenodd" d="M30.291 28.1725C30.3109 28.1727 30.3308 28.1729 30.3508 28.1729C33.1946 28.1729 35.5 25.8802 35.5 23.0522C35.5 20.2241 33.1946 17.9315 30.3508 17.9315C30.3308 17.9315 30.3109 17.9316 30.291 17.9318V17.9315H28.9608C29.0088 17.581 29.0336 17.2232 29.0336 16.8597C29.0336 12.5189 25.4952 9 21.1303 9C16.7653 9 13.2269 12.5189 13.2269 16.8597C13.2269 17.2693 13.2584 17.6715 13.3191 18.0642C12.9433 17.9774 12.5516 17.9315 12.1492 17.9315C9.30536 17.9315 7 20.2241 7 23.0522C7 25.8802 9.30536 28.1729 12.1492 28.1729C12.1692 28.1729 12.1893 28.1727 12.2093 28.1725L12.209 28.1729H30.291V28.1725Z" fill="url(#paint0_linear_187_627)" shape-rendering="crispEdges"/>
<path d="M30.291 28.1725L30.3135 26.1726C29.7792 26.1666 29.2647 26.3746 28.8848 26.7503C28.5048 27.126 28.291 27.6382 28.291 28.1725H30.291ZM30.291 17.9318H28.291C28.291 18.4662 28.5048 18.9783 28.8848 19.354C29.2648 19.7297 29.7793 19.9377 30.3136 19.9317L30.291 17.9318ZM30.291 17.9315H32.291C32.291 16.8269 31.3955 15.9315 30.291 15.9315V17.9315ZM28.9608 17.9315L26.9793 17.6598C26.9008 18.2322 27.0737 18.8107 27.4535 19.2461C27.8334 19.6816 28.3829 19.9315 28.9608 19.9315V17.9315ZM13.3191 18.0642L12.8689 20.0129C13.5155 20.1623 14.1941 19.9812 14.6803 19.5295C15.1665 19.0778 15.3971 18.4144 15.2956 17.7585L13.3191 18.0642ZM12.2093 28.1725L13.7751 29.4168C14.2552 28.8127 14.3449 27.9861 14.0055 27.293C13.6662 26.5999 12.9583 26.1639 12.1866 26.1726L12.2093 28.1725ZM12.209 28.1729L10.6432 26.9285C10.1656 27.5295 10.0742 28.3508 10.4078 29.0422C10.7415 29.7335 11.4414 30.1729 12.209 30.1729V28.1729ZM30.291 28.1729V30.1729C31.3955 30.1729 32.291 29.2774 32.291 28.1729H30.291ZM30.2684 30.1724C30.2957 30.1727 30.3232 30.1729 30.3508 30.1729V26.1729C30.3385 26.1729 30.3261 26.1728 30.3135 26.1726L30.2684 30.1724ZM30.3508 30.1729C34.2887 30.1729 37.5 26.9952 37.5 23.0522H33.5C33.5 24.7652 32.1005 26.1729 30.3508 26.1729V30.1729ZM37.5 23.0522C37.5 19.1091 34.2887 15.9315 30.3508 15.9315V19.9315C32.1005 19.9315 33.5 21.3391 33.5 23.0522H37.5ZM30.3508 15.9315C30.3233 15.9315 30.2958 15.9316 30.2683 15.9319L30.3136 19.9317C30.326 19.9315 30.3384 19.9315 30.3508 19.9315V15.9315ZM28.291 17.9315V17.9318H32.291V17.9315H28.291ZM28.9608 19.9315H30.291V15.9315H28.9608V19.9315ZM30.9422 18.2031C31.0026 17.7629 31.0336 17.3144 31.0336 16.8597H27.0336C27.0336 17.1321 27.015 17.3991 26.9793 17.6598L30.9422 18.2031ZM31.0336 16.8597C31.0336 11.4039 26.5893 7 21.1303 7V11C24.4011 11 27.0336 13.6339 27.0336 16.8597H31.0336ZM21.1303 7C15.6712 7 11.2269 11.4039 11.2269 16.8597H15.2269C15.2269 13.6339 17.8595 11 21.1303 11V7ZM11.2269 16.8597C11.2269 17.372 11.2663 17.8764 11.3426 18.3699L15.2956 17.7585C15.2505 17.4666 15.2269 17.1666 15.2269 16.8597H11.2269ZM13.7694 16.1156C13.2469 15.9948 12.7042 15.9315 12.1492 15.9315V19.9315C12.399 19.9315 12.6397 19.9599 12.8689 20.0129L13.7694 16.1156ZM12.1492 15.9315C8.21125 15.9315 5 19.1091 5 23.0522H9C9 21.3391 10.3995 19.9315 12.1492 19.9315V15.9315ZM5 23.0522C5 26.9952 8.21125 30.1729 12.1492 30.1729V26.1729C10.3995 26.1729 9 24.7652 9 23.0522H5ZM12.1492 30.1729C12.1768 30.1729 12.2044 30.1727 12.232 30.1724L12.1866 26.1726C12.1741 26.1728 12.1616 26.1729 12.1492 26.1729V30.1729ZM13.7748 29.4172L13.7751 29.4168L10.6435 26.9282L10.6432 26.9285L13.7748 29.4172ZM30.291 26.1729H12.209V30.1729H30.291V26.1729ZM28.291 28.1725V28.1729H32.291V28.1725H28.291Z" fill="url(#paint1_linear_187_627)" mask="url(#path-2-inside-1_187_627)"/>
</g>
<g filter="url(#filter1_bd_187_627)">
<mask id="path-4-inside-2_187_627" fill="white">
<path fill-rule="evenodd" clip-rule="evenodd" d="M45.8552 41.2967C45.8828 41.2971 45.9104 41.2972 45.938 41.2972C49.8731 41.2972 53.063 38.1249 53.063 34.2116C53.063 30.2983 49.8731 27.126 45.938 27.126C45.9104 27.126 45.8828 27.1261 45.8552 27.1264V27.126H44.0145C44.081 26.6411 44.1154 26.146 44.1154 25.6429C44.1154 19.6365 39.2191 14.7673 33.1793 14.7673C27.1395 14.7673 22.2433 19.6365 22.2433 25.6429C22.2433 26.2097 22.2868 26.7663 22.3709 27.3097C21.8508 27.1895 21.3088 27.126 20.752 27.126C16.8169 27.126 13.627 30.2983 13.627 34.2116C13.627 38.1249 16.8169 41.2972 20.752 41.2972C20.7797 41.2972 20.8075 41.297 20.8352 41.2967L20.8348 41.2972H45.8552V41.2967Z"/>
</mask>
<path fill-rule="evenodd" clip-rule="evenodd" d="M45.8552 41.2967C45.8828 41.2971 45.9104 41.2972 45.938 41.2972C49.8731 41.2972 53.063 38.1249 53.063 34.2116C53.063 30.2983 49.8731 27.126 45.938 27.126C45.9104 27.126 45.8828 27.1261 45.8552 27.1264V27.126H44.0145C44.081 26.6411 44.1154 26.146 44.1154 25.6429C44.1154 19.6365 39.2191 14.7673 33.1793 14.7673C27.1395 14.7673 22.2433 19.6365 22.2433 25.6429C22.2433 26.2097 22.2868 26.7663 22.3709 27.3097C21.8508 27.1895 21.3088 27.126 20.752 27.126C16.8169 27.126 13.627 30.2983 13.627 34.2116C13.627 38.1249 16.8169 41.2972 20.752 41.2972C20.7797 41.2972 20.8075 41.297 20.8352 41.2967L20.8348 41.2972H45.8552V41.2967Z" fill="url(#paint2_linear_187_627)" shape-rendering="crispEdges"/>
<path d="M45.8552 41.2967L45.8778 39.2969C45.3435 39.2908 44.829 39.4988 44.449 39.8745C44.069 40.2502 43.8552 40.7624 43.8552 41.2967H45.8552ZM45.8552 27.1264H43.8552C43.8552 27.6608 44.069 28.1729 44.449 28.5486C44.829 28.9243 45.3435 29.1324 45.8778 29.1263L45.8552 27.1264ZM45.8552 27.126H47.8552C47.8552 26.0214 46.9597 25.126 45.8552 25.126V27.126ZM44.0145 27.126L42.0331 26.8543C41.9546 27.4268 42.1275 28.0052 42.5073 28.4406C42.8871 28.8761 43.4367 29.126 44.0145 29.126V27.126ZM22.3709 27.3097L21.9206 29.2583C22.5672 29.4077 23.2458 29.2267 23.7321 28.775C24.2183 28.3233 24.4488 27.6599 24.3474 27.004L22.3709 27.3097ZM20.8352 41.2967L22.4012 42.5407C22.8812 41.9365 22.9707 41.11 22.6313 40.417C22.2919 39.724 21.5841 39.2881 20.8125 39.2969L20.8352 41.2967ZM20.8348 41.2972L19.2688 40.0532C18.7913 40.6542 18.7 41.4755 19.0337 42.1667C19.3674 42.8579 20.0672 43.2972 20.8348 43.2972V41.2972ZM45.8552 41.2972V43.2972C46.9597 43.2972 47.8552 42.4018 47.8552 41.2972H45.8552ZM45.8325 43.2966C45.8677 43.297 45.9028 43.2972 45.938 43.2972V39.2972C45.9179 39.2972 45.8979 39.2971 45.8778 39.2969L45.8325 43.2966ZM45.938 43.2972C50.9672 43.2972 55.063 39.2399 55.063 34.2116H51.063C51.063 37.0099 48.779 39.2972 45.938 39.2972V43.2972ZM55.063 34.2116C55.063 29.1833 50.9672 25.126 45.938 25.126V29.126C48.779 29.126 51.063 31.4133 51.063 34.2116H55.063ZM45.938 25.126C45.9028 25.126 45.8677 25.1262 45.8325 25.1266L45.8778 29.1263C45.8979 29.1261 45.9179 29.126 45.938 29.126V25.126ZM43.8552 27.126V27.1264H47.8552V27.126H43.8552ZM44.0145 29.126H45.8552V25.126H44.0145V29.126ZM45.996 27.3976C46.0748 26.823 46.1154 26.2371 46.1154 25.6429H42.1154C42.1154 26.0548 42.0872 26.4592 42.0331 26.8543L45.996 27.3976ZM46.1154 25.6429C46.1154 18.5215 40.3132 12.7673 33.1793 12.7673V16.7673C38.125 16.7673 42.1154 20.7515 42.1154 25.6429H46.1154ZM33.1793 12.7673C26.0454 12.7673 20.2433 18.5215 20.2433 25.6429H24.2433C24.2433 20.7515 28.2336 16.7673 33.1793 16.7673V12.7673ZM20.2433 25.6429C20.2433 26.3124 20.2948 26.9712 20.3944 27.6153L24.3474 27.004C24.2789 26.5614 24.2433 26.107 24.2433 25.6429H20.2433ZM22.8211 25.361C22.1544 25.207 21.4614 25.126 20.752 25.126V29.126C21.1563 29.126 21.5472 29.172 21.9206 29.2583L22.8211 25.361ZM20.752 25.126C15.7228 25.126 11.627 29.1833 11.627 34.2116H15.627C15.627 31.4133 17.911 29.126 20.752 29.126V25.126ZM11.627 34.2116C11.627 39.2399 15.7228 43.2972 20.752 43.2972V39.2972C17.911 39.2972 15.627 37.0099 15.627 34.2116H11.627ZM20.752 43.2972C20.7873 43.2972 20.8226 43.297 20.8579 43.2966L20.8125 39.2969C20.7923 39.2971 20.7721 39.2972 20.752 39.2972V43.2972ZM22.4008 42.5412L22.4012 42.5407L19.2691 40.0527L19.2688 40.0532L22.4008 42.5412ZM45.8552 39.2972H20.8348V43.2972H45.8552V39.2972ZM43.8552 41.2967V41.2972H47.8552V41.2967H43.8552Z" fill="url(#paint3_linear_187_627)" mask="url(#path-4-inside-2_187_627)"/>
</g>
<g filter="url(#filter2_bdd_187_627)">
<path d="M41.9329 41.3826L48.0198 30.305C48.3712 29.6656 49.043 29.2682 49.7726 29.2682H53.8091C55.3144 29.2682 56.2801 30.8684 55.5786 32.2002L53.1142 36.879C52.4514 38.1374 53.3639 39.6494 54.7862 39.6494C56.4222 39.6494 57.2853 41.587 56.1911 42.8032L47.804 52.1252C46.3256 53.7683 43.6675 52.1531 44.445 50.084L45.5853 47.0492C46.0767 45.7415 45.0975 44.3457 43.7005 44.3457C42.1796 44.3457 41.2005 42.7155 41.9329 41.3826Z" fill="url(#paint4_linear_187_627)"/>
<path d="M42.8093 41.8642L48.8962 30.7866C49.0719 30.4669 49.4078 30.2682 49.7726 30.2682H53.8091C54.5617 30.2682 55.0446 31.0683 54.6939 31.7342L52.2295 36.413C51.2159 38.3373 52.6113 40.6494 54.7862 40.6494C55.5565 40.6494 55.9629 41.5617 55.4477 42.1343L47.0606 51.4564C46.3214 52.2779 44.9923 51.4703 45.3811 50.4358L46.5214 47.401C47.2619 45.4303 45.7862 43.3457 43.7005 43.3457C42.9276 43.3457 42.4491 42.5197 42.8093 41.8642Z" stroke="url(#paint5_linear_187_627)" stroke-width="2"/>
</g>
<g filter="url(#filter3_bd_187_627)">
<mask id="path-8-inside-3_187_627" fill="white">
<path fill-rule="evenodd" clip-rule="evenodd" d="M58.791 33.9398C58.8109 33.9401 58.8309 33.9402 58.8508 33.9402C61.6946 33.9402 64 31.6476 64 28.8195C64 25.9914 61.6946 23.6988 58.8508 23.6988C58.8309 23.6988 58.8109 23.6989 58.791 23.6991V23.6988H57.4608C57.5088 23.3483 57.5336 22.9906 57.5336 22.627C57.5336 18.2862 53.9952 14.7673 49.6303 14.7673C45.2653 14.7673 41.7269 18.2862 41.7269 22.627C41.7269 23.0366 41.7584 23.4389 41.8191 23.8315C41.4433 23.7447 41.0516 23.6988 40.6492 23.6988C37.8054 23.6988 35.5 25.9914 35.5 28.8195C35.5 31.6476 37.8054 33.9402 40.6492 33.9402C40.6692 33.9402 40.6893 33.9401 40.7093 33.9398L40.7091 33.9402H58.791V33.9398Z"/>
</mask>
<path fill-rule="evenodd" clip-rule="evenodd" d="M58.791 33.9398C58.8109 33.9401 58.8309 33.9402 58.8508 33.9402C61.6946 33.9402 64 31.6476 64 28.8195C64 25.9914 61.6946 23.6988 58.8508 23.6988C58.8309 23.6988 58.8109 23.6989 58.791 23.6991V23.6988H57.4608C57.5088 23.3483 57.5336 22.9906 57.5336 22.627C57.5336 18.2862 53.9952 14.7673 49.6303 14.7673C45.2653 14.7673 41.7269 18.2862 41.7269 22.627C41.7269 23.0366 41.7584 23.4389 41.8191 23.8315C41.4433 23.7447 41.0516 23.6988 40.6492 23.6988C37.8054 23.6988 35.5 25.9914 35.5 28.8195C35.5 31.6476 37.8054 33.9402 40.6492 33.9402C40.6692 33.9402 40.6893 33.9401 40.7093 33.9398L40.7091 33.9402H58.791V33.9398Z" fill="url(#paint6_linear_187_627)" shape-rendering="crispEdges"/>
<path d="M58.791 33.9398L58.8136 31.94C58.2793 31.9339 57.7648 32.142 57.3848 32.5177C57.0048 32.8934 56.791 33.4055 56.791 33.9398H58.791ZM58.791 23.6991H56.791C56.791 24.2335 57.0048 24.7456 57.3848 25.1213C57.7648 25.497 58.2793 25.705 58.8136 25.699L58.791 23.6991ZM58.791 23.6988H60.791C60.791 22.5942 59.8956 21.6988 58.791 21.6988V23.6988ZM57.4608 23.6988L55.4793 23.4271C55.4008 23.9996 55.5737 24.578 55.9535 25.0134C56.3334 25.4489 56.8829 25.6988 57.4608 25.6988V23.6988ZM41.8191 23.8315L41.3689 25.7802C42.0155 25.9296 42.6941 25.7485 43.1803 25.2968C43.6665 24.8452 43.8971 24.1817 43.7956 23.5259L41.8191 23.8315ZM40.7093 33.9398L42.2774 35.1812C42.756 34.5767 42.8445 33.7508 42.5047 33.0586C42.165 32.3664 41.4575 31.9312 40.6865 31.94L40.7093 33.9398ZM40.7091 33.9402L39.141 32.6988C38.6649 33.3001 38.5747 34.1207 38.9087 34.8112C39.2427 35.5016 39.9421 35.9402 40.7091 35.9402V33.9402ZM58.791 33.9402V35.9402C59.8956 35.9402 60.791 35.0448 60.791 33.9402H58.791ZM58.7684 35.9397C58.7957 35.94 58.8232 35.9402 58.8508 35.9402V31.9402C58.8385 31.9402 58.8261 31.9401 58.8136 31.94L58.7684 35.9397ZM58.8508 35.9402C62.7887 35.9402 66 32.7626 66 28.8195H62C62 30.5326 60.6005 31.9402 58.8508 31.9402V35.9402ZM66 28.8195C66 24.8764 62.7887 21.6988 58.8508 21.6988V25.6988C60.6005 25.6988 62 27.1064 62 28.8195H66ZM58.8508 21.6988C58.8233 21.6988 58.7958 21.6989 58.7684 21.6992L58.8136 25.699C58.826 25.6988 58.8384 25.6988 58.8508 25.6988V21.6988ZM56.791 23.6988V23.6991H60.791V23.6988H56.791ZM57.4608 25.6988H58.791V21.6988H57.4608V25.6988ZM59.4422 23.9704C59.5026 23.5302 59.5336 23.0817 59.5336 22.627H55.5336C55.5336 22.8994 55.515 23.1664 55.4793 23.4271L59.4422 23.9704ZM59.5336 22.627C59.5336 17.1712 55.0893 12.7673 49.6303 12.7673V16.7673C52.9011 16.7673 55.5336 19.4012 55.5336 22.627H59.5336ZM49.6303 12.7673C44.1712 12.7673 39.7269 17.1712 39.7269 22.627H43.7269C43.7269 19.4012 46.3595 16.7673 49.6303 16.7673V12.7673ZM39.7269 22.627C39.7269 23.1393 39.7663 23.6438 39.8426 24.1372L43.7956 23.5259C43.7505 23.234 43.7269 22.9339 43.7269 22.627H39.7269ZM42.2694 21.8829C41.7469 21.7621 41.2042 21.6988 40.6492 21.6988V25.6988C40.899 25.6988 41.1397 25.7272 41.3689 25.7802L42.2694 21.8829ZM40.6492 21.6988C36.7113 21.6988 33.5 24.8764 33.5 28.8195H37.5C37.5 27.1064 38.8995 25.6988 40.6492 25.6988V21.6988ZM33.5 28.8195C33.5 32.7626 36.7113 35.9402 40.6492 35.9402V31.9402C38.8995 31.9402 37.5 30.5326 37.5 28.8195H33.5ZM40.6492 35.9402C40.6768 35.9402 40.7045 35.94 40.7322 35.9397L40.6865 31.94C40.6741 31.9401 40.6616 31.9402 40.6492 31.9402V35.9402ZM42.2772 35.1816L42.2774 35.1812L39.1412 32.6984L39.141 32.6988L42.2772 35.1816ZM58.791 31.9402H40.7091V35.9402H58.791V31.9402ZM56.791 33.9398V33.9402H60.791V33.9398H56.791Z" fill="url(#paint7_linear_187_627)" mask="url(#path-8-inside-3_187_627)"/>
</g>
<g filter="url(#filter4_bdd_187_627)">
<path d="M15.2378 43.9922C15.2662 43.956 15.2877 43.9476 15.3005 43.9439C15.3193 43.9385 15.348 43.9369 15.381 43.9469C15.4141 43.9569 15.437 43.9741 15.4495 43.989C15.4581 43.9992 15.4713 44.0181 15.4746 44.0638L15.669 46.7713C15.7283 47.5973 14.9386 48.2276 14.1451 47.9876C13.3516 47.7476 13.0486 46.7867 13.5603 46.1334L15.2378 43.9922Z" fill="url(#paint8_linear_187_627)" stroke="url(#paint9_linear_187_627)" stroke-width="2"/>
<path d="M24.7671 43.9922C24.7955 43.956 24.817 43.9476 24.8298 43.9439C24.8486 43.9385 24.8773 43.9369 24.9103 43.9469C24.9434 43.9569 24.9663 43.9741 24.9788 43.989C24.9874 43.9992 25.0006 44.0181 25.0039 44.0638L25.1983 46.7713C25.2576 47.5973 24.4679 48.2276 23.6744 47.9876C22.8809 47.7476 22.5779 46.7867 23.0896 46.1334L24.7671 43.9922Z" fill="url(#paint10_linear_187_627)" stroke="url(#paint11_linear_187_627)" stroke-width="2"/>
<path d="M34.2964 43.9922C34.3248 43.956 34.3463 43.9476 34.3591 43.9439C34.3779 43.9385 34.4065 43.9369 34.4396 43.9469C34.4727 43.9569 34.4956 43.9741 34.5081 43.989C34.5167 43.9992 34.5299 44.0181 34.5332 44.0638L34.7276 46.7713C34.7869 47.5973 33.9972 48.2276 33.2037 47.9876C32.4102 47.7476 32.1072 46.7867 32.6189 46.1334L34.2964 43.9922Z" fill="url(#paint12_linear_187_627)" stroke="url(#paint13_linear_187_627)" stroke-width="2"/>
</g>
<g filter="url(#filter5_bdd_187_627)">
<path d="M18.8823 51.4932C18.9107 51.457 18.9322 51.4486 18.9451 51.4449C18.9638 51.4395 18.9925 51.4379 19.0256 51.4479C19.0586 51.4579 19.0815 51.4751 19.0941 51.49C19.1027 51.5001 19.1158 51.519 19.1191 51.5648L19.3135 54.2723C19.3728 55.0983 18.5831 55.7286 17.7896 55.4886C16.9961 55.2485 16.6931 54.2876 17.2049 53.6344L18.8823 51.4932Z" fill="url(#paint14_linear_187_627)" stroke="url(#paint15_linear_187_627)" stroke-width="2"/>
<path d="M28.4937 51.4932C28.522 51.457 28.5436 51.4486 28.5564 51.4449C28.5752 51.4395 28.6038 51.4379 28.6369 51.4479C28.67 51.4579 28.6928 51.4751 28.7054 51.49C28.714 51.5001 28.7272 51.519 28.7305 51.5648L28.9249 54.2723C28.9842 55.0983 28.1944 55.7286 27.4009 55.4886C26.6075 55.2485 26.3044 54.2876 26.8162 53.6344L28.4937 51.4932Z" fill="url(#paint16_linear_187_627)" stroke="url(#paint17_linear_187_627)" stroke-width="2"/>
</g>
</g>
<defs>
<filter id="filter0_bd_187_627" x="-64" y="-26" width="128.5" height="119.173" filterUnits="userSpaceOnUse" color-interpolation-filters="sRGB">
<feFlood flood-opacity="0" result="BackgroundImageFix"/>
<feGaussianBlur in="BackgroundImageFix" stdDeviation="7"/>
<feComposite in2="SourceAlpha" operator="in" result="effect1_backgroundBlur_187_627"/>
<feColorMatrix in="SourceAlpha" type="matrix" values="0 0 0 0 0 0 0 0 0 0 0 0 0 0 0 0 0 0 127 0" result="hardAlpha"/>
<feOffset dx="-21" dy="15"/>
<feGaussianBlur stdDeviation="25"/>
<feComposite in2="hardAlpha" operator="out"/>
<feColorMatrix type="matrix" values="0 0 0 0 0.113438 0 0 0 0 0.148981 0 0 0 0 0.275 0 0 0 0.25 0"/>
<feBlend mode="normal" in2="effect1_backgroundBlur_187_627" result="effect2_dropShadow_187_627"/>
<feBlend mode="normal" in="SourceGraphic" in2="effect2_dropShadow_187_627" result="shape"/>
</filter>
<filter id="filter1_bd_187_627" x="-57.373" y="-20.2327" width="139.436" height="126.53" filterUnits="userSpaceOnUse" color-interpolation-filters="sRGB">
<feFlood flood-opacity="0" result="BackgroundImageFix"/>
<feGaussianBlur in="BackgroundImageFix" stdDeviation="7"/>
<feComposite in2="SourceAlpha" operator="in" result="effect1_backgroundBlur_187_627"/>
<feColorMatrix in="SourceAlpha" type="matrix" values="0 0 0 0 0 0 0 0 0 0 0 0 0 0 0 0 0 0 127 0" result="hardAlpha"/>
<feOffset dx="-21" dy="15"/>
<feGaussianBlur stdDeviation="25"/>
<feComposite in2="hardAlpha" operator="out"/>
<feColorMatrix type="matrix" values="0 0 0 0 0.113725 0 0 0 0 0.14902 0 0 0 0 0.27451 0 0 0 0.25 0"/>
<feBlend mode="normal" in2="effect1_backgroundBlur_187_627" result="effect2_dropShadow_187_627"/>
<feBlend mode="normal" in="SourceGraphic" in2="effect2_dropShadow_187_627" result="shape"/>
</filter>
<filter id="filter2_bdd_187_627" x="-29.3145" y="-31.7318" width="146.994" height="149.533" filterUnits="userSpaceOnUse" color-interpolation-filters="sRGB">
<feFlood flood-opacity="0" result="BackgroundImageFix"/>
<feGaussianBlur in="BackgroundImageFix" stdDeviation="7"/>
<feComposite in2="SourceAlpha" operator="in" result="effect1_backgroundBlur_187_627"/>
<feColorMatrix in="SourceAlpha" type="matrix" values="0 0 0 0 0 0 0 0 0 0 0 0 0 0 0 0 0 0 127 0" result="hardAlpha"/>
<feOffset dx="-21" dy="15"/>
<feGaussianBlur stdDeviation="25"/>
<feComposite in2="hardAlpha" operator="out"/>
<feColorMatrix type="matrix" values="0 0 0 0 0.113438 0 0 0 0 0.148981 0 0 0 0 0.275 0 0 0 0.25 0"/>
<feBlend mode="normal" in2="effect1_backgroundBlur_187_627" result="effect2_dropShadow_187_627"/>
<feColorMatrix in="SourceAlpha" type="matrix" values="0 0 0 0 0 0 0 0 0 0 0 0 0 0 0 0 0 0 127 0" result="hardAlpha"/>
<feOffset/>
<feGaussianBlur stdDeviation="30.5"/>
<feComposite in2="hardAlpha" operator="out"/>
<feColorMatrix type="matrix" values="0 0 0 0 1 0 0 0 0 0.721569 0 0 0 0 0.00392157 0 0 0 0.49 0"/>
<feBlend mode="normal" in2="effect2_dropShadow_187_627" result="effect3_dropShadow_187_627"/>
<feBlend mode="normal" in="SourceGraphic" in2="effect3_dropShadow_187_627" result="shape"/>
</filter>
<filter id="filter3_bd_187_627" x="-35.5" y="-20.2327" width="128.5" height="119.173" filterUnits="userSpaceOnUse" color-interpolation-filters="sRGB">
<feFlood flood-opacity="0" result="BackgroundImageFix"/>
<feGaussianBlur in="BackgroundImageFix" stdDeviation="7"/>
<feComposite in2="SourceAlpha" operator="in" result="effect1_backgroundBlur_187_627"/>
<feColorMatrix in="SourceAlpha" type="matrix" values="0 0 0 0 0 0 0 0 0 0 0 0 0 0 0 0 0 0 127 0" result="hardAlpha"/>
<feOffset dx="-21" dy="15"/>
<feGaussianBlur stdDeviation="25"/>
<feComposite in2="hardAlpha" operator="out"/>
<feColorMatrix type="matrix" values="0 0 0 0 0.113438 0 0 0 0 0.148981 0 0 0 0 0.275 0 0 0 0.25 0"/>
<feBlend mode="normal" in2="effect1_backgroundBlur_187_627" result="effect2_dropShadow_187_627"/>
<feBlend mode="normal" in="SourceGraphic" in2="effect2_dropShadow_187_627" result="shape"/>
</filter>
<filter id="filter4_bdd_187_627" x="-58.6934" y="-5.05957" width="135.426" height="119.099" filterUnits="userSpaceOnUse" color-interpolation-filters="sRGB">
<feFlood flood-opacity="0" result="BackgroundImageFix"/>
<feGaussianBlur in="BackgroundImageFix" stdDeviation="7"/>
<feComposite in2="SourceAlpha" operator="in" result="effect1_backgroundBlur_187_627"/>
<feColorMatrix in="SourceAlpha" type="matrix" values="0 0 0 0 0 0 0 0 0 0 0 0 0 0 0 0 0 0 127 0" result="hardAlpha"/>
<feOffset dx="-21" dy="15"/>
<feGaussianBlur stdDeviation="25"/>
<feComposite in2="hardAlpha" operator="out"/>
<feColorMatrix type="matrix" values="0 0 0 0 0.113438 0 0 0 0 0.148981 0 0 0 0 0.275 0 0 0 0.25 0"/>
<feBlend mode="normal" in2="effect1_backgroundBlur_187_627" result="effect2_dropShadow_187_627"/>
<feColorMatrix in="SourceAlpha" type="matrix" values="0 0 0 0 0 0 0 0 0 0 0 0 0 0 0 0 0 0 127 0" result="hardAlpha"/>
<feOffset dy="-7"/>
<feGaussianBlur stdDeviation="20.5"/>
<feComposite in2="hardAlpha" operator="out"/>
<feColorMatrix type="matrix" values="0 0 0 0 0.1375 0 0 0 0 0.74125 0 0 0 0 1 0 0 0 0.3 0"/>
<feBlend mode="normal" in2="effect2_dropShadow_187_627" result="effect3_dropShadow_187_627"/>
<feBlend mode="normal" in="SourceGraphic" in2="effect3_dropShadow_187_627" result="shape"/>
</filter>
<filter id="filter5_bdd_187_627" x="-55.0488" y="2.44141" width="125.979" height="119.099" filterUnits="userSpaceOnUse" color-interpolation-filters="sRGB">
<feFlood flood-opacity="0" result="BackgroundImageFix"/>
<feGaussianBlur in="BackgroundImageFix" stdDeviation="7"/>
<feComposite in2="SourceAlpha" operator="in" result="effect1_backgroundBlur_187_627"/>
<feColorMatrix in="SourceAlpha" type="matrix" values="0 0 0 0 0 0 0 0 0 0 0 0 0 0 0 0 0 0 127 0" result="hardAlpha"/>
<feOffset dx="-21" dy="15"/>
<feGaussianBlur stdDeviation="25"/>
<feComposite in2="hardAlpha" operator="out"/>
<feColorMatrix type="matrix" values="0 0 0 0 0.113438 0 0 0 0 0.148981 0 0 0 0 0.275 0 0 0 0.25 0"/>
<feBlend mode="normal" in2="effect1_backgroundBlur_187_627" result="effect2_dropShadow_187_627"/>
<feColorMatrix in="SourceAlpha" type="matrix" values="0 0 0 0 0 0 0 0 0 0 0 0 0 0 0 0 0 0 127 0" result="hardAlpha"/>
<feOffset dy="-7"/>
<feGaussianBlur stdDeviation="20.5"/>
<feComposite in2="hardAlpha" operator="out"/>
<feColorMatrix type="matrix" values="0 0 0 0 0.1375 0 0 0 0 0.74125 0 0 0 0 1 0 0 0 0.3 0"/>
<feBlend mode="normal" in2="effect2_dropShadow_187_627" result="effect3_dropShadow_187_627"/>
<feBlend mode="normal" in="SourceGraphic" in2="effect3_dropShadow_187_627" result="shape"/>
</filter>
<linearGradient id="paint0_linear_187_627" x1="22.5756" y1="9.57674" x2="22.5756" y2="30.3393" gradientUnits="userSpaceOnUse">
<stop stop-color="white"/>
<stop offset="1" stop-color="white" stop-opacity="0"/>
</linearGradient>
<linearGradient id="paint1_linear_187_627" x1="21.25" y1="9" x2="21.25" y2="28.1729" gradientUnits="userSpaceOnUse">
<stop stop-color="white"/>
<stop offset="1" stop-color="white" stop-opacity="0"/>
</linearGradient>
<linearGradient id="paint2_linear_187_627" x1="33.345" y1="6.28107" x2="33.345" y2="45.0048" gradientUnits="userSpaceOnUse">
<stop stop-color="white"/>
<stop offset="1" stop-color="white" stop-opacity="0"/>
</linearGradient>
<linearGradient id="paint3_linear_187_627" x1="33.345" y1="14.7673" x2="33.345" y2="41.2972" gradientUnits="userSpaceOnUse">
<stop stop-color="white"/>
<stop offset="1" stop-color="white" stop-opacity="0"/>
</linearGradient>
<linearGradient id="paint4_linear_187_627" x1="51.4893" y1="31.0808" x2="47.3902" y2="48.9696" gradientUnits="userSpaceOnUse">
<stop stop-color="#FF4D00"/>
<stop offset="1" stop-color="#FFB800"/>
</linearGradient>
<linearGradient id="paint5_linear_187_627" x1="45.9384" y1="48.7125" x2="53.4093" y2="32.6145" gradientUnits="userSpaceOnUse">
<stop stop-color="white"/>
<stop offset="1" stop-color="white" stop-opacity="0"/>
</linearGradient>
<linearGradient id="paint6_linear_187_627" x1="51.0756" y1="15.3441" x2="51.0756" y2="36.1066" gradientUnits="userSpaceOnUse">
<stop stop-color="white"/>
<stop offset="1" stop-color="white" stop-opacity="0"/>
</linearGradient>
<linearGradient id="paint7_linear_187_627" x1="49.75" y1="14.7673" x2="49.75" y2="33.9402" gradientUnits="userSpaceOnUse">
<stop stop-color="white"/>
<stop offset="1" stop-color="white" stop-opacity="0"/>
</linearGradient>
<linearGradient id="paint8_linear_187_627" x1="16.2628" y1="41.064" x2="13.8769" y2="48.9512" gradientUnits="userSpaceOnUse">
<stop stop-color="#138EFF"/>
<stop offset="1" stop-color="#00E0FF"/>
</linearGradient>
<linearGradient id="paint9_linear_187_627" x1="16.2628" y1="41.064" x2="13.8769" y2="48.9512" gradientUnits="userSpaceOnUse">
<stop stop-color="white"/>
<stop offset="1" stop-color="white" stop-opacity="0"/>
</linearGradient>
<linearGradient id="paint10_linear_187_627" x1="25.7921" y1="41.064" x2="23.4062" y2="48.9512" gradientUnits="userSpaceOnUse">
<stop stop-color="#138EFF"/>
<stop offset="1" stop-color="#00E0FF"/>
</linearGradient>
<linearGradient id="paint11_linear_187_627" x1="25.7921" y1="41.064" x2="23.4062" y2="48.9512" gradientUnits="userSpaceOnUse">
<stop stop-color="white"/>
<stop offset="1" stop-color="white" stop-opacity="0"/>
</linearGradient>
<linearGradient id="paint12_linear_187_627" x1="35.3214" y1="41.064" x2="32.9355" y2="48.9512" gradientUnits="userSpaceOnUse">
<stop stop-color="#138EFF"/>
<stop offset="1" stop-color="#00E0FF"/>
</linearGradient>
<linearGradient id="paint13_linear_187_627" x1="35.3214" y1="41.064" x2="32.9355" y2="48.9512" gradientUnits="userSpaceOnUse">
<stop stop-color="white"/>
<stop offset="1" stop-color="white" stop-opacity="0"/>
</linearGradient>
<linearGradient id="paint14_linear_187_627" x1="19.9073" y1="48.565" x2="17.5215" y2="56.4522" gradientUnits="userSpaceOnUse">
<stop stop-color="#138EFF"/>
<stop offset="1" stop-color="#00E0FF"/>
</linearGradient>
<linearGradient id="paint15_linear_187_627" x1="19.9073" y1="48.565" x2="17.5215" y2="56.4522" gradientUnits="userSpaceOnUse">
<stop stop-color="white"/>
<stop offset="1" stop-color="white" stop-opacity="0"/>
</linearGradient>
<linearGradient id="paint16_linear_187_627" x1="29.5187" y1="48.565" x2="27.1328" y2="56.4522" gradientUnits="userSpaceOnUse">
<stop stop-color="#138EFF"/>
<stop offset="1" stop-color="#00E0FF"/>
</linearGradient>
<linearGradient id="paint17_linear_187_627" x1="29.5187" y1="48.565" x2="27.1328" y2="56.4522" gradientUnits="userSpaceOnUse">
<stop stop-color="white"/>
<stop offset="1" stop-color="white" stop-opacity="0"/>
</linearGradient>
<clipPath id="clip0_187_627">
<rect width="70" height="70" rx="10" fill="white"/>
</clipPath>
</defs>
</svg>
