<svg width="70" height="70" viewBox="0 0 70 70" fill="none" xmlns="http://www.w3.org/2000/svg">
<g clip-path="url(#clip0_187_710)">
<rect width="70" height="70" rx="10" fill="#5F90CF"/>
<g filter="url(#filter0_bdd_187_710)">
<mask id="path-2-inside-1_187_710" fill="white">
<path d="M52 35.5C52 45.165 44.165 53 34.5 53C24.835 53 17 45.165 17 35.5C17 25.835 24.835 18 34.5 18C44.165 18 52 25.835 52 35.5Z"/>
</mask>
<path d="M52 35.5C52 45.165 44.165 53 34.5 53C24.835 53 17 45.165 17 35.5C17 25.835 24.835 18 34.5 18C44.165 18 52 25.835 52 35.5Z" fill="url(#paint0_linear_187_710)"/>
<path d="M50 35.5C50 44.0604 43.0604 51 34.5 51V55C45.2696 55 54 46.2696 54 35.5H50ZM34.5 51C25.9396 51 19 44.0604 19 35.5H15C15 46.2696 23.7304 55 34.5 55V51ZM19 35.5C19 26.9396 25.9396 20 34.5 20V16C23.7304 16 15 24.7304 15 35.5H19ZM34.5 20C43.0604 20 50 26.9396 50 35.5H54C54 24.7304 45.2696 16 34.5 16V20Z" fill="url(#paint1_linear_187_710)" mask="url(#path-2-inside-1_187_710)"/>
</g>
</g>
<defs>
<filter id="filter0_bdd_187_710" x="-54" y="-20" width="144" height="138" filterUnits="userSpaceOnUse" color-interpolation-filters="sRGB">
<feFlood flood-opacity="0" result="BackgroundImageFix"/>
<feGaussianBlur in="BackgroundImageFix" stdDeviation="7"/>
<feComposite in2="SourceAlpha" operator="in" result="effect1_backgroundBlur_187_710"/>
<feColorMatrix in="SourceAlpha" type="matrix" values="0 0 0 0 0 0 0 0 0 0 0 0 0 0 0 0 0 0 127 0" result="hardAlpha"/>
<feOffset dx="-21" dy="15"/>
<feGaussianBlur stdDeviation="25"/>
<feComposite in2="hardAlpha" operator="out"/>
<feColorMatrix type="matrix" values="0 0 0 0 0.113438 0 0 0 0 0.148981 0 0 0 0 0.275 0 0 0 0.25 0"/>
<feBlend mode="normal" in2="effect1_backgroundBlur_187_710" result="effect2_dropShadow_187_710"/>
<feColorMatrix in="SourceAlpha" type="matrix" values="0 0 0 0 0 0 0 0 0 0 0 0 0 0 0 0 0 0 127 0" result="hardAlpha"/>
<feOffset/>
<feGaussianBlur stdDeviation="19"/>
<feComposite in2="hardAlpha" operator="out"/>
<feColorMatrix type="matrix" values="0 0 0 0 0.619608 0 0 0 0 0.423529 0 0 0 0 1 0 0 0 0.4 0"/>
<feBlend mode="normal" in2="effect2_dropShadow_187_710" result="effect3_dropShadow_187_710"/>
<feBlend mode="normal" in="SourceGraphic" in2="effect3_dropShadow_187_710" result="shape"/>
</filter>
<linearGradient id="paint0_linear_187_710" x1="33.7053" y1="18.3083" x2="33.7053" y2="53.3083" gradientUnits="userSpaceOnUse">
<stop offset="0.0001" stop-color="#DECFFF"/>
<stop offset="1" stop-color="#7E2FFF"/>
</linearGradient>
<linearGradient id="paint1_linear_187_710" x1="45.1714" y1="3.88678" x2="36.9836" y2="45.519" gradientUnits="userSpaceOnUse">
<stop stop-color="white"/>
<stop offset="1" stop-color="white" stop-opacity="0"/>
</linearGradient>
<clipPath id="clip0_187_710">
<rect width="70" height="70" rx="10" fill="white"/>
</clipPath>
</defs>
</svg>
