<svg width="70" height="70" viewBox="0 0 70 70" fill="none" xmlns="http://www.w3.org/2000/svg">
<g clip-path="url(#clip0_187_709)">
<rect width="70" height="70" rx="10" fill="#5F90CF"/>
<g filter="url(#filter0_bdd_187_709)">
<mask id="path-2-inside-1_187_709" fill="white">
<path fill-rule="evenodd" clip-rule="evenodd" d="M42.7796 13.4291C43.6393 13.2794 44.1601 14.2971 43.7042 15.0419C41.2424 19.0632 40.8746 24.2348 43.1854 28.7335C46.2577 34.7149 53.0499 37.5306 59.2821 35.8078C60.124 35.5751 60.9574 36.3588 60.5751 37.1447C59.0553 40.2689 56.5504 42.9461 53.2262 44.6584C45.0517 48.869 35.0188 45.6509 30.8171 37.4706C26.6153 29.2903 29.8357 19.2455 38.0101 15.0349C39.5511 14.2412 41.1581 13.7114 42.7796 13.4291Z"/>
</mask>
<path fill-rule="evenodd" clip-rule="evenodd" d="M42.7796 13.4291C43.6393 13.2794 44.1601 14.2971 43.7042 15.0419C41.2424 19.0632 40.8746 24.2348 43.1854 28.7335C46.2577 34.7149 53.0499 37.5306 59.2821 35.8078C60.124 35.5751 60.9574 36.3588 60.5751 37.1447C59.0553 40.2689 56.5504 42.9461 53.2262 44.6584C45.0517 48.869 35.0188 45.6509 30.8171 37.4706C26.6153 29.2903 29.8357 19.2455 38.0101 15.0349C39.5511 14.2412 41.1581 13.7114 42.7796 13.4291Z" fill="url(#paint0_linear_187_709)"/>
<path d="M43.1854 28.7335L41.4072 29.649L41.4072 29.649L43.1854 28.7335ZM53.2262 44.6584L52.312 42.8795L53.2262 44.6584ZM30.8171 37.4706L29.0389 38.3862L30.8171 37.4706ZM38.0101 15.0349L38.9242 16.8138L38.0101 15.0349ZM59.2821 35.8078L58.7509 33.8793L59.2821 35.8078ZM60.5751 37.1447L62.3725 38.0197L60.5751 37.1447ZM42.7796 13.4291L43.1212 15.4003L42.7796 13.4291ZM44.9635 27.818C42.9849 23.966 43.2965 19.5367 45.4088 16.0864L41.9997 13.9973C39.1883 18.5896 38.7643 24.5036 41.4072 29.649L44.9635 27.818ZM58.7509 33.8793C53.413 35.3548 47.5945 32.9401 44.9635 27.818L41.4072 29.649C44.9209 36.4896 52.6868 39.7063 59.8134 37.7364L58.7509 33.8793ZM58.7776 36.2698C57.4405 39.0186 55.2389 41.3718 52.312 42.8795L54.1403 46.4372C57.8618 44.5203 60.6702 41.5193 62.3725 38.0197L58.7776 36.2698ZM52.312 42.8795C45.1199 46.5841 36.2924 43.753 32.5952 36.5551L29.0389 38.3862C33.7453 47.5489 44.9836 51.1538 54.1403 46.4372L52.312 42.8795ZM32.5952 36.5551C28.8979 29.357 31.7319 20.5185 38.9242 16.8138L37.096 13.256C27.9395 17.9725 24.3326 29.2237 29.0389 38.3862L32.5952 36.5551ZM38.9242 16.8138C40.2831 16.1138 41.6968 15.6482 43.1212 15.4003L42.4381 11.4579C40.6194 11.7745 38.8191 12.3685 37.096 13.256L38.9242 16.8138ZM59.8134 37.7364C59.5 37.823 59.1875 37.7228 58.9761 37.5119C58.863 37.3991 58.7458 37.2225 58.6955 36.9804C58.6417 36.7218 58.6817 36.467 58.7776 36.2698L62.3725 38.0197C62.991 36.7481 62.5783 35.4536 61.7993 34.6767C61.0563 33.9357 59.9061 33.5599 58.7509 33.8793L59.8134 37.7364ZM45.4088 16.0864C46.0345 15.0642 45.9924 13.8547 45.4872 12.9352C44.9574 11.971 43.8296 11.2157 42.4381 11.4579L43.1212 15.4003C42.9051 15.4379 42.6493 15.4057 42.416 15.2823C42.1974 15.1667 42.0603 15.005 41.9834 14.865C41.8395 14.6031 41.8298 14.2747 41.9997 13.9973L45.4088 16.0864Z" fill="url(#paint1_linear_187_709)" mask="url(#path-2-inside-1_187_709)"/>
</g>
<g filter="url(#filter1_bd_187_709)">
<mask id="path-4-inside-2_187_709" fill="white">
<path fill-rule="evenodd" clip-rule="evenodd" d="M43.2265 58.9994C43.2576 58.9997 43.2887 58.9999 43.3198 58.9999C47.743 58.9999 51.3288 55.4099 51.3288 50.9814C51.3288 46.5529 47.743 42.9629 43.3198 42.9629C43.2887 42.9629 43.2576 42.9631 43.2265 42.9634V42.9629H41.1576C41.2323 42.4141 41.2709 41.8538 41.2709 41.2845C41.2709 34.4873 35.7672 28.9771 28.9781 28.9771C22.1889 28.9771 16.6852 34.4873 16.6852 41.2845C16.6852 41.9259 16.7342 42.5558 16.8287 43.1708C16.2441 43.0348 15.6349 42.9629 15.009 42.9629C10.5857 42.9629 7 46.5529 7 50.9814C7 55.4099 10.5857 58.9999 15.009 58.9999C15.0402 58.9999 15.0713 58.9997 15.1024 58.9994L15.102 58.9999H43.2265V58.9994Z"/>
</mask>
<path fill-rule="evenodd" clip-rule="evenodd" d="M43.2265 58.9994C43.2576 58.9997 43.2887 58.9999 43.3198 58.9999C47.743 58.9999 51.3288 55.4099 51.3288 50.9814C51.3288 46.5529 47.743 42.9629 43.3198 42.9629C43.2887 42.9629 43.2576 42.9631 43.2265 42.9634V42.9629H41.1576C41.2323 42.4141 41.2709 41.8538 41.2709 41.2845C41.2709 34.4873 35.7672 28.9771 28.9781 28.9771C22.1889 28.9771 16.6852 34.4873 16.6852 41.2845C16.6852 41.9259 16.7342 42.5558 16.8287 43.1708C16.2441 43.0348 15.6349 42.9629 15.009 42.9629C10.5857 42.9629 7 46.5529 7 50.9814C7 55.4099 10.5857 58.9999 15.009 58.9999C15.0402 58.9999 15.0713 58.9997 15.1024 58.9994L15.102 58.9999H43.2265V58.9994Z" fill="url(#paint2_linear_187_709)" shape-rendering="crispEdges"/>
<path d="M43.2265 58.9994L43.2493 56.9995C42.715 56.9934 42.2004 57.2014 41.8204 57.5771C41.4403 57.9528 41.2265 58.465 41.2265 58.9994H43.2265ZM43.2265 42.9634H41.2265C41.2265 43.4978 41.4403 44.01 41.8204 44.3857C42.2004 44.7614 42.715 44.9694 43.2493 44.9633L43.2265 42.9634ZM43.2265 42.9629H45.2265C45.2265 41.8583 44.3311 40.9629 43.2265 40.9629V42.9629ZM41.1576 42.9629L39.1759 42.693C39.0979 43.2652 39.2711 43.8432 39.6509 44.2782C40.0307 44.7133 40.5801 44.9629 41.1576 44.9629V42.9629ZM16.8287 43.1708L16.3756 45.1188C17.0221 45.2692 17.7012 45.089 18.1881 44.6378C18.675 44.1866 18.9063 43.5232 18.8055 42.8671L16.8287 43.1708ZM15.1024 58.9994L16.6737 60.2367C17.1502 59.6316 17.2369 58.8067 16.8966 58.1158C16.5564 57.4248 15.8496 56.9907 15.0795 56.9995L15.1024 58.9994ZM15.102 58.9999L13.5307 57.7625C13.0568 58.3643 12.9682 59.184 13.3027 59.8732C13.6372 60.5623 14.3359 60.9999 15.102 60.9999V58.9999ZM43.2265 58.9999V60.9999C44.3311 60.9999 45.2265 60.1045 45.2265 58.9999H43.2265ZM43.2036 60.9992C43.2423 60.9997 43.281 60.9999 43.3198 60.9999V56.9999C43.2963 56.9999 43.2728 56.9998 43.2493 56.9995L43.2036 60.9992ZM43.3198 60.9999C48.8499 60.9999 53.3288 56.5122 53.3288 50.9814H49.3288C49.3288 54.3076 46.6362 56.9999 43.3198 56.9999V60.9999ZM53.3288 50.9814C53.3288 45.4506 48.8499 40.9629 43.3198 40.9629V44.9629C46.6362 44.9629 49.3288 47.6552 49.3288 50.9814H53.3288ZM43.3198 40.9629C43.281 40.9629 43.2423 40.9631 43.2036 40.9636L43.2493 44.9633C43.2728 44.963 43.2963 44.9629 43.3198 44.9629V40.9629ZM41.2265 42.9629V42.9634H45.2265V42.9629H41.2265ZM41.1576 44.9629H43.2265V40.9629H41.1576V44.9629ZM43.1393 43.2328C43.2262 42.5948 43.2709 41.9443 43.2709 41.2845H39.2709C39.2709 41.7633 39.2384 42.2334 39.1759 42.693L43.1393 43.2328ZM43.2709 41.2845C43.2709 33.385 36.874 26.9771 28.9781 26.9771V30.9771C34.6604 30.9771 39.2709 35.5896 39.2709 41.2845H43.2709ZM28.9781 26.9771C21.0821 26.9771 14.6852 33.385 14.6852 41.2845H18.6852C18.6852 35.5896 23.2957 30.9771 28.9781 30.9771V26.9771ZM14.6852 41.2845C14.6852 42.0279 14.742 42.7594 14.8519 43.4745L18.8055 42.8671C18.7264 42.3523 18.6852 41.8239 18.6852 41.2845H14.6852ZM17.2818 41.2228C16.5497 41.0525 15.7885 40.9629 15.009 40.9629V44.9629C15.4813 44.9629 15.9385 45.0171 16.3756 45.1188L17.2818 41.2228ZM15.009 40.9629C9.47894 40.9629 5 45.4506 5 50.9814H9C9 47.6552 11.6926 44.9629 15.009 44.9629V40.9629ZM5 50.9814C5 56.5122 9.47894 60.9999 15.009 60.9999V56.9999C11.6926 56.9999 9 54.3076 9 50.9814H5ZM15.009 60.9999C15.0477 60.9999 15.0865 60.9997 15.1253 60.9992L15.0795 56.9995C15.0561 56.9998 15.0326 56.9999 15.009 56.9999V60.9999ZM16.6733 60.2373L16.6737 60.2367L13.5311 57.762L13.5307 57.7625L16.6733 60.2373ZM43.2265 56.9999H15.102V60.9999H43.2265V56.9999ZM41.2265 58.9994V58.9999H45.2265V58.9994H41.2265Z" fill="url(#paint3_linear_187_709)" mask="url(#path-4-inside-2_187_709)"/>
</g>
</g>
<defs>
<filter id="filter0_bdd_187_709" x="-42.0273" y="-24.5857" width="140.697" height="136.094" filterUnits="userSpaceOnUse" color-interpolation-filters="sRGB">
<feFlood flood-opacity="0" result="BackgroundImageFix"/>
<feGaussianBlur in="BackgroundImageFix" stdDeviation="7"/>
<feComposite in2="SourceAlpha" operator="in" result="effect1_backgroundBlur_187_709"/>
<feColorMatrix in="SourceAlpha" type="matrix" values="0 0 0 0 0 0 0 0 0 0 0 0 0 0 0 0 0 0 127 0" result="hardAlpha"/>
<feOffset dx="-21" dy="15"/>
<feGaussianBlur stdDeviation="25"/>
<feComposite in2="hardAlpha" operator="out"/>
<feColorMatrix type="matrix" values="0 0 0 0 0.113438 0 0 0 0 0.148981 0 0 0 0 0.275 0 0 0 0.25 0"/>
<feBlend mode="normal" in2="effect1_backgroundBlur_187_709" result="effect2_dropShadow_187_709"/>
<feColorMatrix in="SourceAlpha" type="matrix" values="0 0 0 0 0 0 0 0 0 0 0 0 0 0 0 0 0 0 127 0" result="hardAlpha"/>
<feOffset/>
<feGaussianBlur stdDeviation="19"/>
<feComposite in2="hardAlpha" operator="out"/>
<feColorMatrix type="matrix" values="0 0 0 0 0.619608 0 0 0 0 0.423529 0 0 0 0 1 0 0 0 0.4 0"/>
<feBlend mode="normal" in2="effect2_dropShadow_187_709" result="effect3_dropShadow_187_709"/>
<feBlend mode="normal" in="SourceGraphic" in2="effect3_dropShadow_187_709" result="shape"/>
</filter>
<filter id="filter1_bd_187_709" x="-64" y="-6.02295" width="144.328" height="130.023" filterUnits="userSpaceOnUse" color-interpolation-filters="sRGB">
<feFlood flood-opacity="0" result="BackgroundImageFix"/>
<feGaussianBlur in="BackgroundImageFix" stdDeviation="7"/>
<feComposite in2="SourceAlpha" operator="in" result="effect1_backgroundBlur_187_709"/>
<feColorMatrix in="SourceAlpha" type="matrix" values="0 0 0 0 0 0 0 0 0 0 0 0 0 0 0 0 0 0 127 0" result="hardAlpha"/>
<feOffset dx="-21" dy="15"/>
<feGaussianBlur stdDeviation="25"/>
<feComposite in2="hardAlpha" operator="out"/>
<feColorMatrix type="matrix" values="0 0 0 0 0.113438 0 0 0 0 0.148981 0 0 0 0 0.275 0 0 0 0.25 0"/>
<feBlend mode="normal" in2="effect1_backgroundBlur_187_709" result="effect2_dropShadow_187_709"/>
<feBlend mode="normal" in="SourceGraphic" in2="effect2_dropShadow_187_709" result="shape"/>
</filter>
<linearGradient id="paint0_linear_187_709" x1="34.7899" y1="17.0232" x2="50.0372" y2="46.6306" gradientUnits="userSpaceOnUse">
<stop offset="0.0001" stop-color="#D4C0FF"/>
<stop offset="1" stop-color="#7E2FFF"/>
</linearGradient>
<linearGradient id="paint1_linear_187_709" x1="36.3774" y1="0.770774" x2="45.7814" y2="39.6426" gradientUnits="userSpaceOnUse">
<stop stop-color="white"/>
<stop offset="1" stop-color="white" stop-opacity="0"/>
</linearGradient>
<linearGradient id="paint2_linear_187_709" x1="31.2262" y1="29.8802" x2="31.2262" y2="62.3922" gradientUnits="userSpaceOnUse">
<stop stop-color="white"/>
<stop offset="1" stop-color="white" stop-opacity="0"/>
</linearGradient>
<linearGradient id="paint3_linear_187_709" x1="29.1644" y1="28.9771" x2="29.1644" y2="58.9998" gradientUnits="userSpaceOnUse">
<stop stop-color="white"/>
<stop offset="1" stop-color="white" stop-opacity="0"/>
</linearGradient>
<clipPath id="clip0_187_709">
<rect width="70" height="70" rx="10" fill="white"/>
</clipPath>
</defs>
</svg>
